<svg width="529" height="529" viewBox="0 0 529 529" fill="none" xmlns="http://www.w3.org/2000/svg">
<g clip-path="url(#clip0_741_7028)">
<path d="M146.402 205.647C146.402 205.647 124.526 190.188 130.395 157.525C134.652 133.83 154.228 127.719 170.124 105.462C170.124 105.462 180.321 55.8357 220.612 69.8791C229.2 66.9952 280.297 60.5472 249.592 113.896C249.592 113.896 248.172 124.885 248.816 136.075C249.998 156.595 251.473 199.685 221.582 211.27C204.936 217.721 146.402 205.647 146.402 205.647Z" fill="#92ACEF"/>
<path d="M206.394 213.599C198.89 213.599 189.305 212.831 177.694 211.294C161.156 209.105 146.463 206.088 146.316 206.058L146.23 206.04L146.159 205.99C146.103 205.951 140.563 201.982 135.836 194.049C133.063 189.394 131.102 184.3 130.008 178.907C128.642 172.173 128.633 164.954 129.981 157.451C132.642 142.636 141.212 134.654 151.135 125.411C157.034 119.916 163.719 113.69 169.731 105.289C169.903 104.503 171.243 98.6263 174.396 91.7903C177.516 85.0259 183.103 75.9025 191.999 70.8527C200.214 66.1892 209.842 65.7128 220.615 69.436C223.302 68.5676 229.982 67.3445 237.043 67.6324C243.193 67.8833 251.502 69.3751 256.157 75.0565C262.491 82.7871 260.418 95.8998 249.997 114.032C249.87 115.062 248.629 125.534 249.235 136.051C249.955 148.565 250.284 163.23 247.261 177.112C243.37 194.98 234.781 206.604 221.733 211.661C218.4 212.953 213.271 213.599 206.394 213.599L206.394 213.599ZM146.575 205.254C149.174 205.783 205.387 217.096 221.43 210.879C252.019 199.023 249.387 153.309 248.397 136.099C247.758 124.998 249.161 113.952 249.175 113.842L249.186 113.759L249.227 113.687C254.716 104.15 257.9 95.946 258.691 89.3016C259.369 83.6085 258.298 78.9947 255.507 75.5889C247.207 65.4586 226.004 68.5112 220.745 70.2774L220.609 70.323L220.473 70.2757C209.886 66.5854 200.446 67.0246 192.417 71.5811C183.719 76.5169 178.236 85.4759 175.168 92.1225C171.831 99.3501 170.548 105.486 170.535 105.547L170.517 105.634L170.465 105.707C164.391 114.212 157.653 120.488 151.708 126.025C141.895 135.166 133.42 143.06 130.807 157.6C127.802 174.325 132.265 186.4 136.537 193.585C140.888 200.901 145.93 204.776 146.575 205.254L146.575 205.254Z" fill="black"/>
<path d="M215.457 72.0212C215.36 72.0213 215.266 71.9879 215.191 71.9267C215.116 71.8655 215.064 71.7802 215.045 71.6853C215.026 71.5903 215.04 71.4916 215.085 71.4059C215.13 71.3202 215.203 71.2527 215.293 71.2149C217.501 70.2763 220.382 69.5058 220.503 69.4734C220.611 69.4448 220.726 69.4601 220.822 69.5159C220.918 69.5717 220.988 69.6635 221.017 69.7711C221.046 69.8787 221.03 69.9933 220.975 70.0896C220.919 70.1859 220.827 70.2561 220.719 70.2847C220.69 70.2925 217.774 71.0727 215.621 71.9874C215.567 72.0102 215.512 72.021 215.457 72.021V72.0212ZM242.452 132.978C242.346 132.978 242.245 132.938 242.167 132.866C242.09 132.795 242.042 132.697 242.034 132.592C241.471 125.627 248.874 114.233 249.189 113.752C249.251 113.659 249.346 113.594 249.455 113.572C249.563 113.55 249.677 113.571 249.77 113.632C249.863 113.693 249.928 113.788 249.95 113.897C249.973 114.005 249.952 114.119 249.892 114.212C249.816 114.327 242.331 125.846 242.871 132.524C242.875 132.582 242.868 132.64 242.849 132.695C242.83 132.75 242.8 132.8 242.761 132.843C242.721 132.885 242.673 132.919 242.62 132.943C242.567 132.966 242.51 132.978 242.452 132.978L242.452 132.978ZM165.158 121.548C165.082 121.548 165.007 121.527 164.942 121.488C164.877 121.449 164.824 121.393 164.788 121.326C164.752 121.259 164.735 121.183 164.739 121.107C164.743 121.032 164.767 120.958 164.809 120.895C168.045 116.061 169.702 105.504 169.718 105.398C169.735 105.288 169.795 105.189 169.885 105.123C169.975 105.057 170.087 105.03 170.197 105.047C170.307 105.064 170.406 105.124 170.472 105.214C170.538 105.304 170.565 105.416 170.548 105.526C170.48 105.966 168.846 116.372 165.507 121.362C165.469 121.419 165.417 121.466 165.356 121.499C165.295 121.531 165.227 121.548 165.158 121.548V121.548Z" fill="#161616"/>
<path d="M150.149 197.936C145.31 230.435 157.756 275.44 166.519 309.938C163.562 342.688 149.792 370.538 150.967 424.098C178.875 441.061 193.119 446.031 219.231 426.015C219.231 426.015 228.247 365.936 218.727 293.205C209.827 225.206 199.359 190.661 190.683 170.47C190.683 170.47 155.822 159.834 150.149 197.936Z" fill="#6F5490"/>
<path d="M188.585 439.461C187.638 439.461 186.69 439.421 185.737 439.342C175.558 438.492 165.2 433.241 150.749 424.457C150.689 424.42 150.639 424.369 150.604 424.308C150.569 424.247 150.549 424.178 150.548 424.108C149.801 390.065 155.11 366.269 159.794 345.274C162.477 333.246 165.012 321.884 166.094 309.972C165.521 307.718 164.933 305.42 164.335 303.083C155.811 269.771 145.202 228.313 149.733 197.874C151.509 185.946 156.311 177.527 164.007 172.85C170.646 168.816 178.141 168.42 183.26 168.799C185.566 168.97 187.491 169.305 188.699 169.556C189.385 169.698 189.918 169.829 190.245 169.914C190.86 170.074 191.059 170.126 191.096 170.368C202.69 197.381 211.865 237.545 219.143 293.151C224.065 330.752 223.94 364.887 222.968 386.903C221.915 410.76 219.669 425.926 219.646 426.077C219.63 426.184 219.573 426.282 219.486 426.348C212.909 431.39 207.066 434.853 201.623 436.937C197.206 438.628 192.914 439.461 188.585 439.461ZM151.382 423.859C165.623 432.506 175.839 437.673 185.807 438.505C196.162 439.369 206.049 435.564 218.84 425.785C219.087 424.068 221.139 409.326 222.13 386.852C223.099 364.873 223.223 330.794 218.311 293.26C211.053 237.813 201.915 197.759 190.375 170.819C189.563 170.594 186.156 169.719 181.685 169.552C176.99 169.378 170.125 169.973 164.074 173.796C156.818 178.382 152.272 186.525 150.564 197.997L150.149 197.936L150.564 197.997C146.057 228.269 156.643 269.636 165.149 302.876C165.753 305.237 166.347 307.559 166.925 309.835C166.937 309.881 166.941 309.929 166.937 309.976C165.854 321.968 163.308 333.378 160.613 345.457C155.95 366.358 150.666 390.041 151.382 423.859Z" fill="black"/>
<path d="M257.027 469.479L157.258 469.483C157.258 469.483 147.357 438.79 152.059 393.457C152.059 393.457 179.431 393.624 222.086 393.289C221.956 393.722 221.582 407.881 220.07 429.037C229.81 428.365 257.015 431.052 257.027 469.479Z" fill="white"/>
<path d="M153.905 457.076L157.258 469.483L257.026 469.479L255.347 457.222L153.905 457.076Z" fill="#FF6996"/>
<path d="M255.294 457.197L154.409 457.076L255.294 457.197Z" fill="#92ACEF"/>
<path d="M255.294 457.617H255.293L154.409 457.496C154.297 457.496 154.191 457.452 154.112 457.373C154.033 457.294 153.989 457.187 153.989 457.076C153.989 456.965 154.034 456.858 154.112 456.779C154.191 456.701 154.298 456.656 154.409 456.656H154.41L255.294 456.777C255.405 456.777 255.512 456.821 255.591 456.9C255.67 456.979 255.714 457.086 255.714 457.197C255.714 457.308 255.669 457.415 255.59 457.494C255.512 457.572 255.405 457.617 255.294 457.617ZM212.849 431.136C212.752 431.136 212.658 431.102 212.583 431.041C212.508 430.98 212.457 430.894 212.438 430.799C212.418 430.704 212.433 430.605 212.478 430.52C212.523 430.434 212.597 430.367 212.686 430.329C212.819 430.273 215.985 428.956 220.035 428.619C220.09 428.614 220.145 428.62 220.198 428.637C220.25 428.654 220.299 428.681 220.341 428.717C220.383 428.752 220.418 428.796 220.443 428.845C220.469 428.894 220.484 428.947 220.488 429.002C220.493 429.057 220.487 429.112 220.47 429.165C220.453 429.217 220.426 429.266 220.391 429.308C220.355 429.35 220.311 429.385 220.262 429.41C220.213 429.435 220.16 429.451 220.105 429.455C216.194 429.781 213.043 431.09 213.012 431.103C212.96 431.125 212.905 431.136 212.849 431.136V431.136Z" fill="black"/>
<path d="M169.024 469.902C168.913 469.902 168.806 469.858 168.727 469.779C168.649 469.701 168.604 469.594 168.604 469.483V457.197C168.604 457.085 168.649 456.979 168.727 456.9C168.806 456.821 168.913 456.777 169.024 456.777C169.136 456.777 169.242 456.821 169.321 456.9C169.4 456.979 169.444 457.085 169.444 457.197V469.483C169.444 469.594 169.4 469.701 169.321 469.779C169.242 469.858 169.136 469.902 169.024 469.902Z" fill="black"/>
<path d="M178.028 457.197L178.1 469.479L178.028 457.197Z" fill="#92ACEF"/>
<path d="M178.1 469.898C177.989 469.898 177.882 469.855 177.804 469.776C177.725 469.698 177.68 469.592 177.68 469.481L177.608 457.199C177.608 457.144 177.619 457.09 177.639 457.038C177.66 456.987 177.691 456.941 177.73 456.902C177.768 456.863 177.814 456.831 177.865 456.81C177.916 456.789 177.971 456.777 178.026 456.777C178.263 456.77 178.447 456.962 178.448 457.194L178.519 469.476C178.52 469.531 178.509 469.586 178.488 469.637C178.468 469.688 178.437 469.735 178.398 469.774C178.359 469.813 178.313 469.844 178.263 469.866C178.212 469.887 178.157 469.898 178.102 469.898H178.1ZM187.293 469.902C187.181 469.902 187.075 469.857 186.996 469.779C186.917 469.7 186.873 469.593 186.873 469.482V457.197C186.873 457.085 186.917 456.979 186.996 456.9C187.075 456.821 187.181 456.777 187.293 456.777C187.404 456.777 187.511 456.821 187.59 456.9C187.668 456.979 187.713 457.085 187.713 457.197V469.482C187.713 469.593 187.668 469.7 187.59 469.779C187.511 469.857 187.404 469.902 187.293 469.902Z" fill="black"/>
<path d="M213.609 457.197L213.533 469.479L213.609 457.197Z" fill="#92ACEF"/>
<path d="M213.533 469.898H213.53C213.419 469.898 213.313 469.853 213.234 469.774C213.156 469.694 213.113 469.587 213.113 469.476L213.189 457.194C213.19 457.083 213.235 456.977 213.313 456.899C213.392 456.821 213.498 456.777 213.609 456.777H213.612C213.723 456.778 213.83 456.823 213.908 456.902C213.986 456.981 214.03 457.088 214.029 457.199L213.953 469.481C213.952 469.592 213.908 469.698 213.829 469.776C213.75 469.855 213.644 469.898 213.533 469.898ZM223.178 469.059C223.067 469.059 222.96 469.015 222.882 468.936C222.803 468.857 222.759 468.75 222.759 468.639V457.197C222.759 457.085 222.803 456.979 222.882 456.9C222.96 456.821 223.067 456.777 223.178 456.777C223.29 456.777 223.396 456.821 223.475 456.9C223.554 456.979 223.598 457.085 223.598 457.197V468.639C223.598 468.75 223.554 468.857 223.475 468.936C223.396 469.015 223.29 469.059 223.178 469.059ZM229.822 469.9C229.711 469.9 229.604 469.856 229.525 469.777C229.447 469.698 229.403 469.592 229.403 469.48V457.197C229.403 457.085 229.447 456.979 229.525 456.9C229.604 456.821 229.711 456.777 229.822 456.777C229.934 456.777 230.04 456.821 230.119 456.9C230.198 456.979 230.242 457.085 230.242 457.197V469.48C230.242 469.592 230.198 469.698 230.119 469.777C230.04 469.856 229.934 469.9 229.822 469.9Z" fill="black"/>
<path d="M245.69 457.197L245.607 469.479L245.69 457.197Z" fill="#92ACEF"/>
<path d="M245.607 469.898H245.604C245.549 469.898 245.495 469.887 245.444 469.865C245.393 469.844 245.347 469.813 245.308 469.774C245.27 469.734 245.239 469.688 245.218 469.637C245.198 469.586 245.187 469.531 245.188 469.476L245.27 457.194C245.271 457.083 245.315 456.977 245.394 456.899C245.472 456.821 245.579 456.777 245.69 456.777H245.692C245.748 456.777 245.802 456.789 245.853 456.81C245.904 456.831 245.95 456.863 245.989 456.902C246.027 456.941 246.058 456.988 246.079 457.039C246.099 457.09 246.11 457.145 246.109 457.2L246.027 469.482C246.026 469.592 245.982 469.698 245.903 469.777C245.825 469.855 245.718 469.898 245.607 469.898Z" fill="black"/>
<path d="M164.065 412.751C166.801 412.751 169.019 410.533 169.019 407.797C169.019 405.062 166.801 402.844 164.065 402.844C161.329 402.844 159.111 405.062 159.111 407.797C159.111 410.533 161.329 412.751 164.065 412.751Z" fill="#FF6996"/>
<path d="M164.065 413.17C161.102 413.17 158.691 410.76 158.691 407.797C158.691 404.835 161.102 402.425 164.065 402.425C167.028 402.425 169.439 404.835 169.439 407.797C169.439 410.76 167.028 413.17 164.065 413.17ZM164.065 403.264C161.565 403.264 159.531 405.298 159.531 407.797C159.531 410.297 161.565 412.331 164.065 412.331C166.565 412.331 168.599 410.297 168.599 407.797C168.599 405.298 166.565 403.264 164.065 403.264Z" fill="black"/>
<path d="M157.258 469.903C157.169 469.903 157.083 469.875 157.011 469.823C156.939 469.77 156.886 469.697 156.858 469.612C156.833 469.532 154.245 461.435 152.311 448.047C150.528 435.698 148.95 416.18 151.557 393.325C151.569 393.223 151.618 393.128 151.695 393.059C151.772 392.991 151.871 392.953 151.974 392.953H222.169C222.233 392.953 222.296 392.967 222.353 392.995C222.41 393.023 222.46 393.063 222.5 393.113C222.539 393.163 222.566 393.222 222.58 393.284C222.593 393.346 222.592 393.41 222.577 393.472C222.547 393.664 222.494 394.919 222.422 396.65C222.194 402.117 221.721 413.43 220.527 428.584C230.033 427.995 239.19 431.102 245.712 437.149C249.348 440.52 252.186 444.783 254.149 449.821C256.334 455.431 257.443 462.045 257.446 469.478C257.446 469.533 257.435 469.588 257.414 469.639C257.393 469.69 257.362 469.736 257.323 469.775C257.284 469.814 257.238 469.845 257.187 469.866C257.136 469.887 257.081 469.898 257.026 469.898L157.258 469.903L157.258 469.903ZM152.349 393.792C149.812 416.388 151.375 435.676 153.139 447.904C154.858 459.816 157.094 467.509 157.567 469.064L256.605 469.059C256.524 455.269 252.668 444.743 245.142 437.765C238.678 431.773 229.552 428.744 220.101 429.455C219.979 429.465 219.859 429.42 219.773 429.333C219.686 429.246 219.642 429.126 219.651 429.004C220.872 413.62 221.353 402.135 221.583 396.615C221.648 395.071 221.683 394.246 221.711 393.792H152.349ZM222.576 393.477L222.572 393.493C222.573 393.489 222.574 393.484 222.576 393.477Z" fill="black"/>
<path d="M183.6 229.95C183.6 229.95 183.986 271.631 182.404 291.569C179.934 324.435 170.362 337.531 151.898 359.831C128.549 388.031 98.1523 409.225 98.1523 409.225C92.3486 411.204 49.2956 383.929 51.0481 358.617C74.0546 334.775 101.763 315.803 127.372 301.097C118.835 217.304 119.247 186.688 168.314 166.922" fill="#6F5490"/>
<path d="M97.4577 409.739C93.8527 409.739 84.8048 404.927 76.2197 398.325C71.0837 394.376 63.7896 388.031 58.2075 380.231C52.7161 372.559 50.1665 365.277 50.6296 358.588C50.6365 358.49 50.6778 358.397 50.7463 358.326C61.4403 347.244 73.9694 336.399 87.9857 326.093C99.7152 317.468 112.816 308.982 126.927 300.868C124.761 279.586 123.239 262.368 122.848 247.572C122.428 231.662 123.377 219.69 125.835 209.897C128.459 199.439 133 191.017 139.716 184.148C146.403 177.31 155.706 171.548 168.158 166.532C168.209 166.511 168.263 166.501 168.319 166.502C168.374 166.502 168.428 166.513 168.479 166.535C168.53 166.557 168.576 166.588 168.614 166.627C168.653 166.667 168.683 166.713 168.704 166.764C168.724 166.816 168.735 166.87 168.734 166.925C168.734 166.981 168.722 167.035 168.701 167.086C168.679 167.136 168.648 167.182 168.608 167.221C168.569 167.26 168.522 167.29 168.471 167.311C143.91 177.205 131.793 189.602 126.649 210.101C121.295 231.434 123.869 262.569 127.79 301.054C127.798 301.135 127.783 301.216 127.746 301.288C127.709 301.36 127.652 301.42 127.581 301.46C96.6894 319.2 71.0777 338.491 51.457 358.798C51.057 365.245 53.5571 372.291 58.8899 379.742C64.4123 387.459 71.6402 393.745 76.7312 397.659C86.4386 405.124 95.6573 409.515 97.964 408.844C99.3971 407.835 128.982 386.85 151.575 359.563C169.858 337.482 179.514 324.427 181.985 291.537C183.548 271.844 183.184 230.37 183.18 229.953C183.179 229.898 183.19 229.843 183.21 229.792C183.231 229.741 183.262 229.694 183.3 229.655C183.339 229.616 183.385 229.584 183.436 229.563C183.486 229.541 183.541 229.53 183.596 229.529C183.826 229.53 184.017 229.713 184.02 229.945C184.023 230.362 184.388 271.874 182.823 291.602C180.332 324.745 170.617 337.882 152.222 360.099C129.103 388.02 98.697 409.356 98.3925 409.569C98.3603 409.591 98.325 409.609 98.2879 409.622C98.0572 409.7 97.7788 409.739 97.4575 409.739L97.4577 409.739Z" fill="black"/>
<path d="M89.7212 469.347L20.5215 397.491C20.5215 397.491 33.1641 372.469 70.7805 340.064C70.7805 340.064 91.436 361.891 119.984 392.267C119.582 392.474 109.52 401.095 93.2285 414.679C100.468 421.229 117.401 442.687 89.7212 469.347" fill="white"/>
<path d="M27.1359 386.471L20.5215 397.491L89.7212 469.347L97.3878 459.636L27.1359 386.471Z" fill="#FF6996"/>
<path d="M97.3688 459.58L27.4854 386.833L97.3688 459.58Z" fill="#92ACEF"/>
<path d="M97.3687 460C97.3121 460 97.2561 459.989 97.204 459.966C97.1519 459.944 97.1049 459.912 97.0657 459.871L27.1825 387.124C27.1443 387.084 27.1143 387.038 27.0942 386.986C27.0742 386.935 27.0644 386.88 27.0655 386.825C27.0666 386.77 27.0786 386.716 27.1007 386.665C27.1228 386.615 27.1547 386.569 27.1944 386.531C27.2342 386.492 27.2811 386.463 27.3324 386.442C27.3838 386.422 27.4386 386.413 27.4937 386.414C27.5488 386.415 27.6032 386.427 27.6537 386.449C27.7042 386.471 27.7499 386.503 27.7881 386.543L97.6716 459.289C97.7286 459.348 97.7668 459.423 97.7816 459.504C97.7964 459.585 97.7871 459.669 97.7549 459.744C97.7227 459.82 97.6689 459.884 97.6003 459.93C97.5317 459.975 97.4513 460 97.369 460L97.3687 460ZM93.2282 415.099C93.1262 415.099 93.0276 415.062 92.9511 414.994C90.0036 412.403 86.8757 411.042 86.8445 411.028C86.7441 410.983 86.6656 410.9 86.6257 410.798C86.5858 410.695 86.5878 410.581 86.6313 410.48C86.6747 410.379 86.7562 410.299 86.8581 410.257C86.9599 410.215 87.0741 410.215 87.176 410.257C87.3085 410.314 90.4531 411.681 93.5054 414.364C93.5695 414.42 93.6149 414.495 93.6355 414.578C93.6561 414.66 93.6511 414.748 93.6209 414.827C93.5908 414.907 93.5371 414.976 93.4669 415.024C93.3968 415.073 93.3135 415.099 93.2282 415.099Z" fill="black"/>
<path d="M37.5349 397.443L28.6826 405.965L37.5349 397.443Z" fill="#92ACEF"/>
<path d="M28.6825 406.384C28.5988 406.384 28.517 406.359 28.4476 406.312C28.3783 406.266 28.3245 406.199 28.2931 406.121C28.2618 406.044 28.2545 405.959 28.272 405.877C28.2895 405.795 28.331 405.72 28.3913 405.662L37.2436 397.141C37.3238 397.064 37.4315 397.022 37.5428 397.024C37.6541 397.026 37.76 397.072 37.8373 397.152C37.9145 397.232 37.9567 397.34 37.9546 397.451C37.9525 397.563 37.9062 397.669 37.826 397.746L28.9737 406.267C28.8956 406.342 28.7912 406.384 28.6825 406.384Z" fill="black"/>
<path d="M43.7794 403.929L34.9795 412.498L43.7794 403.929Z" fill="#92ACEF"/>
<path d="M34.9795 412.918C34.896 412.918 34.8144 412.893 34.7451 412.847C34.6758 412.8 34.622 412.734 34.5905 412.656C34.559 412.579 34.5514 412.494 34.5685 412.412C34.5856 412.331 34.6267 412.256 34.6865 412.198L43.4864 403.628C43.5256 403.588 43.5723 403.557 43.6239 403.535C43.6754 403.514 43.7308 403.503 43.7866 403.503C43.8425 403.503 43.8977 403.514 43.9491 403.536C44.0006 403.558 44.0471 403.59 44.0861 403.63C44.1251 403.67 44.1557 403.717 44.1761 403.769C44.1965 403.821 44.2064 403.876 44.2051 403.932C44.2038 403.988 44.1913 404.043 44.1685 404.094C44.1457 404.145 44.1129 404.191 44.0721 404.229L35.2722 412.799C35.1939 412.875 35.0888 412.918 34.9794 412.918L34.9795 412.918Z" fill="black"/>
<path d="M50.2053 410.601L41.3535 419.122L50.2053 410.601Z" fill="#92ACEF"/>
<path d="M41.3534 419.542C41.2697 419.542 41.1879 419.517 41.1185 419.47C41.0491 419.423 40.9953 419.357 40.964 419.279C40.9327 419.201 40.9254 419.116 40.9429 419.034C40.9604 418.952 41.0019 418.878 41.0622 418.82L49.9139 410.299C49.9941 410.222 50.1017 410.18 50.213 410.182C50.3243 410.184 50.4303 410.23 50.5075 410.31C50.5847 410.39 50.6269 410.498 50.6248 410.609C50.6227 410.721 50.5765 410.827 50.4962 410.904L41.6446 419.424C41.5665 419.5 41.4622 419.542 41.3536 419.542H41.3534Z" fill="black"/>
<path d="M68.4568 429.556L59.5547 438.02L68.4568 429.556Z" fill="#92ACEF"/>
<path d="M59.5548 438.439C59.4708 438.439 59.3888 438.414 59.3192 438.367C59.2497 438.32 59.1959 438.253 59.1647 438.175C59.1336 438.097 59.1265 438.012 59.1445 437.93C59.1624 437.848 59.2046 437.773 59.2654 437.715L68.1676 429.252C68.2486 429.177 68.3558 429.137 68.466 429.141C68.5761 429.144 68.6805 429.191 68.7564 429.271C68.8324 429.351 68.8739 429.457 68.872 429.568C68.87 429.678 68.8248 429.783 68.7461 429.86L59.8439 438.324C59.766 438.398 59.6624 438.439 59.5548 438.439Z" fill="black"/>
<path d="M75.0941 436.448L66.8496 444.384L75.0941 436.448Z" fill="#92ACEF"/>
<path d="M66.8495 444.804C66.7658 444.804 66.684 444.779 66.6146 444.732C66.5452 444.686 66.4914 444.619 66.4601 444.541C66.4288 444.464 66.4215 444.379 66.439 444.297C66.4565 444.215 66.498 444.14 66.5583 444.082L74.8029 436.146C74.8831 436.069 74.9907 436.026 75.102 436.029C75.2134 436.031 75.3193 436.077 75.3965 436.157C75.4737 436.237 75.516 436.345 75.5138 436.456C75.5117 436.568 75.4655 436.673 75.3853 436.751L67.1407 444.687C67.0626 444.762 66.9583 444.804 66.8497 444.804H66.8495Z" fill="black"/>
<path d="M79.702 441.234L70.8516 449.753L79.702 441.234Z" fill="#92ACEF"/>
<path d="M70.8515 450.173C70.7678 450.173 70.686 450.148 70.6166 450.101C70.5472 450.054 70.4934 449.988 70.4621 449.91C70.4308 449.833 70.4234 449.747 70.4409 449.666C70.4584 449.584 70.5 449.509 70.5603 449.451L79.4109 440.931C79.4911 440.854 79.5987 440.812 79.71 440.814C79.8214 440.816 79.9273 440.862 80.0045 440.943C80.0818 441.023 80.124 441.13 80.1219 441.242C80.1197 441.353 80.0735 441.459 79.9933 441.536L71.1427 450.056C71.0646 450.131 70.9602 450.173 70.8517 450.173H70.8515Z" fill="black"/>
<path d="M90.7071 452.662L81.8008 461.122L90.7071 452.662Z" fill="#92ACEF"/>
<path d="M81.8016 461.541C81.7177 461.541 81.6357 461.516 81.5662 461.469C81.4967 461.422 81.4429 461.355 81.4118 461.277C81.3806 461.199 81.3736 461.114 81.3915 461.032C81.4095 460.95 81.4516 460.875 81.5124 460.817L90.4188 452.358C90.4586 452.319 90.5057 452.289 90.5574 452.268C90.6091 452.248 90.6644 452.238 90.72 452.239C90.7757 452.24 90.8305 452.252 90.8814 452.274C90.9324 452.297 90.9783 452.329 91.0166 452.369C91.0549 452.41 91.0849 452.457 91.1046 452.509C91.1244 452.561 91.1337 452.617 91.1318 452.672C91.13 452.728 91.1171 452.783 91.094 452.833C91.0708 452.884 91.0378 452.929 90.997 452.967L82.0906 461.426C82.0127 461.5 81.9092 461.542 81.8016 461.542V461.541Z" fill="black"/>
<path d="M69.6883 364.563C72.4243 364.563 74.6423 362.346 74.6423 359.61C74.6423 356.875 72.4243 354.657 69.6883 354.657C66.9523 354.657 64.7344 356.875 64.7344 359.61C64.7344 362.346 66.9523 364.563 69.6883 364.563Z" fill="#FF6996"/>
<path d="M69.6913 364.983C69.6563 364.983 69.6216 364.983 69.5867 364.982C68.1515 364.955 66.8129 364.37 65.8175 363.336C63.7623 361.202 63.827 357.794 65.9615 355.739C66.9955 354.744 68.352 354.211 69.7905 354.238C71.2257 354.265 72.5642 354.85 73.5597 355.883C75.6148 358.018 75.5502 361.426 73.4156 363.48C72.4069 364.452 71.0878 364.983 69.6913 364.983ZM69.6862 355.077C68.5079 355.077 67.395 355.525 66.5438 356.344C64.7427 358.078 64.6881 360.954 66.4222 362.754C67.2622 363.627 68.3917 364.12 69.6024 364.143C70.8151 364.167 71.9607 363.716 72.8333 362.876C74.6343 361.142 74.6889 358.267 72.9548 356.466C72.1148 355.594 70.9853 355.101 69.7746 355.078C69.7451 355.077 69.7157 355.077 69.6862 355.077Z" fill="black"/>
<path d="M89.7211 469.766H89.7132C89.6018 469.764 89.4959 469.718 89.4186 469.638L20.2189 397.782C20.1581 397.719 20.1186 397.638 20.106 397.551C20.0933 397.464 20.1081 397.376 20.1483 397.298C20.1819 397.233 23.6064 390.659 31.5053 380.338C38.7874 370.823 51.4798 356.071 70.5926 339.829C70.6746 339.759 70.7802 339.723 70.8877 339.729C70.9951 339.735 71.0962 339.782 71.17 339.86C71.3631 340.065 90.8202 360.704 120.044 391.81C120.087 391.857 120.12 391.912 120.139 391.972C120.158 392.033 120.163 392.097 120.153 392.159C120.144 392.222 120.121 392.281 120.085 392.334C120.05 392.386 120.003 392.43 119.948 392.461C119.79 392.571 118.849 393.398 117.552 394.54C113.623 397.996 105.494 405.148 93.8711 414.695C100.89 421.134 105.001 429.883 105.168 438.775C105.261 443.731 104.158 448.732 101.889 453.64C99.3625 459.105 95.3666 464.491 90.0124 469.649C89.9342 469.724 89.8299 469.766 89.7213 469.766L89.7211 469.766ZM21.0354 397.419L89.7313 468.752C99.6107 459.13 104.521 449.051 104.328 438.791C104.163 429.98 100.015 421.305 92.9485 414.992C92.9034 414.952 92.8675 414.902 92.8433 414.847C92.8192 414.791 92.8073 414.731 92.8086 414.67C92.8099 414.61 92.8243 414.55 92.8508 414.496C92.8773 414.441 92.9153 414.393 92.9621 414.355C104.774 404.662 113.029 397.4 116.997 393.909C118.157 392.889 118.776 392.346 119.12 392.054C91.9453 363.128 73.2864 343.33 70.8328 340.726C51.9455 356.819 39.3908 371.416 32.1722 380.848C25.2039 389.953 21.7494 396.103 21.0355 397.419L21.0354 397.419ZM132.41 304.707C132.333 304.707 132.256 304.686 132.186 304.642L127.148 301.451C127.101 301.422 127.06 301.384 127.028 301.339C126.996 301.294 126.973 301.243 126.96 301.189C126.948 301.135 126.946 301.079 126.956 301.024C126.965 300.969 126.985 300.917 127.015 300.87C127.044 300.823 127.083 300.783 127.128 300.751C127.174 300.719 127.225 300.697 127.279 300.685C127.333 300.673 127.389 300.672 127.444 300.682C127.499 300.691 127.551 300.712 127.597 300.742L132.635 303.932C132.712 303.981 132.771 304.053 132.803 304.138C132.836 304.223 132.839 304.317 132.814 304.404C132.789 304.492 132.735 304.568 132.663 304.623C132.59 304.678 132.501 304.707 132.41 304.707V304.707Z" fill="black"/>
<path d="M317.749 148.519C317.749 148.519 311.432 138.984 293.085 149.854C293.462 147.697 293.848 145.616 293.999 144.304C294.616 138.936 292.115 133.458 287.96 134.567C282.86 135.929 286.816 143.972 278.907 155.683C273.784 163.27 277.72 170.578 280.368 174.116L280.375 174.126C279.721 179.332 278.904 185.879 278.649 188.142L282.133 184.347C290.852 183.83 300.035 178.731 301.102 177.977C301.102 177.977 318.293 178.707 316.78 167.316C316.78 167.316 321.038 164.129 317.707 158.247C317.707 158.247 322.505 154.325 317.749 148.519H317.749Z" fill="#FFAAC3"/>
<path d="M303.867 163.125C302.598 163.125 301.345 162.998 300.148 162.707C298.166 162.225 296.804 161.044 296.413 159.466C295.995 157.781 296.704 155.925 298.31 154.503C302.142 151.112 309.586 149.574 310.892 149.412C311.003 149.398 311.114 149.429 311.202 149.497C311.29 149.566 311.347 149.666 311.361 149.777C311.374 149.887 311.344 149.999 311.275 150.086C311.207 150.174 311.106 150.231 310.996 150.245C309.731 150.402 302.537 151.883 298.867 155.132C297.519 156.325 296.891 157.908 297.228 159.264C297.546 160.547 298.653 161.479 300.347 161.891C306.699 163.435 315.038 160.026 317.542 157.842C317.584 157.805 317.632 157.776 317.685 157.758C317.737 157.74 317.793 157.732 317.848 157.735C317.904 157.739 317.958 157.753 318.008 157.778C318.058 157.802 318.103 157.837 318.139 157.878C318.176 157.92 318.204 157.969 318.221 158.022C318.239 158.075 318.246 158.131 318.242 158.186C318.237 158.241 318.222 158.296 318.197 158.345C318.172 158.395 318.137 158.439 318.094 158.475C315.883 160.403 309.723 163.125 303.866 163.125L303.867 163.125Z" fill="black"/>
<path d="M305.305 171.136C303.706 171.136 302.158 170.855 300.819 170.132C298.929 169.111 297.828 167.818 297.547 166.289C297.111 163.916 298.83 161.893 298.903 161.808C298.976 161.724 299.079 161.672 299.19 161.665C299.301 161.657 299.41 161.693 299.494 161.765C299.578 161.838 299.63 161.941 299.638 162.052C299.647 162.162 299.611 162.272 299.539 162.356C299.524 162.374 298.008 164.168 298.374 166.143C298.609 167.407 299.565 168.501 301.218 169.393C306.699 172.353 316.534 167.043 316.633 166.989C316.73 166.939 316.843 166.929 316.948 166.961C317.052 166.993 317.14 167.065 317.193 167.161C317.245 167.257 317.258 167.369 317.229 167.475C317.2 167.58 317.13 167.67 317.036 167.725C316.712 167.902 310.724 171.136 305.305 171.136L305.305 171.136Z" fill="black"/>
<path d="M302.291 178.402C300.736 178.402 298.95 177.081 298.237 175.332C297.827 174.327 297.226 171.732 300.496 169.376C300.54 169.344 300.591 169.321 300.645 169.309C300.698 169.296 300.754 169.294 300.808 169.303C300.863 169.312 300.915 169.331 300.962 169.36C301.009 169.389 301.049 169.427 301.082 169.472C301.114 169.516 301.137 169.567 301.15 169.621C301.162 169.674 301.164 169.73 301.155 169.784C301.147 169.839 301.127 169.891 301.098 169.938C301.069 169.985 301.031 170.025 300.986 170.058C298.301 171.993 298.598 173.995 299.015 175.016C299.641 176.552 301.293 177.734 302.55 177.544C302.605 177.535 302.661 177.538 302.714 177.551C302.768 177.564 302.819 177.587 302.864 177.62C302.909 177.653 302.946 177.694 302.975 177.741C303.004 177.789 303.023 177.841 303.031 177.896C303.039 177.951 303.037 178.007 303.023 178.061C303.01 178.114 302.986 178.165 302.953 178.209C302.92 178.254 302.878 178.291 302.83 178.32C302.783 178.348 302.73 178.366 302.675 178.374C302.549 178.393 302.421 178.402 302.291 178.402Z" fill="black"/>
<path d="M279.804 185.364C279.708 185.364 279.615 185.331 279.54 185.271C279.465 185.211 279.413 185.126 279.393 185.032C279.373 184.938 279.386 184.84 279.429 184.754C279.473 184.668 279.545 184.6 279.633 184.561C279.878 184.452 280.421 184.365 281.624 184.179C285.518 183.578 294.638 182.169 300.854 177.638C300.931 177.582 301.024 177.554 301.119 177.558C301.214 177.562 310.636 177.905 314.654 173.51C316.117 171.909 316.692 169.843 316.364 167.371C316.354 167.297 316.364 167.221 316.393 167.153C316.422 167.084 316.469 167.024 316.529 166.979C316.702 166.848 320.436 163.919 317.341 158.453C317.293 158.367 317.276 158.266 317.294 158.169C317.312 158.072 317.364 157.984 317.441 157.921C317.622 157.772 321.847 154.184 317.424 148.785C317.415 148.774 317.406 148.762 317.399 148.751C317.384 148.729 315.825 146.457 312.124 145.499C308.674 144.606 302.608 144.7 293.298 150.215C293.251 150.244 293.198 150.263 293.143 150.272C293.088 150.28 293.032 150.278 292.978 150.264C292.924 150.251 292.874 150.227 292.829 150.194C292.784 150.16 292.747 150.119 292.718 150.071C292.69 150.023 292.672 149.97 292.664 149.915C292.656 149.86 292.659 149.804 292.674 149.75C292.688 149.697 292.712 149.646 292.746 149.602C292.78 149.558 292.822 149.521 292.87 149.493C302.473 143.804 308.793 143.749 312.404 144.704C316.244 145.721 317.911 148.015 318.085 148.268C320.653 151.412 320.494 154.045 319.906 155.7C319.439 157.02 318.643 157.927 318.233 158.333C320.413 162.424 319.055 165.265 318.032 166.61C317.79 166.928 317.497 167.275 317.225 167.497C317.52 170.124 316.864 172.337 315.272 174.078C311.225 178.503 302.519 178.437 301.231 178.402C294.854 182.986 285.683 184.402 281.752 185.009C280.917 185.138 280.128 185.26 279.975 185.328C279.921 185.352 279.863 185.364 279.804 185.364L279.804 185.364Z" fill="black"/>
<path d="M277.703 170.661C277.62 170.661 277.54 170.637 277.471 170.591C277.402 170.545 277.348 170.48 277.316 170.404C276.519 168.508 274.252 161.826 278.559 155.448C282.65 149.39 283.523 144.346 284.161 140.663C284.742 137.305 285.162 134.88 287.851 134.162C289.28 133.78 290.629 134.091 291.752 135.061C293.782 136.813 294.853 140.546 294.415 144.351C294.29 145.44 294.004 147.057 293.701 148.77C293.141 151.938 292.444 155.881 292.632 157.424C292.715 158.105 292.909 158.967 293.115 159.879C293.815 162.975 294.684 166.828 292.79 169.339C292.757 169.383 292.715 169.42 292.668 169.448C292.62 169.476 292.567 169.495 292.513 169.502C292.458 169.51 292.403 169.507 292.349 169.493C292.296 169.479 292.246 169.455 292.202 169.422C292.158 169.388 292.121 169.347 292.093 169.299C292.065 169.252 292.046 169.199 292.039 169.145C292.031 169.09 292.034 169.035 292.048 168.981C292.062 168.928 292.086 168.878 292.119 168.834C293.78 166.633 292.957 162.991 292.296 160.064C292.086 159.13 291.887 158.249 291.799 157.526C291.596 155.858 292.275 152.014 292.875 148.624C293.175 146.924 293.459 145.318 293.581 144.255C293.982 140.77 293.004 137.25 291.204 135.696C290.287 134.905 289.232 134.662 288.068 134.973C285.898 135.552 285.556 137.529 284.989 140.806C284.338 144.564 283.447 149.71 279.255 155.918C275.184 161.946 277.334 168.28 278.09 170.078C278.117 170.142 278.128 170.212 278.121 170.281C278.115 170.35 278.091 170.416 278.053 170.473C278.015 170.531 277.963 170.578 277.902 170.611C277.841 170.644 277.772 170.661 277.703 170.661L277.703 170.661Z" fill="black"/>
<path d="M201.539 131.435C201.539 131.435 211.845 129.892 217.552 143.942C224.157 160.206 220.633 170.806 226.153 178.775C226.153 178.775 236.072 176.66 245.245 171.573C252.985 167.28 260.206 158.549 268.435 159.389C272.615 159.815 275.488 162.075 278.343 170.135C281.411 178.798 288.922 181.048 288.541 187.557C288.138 194.428 283.213 198.678 266.544 203.821C255.356 207.273 242.09 214.308 235.412 217.243C227.157 220.872 213.519 222.738 203.838 214.542C194.188 206.373 186.044 173.615 187.895 164.691L201.539 131.435Z" fill="#FBB348"/>
<path d="M220.781 220.763C214.805 220.763 208.64 219.158 203.566 214.862C197.368 209.616 192.819 195.74 191.15 190.017C188.075 179.471 186.568 169.022 187.483 164.606C187.489 164.58 187.496 164.555 187.506 164.532L201.15 131.276C201.178 131.208 201.222 131.15 201.279 131.105C201.336 131.06 201.404 131.031 201.476 131.02C201.586 131.003 204.207 130.633 207.566 132.032C210.642 133.313 214.938 136.392 217.94 143.784C221.293 152.038 222.069 158.984 222.692 164.566C223.31 170.099 223.801 174.493 226.339 178.303C227.998 177.919 236.872 175.736 245.041 171.205C247.481 169.852 249.921 168.014 252.281 166.236C257.406 162.375 262.704 158.382 268.477 158.971C273.284 159.462 276.065 162.449 278.738 169.994C280.14 173.951 282.503 176.561 284.588 178.864C287.048 181.582 289.173 183.929 288.959 187.582C288.737 191.368 287.176 194.171 283.896 196.67C280.533 199.233 275.058 201.633 266.667 204.222C258.513 206.738 249.102 211.235 242.23 214.518C239.628 215.762 237.38 216.836 235.581 217.627C231.435 219.45 226.186 220.763 220.781 220.763L220.781 220.763ZM188.298 164.814C187.423 169.132 188.925 179.385 191.956 189.782C195.387 201.548 199.929 210.684 204.108 214.222C213.476 222.152 226.735 220.599 235.243 216.859C237.03 216.073 239.272 215.002 241.868 213.761C248.763 210.467 258.207 205.954 266.419 203.42C282.234 198.54 287.711 194.531 288.121 187.533C288.314 184.232 286.395 182.112 283.965 179.428C281.827 177.066 279.404 174.39 277.946 170.274C275.041 162.073 272.136 160.188 268.391 159.806C262.949 159.251 257.782 163.143 252.786 166.906C250.403 168.702 247.939 170.558 245.448 171.939C236.326 176.998 226.339 179.164 226.24 179.185C226.159 179.202 226.074 179.195 225.997 179.165C225.92 179.134 225.854 179.082 225.807 179.014C223.01 174.976 222.476 170.195 221.857 164.659C221.207 158.841 220.471 152.246 217.162 144.099C214.881 138.482 211.467 134.584 207.289 132.826C204.688 131.731 202.522 131.776 201.831 131.827L188.298 164.813L188.298 164.814Z" fill="black"/>
<path d="M218.797 181.972C218.704 181.972 218.613 181.941 218.54 181.884C218.466 181.826 218.413 181.746 218.39 181.656C218.367 181.566 218.375 181.47 218.412 181.385C218.449 181.299 218.513 181.228 218.595 181.184C221.023 179.854 223.536 178.906 226.065 178.365C226.119 178.353 226.174 178.352 226.228 178.362C226.283 178.372 226.334 178.393 226.381 178.423C226.427 178.453 226.467 178.492 226.498 178.537C226.529 178.582 226.551 178.633 226.563 178.687C226.575 178.741 226.575 178.797 226.565 178.851C226.555 178.905 226.535 178.957 226.505 179.003C226.475 179.05 226.436 179.09 226.391 179.121C226.345 179.152 226.294 179.174 226.24 179.186C223.791 179.71 221.355 180.63 218.999 181.92C218.937 181.954 218.868 181.972 218.797 181.972L218.797 181.972Z" fill="#161616"/>
<path d="M280.693 181.972C280.61 181.972 280.528 181.947 280.459 181.901C280.39 181.854 280.336 181.789 280.305 181.712C279.744 180.351 279.587 178.744 279.42 177.043C279.228 175.078 279.01 172.851 278.12 170.626C278.079 170.523 278.08 170.407 278.124 170.305C278.168 170.203 278.25 170.122 278.354 170.081C278.457 170.039 278.573 170.041 278.675 170.085C278.777 170.128 278.858 170.211 278.9 170.315C279.834 172.651 280.058 174.941 280.256 176.961C280.416 178.599 280.568 180.146 281.081 181.392C281.107 181.456 281.118 181.525 281.111 181.594C281.104 181.662 281.08 181.728 281.042 181.785C281.004 181.843 280.952 181.89 280.891 181.922C280.83 181.955 280.762 181.972 280.693 181.972Z" fill="black"/>
<path d="M192.279 194.142C192.279 194.142 174.419 193.105 163.85 168.502C163.85 168.502 162.302 156.367 169.187 145.957C174.636 137.719 184.133 132.693 188.553 128.807C191.634 126.098 193.201 123.29 196.465 122.053C200.902 120.372 204.972 123.064 209.54 126.726C214.109 130.388 216.532 134.253 215.728 140.874C214.924 147.495 218.202 153.859 213.989 165.49C206.393 186.458 192.279 194.142 192.279 194.142Z" fill="#FBB348"/>
<path d="M192.279 194.562C192.271 194.562 192.263 194.562 192.255 194.561C192.068 194.55 187.624 194.258 181.819 190.912C176.484 187.838 168.97 181.483 163.465 168.667C163.45 168.631 163.439 168.594 163.434 168.555C163.419 168.432 161.946 156.145 168.837 145.726C172.75 139.81 178.66 135.581 183.409 132.182C185.342 130.799 187.011 129.604 188.277 128.492C189.298 127.594 190.145 126.69 190.965 125.816C192.626 124.045 194.06 122.516 196.317 121.661C201.068 119.86 205.407 122.875 209.804 126.399C215.05 130.604 216.888 134.813 216.146 140.924C215.878 143.133 216.077 145.362 216.288 147.721C216.714 152.478 217.196 157.871 214.384 165.633C210.434 176.536 204.7 183.8 200.585 187.974C196.115 192.508 192.627 194.431 192.48 194.511C192.418 194.544 192.349 194.562 192.279 194.562H192.279ZM164.261 168.392C169.661 180.931 176.991 187.15 182.193 190.158C187.32 193.124 191.442 193.641 192.185 193.713C192.805 193.353 196.053 191.38 200.014 187.357C204.061 183.246 209.703 176.09 213.594 165.347C216.343 157.76 215.869 152.466 215.452 147.796C215.236 145.391 215.033 143.119 215.312 140.823C216.132 134.067 213.493 130.432 209.278 127.054C205.079 123.688 200.95 120.803 196.615 122.446C194.54 123.232 193.167 124.696 191.578 126.39C190.744 127.279 189.883 128.198 188.831 129.122C187.534 130.262 185.849 131.468 183.898 132.864C179.205 136.223 173.365 140.403 169.538 146.188C163.059 155.983 164.162 167.487 164.261 168.392H164.261Z" fill="#111111"/>
<path d="M217.011 126.648L211.143 134.73C211.143 134.73 201.34 133.553 199.009 124.789L206.418 114.945" fill="#FFAAC3"/>
<path d="M211.143 135.149C211.127 135.149 211.11 135.148 211.093 135.146C210.99 135.134 208.537 134.827 205.761 133.42C202.063 131.547 199.588 128.599 198.603 124.897C198.587 124.836 198.584 124.771 198.597 124.709C198.609 124.646 198.635 124.588 198.673 124.537L206.083 114.693C206.116 114.648 206.157 114.611 206.205 114.583C206.252 114.555 206.305 114.537 206.36 114.529C206.414 114.522 206.47 114.525 206.523 114.539C206.576 114.552 206.627 114.576 206.671 114.61C206.715 114.643 206.752 114.684 206.78 114.732C206.808 114.779 206.826 114.832 206.834 114.886C206.842 114.941 206.839 114.996 206.825 115.05C206.811 115.103 206.787 115.153 206.754 115.197L199.468 124.877C201.581 132.339 209.472 134.024 210.954 134.276L216.672 126.401C216.737 126.311 216.836 126.251 216.946 126.233C217.056 126.216 217.168 126.243 217.258 126.308C217.348 126.373 217.409 126.472 217.426 126.582C217.443 126.692 217.416 126.804 217.351 126.894L211.483 134.977C211.444 135.03 211.393 135.074 211.334 135.104C211.275 135.134 211.209 135.15 211.143 135.15V135.149Z" fill="#161616"/>
<path d="M239.671 110.1C243.114 100.668 238.748 93.1655 238.748 93.1655L210.171 102.155C210.178 100.908 209.963 90.0416 200.42 89.6287C190.635 89.2053 190.328 100.594 193.815 105.85C197.722 111.74 202.528 112.137 205.85 112.319L206.112 111.709L205.959 112.311C205.959 112.311 205.987 124.079 216.836 126.966C231.695 130.92 237.914 115.647 237.914 115.647C239.347 115.548 244.829 114.031 244.801 110.912C244.773 107.793 239.671 110.1 239.671 110.1V110.1Z" fill="#FFAAC3"/>
<path d="M221.576 128.034C220.076 128.034 218.461 127.833 216.728 127.372C210.958 125.836 208.221 121.817 206.941 118.716C205.562 115.375 205.539 112.435 205.539 112.311C205.539 112.2 205.583 112.093 205.661 112.014C205.74 111.936 205.846 111.891 205.958 111.891H205.959C206.07 111.891 206.177 111.935 206.255 112.013C206.334 112.092 206.378 112.198 206.379 112.309C206.379 112.338 206.404 115.231 207.728 118.422C209.487 122.663 212.587 125.401 216.944 126.56C222.944 128.157 228.223 126.794 232.634 122.508C235.952 119.284 237.51 115.526 237.525 115.489C237.555 115.416 237.604 115.353 237.668 115.307C237.731 115.261 237.806 115.234 237.885 115.229C239.037 115.149 244.406 113.771 244.381 110.915C244.377 110.433 244.232 110.107 243.939 109.92C242.97 109.301 240.654 110.116 239.844 110.483C239.769 110.517 239.685 110.528 239.604 110.515C239.522 110.501 239.446 110.464 239.386 110.408C239.325 110.352 239.282 110.279 239.263 110.199C239.244 110.118 239.248 110.034 239.277 109.957C242.607 100.831 238.428 93.4498 238.385 93.3764C238.329 93.2802 238.314 93.1656 238.342 93.058C238.371 92.9504 238.441 92.8585 238.537 92.8025C238.633 92.7466 238.748 92.7312 238.855 92.7597C238.963 92.7881 239.055 92.8582 239.111 92.9545C239.154 93.0289 243.271 100.273 240.362 109.376C241.461 108.992 243.309 108.521 244.391 109.212C244.765 109.451 245.212 109.939 245.221 110.908C245.25 114.224 240.047 115.8 238.202 116.04C237.803 116.933 236.232 120.175 233.24 123.09C230.752 125.514 226.887 128.034 221.576 128.034H221.576Z" fill="#161616"/>
<path d="M210.137 102.212C209.791 110.492 235.992 99.1152 242.011 89.0771L210.137 102.212Z" fill="#92ACEF"/>
<path d="M213.912 105.492C213.173 105.492 212.502 105.412 211.917 105.237C210.414 104.787 209.653 103.735 209.718 102.194C209.72 102.139 209.733 102.085 209.756 102.035C209.779 101.984 209.812 101.939 209.852 101.902C209.893 101.865 209.941 101.836 209.993 101.817C210.045 101.798 210.1 101.79 210.155 101.792C210.266 101.797 210.371 101.846 210.446 101.928C210.522 102.009 210.561 102.118 210.557 102.229C210.509 103.375 211.033 104.096 212.158 104.433C214.912 105.257 220.833 103.67 227.244 100.389C234.015 96.9238 239.401 92.6143 241.651 88.8614C241.679 88.8135 241.717 88.7716 241.761 88.7382C241.805 88.7047 241.856 88.6804 241.91 88.6667C241.963 88.6529 242.019 88.6499 242.074 88.6579C242.129 88.6659 242.182 88.6847 242.23 88.7133C242.277 88.7418 242.319 88.7795 242.352 88.8242C242.385 88.8689 242.408 88.9197 242.422 88.9736C242.435 89.0275 242.437 89.0835 242.428 89.1384C242.42 89.1932 242.4 89.2458 242.371 89.2931C240.044 93.1751 234.531 97.6026 227.626 101.137C223.236 103.384 217.7 105.492 213.912 105.492H213.912Z" fill="black"/>
<path d="M205.85 112.739C205.842 112.739 205.834 112.738 205.827 112.738C202.742 112.569 197.58 112.286 193.465 106.082C191.309 102.832 190.424 97.0882 192.676 93.1019C193.74 91.2189 195.952 89.0149 200.438 89.2093C204.761 89.3963 207.897 91.8195 209.506 96.2169C210.702 99.4839 210.634 102.643 210.63 102.776C210.627 102.887 210.58 102.993 210.499 103.069C210.418 103.146 210.311 103.187 210.2 103.185C210.088 103.182 209.983 103.135 209.906 103.054C209.83 102.974 209.788 102.866 209.791 102.754C209.792 102.723 209.857 99.603 208.71 96.4847C207.203 92.387 204.408 90.2214 200.402 90.0481C197.184 89.9091 194.767 91.1077 193.407 93.5149C191.341 97.1718 192.192 102.645 194.164 105.618C198.047 111.471 202.756 111.729 205.872 111.9C205.981 111.906 206.084 111.954 206.158 112.035C206.232 112.115 206.271 112.221 206.268 112.33C206.265 112.439 206.22 112.543 206.142 112.619C206.064 112.696 205.959 112.738 205.85 112.739L205.85 112.739Z" fill="#161616"/>
<path d="M206.138 108.061H206.137C206.026 108.061 205.919 108.017 205.84 107.938C205.762 107.859 205.718 107.753 205.718 107.641C205.718 107.557 205.638 99.1349 198.356 93.9046C198.265 93.8397 198.204 93.7415 198.186 93.6316C198.168 93.5217 198.195 93.4092 198.26 93.3188C198.324 93.2284 198.423 93.1675 198.533 93.1495C198.642 93.1315 198.755 93.1578 198.845 93.2228C206.487 98.7113 206.558 107.554 206.557 107.643C206.557 107.754 206.513 107.86 206.434 107.939C206.355 108.017 206.249 108.061 206.138 108.061Z" fill="#161616"/>
<path d="M199.832 103.872C199.748 103.872 199.666 103.847 199.596 103.799C199.526 103.752 199.472 103.685 199.441 103.606C199.41 103.528 199.404 103.442 199.422 103.36C199.441 103.278 199.484 103.203 199.545 103.146C201.83 101.01 204.99 101.998 205.124 102.041C205.23 102.075 205.318 102.15 205.369 102.249C205.419 102.348 205.429 102.463 205.395 102.569C205.36 102.675 205.285 102.763 205.186 102.814C205.087 102.865 204.972 102.874 204.866 102.84C204.826 102.827 202.033 101.969 200.119 103.759C200.041 103.832 199.938 103.872 199.832 103.872H199.832ZM233.555 122.462C233.508 122.462 233.46 122.454 233.413 122.437C233.362 122.418 228.303 120.533 228.172 115.014C228.17 114.903 228.211 114.795 228.288 114.714C228.365 114.634 228.471 114.587 228.582 114.584C228.637 114.582 228.692 114.592 228.744 114.611C228.796 114.631 228.843 114.661 228.883 114.699C228.923 114.737 228.955 114.783 228.977 114.833C228.999 114.884 229.011 114.939 229.012 114.994C229.129 119.945 233.652 121.631 233.698 121.647C233.791 121.681 233.869 121.746 233.918 121.831C233.968 121.917 233.986 122.017 233.969 122.114C233.952 122.212 233.901 122.3 233.826 122.363C233.75 122.427 233.654 122.462 233.555 122.462V122.462ZM236.699 105.146C236.754 105.038 236.787 104.921 236.796 104.801C236.805 104.68 236.79 104.559 236.752 104.444C236.714 104.33 236.654 104.224 236.575 104.132C236.496 104.041 236.4 103.966 236.292 103.912C236.184 103.859 236.066 103.827 235.945 103.818C235.825 103.81 235.704 103.826 235.59 103.864C235.475 103.903 235.37 103.964 235.279 104.044C235.188 104.123 235.114 104.22 235.061 104.328C234.954 104.545 234.938 104.796 235.015 105.025C235.093 105.254 235.257 105.443 235.474 105.551C235.69 105.659 235.94 105.677 236.17 105.601C236.4 105.525 236.59 105.362 236.699 105.146Z" fill="#161616"/>
<path d="M223.84 116.905C225.245 114.092 224.103 110.673 221.29 109.269C218.477 107.864 215.058 109.006 213.653 111.818C212.248 114.631 213.39 118.05 216.203 119.454L216.204 119.455C219.017 120.858 222.435 119.717 223.84 116.905Z" fill="#FF6996"/>
<path d="M279.982 251.652C279.982 251.652 264.049 250.001 264.656 238.097C264.704 237.155 252.576 231.663 253.028 230.64C254.691 226.875 260.74 219.591 263.297 220.389C282.469 221.954 290.501 228.081 293.281 230.053C313.744 244.57 302.843 267.359 292.087 267.821C289.262 267.942 287.475 266.281 286.872 264.501C280.165 264.861 275.843 257.971 279.982 251.652H279.982Z" fill="#FFAAC3"/>
<path d="M291.792 268.247C288.953 268.247 287.252 266.543 286.585 264.932C283.358 265.005 280.548 263.486 279.018 260.829C277.486 258.168 277.601 254.892 279.301 251.956C278.002 251.701 274.863 250.972 271.756 249.396C266.475 246.717 263.874 242.855 264.225 238.219C263.7 237.76 261.094 236.225 258.978 234.978C257.447 234.076 255.863 233.144 254.687 232.407C252.683 231.153 252.462 230.882 252.644 230.47C253.46 228.622 255.676 225.859 258.157 223.594C259.798 222.096 262.805 219.674 264.601 220.176C284.802 221.912 294.701 229.827 298.806 234.393C305.43 241.76 307.419 250.836 304.126 258.67C301.771 264.271 297.053 268.028 292.104 268.24C291.999 268.245 291.895 268.247 291.792 268.247V268.247ZM286.872 264.081C287.051 264.081 287.211 264.195 287.269 264.366C287.769 265.84 289.324 267.52 292.068 267.402C296.694 267.203 301.123 263.648 303.352 258.345C306.515 250.818 304.583 242.074 298.181 234.954C294.157 230.478 284.428 222.713 264.487 221.009C264.457 221.006 264.427 221 264.398 220.991C263.428 220.688 261.2 221.953 258.723 224.214C256.415 226.321 254.354 228.849 253.51 230.598C254.179 231.178 257.174 232.942 259.404 234.255C264.945 237.519 265.113 237.704 265.074 238.134C264.679 242.528 267.05 246.062 272.119 248.639C275.97 250.597 280.005 251.232 280.045 251.238C280.115 251.248 280.18 251.276 280.236 251.319C280.292 251.362 280.336 251.418 280.365 251.482C280.393 251.546 280.405 251.616 280.4 251.686C280.394 251.756 280.371 251.824 280.333 251.883C278.501 254.679 278.281 257.868 279.745 260.411C281.162 262.872 283.818 264.245 286.849 264.082C286.856 264.082 286.864 264.082 286.872 264.082L286.872 264.081Z" fill="black"/>
<path d="M286.594 258.556C286.498 258.556 286.405 258.523 286.33 258.462C286.255 258.402 286.204 258.318 286.183 258.224C285.053 252.954 279.547 251.996 279.492 251.987C279.383 251.967 279.287 251.906 279.223 251.816C279.159 251.726 279.133 251.614 279.151 251.506C279.169 251.397 279.229 251.299 279.318 251.234C279.407 251.169 279.518 251.142 279.628 251.158C279.689 251.168 285.756 252.224 287.004 258.048C287.018 258.109 287.017 258.173 287.002 258.234C286.988 258.294 286.96 258.351 286.92 258.4C286.881 258.449 286.831 258.488 286.775 258.515C286.718 258.542 286.656 258.556 286.594 258.556L286.594 258.556ZM287.315 264.936C287.157 264.936 287 264.931 286.842 264.92C286.731 264.912 286.628 264.86 286.555 264.776C286.482 264.692 286.445 264.582 286.453 264.471C286.461 264.36 286.512 264.257 286.596 264.184C286.68 264.111 286.79 264.074 286.901 264.082C290.167 264.312 293.632 261.816 295.331 258.01C296.362 255.702 298.078 249.674 291.759 243.552C291.719 243.514 291.687 243.468 291.665 243.418C291.643 243.367 291.631 243.312 291.63 243.257C291.629 243.202 291.638 243.147 291.659 243.095C291.679 243.043 291.709 242.996 291.748 242.957C291.786 242.917 291.832 242.885 291.883 242.863C291.934 242.841 291.989 242.83 292.044 242.829C292.1 242.828 292.155 242.839 292.206 242.859C292.257 242.88 292.304 242.911 292.344 242.949C296.992 247.452 298.395 253.211 296.098 258.353C294.337 262.294 290.779 264.936 287.315 264.936L287.315 264.936Z" fill="black"/>
<path d="M197.436 137.681C197.436 137.681 204.959 140.526 206.515 152.408C209.286 173.576 202.437 193.305 201.17 200.824C209.549 206.714 236.37 202.005 255.624 208.449C264.869 211.543 269.783 216.85 269.317 224.017C268.851 231.184 265.001 235.442 265.495 240.225C265.989 245.009 262.911 255.949 244.696 247.324C226.481 238.699 202.093 243.964 182.288 234.809C170.964 229.575 159.294 217.777 163.973 196.765C168.02 178.591 179.438 166.24 176.384 158.102" fill="#FBB348"/>
<path d="M256.288 250.973C253.052 250.973 249.118 249.882 244.516 247.703C235.601 243.482 225.349 242.627 214.496 241.721C203.542 240.806 192.216 239.861 182.111 235.19C177.461 233.041 171.025 228.994 166.769 221.92C162.494 214.813 161.415 206.319 163.563 196.674C165.385 188.491 168.634 181.607 171.501 175.533C174.917 168.295 177.615 162.578 175.991 158.249C175.952 158.145 175.956 158.029 176.002 157.928C176.048 157.827 176.132 157.748 176.237 157.709C176.341 157.67 176.456 157.674 176.558 157.72C176.659 157.766 176.738 157.85 176.777 157.954C178.526 162.615 175.761 168.474 172.26 175.892C169.412 181.926 166.184 188.765 164.382 196.856C159.059 220.763 175.254 231.095 182.464 234.428C192.434 239.037 203.685 239.976 214.566 240.884C225.498 241.797 235.823 242.659 244.876 246.945C252.377 250.497 258.186 251.07 261.675 248.602C264.811 246.384 265.289 242.32 265.077 240.268C264.818 237.761 265.678 235.467 266.674 232.81C267.61 230.314 268.671 227.484 268.898 223.989C269.342 217.167 264.705 211.931 255.49 208.847C245.852 205.621 234.288 205.206 224.085 204.841C213.946 204.477 205.19 204.163 200.928 201.167C200.863 201.122 200.813 201.059 200.782 200.985C200.752 200.912 200.743 200.832 200.756 200.754C201.023 199.17 201.544 197.013 202.147 194.517C204.442 185.023 208.282 169.133 206.099 152.463C205.314 146.464 202.959 142.872 201.122 140.914C199.134 138.795 197.305 138.08 197.287 138.073C197.183 138.034 197.099 137.954 197.053 137.853C197.008 137.751 197.004 137.636 197.044 137.532C197.083 137.428 197.162 137.344 197.264 137.298C197.365 137.253 197.48 137.249 197.584 137.288C197.665 137.319 199.58 138.06 201.697 140.301C203.634 142.35 206.113 146.104 206.932 152.354C209.134 169.179 205.272 185.164 202.964 194.714C202.397 197.057 201.904 199.099 201.63 200.629C205.774 203.344 214.286 203.649 224.116 204.002C234.375 204.37 246.004 204.787 255.757 208.051C265.373 211.269 270.207 216.799 269.736 224.044C269.501 227.663 268.417 230.554 267.461 233.105C266.502 235.662 265.674 237.87 265.913 240.182C266.143 242.415 265.612 246.845 262.16 249.287C260.571 250.411 258.609 250.973 256.288 250.973H256.288Z" fill="#111111"/>
<path d="M261.96 237.198C261.857 237.198 261.759 237.16 261.682 237.093C261.606 237.025 261.556 236.932 261.543 236.831C261.531 236.729 261.555 236.627 261.613 236.542C261.67 236.458 261.756 236.397 261.855 236.372C266.334 235.219 268.056 229.025 268.072 228.963C268.102 228.856 268.172 228.765 268.269 228.709C268.365 228.654 268.479 228.639 268.586 228.668C268.694 228.697 268.785 228.767 268.841 228.863C268.896 228.96 268.912 229.074 268.883 229.181C268.809 229.455 267.02 235.909 262.065 237.185C262.03 237.194 261.995 237.198 261.96 237.198V237.198ZM201.169 201.243C201.096 201.243 201.022 201.224 200.955 201.184C198.186 199.538 195.868 197.397 195.77 197.306C195.69 197.23 195.643 197.125 195.639 197.015C195.635 196.904 195.675 196.796 195.751 196.715C195.826 196.634 195.931 196.586 196.041 196.581C196.152 196.577 196.26 196.616 196.342 196.691C196.365 196.712 198.694 198.864 201.384 200.463C201.463 200.51 201.525 200.582 201.559 200.667C201.594 200.752 201.599 200.847 201.575 200.935C201.55 201.024 201.497 201.102 201.424 201.158C201.351 201.214 201.261 201.244 201.169 201.244V201.243Z" fill="#161616"/>
</g>
<g clip-path="url(#clip1_741_7028)">
<path d="M310.123 264.907C305.752 252.793 292.4 246.521 280.302 250.898C268.205 255.275 261.941 268.646 266.312 280.759C270.683 292.873 284.036 299.146 296.133 294.769C308.23 290.392 314.494 277.021 310.123 264.907ZM273.644 278.107C270.736 270.047 274.903 261.152 282.952 258.239C291 255.327 299.883 259.5 302.792 267.56C305.7 275.62 301.532 284.515 293.484 287.427C285.435 290.339 276.552 286.166 273.644 278.107Z" fill="#FF6996"/>
<path d="M288.241 296.578C278.532 296.578 269.403 290.56 265.918 280.902C263.765 274.938 264.062 268.491 266.752 262.749C269.442 257.007 274.204 252.658 280.16 250.503C292.456 246.054 306.074 252.451 310.517 264.764C312.67 270.729 312.373 277.176 309.683 282.918C306.993 288.66 302.231 293.009 296.275 295.164C293.624 296.123 290.91 296.578 288.241 296.578ZM288.195 249.928C285.62 249.928 283.003 250.367 280.445 251.293C274.7 253.372 270.106 257.567 267.511 263.106C264.916 268.644 264.631 274.863 266.707 280.617C268.783 286.37 272.972 290.969 278.503 293.568C284.035 296.166 290.245 296.453 295.99 294.374C301.736 292.295 306.329 288.1 308.924 282.561C311.519 277.022 311.805 270.803 309.729 265.05C306.367 255.734 297.56 249.928 288.195 249.928ZM288.233 288.772C281.716 288.772 275.589 284.732 273.249 278.249C271.805 274.246 272.003 269.918 273.809 266.064C275.615 262.21 278.811 259.291 282.809 257.844C286.807 256.398 291.128 256.597 294.977 258.405C298.826 260.213 301.741 263.414 303.186 267.417C306.168 275.682 301.88 284.836 293.626 287.822C291.897 288.45 290.072 288.771 288.233 288.772V288.772ZM288.203 257.735C286.461 257.735 284.732 258.04 283.094 258.634C279.307 260.005 276.279 262.77 274.569 266.421C272.858 270.072 272.67 274.171 274.038 277.964C276.254 284.104 282.059 287.931 288.232 287.932C289.975 287.931 291.703 287.627 293.341 287.032C301.16 284.203 305.222 275.532 302.397 267.703C300.181 261.562 294.376 257.735 288.203 257.735V257.735Z" fill="black"/>
<path d="M308.967 325.726L344.108 339.873L346.694 347.042L286.732 337.519L308.967 325.726Z" fill="#FF6996"/>
<path d="M346.695 347.462C346.673 347.462 346.651 347.46 346.629 347.457L286.667 337.934C286.58 337.92 286.5 337.879 286.437 337.817C286.375 337.755 286.334 337.674 286.319 337.588C286.305 337.501 286.318 337.411 286.357 337.332C286.396 337.253 286.459 337.189 286.536 337.147L308.771 325.354C308.825 325.326 308.885 325.309 308.946 325.306C309.007 325.303 309.068 325.313 309.124 325.336L344.264 339.483C344.375 339.528 344.462 339.618 344.502 339.73L347.089 346.899C347.112 346.962 347.119 347.03 347.11 347.097C347.101 347.164 347.077 347.228 347.038 347.283C346.999 347.338 346.948 347.383 346.888 347.414C346.828 347.445 346.762 347.462 346.695 347.462L346.695 347.462ZM288.039 337.301L346.059 346.516L343.777 340.193L308.992 326.188L288.039 337.301V337.301Z" fill="black"/>
<path d="M286.737 337.517L265.524 278.73L322.353 265.398L339.03 311.615L286.737 337.517Z" fill="#FF6996"/>
<path d="M286.737 337.937C286.651 337.937 286.566 337.911 286.496 337.861C286.425 337.811 286.372 337.741 286.342 337.66L265.129 278.872C265.109 278.817 265.101 278.757 265.106 278.698C265.11 278.639 265.127 278.582 265.155 278.529C265.183 278.477 265.222 278.432 265.269 278.396C265.316 278.36 265.37 278.334 265.428 278.321L322.256 264.989C322.356 264.966 322.462 264.98 322.552 265.029C322.642 265.078 322.712 265.159 322.747 265.256L339.424 311.473C339.459 311.57 339.457 311.676 339.418 311.772C339.38 311.868 339.307 311.946 339.215 311.992L286.923 337.894C286.865 337.922 286.801 337.937 286.737 337.937V337.937ZM266.079 279.031L286.972 336.932L338.507 311.405L322.084 265.892L266.079 279.031Z" fill="black"/>
<path d="M335.003 313.915C334.916 313.915 334.832 313.888 334.762 313.839C334.691 313.789 334.637 313.719 334.608 313.638L317.857 267.215C317.837 267.163 317.828 267.107 317.83 267.052C317.832 266.996 317.845 266.942 317.869 266.891C317.892 266.841 317.925 266.795 317.966 266.757C318.007 266.72 318.055 266.691 318.107 266.672C318.159 266.653 318.215 266.645 318.27 266.647C318.326 266.65 318.38 266.664 318.43 266.688C318.48 266.712 318.525 266.746 318.562 266.787C318.599 266.828 318.628 266.877 318.646 266.929L335.397 313.352C335.42 313.416 335.427 313.484 335.418 313.55C335.409 313.617 335.385 313.681 335.346 313.736C335.307 313.791 335.256 313.836 335.196 313.868C335.136 313.899 335.07 313.915 335.003 313.915Z" fill="black"/>
<path d="M343.577 289.671C346.52 288.606 348.045 285.353 346.981 282.405C345.917 279.457 342.668 277.931 339.724 278.996L324.683 284.438C321.739 285.504 320.215 288.757 321.278 291.705C322.342 294.653 325.591 296.179 328.535 295.114L343.577 289.671Z" fill="#FF6996"/>
<path d="M326.615 295.872C324.122 295.872 321.779 294.327 320.884 291.848C319.743 288.687 321.384 285.186 324.54 284.044L339.582 278.601C342.738 277.459 346.235 279.101 347.375 282.262C347.928 283.794 347.852 285.449 347.161 286.923C346.471 288.397 345.248 289.513 343.719 290.066L328.677 295.509C328.016 295.749 327.318 295.872 326.615 295.872L326.615 295.872ZM341.654 279.075C341.053 279.075 340.45 279.18 339.867 279.391L324.826 284.833C322.104 285.818 320.69 288.837 321.673 291.562C322.657 294.287 325.671 295.704 328.393 294.719L343.434 289.276C344.753 288.799 345.807 287.837 346.402 286.566C346.997 285.295 347.063 283.868 346.587 282.548C346.11 281.227 345.149 280.172 343.88 279.576C343.184 279.247 342.424 279.076 341.654 279.075H341.654Z" fill="black"/>
<path d="M326.463 291.928C327.62 291.928 328.559 290.988 328.559 289.829C328.559 288.67 327.62 287.73 326.463 287.73C325.305 287.73 324.366 288.67 324.366 289.829C324.366 290.988 325.305 291.928 326.463 291.928Z" fill="white"/>
<path d="M326.461 292.349C326.097 292.349 325.734 292.269 325.395 292.11C325.095 291.97 324.826 291.772 324.603 291.528C324.381 291.283 324.209 290.997 324.097 290.685C323.869 290.052 323.9 289.368 324.186 288.759C324.471 288.15 324.976 287.689 325.608 287.46C326.913 286.988 328.357 287.667 328.829 288.973C329.057 289.606 329.026 290.29 328.741 290.899C328.455 291.508 327.95 291.97 327.318 292.198C327.043 292.298 326.754 292.349 326.462 292.35L326.461 292.349ZM326.461 288.15C326.268 288.15 326.075 288.184 325.893 288.25C325.472 288.402 325.135 288.71 324.945 289.116C324.755 289.522 324.734 289.978 324.886 290.4C325.038 290.822 325.345 291.159 325.751 291.349C326.156 291.54 326.612 291.561 327.033 291.408C327.454 291.256 327.791 290.948 327.981 290.542C328.171 290.136 328.192 289.68 328.04 289.259C327.794 288.576 327.148 288.15 326.461 288.15ZM293.666 334.108C293.58 334.108 293.496 334.081 293.425 334.031C293.355 333.982 293.301 333.911 293.272 333.83L272.797 277.09C272.761 276.986 272.766 276.871 272.814 276.77C272.861 276.67 272.946 276.593 273.05 276.555C273.154 276.517 273.269 276.522 273.37 276.569C273.47 276.616 273.548 276.7 273.586 276.805L294.061 333.545C294.083 333.608 294.091 333.676 294.082 333.743C294.073 333.81 294.048 333.873 294.009 333.929C293.971 333.984 293.919 334.029 293.86 334.06C293.8 334.091 293.733 334.107 293.666 334.107V334.108Z" fill="black"/>
<path d="M348.98 355.37C343.611 353.577 340.709 347.766 342.498 342.389C344.288 337.012 350.092 334.106 355.461 335.898C354.528 338.455 349.913 352.813 348.98 355.37Z" fill="#FF6996"/>
<path d="M348.98 355.79C348.936 355.79 348.891 355.783 348.847 355.768C343.267 353.906 340.24 347.844 342.1 342.256C343.96 336.668 350.013 333.637 355.594 335.5C355.647 335.517 355.696 335.545 355.738 335.583C355.78 335.62 355.815 335.665 355.839 335.715C355.863 335.766 355.877 335.821 355.88 335.877C355.883 335.933 355.874 335.989 355.855 336.042C355.391 337.314 353.982 341.61 352.619 345.765C351.254 349.926 349.843 354.229 349.374 355.514C349.344 355.595 349.29 355.665 349.22 355.714C349.15 355.763 349.066 355.79 348.98 355.79H348.98ZM352.228 335.791C348.112 335.791 344.267 338.402 342.896 342.522C341.226 347.539 343.832 352.972 348.726 354.833C349.292 353.217 350.576 349.301 351.822 345.503C353.065 341.714 354.346 337.809 354.919 336.17C354.044 335.918 353.138 335.791 352.228 335.791V335.791Z" fill="black"/>
<path d="M351.715 335.499L345.881 353.647L351.715 335.499Z" fill="#FF6996"/>
<path d="M345.881 354.067C345.814 354.067 345.749 354.052 345.69 354.022C345.631 353.992 345.58 353.948 345.541 353.895C345.502 353.841 345.477 353.779 345.466 353.714C345.456 353.648 345.461 353.581 345.481 353.518L351.315 335.37C351.349 335.264 351.424 335.176 351.523 335.125C351.622 335.074 351.737 335.065 351.843 335.099C351.949 335.133 352.037 335.208 352.088 335.307C352.139 335.406 352.148 335.521 352.114 335.628L346.28 353.776C346.253 353.86 346.199 353.934 346.128 353.986C346.056 354.039 345.969 354.067 345.881 354.067Z" fill="black"/>
<path d="M394.027 414.78C394.027 414.78 394.282 433.373 400.534 432.253C406.744 431.141 400.717 420.12 394.027 414.78Z" fill="#92ACEF"/>
<path d="M399.998 432.722C399.24 432.722 398.534 432.456 397.893 431.926C393.843 428.578 393.615 415.347 393.607 414.786C393.606 414.706 393.628 414.628 393.669 414.56C393.711 414.492 393.771 414.438 393.842 414.403C393.914 414.368 393.993 414.354 394.072 414.363C394.151 414.371 394.226 414.402 394.288 414.452C399.441 418.565 404.44 426.185 403.418 430.227C403.083 431.554 402.111 432.397 400.607 432.667C400.401 432.704 400.197 432.722 399.998 432.722ZM394.476 415.698C394.603 418.779 395.256 428.658 398.427 431.278C399.047 431.79 399.712 431.974 400.459 431.84C401.648 431.627 402.35 431.032 402.605 430.021C403.417 426.81 399.529 420.049 394.476 415.698Z" fill="black"/>
<path d="M366.335 362.657C366.335 362.657 363.968 373.659 368.677 373.714C373.355 373.769 370.477 366.574 366.335 362.657Z" fill="#92ACEF"/>
<path d="M368.73 374.135C368.711 374.135 368.692 374.135 368.673 374.134C367.776 374.124 367.042 373.768 366.49 373.076C364.291 370.316 365.857 362.883 365.925 362.568C365.941 362.495 365.975 362.428 366.026 362.373C366.076 362.318 366.14 362.277 366.211 362.255C366.282 362.233 366.357 362.23 366.43 362.247C366.502 362.264 366.569 362.3 366.623 362.351C369.642 365.207 372.299 370.139 371.284 372.652C371.01 373.331 370.344 374.135 368.73 374.135H368.73ZM366.601 363.514C366.265 365.462 365.572 370.578 367.146 372.553C367.538 373.044 368.041 373.287 368.683 373.294C369.648 373.304 370.242 372.992 370.507 372.337C371.234 370.537 369.369 366.412 366.601 363.514H366.601Z" fill="black"/>
<path d="M391.86 366.625C391.86 366.625 396.326 379.613 401.279 376.694C406.199 373.793 398.656 368.099 391.86 366.625Z" fill="#92ACEF"/>
<path d="M399.798 377.542C399.411 377.542 399.019 377.469 398.624 377.323C394.626 375.846 391.591 367.132 391.463 366.762C391.439 366.691 391.434 366.616 391.449 366.543C391.463 366.469 391.497 366.402 391.546 366.346C391.596 366.29 391.659 366.249 391.73 366.226C391.8 366.202 391.876 366.199 391.949 366.215C396.873 367.282 402.722 370.722 403.24 373.95C403.379 374.815 403.188 376.055 401.491 377.055C400.941 377.38 400.375 377.542 399.798 377.542ZM392.526 367.215C393.342 369.335 395.915 375.427 398.915 376.535C399.662 376.811 400.365 376.744 401.066 376.332C402.115 375.713 402.556 374.978 402.412 374.084C402.019 371.638 397.412 368.48 392.526 367.215Z" fill="black"/>
<path d="M365.425 342.456C365.425 342.456 372.247 346.539 373.352 343.393C374.449 340.268 368.985 340.567 365.425 342.456Z" fill="#92ACEF"/>
<path d="M371.388 345C368.89 345 365.38 342.919 365.209 342.817C365.145 342.778 365.093 342.724 365.057 342.658C365.021 342.593 365.003 342.52 365.005 342.445C365.007 342.371 365.029 342.298 365.068 342.235C365.107 342.171 365.162 342.12 365.228 342.085C367.858 340.689 371.825 340.028 373.312 341.311C373.738 341.678 374.159 342.361 373.747 343.533C373.524 344.168 373.094 344.605 372.471 344.831C372.146 344.949 371.779 345 371.388 345V345ZM366.331 342.483C367.911 343.322 370.751 344.561 372.186 344.041C372.566 343.903 372.818 343.646 372.956 343.254C373.264 342.377 372.888 342.053 372.765 341.947C371.786 341.103 368.816 341.383 366.33 342.483L366.331 342.483Z" fill="black"/>
</g>
<g clip-path="url(#clip2_741_7028)">
<path d="M279.804 251.677C279.804 251.677 263.893 250.025 264.5 238.115C264.547 237.174 252.436 231.679 252.887 230.656C254.548 226.889 260.588 219.602 263.142 220.4C282.287 221.966 290.308 228.095 293.085 230.068C313.519 244.592 302.633 267.391 291.892 267.852C289.072 267.974 287.287 266.312 286.684 264.531C283.228 264.717 280.406 262.971 279.052 260.37C281.724 258.07 284.717 257.632 285.955 256.754C286.105 255.379 282.486 252.315 279.804 251.677L279.804 251.677Z" fill="#FFAAC3"/>
<path d="M291.598 268.279C288.762 268.279 287.064 266.574 286.399 264.962C283.077 265.036 280.138 263.367 278.679 260.561C278.64 260.486 278.625 260.4 278.635 260.316C278.645 260.231 278.681 260.152 278.737 260.088C279.516 259.21 282.904 257.235 285.494 256.64C284.751 254.93 283.387 253.133 279.714 252.088C279.324 252.026 275.432 251.372 271.59 249.42C266.316 246.74 263.719 242.876 264.069 238.238C263.545 237.779 260.943 236.243 258.829 234.996C257.3 234.093 255.719 233.16 254.545 232.424C252.544 231.169 252.322 230.898 252.504 230.486C253.319 228.637 255.532 225.872 258.01 223.607C259.649 222.108 262.651 219.685 264.445 220.187C284.617 221.924 294.503 229.842 298.602 234.41C305.217 241.781 307.203 250.86 303.915 258.697C301.563 264.301 296.851 268.059 291.91 268.272C291.805 268.276 291.701 268.279 291.598 268.279L291.598 268.279ZM286.684 264.111C286.863 264.111 287.023 264.225 287.081 264.396C287.58 265.871 289.134 267.551 291.874 267.433C296.493 267.234 300.915 263.678 303.141 258.372C306.301 250.842 304.371 242.094 297.978 234.971C293.959 230.493 284.243 222.726 264.331 221.02C264.301 221.018 264.271 221.012 264.242 221.003C263.273 220.7 261.048 221.965 258.575 224.227C256.27 226.335 254.212 228.864 253.369 230.613C254.038 231.193 257.028 232.958 259.255 234.272C264.788 237.538 264.956 237.722 264.917 238.153C264.523 242.548 266.89 246.084 271.953 248.662C275.798 250.62 279.827 251.256 279.867 251.262C279.884 251.265 279.901 251.268 279.918 251.273C284.327 252.52 285.733 254.884 286.466 256.804C286.488 256.862 286.497 256.925 286.492 256.987C286.487 257.049 286.469 257.109 286.437 257.163C286.406 257.217 286.363 257.264 286.312 257.299C286.261 257.335 286.202 257.358 286.141 257.368C283.937 257.723 280.625 259.53 279.572 260.445C280.97 262.875 283.658 264.273 286.662 264.112C286.669 264.112 286.677 264.111 286.684 264.111L286.684 264.111Z" fill="black"/>
<path d="M286.407 258.583C286.311 258.583 286.218 258.55 286.143 258.49C286.069 258.429 286.017 258.345 285.997 258.251C284.868 252.979 279.37 252.02 279.315 252.011C279.206 251.992 279.11 251.931 279.046 251.841C278.982 251.751 278.956 251.639 278.974 251.53C278.992 251.421 279.052 251.323 279.141 251.258C279.23 251.193 279.341 251.166 279.45 251.183C279.511 251.193 285.57 252.249 286.817 258.075C286.83 258.136 286.829 258.2 286.815 258.261C286.8 258.322 286.772 258.379 286.733 258.427C286.694 258.476 286.644 258.515 286.588 258.542C286.531 258.569 286.469 258.583 286.407 258.583L286.407 258.583ZM287.127 264.966C286.969 264.966 286.812 264.961 286.655 264.95C286.424 264.933 286.25 264.732 286.266 264.501C286.282 264.27 286.484 264.096 286.714 264.112C289.976 264.343 293.435 261.844 295.132 258.037C296.162 255.729 297.875 249.698 291.565 243.573C291.525 243.535 291.493 243.489 291.471 243.439C291.449 243.388 291.437 243.333 291.436 243.278C291.435 243.223 291.444 243.167 291.465 243.116C291.485 243.064 291.515 243.017 291.554 242.978C291.592 242.938 291.638 242.906 291.689 242.884C291.74 242.862 291.794 242.851 291.85 242.85C291.905 242.849 291.96 242.859 292.011 242.88C292.063 242.901 292.109 242.931 292.149 242.97C296.79 247.475 298.192 253.236 295.898 258.38C294.14 262.323 290.586 264.966 287.127 264.966V264.966Z" fill="black"/>
<path d="M197.373 137.658C197.373 137.658 204.886 140.504 206.44 152.391C209.207 173.567 202.368 193.305 201.102 200.827C209.47 206.72 236.253 202.009 255.48 208.455C264.713 211.551 269.62 216.859 269.155 224.029C268.689 231.2 264.844 235.459 265.338 240.245C265.831 245.031 262.758 255.975 244.568 247.347C226.378 238.718 202.023 243.985 182.246 234.827C170.938 229.59 159.284 217.787 163.957 196.766C167.998 178.584 179.4 166.229 176.351 158.087" fill="#FBB348"/>
<path d="M256.143 250.997C252.912 250.997 248.983 249.906 244.388 247.726C235.485 243.504 225.248 242.647 214.409 241.741C203.471 240.827 192.16 239.881 182.069 235.208C177.426 233.057 170.998 229.009 166.749 221.932C162.479 214.822 161.402 206.324 163.547 196.675C165.366 188.489 168.611 181.602 171.473 175.526C174.885 168.285 177.579 162.565 175.957 158.234C175.938 158.183 175.929 158.128 175.931 158.073C175.933 158.018 175.945 157.963 175.968 157.913C175.991 157.863 176.023 157.818 176.064 157.78C176.104 157.742 176.151 157.713 176.203 157.694C176.254 157.674 176.309 157.665 176.364 157.667C176.419 157.669 176.473 157.682 176.523 157.705C176.573 157.727 176.619 157.76 176.656 157.8C176.694 157.841 176.723 157.888 176.742 157.939C178.489 162.603 175.728 168.464 172.232 175.884C169.388 181.921 166.164 188.763 164.365 196.858C159.049 220.774 175.221 231.111 182.421 234.446C192.377 239.056 203.613 239.996 214.479 240.904C225.395 241.817 235.706 242.679 244.746 246.967C252.237 250.521 258.038 251.094 261.522 248.625C264.654 246.406 265.131 242.341 264.92 240.288C264.661 237.779 265.52 235.484 266.515 232.827C267.449 230.33 268.509 227.499 268.736 224.002C269.179 217.177 264.549 211.939 255.346 208.854C245.721 205.627 234.174 205.212 223.985 204.846C213.86 204.482 205.116 204.168 200.86 201.171C200.795 201.125 200.745 201.062 200.714 200.989C200.684 200.916 200.675 200.835 200.688 200.757C200.955 199.172 201.475 197.015 202.077 194.518C204.369 185.02 208.203 169.123 206.024 152.446C205.239 146.445 202.888 142.851 201.054 140.893C199.068 138.773 197.242 138.058 197.224 138.051C197.12 138.011 197.036 137.931 196.991 137.83C196.945 137.728 196.942 137.613 196.981 137.509C197.021 137.405 197.1 137.321 197.201 137.275C197.302 137.23 197.417 137.226 197.521 137.265C197.601 137.296 199.514 138.037 201.628 140.279C203.562 142.329 206.038 146.085 206.855 152.337C209.055 169.169 205.197 185.161 202.893 194.715C202.327 197.059 201.834 199.102 201.561 200.632C205.699 203.348 214.2 203.654 224.015 204.007C234.261 204.375 245.873 204.792 255.613 208.057C265.216 211.277 270.043 216.809 269.573 224.057C269.338 227.677 268.255 230.57 267.3 233.122C266.343 235.68 265.516 237.89 265.754 240.202C265.985 242.436 265.455 246.868 262.007 249.311C260.42 250.436 258.461 250.997 256.143 250.998L256.143 250.997Z" fill="#111111"/>
<path d="M261.807 237.216C261.705 237.216 261.606 237.179 261.53 237.111C261.453 237.044 261.404 236.95 261.391 236.849C261.378 236.747 261.403 236.645 261.46 236.56C261.518 236.476 261.604 236.415 261.702 236.39C266.175 235.237 267.894 229.04 267.911 228.978C267.94 228.871 268.011 228.779 268.107 228.724C268.203 228.669 268.317 228.654 268.424 228.683C268.531 228.712 268.623 228.782 268.678 228.878C268.734 228.974 268.749 229.089 268.721 229.196C268.647 229.47 266.86 235.927 261.911 237.203C261.877 237.212 261.842 237.216 261.807 237.216V237.216ZM201.101 201.247C201.028 201.247 200.954 201.228 200.887 201.188C198.122 199.541 195.806 197.398 195.709 197.308C195.628 197.232 195.58 197.127 195.575 197.016C195.571 196.904 195.612 196.796 195.687 196.714C195.763 196.633 195.868 196.584 195.979 196.58C196.09 196.576 196.198 196.616 196.28 196.692C196.303 196.714 198.629 198.866 201.315 200.466C201.394 200.513 201.456 200.584 201.49 200.67C201.524 200.755 201.53 200.85 201.505 200.938C201.481 201.027 201.428 201.105 201.355 201.161C201.282 201.217 201.192 201.247 201.101 201.247Z" fill="#161616"/>
</g>
<g clip-path="url(#clip3_741_7028)">
<path d="M367.104 469.475C377.24 452.924 401.629 436.421 429.111 436.421C455.262 436.421 479.786 452.924 490.859 469.484" fill="white"/>
<path d="M490.859 469.903C490.723 469.903 490.59 469.838 490.51 469.717C479.585 453.379 454.987 436.84 429.111 436.84C401.847 436.84 377.46 453.368 367.461 469.694C367.432 469.741 367.394 469.782 367.35 469.814C367.305 469.846 367.255 469.87 367.201 469.883C367.093 469.909 366.979 469.89 366.884 469.832C366.789 469.774 366.721 469.681 366.695 469.573C366.669 469.464 366.687 469.35 366.745 469.255C372.067 460.567 380.82 452.442 391.394 446.377C403.228 439.589 416.271 436.001 429.111 436.001C441.328 436.001 454.031 439.589 465.848 446.378C476.388 452.434 485.394 460.557 491.207 469.25C491.249 469.313 491.274 469.387 491.277 469.463C491.281 469.538 491.264 469.614 491.228 469.681C491.193 469.748 491.139 469.804 491.074 469.843C491.009 469.882 490.935 469.903 490.859 469.903V469.903Z" fill="black"/>
<path d="M432.95 436.332L430.901 245.739L427.573 245.503L425.104 436.492L432.95 436.332Z" fill="#6F5490"/>
<path d="M424.68 436.92L424.685 436.487L427.159 245.053L431.317 245.348L431.321 245.735L433.375 436.743L424.68 436.921L424.68 436.92ZM427.987 245.953L425.53 436.064L432.527 435.921L430.486 246.13L427.987 245.953H427.987Z" fill="black"/>
<path d="M430.586 276.038C467.257 276.038 496.984 246.308 496.984 209.635C496.984 172.961 467.257 143.231 430.586 143.231C393.916 143.231 364.188 172.961 364.188 209.635C364.188 246.308 393.916 276.038 430.586 276.038Z" fill="#EF4910"/>
<path d="M430.587 276.458C421.567 276.458 412.816 274.691 404.579 271.206C396.622 267.841 389.476 263.022 383.34 256.886C377.204 250.749 372.386 243.603 369.021 235.645C365.536 227.407 363.77 218.656 363.77 209.635C363.77 200.614 365.536 191.863 369.021 183.624C372.386 175.667 377.204 168.521 383.34 162.384C389.476 156.247 396.622 151.429 404.579 148.063C412.816 144.579 421.567 142.812 430.587 142.812C439.607 142.812 448.358 144.579 456.595 148.063C464.552 151.429 471.698 156.247 477.834 162.384C483.97 168.521 488.788 175.667 492.153 183.624C495.638 191.863 497.404 200.614 497.404 209.635C497.404 218.656 495.638 227.407 492.153 235.645C488.788 243.603 483.97 250.749 477.834 256.886C471.698 263.022 464.552 267.841 456.595 271.206C448.358 274.691 439.607 276.458 430.587 276.458ZM430.587 143.651C394.206 143.651 364.609 173.251 364.609 209.635C364.609 246.018 394.206 275.619 430.587 275.619C466.968 275.619 496.565 246.018 496.565 209.635C496.565 173.251 466.968 143.651 430.587 143.651Z" fill="#111111"/>
<path d="M505.154 160.54C505.154 160.54 481.669 160.188 477.618 181.858C477.618 181.858 498.245 184.423 505.154 160.54Z" fill="#EF4910"/>
<path d="M479.393 182.362C478.305 182.362 477.641 182.284 477.566 182.274C477.509 182.267 477.454 182.249 477.405 182.22C477.356 182.191 477.313 182.152 477.279 182.106C477.245 182.059 477.221 182.007 477.209 181.951C477.196 181.895 477.195 181.837 477.205 181.781C478.144 176.759 480.201 172.493 483.32 169.101C485.814 166.388 488.985 164.229 492.745 162.684C499.129 160.061 504.916 160.116 505.16 160.12C505.225 160.121 505.288 160.137 505.345 160.166C505.403 160.196 505.453 160.238 505.491 160.29C505.529 160.342 505.555 160.402 505.567 160.465C505.578 160.529 505.575 160.594 505.557 160.656C503.962 166.167 501.502 170.735 498.244 174.232C495.63 177.037 492.502 179.162 488.947 180.546C484.996 182.084 481.443 182.362 479.393 182.362L479.393 182.362ZM478.119 181.479C479.491 181.567 483.825 181.649 488.678 179.75C493.988 177.673 501.019 172.728 504.589 160.969C502.983 161.024 498.146 161.366 493.038 163.471C484.874 166.835 479.856 172.893 478.119 181.479Z" fill="#111111"/>
<path d="M480.394 146.409C480.394 146.409 465.74 160.395 480.394 172.943C480.394 172.943 495.048 161.711 480.394 146.409Z" fill="#EF4910"/>
<path d="M480.394 173.363C480.296 173.363 480.199 173.329 480.121 173.262C475.828 169.586 473.589 165.42 473.466 160.88C473.247 152.746 479.824 146.373 480.104 146.105C480.184 146.029 480.292 145.987 480.403 145.989C480.514 145.992 480.62 146.038 480.697 146.119C485.454 151.086 487.67 156.163 487.283 161.207C486.721 168.542 480.896 173.086 480.649 173.276C480.573 173.334 480.483 173.363 480.394 173.363H480.394ZM480.388 147.013C479.108 148.361 474.119 154.063 474.305 160.863C474.42 165.06 476.47 168.937 480.4 172.393C481.535 171.419 485.984 167.23 486.447 161.134C486.804 156.446 484.766 151.697 480.388 147.014V147.013Z" fill="#111111"/>
<path d="M386.334 281.933C386.334 281.933 404.681 286.106 407.575 268.459C407.575 268.459 391.432 262.888 386.334 281.933Z" fill="#EF4910"/>
<path d="M390.911 282.794C388.292 282.794 386.404 282.379 386.241 282.342C386.185 282.329 386.134 282.306 386.088 282.273C386.042 282.24 386.003 282.198 385.974 282.149C385.945 282.101 385.926 282.047 385.918 281.991C385.91 281.936 385.914 281.879 385.928 281.824C387.59 275.616 390.588 271.323 394.839 269.064C400.979 265.801 407.439 267.969 407.711 268.063C407.805 268.095 407.884 268.159 407.935 268.244C407.985 268.329 408.004 268.429 407.988 268.527C407.141 273.696 404.901 277.535 401.332 279.937C397.903 282.244 393.924 282.794 390.911 282.794H390.911ZM386.859 281.606C388.64 281.915 395.565 282.809 400.868 279.237C404.152 277.025 406.247 273.5 407.098 268.754C405.705 268.364 400.267 267.125 395.225 269.809C391.291 271.903 388.478 275.871 386.859 281.606Z" fill="#111111"/>
<path d="M415.407 281.284C415.407 281.284 422.053 268.659 409.455 263.569C409.455 263.569 402.191 274.356 415.407 281.284Z" fill="#EF4910"/>
<path d="M415.406 281.704C415.341 281.704 415.274 281.689 415.212 281.656C410.889 279.39 408.249 276.471 407.367 272.981C406.084 267.904 408.983 263.519 409.107 263.335C409.16 263.255 409.24 263.196 409.332 263.168C409.424 263.14 409.523 263.144 409.612 263.18C413.336 264.685 415.789 266.988 416.902 270.026C418.892 275.458 415.906 281.236 415.778 281.48C415.742 281.547 415.689 281.604 415.623 281.644C415.558 281.683 415.483 281.704 415.406 281.704H415.406ZM409.626 264.094C409.026 265.129 407.168 268.783 408.183 272.783C408.98 275.926 411.346 278.59 415.217 280.707C415.831 279.352 417.696 274.626 416.112 270.309C415.116 267.595 412.935 265.505 409.626 264.094H409.626Z" fill="#111111"/>
<path d="M412.859 156.436C412.859 156.436 418.015 141.165 403.871 135.541C403.871 135.541 397.782 148.643 412.859 156.436Z" fill="#EF4910"/>
<path d="M412.858 156.855C412.792 156.855 412.726 156.839 412.665 156.808C404.707 152.695 402.632 147.084 402.292 143.102C401.925 138.791 403.426 135.502 403.49 135.364C403.535 135.267 403.616 135.191 403.715 135.151C403.815 135.112 403.926 135.112 404.025 135.151C411.526 138.134 413.636 143.814 414.085 148.053C414.568 152.613 413.309 156.411 413.256 156.57C413.228 156.653 413.174 156.725 413.103 156.777C413.031 156.828 412.946 156.855 412.858 156.855V156.855ZM404.099 136.088C403.731 137.048 402.843 139.774 403.131 143.066C403.599 148.4 406.784 152.691 412.601 155.825C412.916 154.676 413.622 151.588 413.248 148.114C412.637 142.429 409.559 138.385 404.099 136.088Z" fill="#111111"/>
<path d="M452.858 254.696C457.247 245.062 468.613 240.811 478.246 245.199C487.879 249.589 492.129 260.956 487.74 270.589C483.352 280.223 471.986 284.474 462.353 280.086C452.72 275.696 448.47 264.329 452.858 254.696Z" fill="#FBB348"/>
<path d="M470.289 282.241C467.525 282.241 464.769 281.648 462.179 280.468C452.352 275.99 447.999 264.35 452.477 254.522C454.645 249.761 458.538 246.129 463.438 244.296C468.338 242.463 473.659 242.648 478.419 244.817C488.247 249.296 492.599 260.935 488.122 270.763C485.953 275.524 482.06 279.156 477.16 280.989C474.926 281.824 472.605 282.241 470.289 282.241H470.289ZM452.858 254.696L453.24 254.87C448.955 264.277 453.121 275.418 462.527 279.704C467.083 281.78 472.176 281.957 476.866 280.203C481.556 278.448 485.282 274.973 487.358 270.415C491.644 261.008 487.478 249.868 478.072 245.581C473.515 243.505 468.422 243.328 463.732 245.082C459.042 246.837 455.316 250.312 453.24 254.869L452.858 254.696V254.696Z" fill="#111111"/>
<path d="M466.148 274.393C466.087 274.393 466.027 274.38 465.971 274.354L463.928 273.403C463.827 273.356 463.749 273.271 463.711 273.167C463.673 273.062 463.678 272.947 463.724 272.846L464.833 270.448C461.246 268.546 460.745 265.633 460.725 265.505C460.709 265.404 460.73 265.301 460.785 265.215C460.84 265.129 460.924 265.065 461.022 265.037L464.492 264.03C464.546 264.015 464.602 264.01 464.658 264.017C464.714 264.023 464.767 264.041 464.816 264.068C464.865 264.096 464.908 264.133 464.942 264.178C464.976 264.223 465.001 264.273 465.015 264.328C465.376 265.717 467.087 266.925 467.426 267.079C467.463 267.095 467.518 267.123 467.591 267.16C468.084 267.413 469.586 268.182 470.582 267.815C470.933 267.686 471.187 267.422 471.357 267.009C472.16 265.07 468.834 263.157 468.801 263.138C468.745 263.105 463.972 260.209 466.133 255.444C467.976 251.377 471.769 252.136 472.983 252.503L474.208 249.894C474.255 249.794 474.34 249.717 474.443 249.679C474.547 249.641 474.662 249.645 474.762 249.691L476.735 250.59C476.836 250.636 476.915 250.72 476.954 250.824C476.993 250.928 476.989 251.044 476.944 251.145L475.788 253.703C478.286 254.919 479.353 257.138 479.399 257.237C479.443 257.331 479.451 257.438 479.421 257.538C479.39 257.637 479.324 257.722 479.235 257.776L476.333 259.508C476.285 259.537 476.232 259.555 476.176 259.563C476.12 259.571 476.064 259.567 476.01 259.553C475.955 259.538 475.905 259.513 475.86 259.478C475.816 259.444 475.779 259.401 475.752 259.352C474.471 257.046 472.847 256.252 471.759 256.276C471.176 256.289 470.721 256.538 470.511 256.959C469.952 258.083 470.683 258.646 472.255 259.712C472.456 259.849 472.663 259.989 472.87 260.135C476.297 262.549 477.302 265.596 475.775 268.947C473.875 273.118 469.011 272.099 467.625 271.71L466.531 274.145C466.497 274.219 466.444 274.282 466.376 274.326C466.308 274.37 466.229 274.393 466.148 274.393L466.148 274.393ZM464.661 272.819L465.94 273.414L467.011 271.028C467.054 270.932 467.132 270.855 467.23 270.814C467.327 270.773 467.437 270.77 467.536 270.806C467.763 270.887 473.117 272.757 475.012 268.598C476.369 265.62 475.486 263.004 472.387 260.821C472.187 260.681 471.986 260.543 471.784 260.407C470.341 259.428 468.849 258.416 469.76 256.585C470.113 255.876 470.834 255.458 471.74 255.437C473.009 255.408 474.833 256.226 476.267 258.57L478.455 257.264C478.051 256.599 476.969 255.094 475.07 254.299C475.019 254.278 474.972 254.246 474.933 254.206C474.893 254.166 474.863 254.118 474.842 254.066C474.822 254.014 474.812 253.958 474.813 253.902C474.814 253.846 474.827 253.791 474.85 253.74L476.006 251.181L474.791 250.627L473.583 253.2C473.537 253.298 473.455 253.374 473.354 253.413C473.253 253.452 473.14 253.45 473.041 253.408C472.867 253.336 468.758 251.683 466.897 255.791C465.049 259.866 469.05 262.31 469.221 262.412C469.377 262.501 473.218 264.707 472.132 267.33C471.871 267.963 471.447 268.391 470.872 268.603C469.531 269.097 467.783 268.202 467.208 267.908C467.151 267.879 467.107 267.856 467.079 267.843C466.635 267.642 464.953 266.457 464.339 264.949L461.644 265.731C461.893 266.538 462.768 268.53 465.566 269.878C465.665 269.926 465.741 270.011 465.779 270.115C465.816 270.218 465.811 270.333 465.764 270.433L464.661 272.819L464.661 272.819Z" fill="#111111"/>
<path d="M357.186 239.516C351.066 233.127 351.283 222.986 357.671 216.865C364.06 210.745 374.199 210.962 380.32 217.351C386.44 223.739 386.223 233.881 379.835 240.001C373.446 246.122 363.307 245.904 357.186 239.516V239.516Z" fill="#FBB348"/>
<path d="M368.757 244.865C364.429 244.865 360.107 243.17 356.883 239.806C353.845 236.635 352.224 232.471 352.318 228.081C352.412 223.691 354.21 219.6 357.38 216.562C363.926 210.292 374.352 210.515 380.622 217.06C383.66 220.231 385.281 224.395 385.187 228.785C385.093 233.175 383.295 237.266 380.125 240.304C376.945 243.351 372.848 244.864 368.757 244.864V244.865ZM368.749 212.84C364.867 212.84 360.979 214.277 357.961 217.168C354.952 220.051 353.246 223.933 353.157 228.099C353.068 232.265 354.606 236.216 357.489 239.225C360.548 242.418 364.65 244.026 368.757 244.026C372.639 244.026 376.526 242.59 379.544 239.698C382.553 236.815 384.259 232.933 384.348 228.767C384.437 224.601 382.899 220.65 380.016 217.641C376.958 214.448 372.856 212.84 368.749 212.84L368.749 212.84Z" fill="#111111"/>
<path d="M368.786 236.89C368.321 236.89 368.032 236.829 367.997 236.821C367.897 236.798 367.809 236.74 367.75 236.657C367.69 236.574 367.662 236.473 367.672 236.371L367.964 233.366C367.97 233.31 367.986 233.256 368.013 233.206C368.04 233.157 368.076 233.114 368.12 233.079C368.164 233.044 368.214 233.018 368.268 233.002C368.322 232.987 368.379 232.983 368.434 232.99C369.583 233.134 371.048 232.191 371.26 231.988C371.285 231.964 371.324 231.929 371.376 231.883C372.297 231.078 372.772 230.381 372.787 229.813C372.794 229.521 372.675 229.259 372.422 229.013C371.224 227.847 368.742 229.784 368.717 229.804C368.672 229.839 364.898 232.686 361.825 229.489C359.249 226.81 360.925 224.111 361.621 223.216L360.016 221.501C359.94 221.42 359.899 221.313 359.903 221.203C359.906 221.092 359.952 220.987 360.032 220.911L361.341 219.657C361.421 219.581 361.528 219.539 361.639 219.541C361.75 219.543 361.856 219.589 361.933 219.669L363.515 221.31C365.24 219.773 367.277 219.632 367.368 219.627C367.472 219.621 367.575 219.653 367.656 219.719C367.737 219.784 367.791 219.877 367.808 219.979L368.255 222.768C368.264 222.823 368.261 222.88 368.248 222.935C368.234 222.989 368.21 223.041 368.176 223.086C368.143 223.131 368.1 223.168 368.052 223.197C368.003 223.225 367.95 223.243 367.894 223.251C365.738 223.528 364.638 224.519 364.327 225.354C364.166 225.787 364.213 226.191 364.458 226.465C365.089 227.17 365.668 226.884 367.044 225.952C367.213 225.837 367.387 225.72 367.564 225.604C370.53 223.67 373.236 223.836 375.391 226.085C378.035 228.846 375.83 232.28 375.055 233.311L376.566 234.872C376.604 234.912 376.635 234.959 376.655 235.011C376.675 235.063 376.685 235.118 376.684 235.173C376.682 235.229 376.67 235.284 376.647 235.334C376.625 235.385 376.592 235.431 376.552 235.469L375.181 236.761C375.101 236.837 374.993 236.878 374.882 236.875C374.771 236.872 374.665 236.825 374.589 236.744L373.115 235.188C371.381 236.639 369.724 236.89 368.786 236.89L368.786 236.89ZM368.547 236.046C369.283 236.091 371.025 235.979 372.859 234.297C372.94 234.223 373.047 234.183 373.157 234.187C373.267 234.191 373.371 234.238 373.447 234.318L374.91 235.863L375.667 235.15L374.196 233.63C374.122 233.554 374.08 233.453 374.078 233.348C374.075 233.242 374.113 233.139 374.183 233.06C374.315 232.911 377.383 229.377 374.785 226.666C372.919 224.718 370.644 224.597 368.023 226.307C367.849 226.42 367.68 226.535 367.515 226.647C366.285 227.48 365.012 228.343 363.832 227.024C363.38 226.519 363.271 225.785 363.541 225.062C363.915 224.059 365.111 222.888 367.36 222.484L367.044 220.517C366.379 220.638 364.952 221.022 363.802 222.196C363.763 222.236 363.716 222.268 363.664 222.289C363.612 222.311 363.557 222.322 363.501 222.321C363.444 222.321 363.389 222.31 363.337 222.288C363.286 222.266 363.239 222.234 363.2 222.193L361.619 220.553L360.912 221.231L362.489 222.915C362.563 222.994 362.603 223.099 362.602 223.207C362.601 223.315 362.558 223.419 362.482 223.496C362.374 223.606 359.865 226.241 362.43 228.908C364.978 231.558 368.069 229.245 368.199 229.145C368.316 229.051 371.263 226.715 373.007 228.412C373.432 228.825 373.64 229.304 373.626 229.836C373.594 231.06 372.341 232.156 371.929 232.516C371.89 232.55 371.859 232.577 371.841 232.594C371.547 232.876 370.125 233.805 368.761 233.843L368.547 236.047L368.547 236.046Z" fill="#111111"/>
<path d="M406.848 176.933C410.952 170.816 419.238 169.183 425.355 173.288C431.473 177.393 433.104 185.679 429 191.797C424.896 197.915 416.609 199.547 410.492 195.443C404.374 191.338 402.743 183.051 406.847 176.933L406.848 176.933Z" fill="#FBB348"/>
<path d="M417.895 198.129C415.194 198.129 412.553 197.331 410.259 195.792C403.96 191.565 402.273 183 406.5 176.7C408.547 173.648 411.66 171.576 415.266 170.866C418.872 170.155 422.538 170.892 425.59 172.939C431.889 177.167 433.575 185.731 429.349 192.031C427.302 195.083 424.188 197.155 420.583 197.865C419.698 198.04 418.798 198.128 417.895 198.129L417.895 198.129ZM407.197 177.167C403.228 183.083 404.811 191.126 410.726 195.095C413.592 197.017 417.035 197.709 420.42 197.042C423.806 196.375 426.73 194.429 428.652 191.564C432.621 185.648 431.037 177.606 425.122 173.636C422.256 171.714 418.814 171.022 415.428 171.689C412.042 172.356 409.119 174.302 407.197 177.167V177.167Z" fill="#111111"/>
<path d="M413.79 192.095C413.706 192.095 413.624 192.07 413.553 192.022L412.258 191.138C412.167 191.075 412.103 190.979 412.083 190.87C412.062 190.76 412.085 190.647 412.148 190.556L413.114 189.133C410.911 187.398 410.897 185.337 410.897 185.246C410.898 185.144 410.936 185.046 411.004 184.969C411.072 184.893 411.166 184.844 411.267 184.832L413.764 184.534C413.819 184.527 413.876 184.532 413.93 184.548C413.984 184.563 414.034 184.589 414.077 184.625C414.165 184.696 414.221 184.8 414.231 184.913C414.316 185.847 415.321 186.847 415.52 186.98C415.544 186.996 415.58 187.023 415.628 187.058C416.431 187.651 417.064 187.909 417.508 187.824C417.727 187.782 417.903 187.648 418.047 187.416C418.747 186.29 416.778 184.651 416.758 184.635C415.683 183.733 414.102 181.377 415.772 178.88C417.318 176.565 419.612 176.915 420.877 177.536L421.946 175.982C422.009 175.891 422.105 175.828 422.213 175.808C422.322 175.787 422.434 175.81 422.526 175.871L423.779 176.712C423.871 176.774 423.935 176.87 423.956 176.979C423.978 177.088 423.956 177.201 423.894 177.294L422.879 178.817C424.413 179.959 424.886 181.576 424.907 181.649C424.935 181.749 424.925 181.856 424.879 181.95C424.833 182.043 424.754 182.116 424.657 182.154L422.469 183.015C422.416 183.035 422.36 183.045 422.304 183.044C422.248 183.042 422.193 183.03 422.142 183.006C422.09 182.983 422.044 182.95 422.006 182.909C421.968 182.867 421.939 182.819 421.92 182.766C421.32 181.091 420.343 180.386 419.629 180.285C419.276 180.235 418.979 180.336 418.816 180.561C418.386 181.157 418.694 181.54 419.686 182.482C419.809 182.599 419.936 182.719 420.063 182.843C422.161 184.908 422.521 187.231 421.076 189.385C419.493 191.745 416.656 191.191 415.102 190.457L414.14 191.907C414.101 191.965 414.049 192.012 413.988 192.045C413.927 192.077 413.859 192.095 413.79 192.095L413.79 192.095ZM413.077 190.681L413.675 191.089L414.61 189.681C414.668 189.592 414.758 189.53 414.861 189.505C414.963 189.48 415.072 189.495 415.164 189.546C415.306 189.625 418.674 191.46 420.379 188.918C421.609 187.084 421.305 185.242 419.474 183.442C419.351 183.321 419.228 183.205 419.108 183.091C418.232 182.258 417.238 181.315 418.136 180.07C418.482 179.591 419.084 179.361 419.747 179.454C420.638 179.581 421.81 180.341 422.552 182.08L423.965 181.524C423.733 180.991 423.173 179.971 422.077 179.285C422.029 179.255 421.988 179.216 421.956 179.17C421.924 179.124 421.901 179.072 421.889 179.017C421.878 178.962 421.877 178.906 421.887 178.851C421.898 178.796 421.919 178.743 421.95 178.696L422.964 177.176L422.402 176.799L421.353 178.325C421.291 178.414 421.198 178.476 421.092 178.498C420.986 178.52 420.875 178.5 420.784 178.443C420.678 178.377 418.142 176.842 416.469 179.346C414.804 181.837 417.189 183.901 417.292 183.988C417.39 184.067 419.861 186.086 418.76 187.859C418.489 188.295 418.121 188.56 417.666 188.648C416.742 188.825 415.775 188.211 415.129 187.733C415.095 187.708 415.069 187.689 415.052 187.677C414.758 187.481 413.772 186.523 413.473 185.414L411.777 185.616C411.89 186.243 412.317 187.561 413.927 188.693C414.018 188.757 414.079 188.853 414.099 188.961C414.119 189.069 414.095 189.181 414.033 189.272L413.077 190.681Z" fill="#111111"/>
<path d="M498.136 252.633C498.136 252.633 492.683 237.647 480.23 246.583C480.23 246.583 483.825 260.942 498.136 252.633Z" fill="#EF4910"/>
<path d="M490.04 255.642C488.741 255.642 487.521 255.402 486.383 254.921C481.41 252.82 479.886 246.935 479.823 246.685C479.803 246.604 479.807 246.518 479.836 246.439C479.865 246.36 479.917 246.292 479.986 246.243C483.686 243.587 487.163 242.736 490.32 243.711C495.907 245.437 498.425 252.202 498.53 252.489C498.563 252.582 498.564 252.683 498.53 252.776C498.496 252.869 498.431 252.946 498.346 252.996C495.311 254.758 492.531 255.642 490.04 255.642ZM480.716 246.754C481.075 247.915 482.709 252.461 486.715 254.15C489.705 255.411 493.369 254.839 497.61 252.45C497.038 251.093 494.588 245.906 490.069 244.512C487.244 243.64 484.098 244.395 480.716 246.754Z" fill="#111111"/>
<path d="M480.2 246.776C480.2 246.776 484.676 234.668 472.776 231.586C472.776 231.586 467.529 242.117 480.2 246.776Z" fill="#EF4910"/>
<path d="M480.2 247.196C480.152 247.196 480.103 247.187 480.055 247.17C475.899 245.642 473.18 243.326 471.974 240.289C470.218 235.869 472.31 231.579 472.4 231.399C472.443 231.313 472.514 231.244 472.602 231.204C472.689 231.164 472.788 231.156 472.881 231.18C476.411 232.094 478.89 233.878 480.251 236.482C482.684 241.137 480.68 246.687 480.593 246.921C480.564 247.002 480.51 247.071 480.44 247.12C480.369 247.169 480.286 247.195 480.2 247.196H480.2ZM473.014 232.085C472.588 233.12 471.395 236.568 472.756 239.987C473.834 242.691 476.248 244.789 479.936 246.227C480.336 244.893 481.407 240.501 479.505 236.866C478.302 234.568 476.119 232.96 473.014 232.085Z" fill="#111111"/>
<path d="M432.328 378.458L443.593 368.108L446.71 371.877L432.446 391.345L432.328 378.458Z" fill="#6F5490"/>
<path d="M432.038 392.612L431.907 378.275L443.635 367.5L447.242 371.861L432.038 392.612ZM432.75 378.64L432.854 390.079L446.179 371.892L443.552 368.716L432.75 378.64V378.64Z" fill="black"/>
<path d="M426.623 314.758L417.007 305.583L413.65 308.269L426.74 327.646L426.623 314.758Z" fill="#6F5490"/>
<path d="M427.172 329.035L413.086 308.183L417.031 305.026L427.041 314.577L427.172 329.035L427.172 329.035ZM414.215 308.354L426.308 326.256L426.205 314.939L416.982 306.14L414.215 308.354Z" fill="black"/>
</g>
<defs>
<clipPath id="clip0_741_7028">
<rect width="300.17" height="402.947" fill="white" transform="translate(20.1016 66.9563)"/>
</clipPath>
<clipPath id="clip1_741_7028">
<rect width="139.051" height="183.639" fill="white" transform="translate(264.5 249.083)"/>
</clipPath>
<clipPath id="clip2_741_7028">
<rect width="142.981" height="131.041" fill="white" transform="translate(162.479 137.238)"/>
</clipPath>
<clipPath id="clip3_741_7028">
<rect width="153.259" height="334.781" fill="white" transform="translate(352.314 135.122)"/>
</clipPath>
</defs>
</svg>
