<svg width="168" height="23" viewBox="0 0 168 23" fill="none" xmlns="http://www.w3.org/2000/svg">
<path d="M13.8557 0.374477V9.04988H4.30649V0.374477H0V21.9069H4.30649V13.1067H13.8557V21.9069H18.1622V0.374477H13.8557Z" fill="#3F3F3F"/>
<path d="M26.8276 17.8501V13.1067H35.9711V9.04988H26.8276V4.43132H37.0009V0.374477H22.5211V21.9069H37.1569V17.8501H26.8276Z" fill="#3F3F3F"/>
<path d="M50.7683 22.2814C54.7939 22.2814 58.2579 20.409 60.2551 17.4444L56.5415 15.1351C55.2932 16.9763 53.2024 18.131 50.7683 18.131C46.8363 18.131 43.8405 15.1351 43.8405 11.1407C43.8405 7.14628 46.8363 4.15046 50.7683 4.15046C53.2024 4.15046 55.2932 5.3051 56.5415 7.14628L60.2551 4.837C58.2579 1.87239 54.7939 0 50.7683 0C44.3086 0 39.4091 4.80579 39.4091 11.1407C39.4091 17.4756 44.3086 22.2814 50.7683 22.2814Z" fill="#3F3F3F"/>
<path d="M78.4987 0.374477H61.7408V4.43132H67.9821V21.9069H72.2886V4.43132H78.4987V0.374477Z" fill="#3F3F3F"/>
<path d="M93.6687 21.9069H98.3808L90.1111 0.374477H85.0245L76.7235 21.9069H81.3733L82.9024 17.7253H92.1395L93.6687 21.9069ZM84.3379 13.7621L87.521 5.11786L90.6728 13.7621H84.3379Z" fill="#3F3F3F"/>
<path d="M110.236 9.79883V13.6372H116.072C115.416 16.321 112.92 18.1622 109.83 18.1622C105.836 18.1622 102.84 15.1663 102.84 11.1407C102.84 7.11507 105.867 4.11925 109.862 4.11925C112.202 4.11925 114.231 5.14907 115.51 6.80301L118.756 4.21287C116.852 1.62274 113.544 0 109.768 0C103.308 0 98.4089 4.80579 98.4089 11.1407C98.4089 17.4756 103.246 22.2814 109.674 22.2814C115.978 22.2814 120.597 17.6317 120.597 11.2967V9.79883H110.236Z" fill="#3F3F3F"/>
<path d="M133.996 22.2814C140.455 22.2814 145.355 17.4756 145.355 11.1407C145.355 4.80579 140.455 0 133.996 0C127.536 0 122.637 4.80579 122.637 11.1407C122.637 17.4756 127.536 22.2814 133.996 22.2814ZM133.996 18.131C130.064 18.131 127.068 15.1351 127.068 11.1407C127.068 7.14628 130.064 4.15046 133.996 4.15046C137.928 4.15046 140.924 7.14628 140.924 11.1407C140.924 15.1351 137.928 18.131 133.996 18.131Z" fill="#3F3F3F"/>
<path d="M162.795 0.374477V14.511L152.996 0.374477H148.627V21.9069H152.933V7.77041L162.732 21.9069H167.101V0.374477H162.795Z" fill="#3F3F3F"/>
</svg>
