<svg width="301" height="244" viewBox="0 0 301 244" fill="none" xmlns="http://www.w3.org/2000/svg">
<g clip-path="url(#clip0_741_8241)">
<path d="M186.828 126.701H200.743L196.781 110.961H190.79L186.828 126.701Z" fill="#CAD5F3"/>
<path d="M200.743 126.954H186.828C186.79 126.954 186.752 126.945 186.717 126.929C186.683 126.912 186.652 126.887 186.629 126.857C186.605 126.826 186.589 126.791 186.581 126.753C186.573 126.716 186.573 126.677 186.583 126.639L190.544 110.899C190.558 110.845 190.59 110.796 190.634 110.762C190.679 110.727 190.734 110.708 190.79 110.708H196.782C196.838 110.708 196.893 110.727 196.937 110.762C196.982 110.796 197.013 110.845 197.027 110.899L200.989 126.639C200.998 126.677 200.999 126.716 200.991 126.753C200.983 126.791 200.967 126.826 200.943 126.857C200.919 126.887 200.889 126.912 200.854 126.929C200.82 126.945 200.782 126.954 200.743 126.954ZM187.153 126.448H200.418L196.584 111.214H190.987L187.153 126.448Z" fill="black"/>
<path d="M182.39 131.336H205.184L203.995 126.694H183.579L182.39 131.336ZM181.101 115.128L184.053 120.144L188.964 117.253C190.551 119.899 193.978 120.775 196.642 119.207C199.306 117.638 200.203 114.217 198.661 111.545L203.571 108.654L200.619 103.638L181.101 115.128ZM191.947 115.44C191.348 114.423 191.687 113.114 192.704 112.516C193.72 111.917 195.029 112.256 195.628 113.273C196.226 114.29 195.887 115.599 194.87 116.197C193.854 116.796 192.545 116.457 191.947 115.44ZM140.185 127.581L134.43 130.969L127.182 118.653L132.936 115.264L140.185 127.581Z" fill="#CAD5F3"/>
<path d="M134.431 131.223C134.345 131.223 134.26 131.178 134.213 131.098L126.965 118.782C126.948 118.753 126.937 118.722 126.932 118.689C126.928 118.656 126.929 118.622 126.938 118.59C126.946 118.558 126.961 118.528 126.981 118.501C127.001 118.475 127.026 118.452 127.054 118.435L132.809 115.047C132.838 115.03 132.869 115.019 132.902 115.015C132.935 115.01 132.969 115.012 133.001 115.02C133.066 115.037 133.122 115.079 133.156 115.137L140.404 127.453C140.421 127.482 140.432 127.514 140.437 127.546C140.441 127.579 140.439 127.613 140.431 127.645C140.423 127.677 140.408 127.708 140.388 127.734C140.368 127.761 140.343 127.783 140.314 127.8L134.56 131.188C134.521 131.211 134.477 131.223 134.431 131.223ZM127.53 118.743L134.521 130.623L139.839 127.492L132.848 115.612L127.53 118.743Z" fill="black"/>
<path d="M141.244 134.838L152.041 128.482L148.362 122.23L130.736 132.607L141.244 134.838Z" fill="#CAD5F3"/>
<path d="M141.244 135.091C141.227 135.091 141.209 135.089 141.192 135.086L130.684 132.854C130.634 132.844 130.589 132.818 130.553 132.781C130.518 132.745 130.495 132.698 130.487 132.647C130.478 132.597 130.486 132.545 130.507 132.499C130.529 132.453 130.564 132.414 130.609 132.388L148.234 122.012C148.292 121.978 148.361 121.968 148.426 121.985C148.491 122.002 148.546 122.044 148.58 122.102L152.26 128.353C152.277 128.382 152.288 128.413 152.292 128.446C152.297 128.479 152.295 128.513 152.287 128.545C152.278 128.577 152.264 128.607 152.244 128.634C152.224 128.661 152.199 128.683 152.17 128.7L141.373 135.056C141.334 135.079 141.29 135.091 141.244 135.091ZM131.427 132.494L141.201 134.57L151.695 128.392L148.273 122.577L131.427 132.494Z" fill="black"/>
<path d="M226.253 88.5456L151.417 132.605L144.455 120.776L219.291 76.7163L226.253 88.5456Z" fill="#CAD5F3"/>
<path d="M151.42 132.856C151.334 132.856 151.249 132.811 151.202 132.731L144.24 120.902C144.223 120.873 144.212 120.841 144.208 120.808C144.203 120.775 144.205 120.742 144.213 120.71C144.221 120.678 144.236 120.647 144.256 120.621C144.276 120.594 144.301 120.572 144.33 120.555L219.164 76.4981C219.193 76.4811 219.225 76.4699 219.258 76.4653C219.291 76.4607 219.324 76.4627 219.356 76.4712C219.422 76.488 219.477 76.5299 219.511 76.5877L226.473 88.417C226.49 88.4456 226.501 88.4773 226.506 88.5103C226.51 88.5432 226.508 88.5767 226.5 88.6089C226.492 88.6411 226.477 88.6714 226.457 88.6979C226.437 88.7245 226.412 88.7468 226.383 88.7637L151.549 132.82C151.51 132.843 151.465 132.856 151.42 132.856ZM144.805 120.863L151.51 132.256L225.908 88.4558L219.203 77.063L144.805 120.863Z" fill="black"/>
<path d="M254.05 78.7852L226.68 94.899L213.946 73.2643L241.316 57.1504L254.05 78.7852Z" fill="#CAD5F3"/>
<path d="M226.681 95.1487C226.595 95.1487 226.51 95.1041 226.463 95.024L213.73 73.3896C213.714 73.361 213.702 73.3293 213.698 73.2963C213.693 73.2634 213.695 73.2299 213.703 73.1977C213.712 73.1655 213.726 73.1352 213.746 73.1087C213.766 73.0821 213.791 73.0598 213.82 73.0429L241.19 56.9299C241.247 56.8959 241.316 56.8863 241.381 56.9031C241.446 56.9199 241.502 56.9619 241.536 57.0197L254.269 78.654C254.286 78.6827 254.297 78.7144 254.302 78.7473C254.306 78.7802 254.304 78.8138 254.296 78.846C254.288 78.8782 254.273 78.9084 254.253 78.935C254.233 78.9615 254.208 78.9839 254.179 79.0008L226.81 95.1137C226.771 95.1366 226.727 95.1487 226.681 95.1487ZM214.295 73.3509L226.771 94.5487L253.704 78.6926L241.228 57.4948L214.295 73.3509ZM184.052 120.398C184.008 120.398 183.964 120.386 183.926 120.364C183.888 120.342 183.856 120.311 183.834 120.273L180.882 115.257C180.865 115.228 180.854 115.197 180.849 115.164C180.845 115.131 180.846 115.097 180.855 115.065C180.863 115.033 180.878 115.003 180.898 114.976C180.918 114.95 180.943 114.927 180.971 114.91L200.489 103.42C200.518 103.403 200.55 103.392 200.583 103.387C200.616 103.382 200.649 103.384 200.681 103.392C200.714 103.401 200.744 103.415 200.77 103.435C200.797 103.455 200.819 103.481 200.836 103.509L203.788 108.525C203.805 108.554 203.816 108.586 203.821 108.619C203.825 108.651 203.823 108.685 203.815 108.717C203.807 108.749 203.792 108.78 203.772 108.806C203.752 108.833 203.727 108.855 203.698 108.872L198.999 111.638C200.434 114.389 199.466 117.837 196.769 119.425C194.071 121.013 190.587 120.186 188.879 117.596L184.18 120.363C184.141 120.386 184.097 120.398 184.052 120.398ZM181.447 115.218L184.142 119.798L188.834 117.035C188.891 117.001 188.96 116.991 189.025 117.008C189.09 117.024 189.145 117.066 189.179 117.123C190.691 119.642 193.981 120.479 196.512 118.989C199.043 117.498 199.908 114.216 198.44 111.671C198.407 111.614 198.397 111.545 198.414 111.48C198.431 111.416 198.473 111.36 198.531 111.327L203.223 108.564L200.528 103.985L181.447 115.218Z" fill="black"/>
<path d="M193.791 116.746C192.971 116.746 192.173 116.325 191.728 115.569C191.06 114.434 191.44 112.966 192.575 112.298C193.125 111.974 193.768 111.884 194.385 112.044C194.689 112.122 194.975 112.259 195.226 112.448C195.476 112.637 195.687 112.874 195.845 113.145C196.513 114.28 196.133 115.748 194.998 116.416C194.633 116.632 194.215 116.746 193.791 116.746ZM192.164 115.312C192.691 116.207 193.847 116.506 194.741 115.98C195.636 115.453 195.935 114.297 195.409 113.402C195.284 113.188 195.118 113.002 194.921 112.853C194.723 112.704 194.498 112.596 194.258 112.534C194.019 112.472 193.77 112.457 193.525 112.491C193.28 112.526 193.044 112.608 192.832 112.735C191.937 113.261 191.638 114.417 192.164 115.312ZM205.183 131.59H182.39C182.351 131.59 182.313 131.581 182.279 131.564C182.244 131.547 182.214 131.523 182.19 131.492C182.166 131.462 182.15 131.426 182.142 131.388C182.134 131.351 182.135 131.312 182.145 131.274L183.333 126.632C183.347 126.577 183.379 126.529 183.423 126.494C183.467 126.46 183.522 126.441 183.578 126.441H203.995C204.11 126.441 204.211 126.519 204.24 126.632L205.428 131.274C205.438 131.312 205.439 131.351 205.431 131.388C205.423 131.426 205.407 131.462 205.383 131.492C205.359 131.523 205.329 131.547 205.294 131.564C205.26 131.581 205.222 131.59 205.183 131.59ZM182.716 131.084H204.857L203.798 126.948H183.775L182.716 131.084Z" fill="black"/>
<path d="M230.048 228.719C229.991 228.719 229.937 228.7 229.892 228.666C229.848 228.631 229.816 228.583 229.803 228.528L203.749 126.757C203.741 126.724 203.739 126.691 203.744 126.658C203.749 126.625 203.76 126.593 203.777 126.565C203.794 126.536 203.816 126.511 203.843 126.491C203.869 126.471 203.899 126.457 203.932 126.449C203.964 126.44 203.997 126.438 204.03 126.443C204.063 126.448 204.095 126.459 204.124 126.476C204.152 126.493 204.177 126.515 204.197 126.542C204.217 126.568 204.232 126.599 204.24 126.631L230.293 228.403C230.303 228.44 230.304 228.479 230.296 228.517C230.288 228.555 230.272 228.591 230.248 228.621C230.224 228.652 230.194 228.676 230.159 228.693C230.124 228.71 230.086 228.719 230.048 228.719ZM157.525 228.719C157.486 228.719 157.448 228.71 157.413 228.693C157.379 228.676 157.348 228.652 157.325 228.621C157.301 228.591 157.285 228.555 157.277 228.517C157.269 228.479 157.27 228.44 157.279 228.403L183.333 126.631C183.341 126.599 183.355 126.568 183.375 126.542C183.395 126.515 183.42 126.493 183.449 126.476C183.478 126.459 183.509 126.448 183.542 126.443C183.575 126.438 183.609 126.44 183.641 126.449C183.673 126.457 183.703 126.471 183.73 126.491C183.757 126.511 183.779 126.536 183.796 126.565C183.813 126.593 183.824 126.625 183.829 126.658C183.834 126.691 183.832 126.724 183.823 126.757L157.77 228.528C157.756 228.583 157.724 228.631 157.68 228.666C157.636 228.7 157.581 228.719 157.525 228.719ZM193.786 228.719C193.719 228.719 193.655 228.692 193.607 228.645C193.56 228.597 193.533 228.533 193.533 228.466V131.273C193.533 131.206 193.56 131.142 193.607 131.094C193.655 131.047 193.719 131.02 193.786 131.02C193.853 131.02 193.918 131.047 193.965 131.094C194.013 131.142 194.039 131.206 194.039 131.273V228.466C194.039 228.533 194.013 228.597 193.965 228.645C193.918 228.692 193.853 228.719 193.786 228.719Z" fill="black"/>
</g>
<g clip-path="url(#clip1_741_8241)">
<path d="M46.7654 142.006C48.0719 133.763 66.9691 109.476 82.3304 109.156C82.3304 109.156 87.3104 103.496 94.588 109.559C94.588 109.559 102.152 114.915 96.8914 121.905C97.8926 134.335 88.7 153.268 68.8167 158.813C55.3744 156.393 45.4815 152.119 46.7654 142.006Z" fill="#6F5490"/>
<path d="M68.8166 159.068C68.8015 159.068 68.7863 159.067 68.7714 159.064C61.0567 157.675 55.7682 155.909 52.128 153.507C50.0279 152.121 48.4883 150.496 47.5519 148.675C46.5457 146.719 46.196 144.464 46.512 141.974C46.5125 141.972 46.5128 141.969 46.5133 141.966C47.2111 137.563 52.5013 129.349 59.0924 122.434C62.768 118.578 66.658 115.332 70.3419 113.048C74.6145 110.399 78.6091 109.005 82.2166 108.904C82.5273 108.58 83.7356 107.426 85.6556 106.84C89.3222 105.722 92.6204 107.59 94.744 109.357C94.981 109.526 98.3297 111.985 98.9203 115.768C99.2477 117.865 98.6532 119.955 97.1533 121.981C97.6559 128.575 95.3215 136.454 90.898 143.082C88.4225 146.792 85.3905 150.013 81.8861 152.658C78.017 155.578 73.6429 157.732 68.8852 159.058C68.8629 159.065 68.8398 159.068 68.8166 159.068ZM47.0181 142.042C46.4295 146.688 48.1931 150.299 52.4093 153.081C55.9809 155.438 61.1913 157.177 68.8043 158.551C73.4785 157.24 77.7759 155.121 81.5785 152.251C85.037 149.641 88.0296 146.461 90.4732 142.799C94.8564 136.231 97.1605 128.428 96.6367 121.926C96.6317 121.863 96.6497 121.802 96.6872 121.752C98.1428 119.818 98.7245 117.832 98.4162 115.85C97.8525 112.226 94.4743 109.791 94.4402 109.767C94.4348 109.763 94.4296 109.759 94.4245 109.755C91.485 107.306 88.5924 106.487 85.827 107.321C83.7592 107.945 82.534 109.311 82.5218 109.325C82.4984 109.351 82.4698 109.372 82.4378 109.387C82.4058 109.402 82.371 109.41 82.3357 109.411C78.7925 109.485 74.8477 110.855 70.611 113.482C66.9634 115.743 63.1082 118.961 59.4622 122.786C53.0418 129.522 47.693 137.799 47.0181 142.042Z" fill="black"/>
<path d="M118.325 171.356C125.432 173.797 153.215 184.764 151.283 206.782C149.502 227.064 126.666 229.579 115.907 228.552C100.998 227.131 41.9482 216.726 41.9482 216.726C41.9482 216.726 51.7181 189.063 62.9437 188.041L74.2134 159.873C74.2135 159.873 101.66 165.629 118.325 171.356Z" fill="#92ACEF"/>
<path d="M120.101 228.999C118.654 228.999 117.236 228.935 115.885 228.806C101.135 227.4 42.4959 217.081 41.9053 216.977C41.8688 216.97 41.8341 216.956 41.8037 216.935C41.7733 216.914 41.7478 216.886 41.7291 216.854C41.7104 216.822 41.699 216.787 41.6955 216.75C41.692 216.713 41.6966 216.676 41.7089 216.641C41.7334 216.571 44.2023 209.625 48.0136 202.644C50.2562 198.537 52.5193 195.219 54.74 192.782C57.4874 189.768 60.1865 188.093 62.7653 187.803L73.9776 159.778C73.9998 159.722 74.0411 159.676 74.094 159.647C74.147 159.619 74.2083 159.61 74.2671 159.623C74.5416 159.68 101.92 165.448 118.41 171.114C121.858 172.299 130.704 175.685 138.35 181.525C142.642 184.804 145.946 188.386 148.169 192.172C150.855 196.747 151.989 201.67 151.538 206.804C150.992 213.022 148.437 218.07 143.942 221.809C140.284 224.852 135.444 226.974 129.556 228.114C126.546 228.697 123.257 228.999 120.101 228.999ZM42.2931 216.527C46.8674 217.33 101.749 226.946 115.933 228.298C120.186 228.704 125.116 228.454 129.459 227.613C135.261 226.489 140.024 224.404 143.616 221.417C148.002 217.768 150.496 212.837 151.03 206.76C151.471 201.733 150.36 196.912 147.729 192.43C145.54 188.701 142.28 185.169 138.04 181.93C130.454 176.136 121.669 172.773 118.244 171.597C102.548 166.203 76.9536 160.715 74.3719 160.166L63.182 188.136C63.1645 188.179 63.1353 188.217 63.0975 188.245C63.0598 188.274 63.015 188.291 62.9681 188.295C60.4737 188.522 57.8329 190.147 55.1193 193.124C52.9263 195.53 50.6874 198.813 48.4647 202.883C45.1069 209.032 42.796 215.155 42.2931 216.527Z" fill="black"/>
<path d="M10.9473 224.425L42.2235 172.477C42.2235 172.477 54.7394 177.091 63.0518 188.157C63.0518 188.157 54.6282 193.481 51.7849 198.204C48.9414 202.927 46.7469 213.14 43.7473 217.923C39.3857 224.88 24.1735 234.526 10.9473 224.425Z" fill="white"/>
<path d="M23.4607 229.049C21.9975 229.049 20.5568 228.895 19.149 228.586C16.1952 227.938 13.3837 226.607 10.7927 224.628C10.7428 224.59 10.7086 224.535 10.6969 224.473C10.6851 224.411 10.6966 224.348 10.729 224.294L42.0051 172.345C42.0357 172.294 42.0832 172.256 42.1392 172.236C42.1953 172.216 42.2564 172.217 42.3122 172.237C42.3437 172.249 45.5122 173.429 49.6535 175.949C53.4755 178.276 58.938 182.255 63.2562 188.004C63.2774 188.032 63.2924 188.064 63.3005 188.099C63.3086 188.133 63.3095 188.169 63.3031 188.203C63.2968 188.238 63.2833 188.271 63.2636 188.3C63.2438 188.329 63.2183 188.354 63.1885 188.373C63.1049 188.426 54.7832 193.72 52.0038 198.336C50.6333 200.612 49.3794 204.282 48.1667 207.83C46.8648 211.64 45.5185 215.579 43.9638 218.059C42.5947 220.243 40.2443 222.563 37.5155 224.425C34.3493 226.586 30.8323 228.062 27.3447 228.694C26.0385 228.931 24.741 229.049 23.4607 229.049ZM11.2848 224.36C13.7655 226.217 16.447 227.471 19.2584 228.088C21.8319 228.652 24.5218 228.687 27.2537 228.192C34.4785 226.883 40.9111 221.967 43.5314 217.788C45.0547 215.358 46.3913 211.447 47.6837 207.665C48.9614 203.927 50.1679 200.396 51.5666 198.073C52.7619 196.087 55.0367 193.778 58.3279 191.209C60.3008 189.669 62.0654 188.494 62.6827 188.092C58.4428 182.53 53.131 178.665 49.3993 176.392C45.883 174.251 43.0798 173.088 42.332 172.792L11.2848 224.36Z" fill="black"/>
<path d="M17.5809 227.668C17.5809 227.668 14.8551 227.006 11.248 224.37L42.3185 172.755C42.3185 172.755 45.3769 173.964 48.7065 175.949L17.5809 227.668Z" fill="#FF6996"/>
<path d="M50.2121 189.455C51.9517 190.501 54.2106 189.94 55.2574 188.201C56.3042 186.463 55.7426 184.205 54.0039 183.159C52.2642 182.112 50.0053 182.674 48.9585 184.412C47.9117 186.151 48.4733 188.409 50.2121 189.455Z" fill="#6F5490"/>
<path d="M52.1011 190.236C51.389 190.236 50.6903 190.042 50.0805 189.674V189.674C48.2237 188.556 47.6225 186.137 48.7399 184.28C49.8578 182.424 52.2786 181.823 54.1356 182.94C55.9926 184.058 56.5939 186.477 55.4762 188.333C54.7393 189.557 53.436 190.236 52.1011 190.236ZM50.3438 189.237C51.9602 190.209 54.0662 189.685 55.0388 188.07C56.0113 186.455 55.488 184.35 53.8723 183.377C52.2564 182.406 50.1501 182.929 49.1773 184.543C48.205 186.159 48.7283 188.264 50.3438 189.237ZM17.5002 228.066C17.455 228.066 17.4106 228.054 17.3716 228.031C17.3326 228.008 17.3003 227.975 17.2781 227.936C17.2559 227.897 17.2445 227.852 17.2451 227.807C17.2458 227.762 17.2584 227.718 17.2817 227.679L48.5754 175.639C48.6103 175.581 48.6668 175.539 48.7325 175.523C48.7982 175.506 48.8677 175.517 48.9257 175.552C48.9837 175.587 49.0255 175.643 49.0419 175.709C49.0582 175.774 49.0478 175.844 49.0129 175.902L17.7192 227.942C17.6965 227.98 17.6644 228.011 17.626 228.033C17.5876 228.054 17.5443 228.066 17.5002 228.066Z" fill="black"/>
<path d="M20.0904 223.747C20.0456 223.747 20.0001 223.735 19.959 223.71L13.6592 219.921C13.6017 219.886 13.5605 219.829 13.5444 219.764C13.5284 219.698 13.5389 219.629 13.5737 219.572C13.6084 219.514 13.6646 219.472 13.7299 219.456C13.7952 219.439 13.8645 219.449 13.9224 219.484L20.2222 223.273C20.27 223.302 20.3071 223.345 20.3278 223.397C20.3484 223.449 20.3515 223.506 20.3365 223.56C20.3216 223.614 20.2894 223.661 20.245 223.695C20.2005 223.729 20.1462 223.747 20.0904 223.747ZM22.9338 219.024C22.889 219.024 22.8436 219.012 22.8024 218.988L16.5026 215.198C16.4451 215.163 16.4039 215.107 16.3879 215.041C16.3718 214.976 16.3823 214.907 16.4171 214.849C16.4518 214.791 16.508 214.75 16.5733 214.733C16.6387 214.717 16.7079 214.727 16.7659 214.761L23.0657 218.55C23.1135 218.579 23.1505 218.623 23.1712 218.675C23.1918 218.726 23.1949 218.784 23.18 218.837C23.165 218.891 23.1328 218.938 23.0884 218.972C23.0439 219.006 22.9896 219.024 22.9338 219.024ZM24.8288 215.876C24.784 215.876 24.7385 215.864 24.6974 215.839L18.3986 212.05C18.3411 212.015 18.2999 211.958 18.2839 211.893C18.2678 211.828 18.2783 211.758 18.3131 211.701C18.3478 211.643 18.404 211.601 18.4693 211.585C18.5347 211.568 18.6039 211.578 18.6619 211.613L24.9606 215.402C25.0084 215.431 25.0455 215.475 25.0662 215.526C25.0868 215.578 25.0899 215.635 25.0749 215.689C25.06 215.743 25.0278 215.79 24.9834 215.824C24.9389 215.858 24.8846 215.876 24.8288 215.876ZM29.5671 208.005C29.5223 208.005 29.4768 207.993 29.4357 207.968L23.1369 204.179C23.0794 204.144 23.0382 204.088 23.0221 204.022C23.0061 203.957 23.0166 203.888 23.0514 203.83C23.0861 203.772 23.1423 203.73 23.2076 203.714C23.273 203.698 23.3422 203.708 23.4001 203.742L29.6989 207.531C29.7467 207.56 29.7838 207.604 29.8044 207.655C29.8251 207.707 29.8282 207.764 29.8132 207.818C29.7983 207.872 29.7661 207.919 29.7216 207.953C29.6772 207.987 29.6229 208.005 29.5671 208.005ZM32.4105 203.282C32.3657 203.282 32.3203 203.271 32.2791 203.246L25.9803 199.456C25.9229 199.421 25.8816 199.365 25.8656 199.299C25.8495 199.234 25.8601 199.165 25.8948 199.107C25.9295 199.049 25.9857 199.008 26.051 198.991C26.1164 198.975 26.1856 198.985 26.2436 199.019L32.5423 202.809C32.5902 202.837 32.6272 202.881 32.6479 202.933C32.6685 202.985 32.6716 203.042 32.6566 203.096C32.6417 203.149 32.6095 203.197 32.5651 203.23C32.5206 203.264 32.4663 203.282 32.4105 203.282ZM37.1498 195.411C37.105 195.411 37.0596 195.4 37.0184 195.375L30.7187 191.585C30.6613 191.55 30.62 191.494 30.604 191.428C30.5879 191.363 30.5985 191.294 30.6332 191.236C30.6679 191.178 30.7241 191.137 30.7894 191.12C30.8548 191.104 30.924 191.114 30.982 191.148L37.2817 194.938C37.3295 194.966 37.3665 195.01 37.3872 195.062C37.4078 195.114 37.4109 195.171 37.396 195.225C37.381 195.278 37.3488 195.326 37.3044 195.359C37.2599 195.393 37.2057 195.411 37.1498 195.411ZM39.9932 190.689C39.9483 190.689 39.9029 190.677 39.8618 190.652L33.5621 186.863C33.5046 186.828 33.4633 186.771 33.4473 186.706C33.4313 186.64 33.4418 186.571 33.4765 186.513C33.5113 186.456 33.5674 186.414 33.6328 186.398C33.6981 186.381 33.7673 186.391 33.8253 186.425L40.125 190.215C40.1728 190.244 40.2099 190.287 40.2305 190.339C40.2512 190.391 40.2542 190.448 40.2393 190.502C40.2243 190.556 40.1922 190.603 40.1477 190.637C40.1033 190.67 40.049 190.689 39.9932 190.689ZM41.8881 187.54C41.8433 187.54 41.7979 187.529 41.7567 187.504L35.458 183.714C35.4005 183.679 35.3592 183.623 35.3432 183.557C35.3272 183.492 35.3377 183.423 35.3724 183.365C35.4072 183.308 35.4633 183.266 35.5287 183.249C35.594 183.233 35.6632 183.243 35.7212 183.277L42.02 187.067C42.0678 187.095 42.1048 187.139 42.1255 187.191C42.1461 187.243 42.1492 187.3 42.1343 187.354C42.1193 187.407 42.0871 187.455 42.0427 187.488C41.9982 187.522 41.9439 187.54 41.8881 187.54ZM45.6791 181.244C45.6343 181.244 45.5888 181.232 45.5477 181.208L39.2488 177.417C39.2198 177.4 39.1946 177.377 39.1744 177.35C39.1542 177.323 39.1396 177.293 39.1314 177.26C39.1231 177.227 39.1214 177.193 39.1264 177.16C39.1313 177.127 39.1428 177.095 39.1602 177.066C39.1775 177.037 39.2004 177.012 39.2275 176.992C39.2547 176.972 39.2855 176.958 39.3182 176.95C39.3509 176.942 39.3848 176.94 39.4181 176.945C39.4514 176.951 39.4833 176.962 39.512 176.98L45.8109 180.77C45.8587 180.799 45.8958 180.843 45.9165 180.895C45.9371 180.946 45.9402 181.004 45.9252 181.057C45.9103 181.111 45.8781 181.158 45.8336 181.192C45.7892 181.226 45.7349 181.244 45.6791 181.244Z" fill="black"/>
<path d="M59.4587 148.049C61.9673 146.425 70.6898 142.04 74.1773 140.724C81.6036 137.921 122.316 120.162 135.771 141.535C150.552 165.013 100.286 204.164 100.286 204.164L92.8395 208.166C92.8395 208.166 69.3829 213.219 66.7565 203.488C66.7565 203.488 69.8673 195.059 71.0252 193.451C71.0252 193.451 37.9066 199.251 27.1927 182.317C16.4788 165.383 35.264 146.988 46.7651 142.006C49.5317 144.435 54.6709 147.264 59.4587 148.049Z" fill="#92ACEF"/>
<path d="M80.4308 209.733C76.964 209.733 74.081 209.34 71.8561 208.565C68.9312 207.547 67.1324 205.861 66.5101 203.555C66.4963 203.504 66.4989 203.45 66.517 203.4C66.6347 203.081 69.2031 196.136 70.5155 193.79C68.498 194.094 61.2403 195.053 53.109 194.489C47.4978 194.1 42.5715 193.074 38.467 191.438C33.316 189.386 29.4501 186.363 26.977 182.454C23.6135 177.137 22.8694 171.324 24.7652 165.175C26.6904 158.931 30.9001 153.832 34.0925 150.653C37.9741 146.788 42.5562 143.551 46.6637 141.772C46.7081 141.753 46.757 141.746 46.8048 141.754C46.8526 141.761 46.8973 141.782 46.9336 141.814C49.5632 144.123 54.5752 146.963 59.4038 147.781C61.9559 146.156 70.5926 141.805 74.0874 140.486C74.5452 140.313 75.1406 140.079 75.8301 139.808C78.4256 138.788 82.7696 137.08 87.8999 135.455C94.0879 133.495 99.8612 132.149 105.06 131.454C120.156 129.435 130.562 132.781 135.987 141.399C139.403 146.825 139.643 153.527 136.701 161.316C134.361 167.511 130.009 174.409 123.767 181.818C113.154 194.416 100.569 204.268 100.443 204.366C100.432 204.374 100.42 204.382 100.407 204.389L92.9605 208.391C92.9394 208.402 92.9169 208.41 92.8935 208.415C92.8346 208.428 86.9326 209.685 80.785 209.731C80.6665 209.732 80.5481 209.733 80.4308 209.733ZM67.0247 203.5C67.6201 205.592 69.3007 207.134 72.0214 208.082C74.2651 208.864 77.2093 209.247 80.7744 209.221C86.6252 209.178 92.2561 208.027 92.7513 207.924L100.146 203.95C100.676 203.535 112.98 193.831 123.381 181.484C129.584 174.12 133.905 167.273 136.225 161.133C139.106 153.502 138.881 146.954 135.555 141.671C130.246 133.237 120.009 129.97 105.128 131.96C101.529 132.441 93.101 133.568 76.0171 140.283C75.3258 140.554 74.7289 140.789 74.2678 140.963C70.7559 142.288 62.0218 146.694 59.5978 148.263C59.5447 148.298 59.4803 148.311 59.4177 148.3C54.5346 147.501 49.4512 144.655 46.7197 142.304C42.7064 144.072 38.2446 147.239 34.4529 151.015C31.3016 154.152 27.1475 159.182 25.2532 165.326C23.4034 171.325 24.1284 176.996 27.4087 182.181C29.8231 185.997 33.6073 188.952 38.6562 190.964C42.7115 192.58 47.5861 193.595 53.1445 193.98C62.6223 194.637 70.8989 193.214 70.9813 193.2C71.0313 193.191 71.0828 193.197 71.1292 193.218C71.1756 193.238 71.2147 193.272 71.2417 193.315C71.2687 193.358 71.2822 193.408 71.2806 193.459C71.279 193.51 71.2622 193.559 71.2326 193.6C70.1661 195.081 67.34 202.65 67.0247 203.5Z" fill="black"/>
<path d="M70.9543 193.821C70.9094 193.821 70.8653 193.809 70.8265 193.787C70.7877 193.764 70.7555 193.732 70.7331 193.693C70.7108 193.654 70.6991 193.61 70.6992 193.565C70.6994 193.52 70.7114 193.476 70.734 193.438C74.3317 187.262 78.8342 181.023 84.1162 174.892C88.3403 169.989 93.0699 165.144 98.1735 160.492C106.864 152.57 113.721 147.891 113.789 147.844C113.845 147.806 113.914 147.792 113.98 147.805C114.047 147.818 114.106 147.856 114.144 147.912C114.182 147.968 114.196 148.037 114.183 148.103C114.171 148.17 114.132 148.228 114.076 148.267C114.008 148.313 107.175 152.976 98.5107 160.875C93.4233 165.513 88.7093 170.343 84.4994 175.23C79.2393 181.335 74.7564 187.548 71.1752 193.694C71.1527 193.733 71.1204 193.765 71.0817 193.787C71.0429 193.81 70.999 193.821 70.9543 193.821Z" fill="black"/>
<path d="M124.86 228.971H64.2056C64.2056 228.971 61.7069 215.871 66.9066 203.047C66.9066 203.047 75.8135 207.515 81.3275 207.515C86.8415 207.515 96.7273 204.128 102.374 204.231C110.586 204.381 126.698 212.435 124.86 228.971Z" fill="white"/>
<path d="M124.859 229.226H64.205C64.0824 229.226 63.9773 229.139 63.9542 229.018C63.9479 228.985 63.3252 225.663 63.3503 220.816C63.3735 216.343 63.9682 209.613 66.6694 202.951C66.6827 202.918 66.7026 202.889 66.7278 202.864C66.7531 202.839 66.7831 202.82 66.8161 202.808C66.849 202.795 66.8842 202.79 66.9194 202.792C66.9546 202.794 66.989 202.803 67.0205 202.818C67.109 202.863 75.9372 207.26 81.3269 207.26C83.9844 207.26 87.7759 206.441 91.4425 205.65C95.3798 204.801 99.4526 203.926 102.378 203.975C104.956 204.023 108.157 204.839 111.161 206.217C114.646 207.815 117.725 210.066 120.065 212.728C121.942 214.864 123.333 217.244 124.197 219.803C125.165 222.666 125.473 225.76 125.113 228.999C125.106 229.061 125.076 229.119 125.029 229.161C124.982 229.203 124.922 229.226 124.859 229.226ZM64.4196 228.715H124.63C124.942 225.634 124.634 222.691 123.714 219.966C122.871 217.471 121.514 215.149 119.682 213.065C114.835 207.551 107.303 204.576 102.368 204.486C99.4999 204.434 95.459 205.305 91.5504 206.149C87.6875 206.983 84.039 207.77 81.327 207.77C79.0089 207.77 75.8565 207.013 71.9574 205.519C69.6201 204.623 67.7035 203.718 67.0406 203.397C64.4588 209.896 63.8848 216.438 63.8611 220.806C63.8386 224.922 64.2873 227.923 64.4196 228.715Z" fill="black"/>
<path d="M124.219 221.617C124.219 221.617 125.058 224.293 124.657 228.742L64.3958 228.745C64.3958 228.745 63.8545 225.503 63.8398 221.628L124.219 221.617ZM74.6398 213.374C74.6398 211.344 72.9939 209.699 70.9638 209.699C68.9329 209.699 67.2878 211.344 67.2878 213.374C67.2878 215.403 68.9329 217.048 70.9638 217.048C72.9939 217.048 74.6398 215.403 74.6398 213.374Z" fill="#FF6996"/>
<path d="M70.9637 217.304C68.796 217.304 67.0325 215.542 67.0325 213.375C67.0325 211.208 68.7959 209.445 70.9637 209.445C73.1315 209.445 74.895 211.208 74.895 213.375C74.895 215.542 73.1314 217.304 70.9637 217.304ZM70.9637 209.955C69.0776 209.955 67.543 211.489 67.543 213.375C67.543 215.26 69.0776 216.794 70.9637 216.794C72.8499 216.794 74.3845 215.26 74.3845 213.375C74.3845 211.489 72.8498 209.955 70.9637 209.955ZM63.6411 221.901C63.5734 221.901 63.5084 221.874 63.4605 221.826C63.4127 221.779 63.3858 221.714 63.3857 221.646C63.3857 221.578 63.4126 221.513 63.4605 221.466C63.5083 221.418 63.5733 221.391 63.641 221.391L124.383 221.359H124.383C124.451 221.359 124.516 221.386 124.564 221.433C124.612 221.481 124.639 221.546 124.639 221.614C124.639 221.682 124.612 221.746 124.564 221.794C124.516 221.842 124.451 221.869 124.383 221.869L63.6411 221.901Z" fill="black"/>
<path d="M119.346 229.226C119.278 229.226 119.213 229.199 119.165 229.151C119.117 229.103 119.09 229.039 119.09 228.971V221.622C119.09 221.554 119.117 221.489 119.165 221.441C119.213 221.393 119.278 221.367 119.346 221.367C119.413 221.367 119.478 221.393 119.526 221.441C119.574 221.489 119.601 221.554 119.601 221.622V228.971C119.601 229.039 119.574 229.103 119.526 229.151C119.478 229.199 119.413 229.226 119.346 229.226ZM113.832 229.226C113.764 229.226 113.699 229.199 113.651 229.151C113.603 229.103 113.576 229.039 113.576 228.971V221.622C113.576 221.554 113.603 221.489 113.651 221.441C113.699 221.393 113.764 221.367 113.832 221.367C113.899 221.367 113.964 221.393 114.012 221.441C114.06 221.489 114.087 221.554 114.087 221.622V228.971C114.087 229.039 114.06 229.103 114.012 229.151C113.964 229.199 113.899 229.226 113.832 229.226ZM110.156 229.226C110.088 229.226 110.023 229.199 109.975 229.151C109.927 229.103 109.9 229.039 109.9 228.971V221.622C109.9 221.554 109.927 221.489 109.975 221.441C110.023 221.393 110.088 221.367 110.156 221.367C110.223 221.367 110.288 221.393 110.336 221.441C110.384 221.489 110.411 221.554 110.411 221.622V228.971C110.411 229.039 110.384 229.103 110.336 229.151C110.288 229.199 110.223 229.226 110.156 229.226ZM100.966 229.226C100.898 229.226 100.833 229.199 100.785 229.151C100.737 229.103 100.71 229.039 100.71 228.971V221.622C100.71 221.554 100.737 221.489 100.785 221.441C100.833 221.393 100.898 221.367 100.966 221.367C101.033 221.367 101.098 221.393 101.146 221.441C101.194 221.489 101.221 221.554 101.221 221.622V228.971C101.221 229.039 101.194 229.103 101.146 229.151C101.098 229.199 101.033 229.226 100.966 229.226ZM95.4515 229.226C95.3838 229.226 95.3189 229.199 95.271 229.151C95.2232 229.103 95.1963 229.039 95.1963 228.971V221.622C95.1963 221.554 95.2232 221.489 95.271 221.441C95.3189 221.393 95.3838 221.367 95.4515 221.367C95.5192 221.367 95.5842 221.393 95.632 221.441C95.6799 221.489 95.7068 221.554 95.7068 221.622V228.971C95.7068 229.039 95.6799 229.103 95.632 229.151C95.5842 229.199 95.5192 229.226 95.4515 229.226ZM86.2616 229.226C86.1939 229.226 86.1289 229.199 86.0811 229.151C86.0332 229.103 86.0063 229.039 86.0063 228.971V221.622C86.0063 221.554 86.0332 221.489 86.0811 221.441C86.1289 221.393 86.1939 221.367 86.2616 221.367C86.3293 221.367 86.3942 221.393 86.4421 221.441C86.4899 221.489 86.5168 221.554 86.5168 221.622V228.971C86.5168 229.039 86.4899 229.103 86.4421 229.151C86.3942 229.199 86.3293 229.226 86.2616 229.226ZM80.7476 229.226C80.6799 229.226 80.6149 229.199 80.5671 229.151C80.5192 229.103 80.4923 229.039 80.4923 228.971V221.622C80.4923 221.554 80.5192 221.489 80.5671 221.441C80.6149 221.393 80.6799 221.367 80.7476 221.367C80.8153 221.367 80.8802 221.393 80.9281 221.441C80.9759 221.489 81.0028 221.554 81.0028 221.622V228.971C81.0028 229.039 80.9759 229.103 80.9281 229.151C80.8802 229.199 80.8153 229.226 80.7476 229.226ZM77.0716 229.226C77.0039 229.226 76.9389 229.199 76.8911 229.151C76.8432 229.103 76.8163 229.039 76.8163 228.971V221.622C76.8163 221.554 76.8432 221.489 76.8911 221.441C76.9389 221.393 77.0039 221.367 77.0716 221.367C77.1393 221.367 77.2042 221.393 77.2521 221.441C77.2999 221.489 77.3268 221.554 77.3268 221.622V228.971C77.3268 229.039 77.2999 229.103 77.2521 229.151C77.2042 229.199 77.1393 229.226 77.0716 229.226ZM69.7195 229.226C69.6518 229.226 69.5869 229.199 69.539 229.151C69.4911 229.103 69.4642 229.039 69.4642 228.971V221.622C69.4642 221.554 69.4911 221.489 69.539 221.441C69.5869 221.393 69.6518 221.367 69.7195 221.367C69.7872 221.367 69.8521 221.393 69.9 221.441C69.9479 221.489 69.9748 221.554 69.9748 221.622V228.971C69.9748 229.039 69.9479 229.103 69.9 229.151C69.8521 229.199 69.7872 229.226 69.7195 229.226ZM112.327 214.613C112.289 214.613 112.25 214.604 112.215 214.587C112.181 214.57 112.15 214.545 112.126 214.515C112.102 214.484 112.086 214.449 112.078 214.411C112.069 214.373 112.07 214.333 112.08 214.296C113.058 210.384 116.67 209.679 116.706 209.672C116.845 209.646 116.978 209.738 117.004 209.877C117.029 210.015 116.937 210.148 116.799 210.174C116.66 210.2 113.471 210.836 112.575 214.42C112.561 214.475 112.529 214.524 112.484 214.559C112.44 214.594 112.384 214.613 112.327 214.613ZM106.886 211.49C106.847 211.49 106.809 211.481 106.774 211.464C106.739 211.447 106.709 211.422 106.685 211.392C106.661 211.361 106.644 211.325 106.636 211.287C106.628 211.25 106.629 211.21 106.638 211.173C107.615 207.265 111.222 206.456 111.258 206.448C111.291 206.441 111.325 206.441 111.358 206.447C111.391 206.453 111.422 206.465 111.45 206.484C111.478 206.502 111.503 206.525 111.522 206.553C111.541 206.581 111.554 206.612 111.561 206.644C111.568 206.677 111.569 206.711 111.562 206.744C111.556 206.777 111.544 206.808 111.526 206.836C111.507 206.865 111.484 206.889 111.456 206.908C111.429 206.927 111.398 206.94 111.365 206.947C111.229 206.976 108.032 207.705 107.134 211.296C107.12 211.352 107.088 211.401 107.043 211.436C106.998 211.471 106.943 211.49 106.886 211.49ZM100.774 209.272C100.735 209.272 100.697 209.263 100.662 209.246C100.627 209.229 100.597 209.204 100.573 209.174C100.549 209.143 100.532 209.107 100.524 209.07C100.516 209.032 100.517 208.992 100.526 208.955C101.505 205.044 105.117 204.337 105.153 204.331C105.186 204.325 105.22 204.325 105.253 204.332C105.286 204.339 105.317 204.352 105.344 204.371C105.372 204.391 105.396 204.415 105.414 204.443C105.432 204.471 105.444 204.503 105.45 204.536C105.462 204.602 105.448 204.671 105.409 204.726C105.371 204.782 105.312 204.82 105.246 204.833C105.11 204.858 101.918 205.493 101.022 209.078C101.008 209.134 100.976 209.183 100.931 209.218C100.886 209.253 100.831 209.272 100.774 209.272ZM31.9553 227.325C31.9145 227.325 31.8744 227.316 31.8382 227.297C31.8019 227.278 31.7707 227.251 31.7471 227.218C31.7235 227.185 31.7082 227.146 31.7025 227.106C31.6968 227.066 31.7008 227.025 31.7142 226.986C31.7592 226.856 32.787 223.769 30.1132 221.216C30.0889 221.193 30.0695 221.165 30.0559 221.135C30.0424 221.104 30.035 221.071 30.0342 221.037C30.0335 221.004 30.0393 220.971 30.0515 220.939C30.0636 220.908 30.0817 220.88 30.1049 220.855C30.128 220.831 30.1557 220.812 30.1864 220.798C30.2171 220.785 30.2501 220.777 30.2836 220.776C30.3171 220.776 30.3505 220.782 30.3817 220.794C30.413 220.806 30.4415 220.824 30.4658 220.847C33.3827 223.633 32.2084 227.119 32.1962 227.154C32.1788 227.204 32.1462 227.247 32.103 227.278C32.0599 227.309 32.0082 227.325 31.9553 227.325ZM37.4515 224.194C37.4113 224.194 37.3718 224.185 37.336 224.167C37.3002 224.149 37.2692 224.122 37.2455 224.09C37.2218 224.057 37.206 224.02 37.1995 223.98C37.193 223.941 37.196 223.9 37.2081 223.862C37.2502 223.728 38.1973 220.591 35.5206 218.035C35.4963 218.012 35.4769 217.984 35.4633 217.953C35.4498 217.923 35.4424 217.89 35.4416 217.856C35.4409 217.823 35.4467 217.789 35.4588 217.758C35.471 217.727 35.4891 217.698 35.5123 217.674C35.5354 217.65 35.5631 217.63 35.5938 217.617C35.6244 217.603 35.6575 217.596 35.691 217.595C35.7245 217.594 35.7579 217.6 35.7891 217.612C35.8204 217.624 35.8489 217.643 35.8731 217.666C38.7865 220.448 37.7058 223.981 37.6947 224.016C37.6783 224.068 37.6458 224.113 37.6021 224.145C37.5584 224.177 37.5057 224.194 37.4515 224.194ZM42.3149 219.932C42.2741 219.932 42.234 219.922 42.1977 219.904C42.1615 219.885 42.1303 219.858 42.1067 219.825C42.0831 219.791 42.0678 219.753 42.0621 219.713C42.0564 219.672 42.0604 219.631 42.0738 219.593C42.1197 219.46 43.1444 216.374 40.4728 213.823C40.4485 213.8 40.4291 213.772 40.4155 213.741C40.402 213.711 40.3946 213.678 40.3938 213.644C40.3931 213.611 40.3989 213.577 40.411 213.546C40.4232 213.515 40.4413 213.486 40.4645 213.462C40.4876 213.438 40.5153 213.418 40.546 213.405C40.5766 213.391 40.6097 213.384 40.6432 213.383C40.6767 213.382 40.7101 213.388 40.7413 213.4C40.7726 213.412 40.8011 213.431 40.8253 213.454C43.7415 216.239 42.568 219.726 42.5558 219.761C42.5384 219.811 42.5058 219.854 42.4626 219.885C42.4194 219.915 42.3678 219.932 42.3149 219.932ZM56.4473 150.092C56.3907 150.092 56.3356 150.073 56.2909 150.038C56.2461 150.003 56.2141 149.955 56.2 149.9C56.1859 149.845 56.1905 149.787 56.2129 149.735C56.2354 149.683 56.2746 149.64 56.3242 149.613C57.6381 148.891 59.3064 147.843 59.323 147.833C59.3514 147.815 59.3831 147.802 59.4164 147.796C59.4497 147.79 59.4838 147.791 59.5168 147.798C59.5498 147.805 59.581 147.819 59.6086 147.839C59.6362 147.858 59.6597 147.883 59.6777 147.911C59.6957 147.94 59.7078 147.972 59.7134 148.005C59.719 148.038 59.7179 148.072 59.7102 148.105C59.7025 148.138 59.6883 148.169 59.6685 148.197C59.6487 148.224 59.6237 148.247 59.5948 148.265C59.578 148.275 57.8973 149.331 56.5701 150.06C56.5325 150.081 56.4903 150.091 56.4473 150.092Z" fill="black"/>
<path d="M109.636 144.704C109.636 144.704 106.349 150.444 118.957 154.909L126.237 145.866C129.233 148.084 133.715 145.813 136.711 141.044C138.265 139.047 140.151 135.941 142.178 134.451C145.219 132.215 151.085 131.923 150.137 128.063C149.735 126.671 148.942 126.196 148.942 126.196C148.942 126.196 150.007 122.969 146.768 121.765C146.768 121.765 146.714 117.392 140.942 117.382C135.043 117.372 129.41 120.547 127.101 122.893C124.793 125.238 117.077 139.15 117.077 139.15C117.077 139.15 114.478 139.904 109.636 144.704Z" fill="#FBB348"/>
<path d="M118.956 155.164C118.928 155.164 118.899 155.159 118.871 155.149C113.545 153.263 110.33 150.921 109.316 148.189C108.55 146.124 109.378 144.639 109.414 144.577C109.425 144.557 109.439 144.539 109.455 144.523C113.814 140.202 116.363 139.131 116.901 138.939C117.617 137.651 124.683 124.985 126.918 122.714C129.047 120.551 134.725 117.127 140.912 117.127H140.941C144.035 117.132 145.525 118.385 146.23 119.435C146.831 120.33 146.976 121.218 147.011 121.586C148.678 122.265 149.189 123.481 149.321 124.395C149.429 125.138 149.309 125.791 149.234 126.095C149.508 126.321 150.063 126.89 150.381 127.992C150.382 127.995 150.383 127.998 150.384 128.002C151.073 130.811 148.411 131.883 145.837 132.92C144.589 133.423 143.3 133.942 142.328 134.657C140.867 135.731 139.454 137.701 138.208 139.439C137.756 140.069 137.329 140.664 136.92 141.19C134.972 144.287 132.335 146.413 129.866 146.878C128.549 147.126 127.317 146.896 126.285 146.212L119.155 155.069C119.106 155.13 119.032 155.164 118.956 155.164ZM109.843 144.858C109.742 145.058 109.166 146.332 109.801 148.027C110.985 151.186 115.348 153.341 118.871 154.607L126.037 145.706C126.079 145.654 126.138 145.621 126.204 145.612C126.269 145.604 126.335 145.621 126.388 145.66C127.355 146.376 128.493 146.617 129.771 146.376C132.107 145.936 134.62 143.892 136.494 140.908C136.499 140.901 136.504 140.894 136.509 140.887C136.914 140.366 137.341 139.771 137.793 139.141C139.061 137.373 140.499 135.368 142.026 134.246C143.049 133.493 144.369 132.961 145.646 132.447C148.234 131.404 150.469 130.504 149.889 128.129C149.524 126.868 148.816 126.418 148.809 126.414C148.76 126.383 148.722 126.338 148.702 126.284C148.683 126.23 148.681 126.171 148.699 126.116C148.739 125.994 149.643 123.106 146.679 122.005C146.63 121.987 146.589 121.954 146.559 121.912C146.529 121.87 146.513 121.82 146.512 121.769C146.509 121.601 146.38 117.646 140.941 117.637H140.913C134.88 117.637 129.353 120.968 127.283 123.071C125.025 125.365 117.377 139.135 117.3 139.274C117.267 139.333 117.212 139.377 117.148 139.395C117.122 139.403 114.544 140.204 109.843 144.858Z" fill="black"/>
<path d="M132.855 133.624C132.808 133.624 132.762 133.611 132.722 133.587C132.683 133.563 132.65 133.528 132.629 133.487C132.607 133.446 132.597 133.399 132.6 133.353C132.603 133.306 132.619 133.262 132.645 133.223C133.692 131.717 139.201 126.99 143.062 125.626C146.858 124.285 149.095 125.987 149.188 126.06C149.241 126.102 149.275 126.163 149.283 126.23C149.29 126.297 149.272 126.364 149.23 126.417C149.189 126.47 149.128 126.504 149.061 126.513C148.995 126.521 148.927 126.503 148.874 126.462C148.866 126.456 148.339 126.055 147.387 125.813C146.507 125.588 145.072 125.457 143.232 126.107C139.53 127.415 134.056 132.089 133.064 133.515C133.041 133.548 133.01 133.576 132.973 133.595C132.936 133.614 132.896 133.624 132.855 133.624ZM128.891 129.982C128.844 129.982 128.799 129.969 128.759 129.945C128.719 129.921 128.686 129.886 128.665 129.845C128.643 129.804 128.633 129.758 128.636 129.711C128.639 129.665 128.655 129.62 128.681 129.582C128.768 129.456 130.848 126.49 134.633 124.186C141.15 120.219 146.516 121.44 146.741 121.494C146.807 121.51 146.864 121.551 146.899 121.609C146.935 121.667 146.946 121.736 146.93 121.802C146.922 121.835 146.908 121.865 146.888 121.893C146.869 121.92 146.844 121.943 146.815 121.96C146.787 121.978 146.755 121.989 146.722 121.995C146.688 122 146.655 121.999 146.622 121.991C146.556 121.975 141.217 120.775 134.899 124.622C131.211 126.867 129.121 129.842 129.101 129.872C129.077 129.906 129.046 129.934 129.009 129.953C128.973 129.972 128.932 129.982 128.891 129.982Z" fill="black"/>
<path d="M84.4291 92.5328C84.4291 92.5328 80.5308 84.7342 90.1348 78.3786C99.7387 72.023 102.194 80.3215 112.553 85.772C112.553 85.772 119.815 85.0423 122.01 87.9848C124.206 90.9274 119.001 101.116 115.44 103.405L99.248 101.037L84.4291 92.5328Z" fill="#FF6996"/>
<path d="M115.441 103.66C115.429 103.66 115.416 103.659 115.404 103.657L99.2119 101.29C99.1801 101.285 99.1494 101.275 99.1216 101.259L84.3027 92.7541C84.2591 92.7291 84.2239 92.6918 84.2015 92.6468C84.1604 92.5646 83.1977 90.6013 83.4268 87.8181C83.8086 83.18 87.2091 80.009 89.9945 78.1657C96.7709 73.6812 100.18 76.4134 104.897 80.1946C107.029 81.9029 109.443 83.8375 112.605 85.511C112.979 85.4779 114.609 85.3546 116.482 85.5209C119.331 85.7736 121.26 86.5514 122.216 87.8324C122.796 88.6102 122.938 89.847 122.636 91.5083C121.867 95.7545 118.305 101.867 115.579 103.619C115.538 103.646 115.489 103.66 115.441 103.66ZM99.3337 100.792L115.382 103.138C117.958 101.406 121.406 95.4361 122.134 91.4172C122.405 89.9221 122.292 88.7879 121.807 88.1373C119.723 85.3448 112.65 86.0187 112.579 86.0257C112.529 86.0308 112.479 86.0211 112.435 85.9977C109.196 84.2935 106.742 82.3273 104.578 80.5927C99.8594 76.8107 96.742 74.3124 90.2764 78.5912C86.4272 81.1386 84.2353 84.3347 83.9378 87.834C83.7364 90.2041 84.4656 91.99 84.6274 92.3519L99.3337 100.792Z" fill="black"/>
<path d="M107.677 86.8057C107.612 86.8058 107.55 86.7814 107.502 86.7374C107.455 86.6934 107.426 86.6331 107.422 86.5687C107.417 86.5043 107.437 86.4405 107.478 86.3903C107.518 86.34 107.576 86.307 107.64 86.2979C109.934 85.9657 112.585 85.5198 112.612 85.5154C112.645 85.5097 112.678 85.5106 112.711 85.5181C112.744 85.5256 112.775 85.5394 112.802 85.5589C112.829 85.5783 112.853 85.603 112.87 85.6314C112.888 85.6598 112.9 85.6915 112.906 85.7246C112.917 85.7913 112.901 85.8598 112.862 85.9149C112.823 85.97 112.763 86.0073 112.696 86.0185C112.67 86.023 110.013 86.4699 107.713 86.8031C107.701 86.8049 107.689 86.8057 107.677 86.8057Z" fill="black"/>
<path d="M91.9765 103.843L87.1328 109.731C87.1328 109.731 87.6595 118.019 95.3286 117.208L99.4257 113.241" fill="#FBB348"/>
<path d="M94.3022 117.519C92.5287 117.519 91.0224 117.005 89.8134 115.985C87.1615 113.747 86.8888 109.909 86.8784 109.747C86.8743 109.683 86.8949 109.619 86.936 109.569L91.7797 103.68C91.8227 103.628 91.8847 103.595 91.9521 103.589C92.0195 103.582 92.0867 103.603 92.139 103.645C92.1913 103.688 92.2244 103.75 92.2309 103.818C92.2375 103.885 92.217 103.952 92.174 104.005L87.3966 109.813C87.4576 110.419 87.8854 113.693 90.1452 115.597C91.4577 116.703 93.1632 117.162 95.215 116.963L99.2485 113.058C99.2725 113.034 99.301 113.016 99.3322 113.003C99.3635 112.991 99.3969 112.984 99.4305 112.985C99.4642 112.985 99.4974 112.992 99.5283 113.006C99.5592 113.019 99.5872 113.038 99.6106 113.062C99.634 113.087 99.6524 113.115 99.6648 113.146C99.6771 113.178 99.6831 113.211 99.6825 113.245C99.6818 113.278 99.6745 113.312 99.661 113.342C99.6474 113.373 99.6279 113.401 99.6036 113.424L95.5065 117.391C95.4656 117.431 95.4125 117.456 95.3557 117.462C94.9949 117.5 94.6435 117.519 94.3022 117.519Z" fill="black"/>
<path d="M92.0514 103.85C92.0514 103.85 93.476 112.011 101.999 114.071C110.523 116.132 114.944 107.581 114.944 107.581C114.944 107.581 119.685 107.19 119.758 105.309C119.832 103.428 115.523 104.292 115.523 104.292C115.523 104.292 118.763 95.8954 111.988 90.3458C111.988 90.3458 109.006 88.7083 104.897 92.802C100.788 96.8957 97.6916 100.917 96.6734 97.0462C96.6734 97.0462 96.9294 88.2598 89.9348 88.4101C82.0088 88.5809 82.4255 98.6898 86.781 101.927C89.8743 104.225 92.0514 103.85 92.0514 103.85Z" fill="#FBB348"/>
<path d="M104.586 114.644C103.753 114.644 102.871 114.545 101.939 114.319C97.4515 113.235 94.9335 110.459 93.6112 108.322C92.4414 106.431 91.9832 104.729 91.8468 104.124C91.1751 104.157 89.2113 104.051 86.6278 102.132C84.0023 100.18 82.7427 95.8483 83.8198 92.4745C84.6879 89.7551 86.8573 88.2211 89.9283 88.1551C91.7962 88.1121 93.3319 88.6902 94.4982 89.865C95.8277 91.2043 96.4174 93.0902 96.6778 94.4363C96.9328 95.7543 96.9317 96.8022 96.9284 97.0155C97.1371 97.7888 97.4384 98.232 97.824 98.3331C98.8846 98.6111 100.79 96.6457 102.999 94.3706C103.55 93.8022 104.121 93.2144 104.716 92.6214C108.912 88.4406 111.981 90.0514 112.11 90.1223C112.123 90.1298 112.136 90.1386 112.149 90.1486C115.725 93.0775 116.516 96.7944 116.551 99.3968C116.578 101.508 116.137 103.213 115.902 103.967C116.795 103.83 118.751 103.632 119.601 104.356C119.885 104.598 120.028 104.932 120.013 105.319C119.977 106.222 119.095 106.921 117.391 107.396C116.413 107.669 115.454 107.786 115.103 107.822C114.831 108.313 113.744 110.138 111.834 111.792C110.227 113.184 107.779 114.644 104.586 114.644ZM92.0499 103.595C92.11 103.595 92.1682 103.616 92.2143 103.654C92.2604 103.693 92.2914 103.746 92.302 103.806C92.3055 103.826 92.671 105.839 94.056 108.071C95.3278 110.12 97.7487 112.781 102.059 113.823C105.509 114.657 108.685 113.844 111.5 111.406C113.609 109.579 114.706 107.485 114.717 107.464C114.736 107.426 114.766 107.393 114.802 107.369C114.838 107.345 114.879 107.331 114.922 107.327C116.178 107.223 119.449 106.656 119.502 105.299C119.512 105.064 119.438 104.887 119.269 104.744C118.535 104.118 116.352 104.386 115.572 104.542C115.527 104.551 115.481 104.548 115.438 104.533C115.395 104.517 115.356 104.491 115.327 104.456C115.298 104.421 115.278 104.379 115.27 104.334C115.263 104.289 115.267 104.243 115.284 104.2C115.292 104.179 116.079 102.1 116.04 99.3851C115.987 95.7747 114.577 92.806 111.846 90.5604C111.73 90.5043 111.041 90.1999 109.965 90.2961C107.975 90.4734 106.208 91.8547 105.076 92.9824C104.484 93.5723 103.915 94.1585 103.365 94.7255C100.95 97.2141 99.0415 99.1794 97.6944 98.8264C97.1037 98.6713 96.6885 98.1102 96.4256 97.1107C96.4194 97.0872 96.4166 97.0628 96.4173 97.0385C96.4186 96.9946 96.5144 92.6181 94.1344 90.2226C93.0707 89.152 91.66 88.6274 89.9393 88.6648C87.1035 88.7259 85.1028 90.1339 84.3062 92.6292C83.8204 94.1507 83.8268 95.941 84.3241 97.6704C84.8222 99.4032 85.7485 100.842 86.9323 101.722C88.4777 102.87 89.7765 103.319 90.594 103.493C91.477 103.681 92.0031 103.599 92.0082 103.598C92.0222 103.596 92.0362 103.595 92.0499 103.595Z" fill="black"/>
<path d="M111.614 111.808C111.577 111.808 111.54 111.799 111.504 111.783C111.417 111.74 109.355 110.719 109.531 107.841C109.539 107.7 109.658 107.592 109.801 107.602C109.868 107.606 109.932 107.637 109.976 107.688C110.021 107.738 110.044 107.805 110.04 107.872C109.886 110.397 111.65 111.286 111.726 111.323C111.786 111.352 111.833 111.405 111.855 111.468C111.877 111.532 111.873 111.602 111.844 111.663C111.823 111.706 111.791 111.743 111.75 111.768C111.709 111.794 111.662 111.808 111.614 111.808ZM92.6028 101.289C92.5631 101.289 92.5239 101.28 92.4884 101.262C92.4529 101.244 92.422 101.218 92.3982 101.186C92.3744 101.155 92.3584 101.118 92.3514 101.079C92.3444 101.04 92.3466 100.999 92.3578 100.961C92.3727 100.911 93.8067 95.8465 90.4692 90.8081C90.4507 90.7801 90.4379 90.7488 90.4315 90.716C90.4251 90.6831 90.4252 90.6492 90.4319 90.6164C90.4385 90.5836 90.4516 90.5524 90.4704 90.5246C90.4891 90.4968 90.5131 90.473 90.5411 90.4545C90.569 90.436 90.6003 90.4232 90.6332 90.4168C90.6661 90.4104 90.7 90.4105 90.7328 90.4172C90.7656 90.4239 90.7968 90.437 90.8246 90.4557C90.8524 90.4744 90.8763 90.4984 90.8948 90.5264C94.3683 95.7696 92.8629 101.053 92.8474 101.106C92.8319 101.159 92.7996 101.205 92.7555 101.238C92.7114 101.271 92.6578 101.289 92.6028 101.289Z" fill="black"/>
<path d="M92.9214 97.517C92.8785 97.517 92.8351 97.5063 92.7952 97.4835C92.7823 97.4762 91.6438 96.8452 90.6993 97.4606C90.6426 97.4957 90.5744 97.5072 90.5093 97.4927C90.4443 97.4782 90.3874 97.4388 90.351 97.383C90.3146 97.3271 90.3015 97.2593 90.3145 97.1939C90.3274 97.1285 90.3655 97.0708 90.4205 97.0331C91.6307 96.2447 92.9914 97.0076 93.0486 97.0404C93.0974 97.0684 93.1356 97.1117 93.1572 97.1636C93.1789 97.2156 93.1828 97.2732 93.1683 97.3276C93.1538 97.3819 93.1217 97.43 93.0771 97.4642C93.0324 97.4985 92.9777 97.517 92.9214 97.517ZM111.566 101.306C111.598 101.191 111.663 101.087 111.754 101.009C111.844 100.931 111.956 100.881 112.075 100.867C112.194 100.852 112.314 100.873 112.421 100.926C112.528 100.98 112.617 101.064 112.676 101.168C112.735 101.272 112.762 101.392 112.753 101.511C112.744 101.63 112.701 101.745 112.627 101.839C112.553 101.933 112.453 102.004 112.34 102.041C112.226 102.079 112.104 102.082 111.988 102.05C111.834 102.008 111.702 101.905 111.623 101.766C111.544 101.627 111.523 101.461 111.566 101.307L111.566 101.306Z" fill="black"/>
<path d="M98.558 105.078C99.1181 103.045 101.221 101.851 103.254 102.41C105.288 102.97 106.482 105.072 105.922 107.105C105.362 109.138 103.26 110.332 101.226 109.772C99.1926 109.212 97.998 107.111 98.5579 105.078L98.558 105.078Z" fill="#E79F33"/>
<path d="M86.4744 120.436C100.233 126.866 95.7372 150.447 94.9997 152.014C94.9997 152.014 101.475 148.797 104.299 145.335C107.123 141.872 109.765 136.756 115.423 138.017C117.802 138.548 120.127 143.279 121.068 143.804C121.068 143.804 128.515 144.24 129.829 150.095C131.143 155.95 126.362 160.058 121.068 163.73C115.149 167.836 112.729 171.396 110.051 175.559C105.404 182.777 97.5368 188.71 85.6151 185.531C85.6151 185.531 79.94 187.344 77.3391 184.61C74.7382 181.876 75.1126 180.146 74.0127 178.434C72.9128 176.721 68.8339 170.672 70.1901 163.83C71.5464 156.987 74.6607 146.982 73.107 140.459" fill="#6F5490"/>
<path d="M91.975 186.664C89.934 186.664 87.8137 186.375 85.6211 185.796C84.9142 186.01 79.7045 187.466 77.1547 184.786C75.4484 182.992 74.9932 181.621 74.5915 180.411C74.3778 179.767 74.1761 179.159 73.7984 178.571L73.6947 178.41C72.4354 176.46 68.6036 170.524 69.9401 163.78C70.2263 162.336 70.5885 160.761 70.9718 159.093C72.4249 152.773 74.0718 145.61 72.859 140.518C72.8437 140.452 72.855 140.383 72.8905 140.326C72.926 140.268 72.9828 140.227 73.0485 140.212C73.1142 140.196 73.1833 140.207 73.2409 140.242C73.2985 140.277 73.3397 140.334 73.3557 140.4C74.5961 145.608 72.9351 152.833 71.4694 159.208C71.0869 160.871 70.7256 162.443 70.4409 163.879C69.1444 170.42 72.8921 176.226 74.1236 178.134L74.2278 178.296C74.6402 178.937 74.8518 179.575 75.076 180.25C75.4609 181.409 75.8969 182.723 77.5244 184.434C79.9842 187.019 85.4825 185.305 85.5377 185.288C85.5843 185.273 85.634 185.272 85.6812 185.284C91.1027 186.73 96.0712 186.37 100.449 184.215C104.069 182.432 107.227 179.473 109.836 175.421C112.701 170.968 115.173 167.509 120.923 163.52C125.804 160.135 130.9 156.031 129.58 150.15C129.054 147.808 127.466 146.071 124.858 144.989C122.895 144.175 121.072 144.06 121.054 144.059C121.015 144.057 120.978 144.046 120.944 144.027C120.567 143.817 120.093 143.154 119.436 142.237C118.334 140.698 116.826 138.591 115.368 138.266C110.744 137.235 108.235 140.571 105.809 143.796C105.36 144.393 104.936 144.958 104.497 145.496C101.671 148.961 95.3799 152.11 95.1135 152.242C95.066 152.265 95.0124 152.274 94.9601 152.265C94.9077 152.257 94.8593 152.233 94.8214 152.196C94.7835 152.159 94.7582 152.111 94.7488 152.059C94.7394 152.007 94.7464 151.953 94.769 151.905C95.0021 151.409 95.7204 148.214 95.9564 143.953C96.1632 140.217 96.0424 134.747 94.2914 129.905C92.6933 125.485 90.0269 122.377 86.3666 120.666C86.3363 120.652 86.309 120.632 86.2864 120.607C86.2637 120.583 86.2462 120.554 86.2348 120.522C86.2234 120.491 86.2182 120.457 86.2197 120.424C86.2212 120.39 86.2293 120.358 86.2435 120.327C86.2577 120.297 86.2777 120.27 86.3024 120.247C86.3272 120.224 86.3561 120.207 86.3876 120.195C86.4191 120.184 86.4526 120.179 86.4861 120.18C86.5196 120.182 86.5524 120.19 86.5828 120.204C90.3706 121.974 93.1256 125.18 94.7715 129.732C97.7991 138.105 96.2021 148.66 95.4358 151.5C97.0532 150.641 101.822 147.968 104.101 145.173C104.534 144.643 104.955 144.083 105.401 143.49C107.807 140.291 110.533 136.665 115.479 137.768C117.127 138.136 118.702 140.334 119.851 141.94C120.371 142.666 120.864 143.355 121.15 143.554C121.507 143.582 123.201 143.749 125.054 144.518C127.784 145.651 129.522 147.56 130.078 150.039C131.467 156.229 126.231 160.46 121.214 163.94C115.541 167.874 113.098 171.294 110.265 175.697C107.606 179.829 104.379 182.848 100.674 184.672C97.9795 185.999 95.0692 186.664 91.975 186.664Z" fill="black"/>
<path d="M123.997 147.214C123.938 147.214 123.881 147.194 123.836 147.157C123.228 146.663 121.721 145.36 120.851 143.938C120.834 143.909 120.822 143.877 120.817 143.844C120.811 143.811 120.813 143.777 120.821 143.745C120.828 143.712 120.843 143.681 120.862 143.654C120.882 143.627 120.907 143.604 120.936 143.587C120.964 143.569 120.996 143.558 121.029 143.552C121.062 143.547 121.096 143.549 121.129 143.556C121.161 143.564 121.192 143.578 121.219 143.598C121.246 143.618 121.269 143.643 121.287 143.671C122.116 145.027 123.571 146.284 124.158 146.761C124.199 146.794 124.229 146.839 124.243 146.89C124.257 146.941 124.256 146.995 124.238 147.045C124.22 147.094 124.187 147.137 124.144 147.168C124.101 147.198 124.05 147.214 123.997 147.214Z" fill="black"/>
<path d="M85.5918 185.532C85.5918 185.532 83.6862 184.978 82.8291 184.25L85.5918 185.532Z" fill="#92ACEF"/>
<path d="M85.5928 185.787C85.5687 185.787 85.5447 185.783 85.5215 185.776C85.4416 185.753 83.5531 185.199 82.6647 184.444C82.6389 184.422 82.6176 184.396 82.6021 184.366C82.5865 184.336 82.5771 184.303 82.5742 184.27C82.5714 184.236 82.5752 184.202 82.5855 184.17C82.5958 184.138 82.6124 184.108 82.6342 184.083C82.656 184.057 82.6827 184.036 82.7127 184.021C82.7428 184.005 82.7755 183.996 82.8091 183.994C82.8427 183.991 82.8765 183.995 82.9085 184.006C82.9405 184.016 82.9701 184.033 82.9955 184.055C83.8015 184.74 85.6454 185.281 85.664 185.286C85.6962 185.296 85.7262 185.311 85.7524 185.332C85.7785 185.353 85.8003 185.379 85.8165 185.408C85.8326 185.438 85.8428 185.47 85.8465 185.503C85.8502 185.537 85.8472 185.57 85.8378 185.602C85.8224 185.656 85.7902 185.702 85.746 185.735C85.7018 185.769 85.6481 185.787 85.5928 185.787ZM79.9387 162.405C79.8896 162.405 79.8416 162.391 79.8003 162.364C79.7591 162.337 79.7264 162.3 79.7062 162.255C79.686 162.21 79.6791 162.16 79.6864 162.112C79.6937 162.063 79.7148 162.018 79.7473 161.981C85.6732 155.255 94.8685 151.784 94.9607 151.75C95.024 151.727 95.0936 151.73 95.1545 151.759C95.2155 151.787 95.2628 151.838 95.2862 151.901C95.3096 151.964 95.3073 152.034 95.2797 152.095C95.2521 152.156 95.2014 152.204 95.1387 152.228C95.0476 152.262 85.9697 155.691 80.1304 162.318C80.1064 162.346 80.0769 162.367 80.0439 162.382C80.0108 162.397 79.975 162.405 79.9387 162.405Z" fill="black"/>
</g>
<g clip-path="url(#clip2_741_8241)">
<path d="M238.242 16.04C238.242 16.04 238.242 28.7686 244.608 28.7686C244.608 28.7686 238.242 28.7686 238.242 39.9061C238.242 39.9061 238.242 28.7686 231.877 28.7686C231.877 28.7686 238.242 28.7686 238.242 16.04Z" fill="#FBB348"/>
<path d="M238.243 40.1592C238.176 40.1592 238.111 40.1325 238.064 40.0851C238.016 40.0376 237.99 39.9732 237.99 39.906V39.9058C237.99 39.8783 237.98 37.1165 237.201 34.3977C236.179 30.8306 234.388 29.0217 231.877 29.0217C231.81 29.0217 231.746 28.995 231.698 28.9475C231.651 28.9 231.624 28.8355 231.624 28.7683C231.624 28.7011 231.651 28.6367 231.698 28.5892C231.746 28.5417 231.81 28.515 231.877 28.515C231.892 28.5149 233.412 28.4871 234.912 26.9668C236.316 25.544 237.99 22.4933 237.99 16.0397V16.038L237.99 16.0332L237.99 16.0285L237.99 16.0234L237.99 16.0218L237.991 16.0171L237.991 16.0158L237.991 16.0142C237.997 15.9496 238.029 15.89 238.078 15.8477C238.127 15.8055 238.191 15.7837 238.256 15.7869C238.32 15.7902 238.382 15.8182 238.426 15.8652C238.471 15.9122 238.496 15.9746 238.496 16.0395V16.0397C238.496 16.1659 238.569 28.515 244.608 28.515C244.676 28.515 244.74 28.5417 244.788 28.5892C244.835 28.6367 244.862 28.7011 244.862 28.7683C244.862 28.8355 244.835 28.9 244.788 28.9475C244.74 28.995 244.676 29.0217 244.608 29.0217C244.594 29.0218 243.068 29.045 241.565 30.3751C240.165 31.6145 238.496 34.2742 238.496 39.9058V39.9076L238.496 39.911C238.496 39.9138 238.496 39.9168 238.496 39.9196V39.9197C238.492 39.9844 238.464 40.0453 238.417 40.0898C238.37 40.1344 238.308 40.1592 238.243 40.1592ZM233.254 28.6999C235.286 29.273 236.805 31.1689 237.691 34.2675C237.923 35.0801 238.088 35.8886 238.206 36.629C238.557 34.1437 239.406 31.5911 241.259 29.9699C241.95 29.3653 242.64 29.0119 243.212 28.8054C241.187 28.1456 239.673 25.9871 238.793 22.4656C238.566 21.5572 238.403 20.6457 238.286 19.806C237.873 23.2118 236.853 25.7431 235.239 27.3565C234.537 28.059 233.834 28.4651 233.254 28.6999Z" fill="black"/>
<path d="M278.71 32.2202C278.71 32.2202 278.71 52.5594 288.881 52.5594C288.881 52.5594 278.71 52.5594 278.71 70.3563C278.71 70.3563 278.71 52.5594 268.538 52.5594C268.538 52.5595 278.71 52.5595 278.71 32.2202Z" fill="#FBB348"/>
<path d="M278.71 70.6097C278.643 70.6097 278.579 70.583 278.531 70.5355C278.484 70.488 278.457 70.4236 278.457 70.3565V70.3563C278.457 70.312 278.441 65.883 277.192 61.5185C276.464 58.9728 275.465 56.9485 274.224 55.5018C272.693 53.7176 270.78 52.8128 268.539 52.8128C268.471 52.8128 268.407 52.7861 268.359 52.7386C268.312 52.6911 268.285 52.6267 268.285 52.5595C268.285 52.4923 268.312 52.4278 268.359 52.3803C268.407 52.3328 268.471 52.3061 268.539 52.3061C268.544 52.3061 269.167 52.2998 270.083 51.9896C270.927 51.7034 272.201 51.0924 273.476 49.8064C275.748 47.5157 278.457 42.6052 278.457 32.2201V32.2158L278.457 32.2119L278.457 32.209L278.457 32.2083C278.46 32.1423 278.489 32.0802 278.538 32.0352C278.586 31.9902 278.65 31.9658 278.716 31.9674C278.782 31.9689 278.845 31.9961 278.891 32.0433C278.937 32.0905 278.963 32.1539 278.964 32.2199V32.2201C278.964 32.272 278.979 37.3401 280.229 42.3363C280.96 45.2536 281.961 47.5739 283.206 49.2324C284.737 51.2719 286.647 52.3061 288.882 52.3061C288.949 52.3061 289.013 52.3328 289.061 52.3803C289.108 52.4278 289.135 52.4923 289.135 52.5595C289.135 52.6267 289.108 52.6911 289.061 52.7386C289.013 52.7861 288.949 52.8128 288.882 52.8128C288.857 52.8129 286.378 52.8457 283.935 54.9987C282.497 56.2662 281.35 58.0111 280.526 60.1849C279.489 62.9192 278.963 66.3413 278.963 70.3563V70.3606L278.963 70.3645L278.963 70.3675L278.963 70.3678L278.963 70.3723V70.3727L278.963 70.3749C278.963 70.3781 278.962 70.3813 278.962 70.3845V70.3846C278.955 70.4465 278.925 70.5037 278.879 70.5452C278.833 70.5867 278.772 70.6097 278.71 70.6097ZM270.23 52.4783C271.909 52.8334 273.378 53.7363 274.612 55.1753C275.901 56.6793 276.934 58.7697 277.682 61.3882C278.168 63.0886 278.47 64.7976 278.657 66.2609C278.903 63.8921 279.372 61.7889 280.063 59.9773C280.921 57.724 282.121 55.9126 283.629 54.5934C284.91 53.4726 286.185 52.9009 287.159 52.6094C285.487 52.1991 284.026 51.1694 282.799 49.5334C281.513 47.8192 280.482 45.4364 279.736 42.4512C279.251 40.5131 278.95 38.5653 278.763 36.8969C278.518 39.5971 278.05 41.9943 277.361 44.0589C276.505 46.627 275.308 48.692 273.803 50.1961C272.505 51.4946 271.211 52.1487 270.23 52.4783Z" fill="black"/>
<path d="M269.781 75.9062C269.781 75.9062 269.781 86.9617 275.31 86.9617C275.31 86.9617 269.781 86.9617 269.781 96.6359C269.781 96.6359 269.781 86.9617 264.252 86.9617C264.252 86.9617 269.781 86.9617 269.781 75.9062Z" fill="#FBB348"/>
<path d="M269.78 96.8894C269.713 96.8894 269.648 96.8628 269.601 96.8153C269.553 96.7678 269.526 96.7034 269.526 96.6363V96.6361C269.526 96.5419 269.463 87.2153 264.25 87.2153C264.183 87.2153 264.119 87.1886 264.071 87.1411C264.024 87.0936 263.997 87.0291 263.997 86.9619C263.997 86.8947 264.024 86.8303 264.071 86.7827C264.119 86.7352 264.183 86.7085 264.25 86.7085C264.263 86.7084 265.573 86.683 266.867 85.3696C268.08 84.1375 269.526 81.4957 269.526 75.9064V75.9038C269.526 75.8995 269.527 75.8953 269.527 75.891V75.8902L269.527 75.8889L269.527 75.888L269.527 75.8823L269.528 75.882L269.528 75.8804L269.528 75.8781L269.528 75.8752L269.528 75.8748C269.536 75.8106 269.568 75.7519 269.618 75.7105C269.667 75.6691 269.731 75.6483 269.796 75.6523C269.86 75.6564 269.921 75.6849 269.965 75.7321C270.009 75.7793 270.033 75.8416 270.033 75.9062V75.9064C270.033 76.017 270.097 86.7085 275.308 86.7085C275.376 86.7085 275.44 86.7352 275.488 86.7827C275.535 86.8303 275.562 86.8947 275.562 86.9619C275.562 87.0291 275.535 87.0936 275.488 87.1411C275.44 87.1886 275.376 87.2153 275.308 87.2153C275.296 87.2154 273.98 87.2365 272.684 88.3857C270.95 89.9238 270.033 92.7767 270.033 96.6361V96.6388L270.033 96.6428V96.6443L270.033 96.6459V96.6468L270.033 96.6504L270.033 96.6521V96.6525L270.033 96.6533V96.6534L270.033 96.6545C270.028 96.7184 269.999 96.7781 269.952 96.8217C269.905 96.8653 269.844 96.8895 269.78 96.8894ZM265.546 86.8968C267.277 87.4274 268.573 89.0715 269.332 91.7295C269.51 92.3503 269.642 92.9685 269.741 93.5461C270.121 91.0483 271.003 89.1828 272.377 87.9806C272.946 87.4832 273.514 87.1803 273.996 86.9958C272.271 86.3859 270.98 84.5152 270.225 81.4957C270.049 80.7925 269.918 80.0869 269.819 79.4253C269.441 82.2684 268.563 84.3913 267.194 85.7592C266.615 86.338 266.036 86.6866 265.546 86.8968Z" fill="black"/>
</g>
<defs>
<clipPath id="clip0_741_8241">
<rect width="127.375" height="171.824" fill="white" transform="translate(126.93 56.895)"/>
</clipPath>
<clipPath id="clip1_741_8241">
<rect width="140.942" height="153.396" fill="white" transform="translate(10.6924 75.8296)"/>
</clipPath>
<clipPath id="clip2_741_8241">
<rect width="57.511" height="81.1026" fill="white" transform="translate(231.624 15.7866)"/>
</clipPath>
</defs>
</svg>
