<svg width="366" height="365" viewBox="0 0 366 365" fill="none" xmlns="http://www.w3.org/2000/svg">
<g clip-path="url(#clip0_741_7171)">
<g clip-path="url(#clip1_741_7171)">
<path d="M152.732 107.467C152.732 87.6113 168.829 71.5153 188.684 71.5153C208.538 71.5153 224.635 87.6113 224.635 107.467C224.635 127.322 208.541 143.418 188.684 143.418C168.826 143.418 152.732 127.321 152.732 107.467Z" fill="#FBB348"/>
<path d="M188.684 143.706C181.516 143.705 174.51 141.58 168.551 137.598C162.591 133.616 157.947 127.956 155.204 121.334C152.461 114.713 151.743 107.426 153.142 100.397C154.54 93.3671 157.991 86.91 163.059 81.8419C169.864 75.087 179.069 71.3041 188.657 71.3217C198.245 71.3393 207.436 75.156 214.216 81.9358C220.995 88.7157 224.812 97.9061 224.83 107.494C224.847 117.082 221.064 126.287 214.309 133.091C210.952 136.467 206.959 139.143 202.56 140.965C198.161 142.787 193.445 143.719 188.684 143.706ZM188.684 71.8034C181.63 71.8036 174.735 73.8953 168.871 77.814C163.006 81.7327 158.435 87.3024 155.736 93.8189C153.036 100.335 152.33 107.506 153.706 114.424C155.082 121.342 158.478 127.696 163.466 132.684C166.773 136.015 170.705 138.661 175.037 140.469C179.369 142.278 184.016 143.213 188.71 143.222C193.404 143.23 198.054 142.312 202.393 140.52C206.732 138.727 210.674 136.096 213.993 132.776C217.313 129.457 219.944 125.515 221.736 121.176C223.529 116.838 224.447 112.188 224.439 107.494C224.43 102.799 223.495 98.1529 221.686 93.8209C219.878 89.4889 217.232 85.5565 213.901 82.2493C210.597 78.9273 206.667 76.2936 202.339 74.5005C198.01 72.7075 193.369 71.7908 188.684 71.8034Z" fill="#111111"/>
<path d="M158.169 107.467C158.169 90.6142 171.831 76.9525 188.683 76.9525C205.536 76.9525 219.198 90.6142 219.198 107.467C219.198 124.319 205.537 137.981 188.683 137.981C171.83 137.981 158.169 124.319 158.169 107.467Z" fill="#FBB348"/>
<path d="M188.684 138.27C182.592 138.27 176.636 136.463 171.571 133.079C166.505 129.694 162.557 124.883 160.226 119.255C157.894 113.626 157.284 107.433 158.473 101.458C159.661 95.4824 162.595 89.994 166.903 85.6862C172.68 79.9096 180.515 76.6643 188.684 76.6643C196.853 76.6643 204.688 79.9095 210.465 85.6861C216.242 91.4626 219.487 99.2973 219.487 107.467C219.487 115.636 216.242 123.471 210.465 129.247C207.611 132.117 204.217 134.392 200.478 135.94C196.739 137.489 192.731 138.281 188.684 138.27ZM188.684 77.2411C182.706 77.2412 176.862 79.014 171.891 82.3353C166.921 85.6565 163.047 90.3771 160.759 95.9001C158.471 101.423 157.872 107.5 159.039 113.364C160.205 119.227 163.083 124.613 167.31 128.84C170.115 131.655 173.448 133.889 177.117 135.414C180.787 136.94 184.721 137.727 188.695 137.73C192.668 137.734 196.604 136.954 200.276 135.434C203.948 133.915 207.284 131.687 210.094 128.877C212.904 126.067 215.133 122.731 216.652 119.059C218.171 115.387 218.951 111.451 218.948 107.478C218.944 103.504 218.157 99.5698 216.632 95.9004C215.106 92.2311 212.872 88.8986 210.057 86.0936C207.257 83.2781 203.926 81.0459 200.257 79.5263C196.589 78.0067 192.655 77.2299 188.684 77.2407V77.2411Z" fill="#111111"/>
<path d="M190.41 130.324H190.407L186.18 130.289C186.103 130.289 186.03 130.258 185.977 130.203C185.923 130.149 185.894 130.076 185.894 129.999L185.926 124.564C181.955 124.421 179.221 123.098 177.614 121.999C175.821 120.773 175.016 119.574 174.982 119.523C174.944 119.465 174.928 119.394 174.937 119.325C174.947 119.255 174.982 119.192 175.035 119.146L180.178 114.731C180.207 114.706 180.241 114.687 180.277 114.675C180.314 114.663 180.353 114.659 180.391 114.662C180.429 114.666 180.467 114.677 180.501 114.695C180.535 114.713 180.565 114.738 180.589 114.768C182.391 116.988 186.375 117.773 187.231 117.773C187.3 117.773 187.409 117.778 187.553 117.784C188.646 117.834 191.971 117.984 193.54 116.43C194.134 115.842 194.418 115.051 194.384 114.08C194.23 109.699 186.632 108.989 186.555 108.982C184.787 108.733 183.082 108.151 181.532 107.265C179.228 105.935 176.481 103.321 176.472 98.42C176.464 93.4457 179.103 91.0093 181.319 89.8414C182.737 89.1099 184.284 88.6595 185.873 88.5151L185.942 82.674C185.943 82.5981 185.974 82.5257 186.028 82.4724C186.082 82.4192 186.154 82.3893 186.23 82.3893H190.296C190.373 82.3893 190.446 82.4195 190.5 82.4733C190.554 82.5272 190.584 82.6002 190.584 82.6765L190.602 88.436C190.648 88.436 190.695 88.4353 190.741 88.4353C195.966 88.4353 199.538 91.4145 199.692 91.5447C199.746 91.591 199.781 91.6559 199.791 91.7268C199.8 91.7977 199.783 91.8696 199.742 91.9284L196.135 97.141C196.113 97.1728 196.085 97.1998 196.052 97.2204C196.019 97.2411 195.983 97.255 195.945 97.2613C195.907 97.2676 195.868 97.2662 195.83 97.2572C195.793 97.2482 195.758 97.2317 195.727 97.2088C191.57 94.1387 187.981 94.0631 186.008 95.0167C184.85 95.5765 184.164 96.5125 184.128 97.5848C184.028 100.479 186.391 100.881 189.662 101.437C190.106 101.513 190.565 101.591 191.03 101.678C198.49 103.079 202.434 107.329 202.434 113.969C202.434 117.936 200.343 121.039 196.388 122.941C194.58 123.788 192.651 124.345 190.67 124.592L190.697 130.034C190.698 130.072 190.69 130.109 190.676 130.145C190.662 130.18 190.64 130.212 190.614 130.238C190.587 130.265 190.555 130.287 190.52 130.301C190.485 130.316 190.447 130.323 190.409 130.323L190.41 130.324ZM186.472 129.715L190.12 129.745L190.093 124.334C190.092 124.262 190.12 124.192 190.169 124.138C190.218 124.085 190.285 124.052 190.358 124.046C190.387 124.044 193.293 123.794 196.153 122.415C199.939 120.59 201.858 117.749 201.858 113.97C201.858 105.976 195.912 103.182 190.924 102.246C190.464 102.159 190.008 102.082 189.566 102.006C186.276 101.446 183.435 100.962 183.552 97.5653C183.596 96.272 184.4 95.1541 185.758 94.4982C187.843 93.4905 191.566 93.5215 195.829 96.571L199.114 91.8242C198.264 91.1866 194.861 88.8737 190.324 89.0185C190.285 89.0201 190.247 89.0138 190.211 89C190.175 88.9861 190.142 88.9649 190.115 88.9378C190.087 88.9111 190.065 88.879 190.05 88.8436C190.035 88.8082 190.027 88.77 190.027 88.7315L190.009 82.966H186.515L186.446 88.7896C186.445 88.8639 186.416 88.935 186.364 88.9881C186.312 89.0411 186.241 89.072 186.167 89.0743C184.563 89.1862 182.999 89.6238 181.57 90.3605C178.563 91.9531 177.042 94.6644 177.048 98.4191C177.055 102.127 178.655 104.932 181.804 106.756C183.289 107.601 184.92 108.161 186.611 108.408C187.996 108.556 189.358 108.874 190.666 109.355C193.403 110.391 194.888 112.018 194.96 114.06C195 115.198 194.659 116.133 193.945 116.839C192.197 118.571 188.682 118.412 187.527 118.36C187.395 118.354 187.294 118.349 187.231 118.349C186.349 118.349 182.341 117.562 180.334 115.356L175.615 119.408C176.323 120.301 179.556 123.853 186.222 123.997C186.297 123.998 186.369 124.029 186.422 124.084C186.475 124.138 186.504 124.211 186.504 124.286L186.472 129.715Z" fill="#111111"/>
</g>
<g clip-path="url(#clip2_741_7171)">
<path d="M201.182 346.89C201.182 319.92 197.38 249.221 188.257 249.221C179.134 249.221 175.333 319.92 175.333 346.89H201.182Z" fill="#92ACEF"/>
<path d="M201.182 347.271H175.333C175.232 347.271 175.135 347.231 175.064 347.16C174.992 347.088 174.952 346.991 174.952 346.89C174.952 333.234 175.904 308.95 177.995 287.904C179.146 276.319 180.5 267.133 182.018 260.602C183.859 252.687 185.9 248.84 188.258 248.84C190.615 248.84 192.656 252.687 194.497 260.602C196.016 267.133 197.369 276.319 198.52 287.904C200.611 308.95 201.563 333.234 201.563 346.89C201.563 346.991 201.523 347.088 201.451 347.16C201.38 347.231 201.283 347.271 201.182 347.271ZM175.714 346.509H200.801C200.783 332.803 199.831 308.804 197.762 287.979C194.445 254.588 190.383 249.602 188.258 249.602C186.132 249.602 182.07 254.588 178.753 287.979C176.684 308.804 175.732 332.803 175.714 346.509H175.714Z" fill="black"/>
<path d="M72.6155 346.89C72.6155 319.92 68.814 249.221 59.691 249.221C50.5681 249.221 46.7666 319.92 46.7666 346.89H72.6155Z" fill="#92ACEF"/>
<path d="M72.6155 347.271H46.7667C46.6656 347.271 46.5687 347.231 46.4973 347.16C46.4259 347.088 46.3857 346.991 46.3857 346.89C46.3857 333.234 47.3381 308.95 49.4287 287.904C50.5796 276.319 51.9332 267.134 53.4519 260.603C55.2925 252.687 57.3335 248.84 59.6911 248.84C62.0487 248.84 64.0897 252.687 65.9303 260.603C67.449 267.133 68.8026 276.319 69.9533 287.904C72.0441 308.95 72.9963 333.234 72.9963 346.89C72.9963 346.992 72.9562 347.088 72.8847 347.16C72.8133 347.231 72.7164 347.272 72.6154 347.272L72.6155 347.271ZM47.1479 346.509H72.2343C72.2169 332.803 71.2642 308.804 69.1954 287.979C65.8784 254.588 61.817 249.602 59.6912 249.602C57.5655 249.602 53.5041 254.588 50.1869 287.979C48.1182 308.804 47.1654 332.803 47.148 346.509H47.1479Z" fill="black"/>
<path d="M123.975 15.1897C97.1752 15.1897 57.7969 182.981 57.7969 270.669C57.7969 298.894 61.6191 331.641 68.2112 346.89H179.738C186.33 331.641 190.152 298.894 190.152 270.669C190.152 182.981 150.774 15.1897 123.975 15.1897Z" fill="#CAD5F3"/>
<path d="M179.738 347.271H68.2114C68.137 347.271 68.0643 347.25 68.0022 347.209C67.9401 347.168 67.8912 347.11 67.8617 347.042C61.7115 332.815 57.416 301.409 57.416 270.669C57.416 229.188 66.4639 166.103 80.4663 109.954C87.3286 82.4371 94.7675 59.155 101.979 42.6246C110.032 24.1673 117.432 14.8086 123.975 14.8086C130.517 14.8086 137.918 24.1673 145.97 42.6248C153.182 59.1551 160.621 82.4373 167.483 109.954C181.485 166.103 190.533 229.188 190.533 270.669C190.533 301.409 186.238 332.815 180.088 347.042C180.058 347.11 180.009 347.168 179.947 347.209C179.885 347.25 179.812 347.272 179.738 347.272L179.738 347.271ZM68.4623 346.509H179.487C185.548 332.261 189.771 301.152 189.771 270.669C189.771 229.245 180.733 166.233 166.744 110.139C159.891 82.6623 152.467 59.4218 145.272 42.9297C137.463 25.0314 130.099 15.5709 123.975 15.5709C117.85 15.5709 110.486 25.0314 102.678 42.9297C95.4826 59.4218 88.0578 82.6623 81.2056 110.139C67.2167 166.233 58.1779 229.245 58.1779 270.669C58.1779 301.152 62.4017 332.261 68.4623 346.509Z" fill="#111111"/>
<path d="M68.2108 346.89H179.738C180.967 344.047 182.1 340.595 183.129 336.678H64.8193C65.849 340.595 66.9818 344.047 68.2109 346.89H68.2108Z" fill="#92ACEF"/>
<path d="M179.738 347.271H68.2109C68.1365 347.271 68.0638 347.25 68.0017 347.209C67.9395 347.168 67.8907 347.11 67.8612 347.042C66.6569 344.256 65.5094 340.801 64.4509 336.774C64.4361 336.718 64.4345 336.659 64.4461 336.602C64.4577 336.545 64.4822 336.491 64.5178 336.445C64.5533 336.399 64.599 336.361 64.6512 336.336C64.7035 336.31 64.7609 336.296 64.8192 336.296H183.129C183.188 336.296 183.245 336.31 183.297 336.336C183.35 336.361 183.395 336.399 183.431 336.445C183.467 336.491 183.491 336.545 183.503 336.602C183.514 336.659 183.512 336.718 183.498 336.774C182.439 340.801 181.292 344.256 180.087 347.042C180.058 347.11 180.009 347.168 179.947 347.209C179.885 347.25 179.812 347.271 179.738 347.271H179.738ZM68.4618 346.509H179.487C180.592 343.91 181.65 340.735 182.634 337.059H65.3145C66.2985 340.735 67.3561 343.91 68.4618 346.509Z" fill="black"/>
<path d="M172.469 347.271C172.368 347.271 172.271 347.231 172.2 347.16C172.129 347.088 172.088 346.991 172.088 346.89V336.678C172.088 336.576 172.129 336.479 172.2 336.408C172.271 336.337 172.368 336.296 172.469 336.296C172.57 336.296 172.667 336.337 172.739 336.408C172.81 336.479 172.85 336.576 172.85 336.678V346.89C172.85 346.991 172.81 347.088 172.739 347.16C172.667 347.231 172.57 347.271 172.469 347.271ZM166.863 347.271C166.762 347.271 166.665 347.231 166.594 347.16C166.522 347.088 166.482 346.991 166.482 346.89V336.678C166.482 336.576 166.522 336.479 166.594 336.408C166.665 336.337 166.762 336.296 166.863 336.296C166.964 336.296 167.061 336.337 167.133 336.408C167.204 336.479 167.244 336.576 167.244 336.678V346.89C167.244 346.991 167.204 347.088 167.133 347.16C167.061 347.231 166.964 347.271 166.863 347.271ZM96.2234 347.271C96.1224 347.271 96.0255 347.231 95.9541 347.16C95.8826 347.088 95.8425 346.991 95.8425 346.89V336.678C95.8425 336.576 95.8826 336.479 95.9541 336.408C96.0255 336.337 96.1224 336.296 96.2234 336.296C96.3244 336.296 96.4213 336.337 96.4928 336.408C96.5642 336.479 96.6043 336.576 96.6043 336.678V346.89C96.6043 346.991 96.5642 347.088 96.4928 347.16C96.4213 347.231 96.3244 347.271 96.2234 347.271ZM91.0212 347.271C90.9202 347.271 90.8233 347.231 90.7519 347.16C90.6804 347.088 90.6403 346.991 90.6403 346.89V336.678C90.6403 336.576 90.6804 336.479 90.7519 336.408C90.8233 336.337 90.9202 336.296 91.0212 336.296C91.1222 336.296 91.2191 336.337 91.2906 336.408C91.362 336.479 91.4021 336.576 91.4021 336.678V346.89C91.4021 346.991 91.362 347.088 91.2906 347.16C91.2191 347.231 91.1222 347.271 91.0212 347.271ZM74.6915 347.271C74.5904 347.271 74.4936 347.231 74.4221 347.16C74.3507 347.088 74.3105 346.991 74.3105 346.89V336.678C74.3105 336.576 74.3507 336.479 74.4221 336.408C74.4936 336.337 74.5904 336.296 74.6915 336.296C74.7925 336.296 74.8894 336.337 74.9608 336.408C75.0323 336.479 75.0724 336.576 75.0724 336.678V346.89C75.0724 346.991 75.0323 347.088 74.9608 347.16C74.8894 347.231 74.7925 347.271 74.6915 347.271ZM152.553 347.271C152.452 347.271 152.355 347.231 152.283 347.16C152.212 347.088 152.172 346.991 152.172 346.89V336.678C152.172 336.576 152.212 336.479 152.283 336.408C152.355 336.337 152.452 336.296 152.553 336.296C152.654 336.296 152.75 336.337 152.822 336.408C152.893 336.479 152.933 336.576 152.933 336.678V346.89C152.933 346.991 152.893 347.088 152.822 347.16C152.75 347.231 152.654 347.271 152.553 347.271Z" fill="black"/>
<path d="M123.974 168.845C142.006 168.845 156.623 154.219 156.623 136.177C156.623 118.136 142.006 103.51 123.974 103.51C105.942 103.51 91.3242 118.136 91.3242 136.177C91.3242 154.219 105.942 168.845 123.974 168.845Z" fill="#92ACEF"/>
<path d="M123.975 169.226C115.152 169.226 106.857 165.788 100.619 159.546C94.3801 153.304 90.9443 145.005 90.9443 136.177C90.9443 127.35 94.3801 119.051 100.619 112.809C106.857 106.567 115.152 103.129 123.975 103.129C132.797 103.129 141.092 106.567 147.331 112.809C153.569 119.051 157.005 127.35 157.005 136.177C157.005 145.005 153.569 153.304 147.331 159.546C141.092 165.788 132.797 169.226 123.975 169.226ZM123.975 103.891C106.182 103.891 91.7062 118.375 91.7062 136.177C91.7062 153.98 106.182 168.463 123.975 168.463C141.768 168.463 156.243 153.98 156.243 136.177C156.243 118.375 141.768 103.891 123.975 103.891Z" fill="black"/>
<path d="M123.975 161.836C138.138 161.836 149.619 150.348 149.619 136.177C149.619 122.007 138.138 110.519 123.975 110.519C109.812 110.519 98.3301 122.007 98.3301 136.177C98.3301 150.348 109.812 161.836 123.975 161.836Z" fill="white"/>
<path d="M123.975 162.217C109.624 162.217 97.9492 150.535 97.9492 136.177C97.9492 121.819 109.624 110.138 123.975 110.138C138.325 110.138 150 121.819 150 136.177C150 150.535 138.325 162.217 123.975 162.217ZM123.975 110.9C110.044 110.9 98.7111 122.239 98.7111 136.177C98.7111 150.115 110.044 161.455 123.975 161.455C137.905 161.455 149.238 150.115 149.238 136.177C149.238 122.239 137.905 110.9 123.975 110.9Z" fill="black"/>
<path d="M136.899 346.89C136.899 319.92 133.097 249.221 123.974 249.221C114.851 249.221 111.05 319.92 111.05 346.89H136.899Z" fill="#92ACEF"/>
<path d="M136.899 347.271H111.05C110.949 347.271 110.852 347.231 110.781 347.16C110.709 347.088 110.669 346.991 110.669 346.89C110.669 333.234 111.621 308.95 113.712 287.904C114.863 276.319 116.216 267.133 117.735 260.602C119.576 252.687 121.617 248.84 123.974 248.84C126.332 248.84 128.373 252.687 130.213 260.602C131.732 267.133 133.086 276.319 134.237 287.904C136.327 308.95 137.279 333.234 137.279 346.89C137.279 346.991 137.239 347.088 137.168 347.16C137.096 347.231 137 347.271 136.899 347.271H136.899ZM111.431 346.509H136.518C136.5 332.803 135.547 308.804 133.479 287.979C130.161 254.588 126.1 249.602 123.974 249.602C121.849 249.602 117.787 254.588 114.47 287.979C112.401 308.804 111.449 332.803 111.431 346.509H111.431Z" fill="black"/>
<path d="M123.975 15.1897C116.038 15.1897 106.999 29.9048 98.2061 52.8959H149.743C140.95 29.9048 131.911 15.1897 123.975 15.1897Z" fill="#92ACEF"/>
<path d="M149.743 53.2771H98.2061C98.1443 53.277 98.0835 53.262 98.0288 53.2332C97.9742 53.2044 97.9273 53.1628 97.8923 53.1119C97.8573 53.061 97.8352 53.0023 97.8279 52.9409C97.8206 52.8796 97.8283 52.8174 97.8503 52.7596C102.401 40.8606 106.857 31.5916 111.094 25.2102C115.677 18.3083 120.011 14.8086 123.975 14.8086C127.938 14.8086 132.272 18.3083 136.855 25.2102C141.092 31.5917 145.548 40.8606 150.099 52.7596C150.121 52.8174 150.129 52.8796 150.121 52.9409C150.114 53.0023 150.092 53.0609 150.057 53.1118C150.022 53.1627 149.975 53.2043 149.92 53.2331C149.866 53.2619 149.805 53.277 149.743 53.2771ZM98.7603 52.5148H149.189C139.891 28.3434 131.175 15.5709 123.975 15.5709C116.774 15.5709 108.059 28.3434 98.7604 52.5148H98.7603Z" fill="black"/>
<path d="M123.974 222.625C131.477 222.625 137.559 216.54 137.559 209.033C137.559 201.526 131.477 195.44 123.974 195.44C116.471 195.44 110.389 201.526 110.389 209.033C110.389 216.54 116.471 222.625 123.974 222.625Z" fill="white"/>
<path d="M123.974 223.007C116.273 223.007 110.008 216.738 110.008 209.033C110.008 201.328 116.273 195.059 123.974 195.059C131.675 195.059 137.941 201.328 137.941 209.033C137.941 216.738 131.675 223.007 123.974 223.007ZM123.974 195.821C116.693 195.821 110.77 201.748 110.77 209.033C110.77 216.317 116.693 222.244 123.974 222.244C131.255 222.244 137.179 216.317 137.179 209.033C137.179 201.748 131.255 195.821 123.974 195.821Z" fill="black"/>
<path d="M123.974 208.366C123.133 208.366 122.45 207.683 122.45 206.841V200.372C122.45 199.53 123.133 198.848 123.974 198.848C124.815 198.848 125.498 199.53 125.498 200.372V206.841C125.498 207.683 124.815 208.366 123.974 208.366Z" fill="white"/>
<path d="M123.974 218.104C118.974 218.104 114.907 214.035 114.907 209.033C114.907 206.599 115.907 204.23 117.649 202.533C118.252 201.945 119.217 201.958 119.804 202.562C120.391 203.165 120.378 204.13 119.775 204.717C118.618 205.844 117.955 207.417 117.955 209.033C117.955 212.354 120.655 215.055 123.974 215.055C127.293 215.055 129.993 212.354 129.993 209.033C129.993 207.418 129.33 205.846 128.174 204.719C127.572 204.132 127.559 203.166 128.146 202.563C128.734 201.96 129.698 201.947 130.301 202.535C132.042 204.232 133.041 206.601 133.041 209.033C133.041 214.035 128.973 218.104 123.974 218.104Z" fill="white"/>
</g>
<g clip-path="url(#clip3_741_7171)">
<path d="M127.808 76.2332C127.808 62.6271 138.837 51.5972 152.443 51.5972C166.05 51.5972 177.079 62.6271 177.079 76.2332C177.079 89.8392 166.05 100.869 152.443 100.869C138.837 100.869 127.808 89.8393 127.808 76.2332Z" fill="#FBB348"/>
<path d="M152.444 101.157C145.786 101.157 139.527 98.5647 134.82 93.8572C130.112 89.1498 127.52 82.8908 127.52 76.2331C127.52 69.5754 130.112 63.3164 134.82 58.6088C139.527 53.9012 145.786 51.3086 152.444 51.3086C159.102 51.3086 165.361 53.9012 170.068 58.6089C174.776 63.3165 177.368 69.5756 177.368 76.2332C177.368 82.8908 174.775 89.1498 170.068 93.8572C165.361 98.5647 159.101 101.157 152.444 101.157ZM152.444 51.8857C139.019 51.8857 128.097 62.8079 128.097 76.2331C128.097 82.7366 130.629 88.8507 135.228 93.4491C139.826 98.0476 145.94 100.58 152.444 100.58C158.947 100.58 165.062 98.0476 169.66 93.4491C174.259 88.8507 176.791 82.7366 176.791 76.2331C176.791 62.8079 165.869 51.8857 152.444 51.8857Z" fill="#111111"/>
<path d="M154.235 94.0677C154.176 94.0678 154.118 94.0496 154.07 94.0156C154.021 93.9817 153.984 93.9336 153.964 93.878L152.799 90.6797L146.133 93.1079C146.061 93.1341 145.982 93.1306 145.912 93.0983C145.843 93.066 145.789 93.0075 145.763 92.9356L144.5 89.4675C144.487 89.4319 144.481 89.3941 144.482 89.3562C144.484 89.3183 144.493 89.2811 144.509 89.2468C144.525 89.2124 144.548 89.1815 144.576 89.1559C144.604 89.1303 144.636 89.1105 144.672 89.0976L147.87 87.9328L141.12 69.3962L137.921 70.5608C137.849 70.587 137.77 70.5835 137.701 70.5512C137.631 70.5189 137.578 70.4604 137.552 70.3885L136.288 66.9195C136.275 66.8839 136.269 66.8461 136.271 66.8082C136.272 66.7704 136.281 66.7332 136.297 66.6988C136.313 66.6645 136.336 66.6336 136.364 66.608C136.392 66.5824 136.425 66.5626 136.46 66.5496L143.127 64.1216L141.962 60.9238C141.949 60.8882 141.943 60.8503 141.945 60.8125C141.946 60.7746 141.956 60.7374 141.972 60.703C141.988 60.6687 142.01 60.6378 142.038 60.6122C142.066 60.5866 142.099 60.5668 142.134 60.5539L145.604 59.2904C145.676 59.2643 145.755 59.2677 145.824 59.3C145.894 59.3324 145.947 59.3909 145.974 59.4628L147.139 62.6606L150.064 61.5948L148.9 58.397C148.887 58.3614 148.881 58.3236 148.882 58.2858C148.884 58.2479 148.893 58.2107 148.909 58.1763C148.925 58.142 148.948 58.1111 148.976 58.0855C149.004 58.0599 149.036 58.0401 149.072 58.0271L152.541 56.7637C152.613 56.7376 152.693 56.741 152.762 56.7734C152.831 56.8057 152.885 56.8643 152.911 56.9362L154.076 60.1346C154.959 59.8195 156.183 59.4419 157.447 59.6865C159.132 60.0125 160.419 61.3672 161.273 63.7133C162.293 66.5132 161.778 68.2175 161.167 69.1541C161.071 69.3023 160.964 69.4435 160.848 69.577C162.046 69.3353 163.457 69.2869 164.848 69.7876C166.808 70.4929 168.26 72.109 169.164 74.5909C170.846 79.2091 169.204 82.2868 167.53 84.0555C166.078 85.5889 164.391 86.4071 163.745 86.6836L164.913 89.8899C164.926 89.9255 164.932 89.9633 164.931 90.0012C164.929 90.0391 164.92 90.0762 164.904 90.1106C164.888 90.145 164.865 90.1758 164.837 90.2014C164.809 90.227 164.777 90.2469 164.741 90.2598L161.271 91.5233C161.236 91.5363 161.198 91.5421 161.16 91.5405C161.122 91.5388 161.085 91.5297 161.051 91.5137C161.016 91.4977 160.986 91.4751 160.96 91.4472C160.934 91.4192 160.915 91.3865 160.902 91.3509L159.738 88.154L156.811 89.22L157.976 92.4171C157.989 92.4527 157.995 92.4905 157.993 92.5284C157.991 92.5662 157.982 92.6034 157.966 92.6378C157.95 92.6722 157.928 92.703 157.9 92.7286C157.872 92.7542 157.839 92.774 157.803 92.787L154.334 94.0503C154.302 94.0618 154.269 94.0677 154.235 94.0677ZM152.972 90.0212C153.031 90.0211 153.089 90.0393 153.137 90.0733C153.186 90.1072 153.223 90.1553 153.243 90.211L154.408 93.4093L157.335 92.3432L156.17 89.1462C156.157 89.1106 156.151 89.0728 156.153 89.0349C156.154 88.997 156.164 88.9598 156.18 88.9255C156.196 88.8911 156.218 88.8602 156.246 88.8346C156.274 88.809 156.307 88.7892 156.342 88.7763L159.812 87.5128C159.884 87.4866 159.963 87.4901 160.032 87.5224C160.102 87.5548 160.156 87.6133 160.182 87.6852L161.345 90.8821L164.272 89.8161L163.108 86.6191C163.081 86.5473 163.085 86.4679 163.117 86.3986C163.149 86.3293 163.208 86.2756 163.28 86.2493C163.301 86.2416 165.419 85.4531 167.124 83.6443C169.385 81.2459 169.888 78.2662 168.622 74.7882C167.779 72.4748 166.444 70.975 164.653 70.3304C162.772 69.6535 160.827 70.0759 159.527 70.5495C159.491 70.563 159.453 70.5694 159.415 70.5681C159.377 70.5668 159.339 70.558 159.304 70.5421C159.27 70.5261 159.238 70.5035 159.212 70.4754C159.187 70.4473 159.166 70.4143 159.153 70.3784C159.14 70.3425 159.134 70.3043 159.136 70.2662C159.138 70.228 159.147 70.1905 159.164 70.156C159.18 70.1215 159.203 70.0905 159.232 70.065C159.26 70.0395 159.293 70.0199 159.33 70.0073C159.459 69.9591 162.497 68.7624 160.731 63.9105C158.935 58.9783 155.727 60.1468 154.002 60.7748C153.967 60.7877 153.929 60.7936 153.891 60.792C153.853 60.7903 153.816 60.7812 153.782 60.7652C153.748 60.7492 153.717 60.7266 153.691 60.6986C153.665 60.6707 153.646 60.638 153.633 60.6023L152.468 57.4045L149.541 58.4704L150.706 61.6682C150.719 61.7038 150.724 61.7416 150.723 61.7794C150.721 61.8173 150.712 61.8545 150.696 61.8888C150.68 61.9232 150.657 61.954 150.629 61.9796C150.602 62.0052 150.569 62.0251 150.533 62.0381L147.065 63.3015C147.03 63.3145 146.992 63.3203 146.954 63.3187C146.916 63.3171 146.879 63.308 146.844 63.292C146.81 63.276 146.779 63.2534 146.754 63.2254C146.728 63.1975 146.708 63.1648 146.695 63.1292L145.53 59.9314L142.603 60.9974L143.768 64.1952C143.781 64.2308 143.787 64.2686 143.785 64.3065C143.784 64.3444 143.775 64.3816 143.759 64.4159C143.743 64.4503 143.72 64.4812 143.692 64.5068C143.664 64.5324 143.631 64.5522 143.596 64.5651L136.929 66.9931L137.995 69.9198L141.193 68.755C141.265 68.7289 141.345 68.7324 141.414 68.7647C141.483 68.797 141.537 68.8556 141.563 68.9275L148.511 88.0064C148.524 88.042 148.53 88.0798 148.528 88.1176C148.527 88.1555 148.518 88.1927 148.502 88.227C148.486 88.2614 148.463 88.2922 148.435 88.3178C148.407 88.3434 148.374 88.3633 148.339 88.3763L145.141 89.541L146.206 92.4669L152.873 90.0387C152.905 90.027 152.938 90.0212 152.972 90.0212Z" fill="#111111"/>
<path d="M154.869 86.0896C154.81 86.0896 154.752 86.0715 154.704 86.0378C154.656 86.0042 154.619 85.9565 154.598 85.9012L151.396 77.2582C151.383 77.2224 151.377 77.1842 151.379 77.146C151.38 77.1078 151.389 77.0703 151.406 77.0356C151.422 77.001 151.445 76.9699 151.473 76.9442C151.501 76.9185 151.535 76.8987 151.571 76.8859L158.536 74.4214C158.653 74.3757 159.992 73.8807 161.426 74.5112C162.528 74.9958 163.374 76.0038 163.94 77.5072C165.637 82.0106 161.922 83.5202 161.884 83.5348L154.968 86.0718C154.937 86.0836 154.903 86.0896 154.869 86.0896ZM152.039 77.3323L155.039 85.431L161.679 82.9953C161.805 82.9453 164.893 81.671 163.4 77.7108C162.892 76.3616 162.152 75.4639 161.201 75.0427C159.958 74.4919 158.756 74.9551 158.744 74.9598L152.039 77.3323ZM149.928 72.7373C149.868 72.7373 149.811 72.7191 149.762 72.6852C149.713 72.6512 149.677 72.6031 149.656 72.5475L147.131 65.6097C147.105 65.5378 147.108 65.4584 147.14 65.3891C147.173 65.3198 147.231 65.2661 147.303 65.2399L151.464 63.724C151.495 63.7128 154.527 62.6571 155.874 66.3543C157.219 70.0516 154.219 71.1926 154.189 71.2038L150.026 72.7199C149.995 72.7314 149.961 72.7373 149.928 72.7373ZM147.772 65.6833L150.1 72.0789L153.992 70.6615C154.093 70.6239 156.476 69.6968 155.332 66.5517C154.18 63.3903 151.765 64.2289 151.662 64.2661L147.772 65.6833Z" fill="#111111"/>
</g>
<g clip-path="url(#clip4_741_7171)">
<path d="M154.864 346.937H318.961L278.3 325.485H154.864V346.937Z" fill="white"/>
<path d="M154.864 347.376H318.961C319.059 347.376 319.154 347.343 319.231 347.283C319.308 347.222 319.363 347.138 319.387 347.043C319.41 346.948 319.401 346.847 319.361 346.758C319.321 346.669 319.252 346.595 319.166 346.55L278.505 325.098C278.442 325.064 278.372 325.047 278.301 325.047H154.864C154.748 325.047 154.636 325.093 154.554 325.175C154.472 325.258 154.426 325.369 154.426 325.485V346.937C154.426 347.054 154.472 347.165 154.554 347.247C154.636 347.33 154.748 347.376 154.864 347.376ZM317.19 346.499H155.303V325.924H278.192L317.19 346.499Z" fill="#111111"/>
<path d="M337.738 183.885L319.05 346.937L304.127 339.095L324.932 182.417L337.738 183.885Z" fill="white"/>
<path d="M319.05 347.376C319.158 347.376 319.262 347.336 319.342 347.265C319.422 347.193 319.473 347.094 319.486 346.987L338.174 183.935C338.18 183.878 338.176 183.82 338.16 183.764C338.144 183.709 338.117 183.657 338.082 183.612C338.046 183.567 338.001 183.53 337.951 183.502C337.901 183.474 337.845 183.456 337.788 183.45L324.982 181.982C324.867 181.968 324.753 182 324.662 182.071C324.571 182.142 324.512 182.245 324.497 182.359L303.693 339.038C303.681 339.127 303.697 339.217 303.738 339.297C303.779 339.377 303.844 339.442 303.924 339.484L318.846 347.326C318.909 347.359 318.979 347.376 319.05 347.376ZM337.253 184.271L318.687 346.251L304.602 338.85L325.31 182.902L337.253 184.271Z" fill="#111111"/>
<path d="M324.932 182.417L295.139 184.003L277.574 325.487L304.689 339.408L324.932 182.417Z" fill="#CAD5F3"/>
<path d="M304.689 339.846C304.795 339.846 304.898 339.807 304.978 339.737C305.058 339.666 305.11 339.569 305.124 339.464L325.366 182.473C325.375 182.409 325.369 182.344 325.349 182.283C325.33 182.222 325.297 182.165 325.253 182.118C325.209 182.071 325.156 182.034 325.096 182.01C325.037 181.986 324.972 181.975 324.908 181.979L295.116 183.564C295.013 183.57 294.916 183.611 294.84 183.681C294.765 183.751 294.717 183.846 294.704 183.948L277.139 325.433C277.128 325.522 277.144 325.612 277.186 325.692C277.228 325.771 277.294 325.836 277.374 325.877L304.488 339.798C304.55 339.83 304.619 339.846 304.689 339.846ZM324.429 182.883L304.334 338.732L278.046 325.237L295.529 184.421L324.429 182.883Z" fill="#111111"/>
<path d="M154.864 339.846H304.69C304.806 339.846 304.917 339.8 305 339.718C305.082 339.636 305.128 339.524 305.128 339.408C305.128 339.291 305.082 339.18 305 339.098C304.917 339.015 304.806 338.969 304.69 338.969H154.864C154.748 338.969 154.636 339.015 154.554 339.098C154.472 339.18 154.426 339.291 154.426 339.408C154.426 339.524 154.472 339.636 154.554 339.718C154.636 339.8 154.748 339.846 154.864 339.846Z" fill="#111111"/>
<path d="M191.011 325.51L193.049 327.862C195.202 330.349 193.436 334.214 190.146 334.214H169.121C168.478 334.214 167.845 334.053 167.28 333.744C166.715 333.436 166.237 332.991 165.889 332.45L161.437 325.51H191.011Z" fill="white"/>
<path d="M169.122 334.653H190.147C190.967 334.653 191.769 334.418 192.459 333.974C193.149 333.531 193.697 332.899 194.038 332.153C194.379 331.407 194.498 330.579 194.381 329.767C194.265 328.956 193.917 328.194 193.38 327.575L191.343 325.223C191.302 325.175 191.251 325.137 191.193 325.111C191.136 325.085 191.074 325.071 191.011 325.071H161.437C161.358 325.071 161.281 325.093 161.214 325.133C161.146 325.173 161.091 325.231 161.053 325.3C161.015 325.369 160.997 325.447 161 325.525C161.002 325.604 161.026 325.68 161.069 325.746L165.522 332.687C165.909 333.29 166.442 333.785 167.071 334.129C167.7 334.472 168.405 334.653 169.122 334.653ZM190.811 325.948L192.718 328.149C193.145 328.642 193.421 329.247 193.513 329.893C193.606 330.538 193.511 331.196 193.24 331.789C192.969 332.382 192.534 332.885 191.985 333.237C191.437 333.59 190.799 333.777 190.147 333.777H169.122C168.552 333.777 167.991 333.633 167.491 333.36C166.991 333.087 166.567 332.693 166.259 332.213L162.239 325.949L190.811 325.948Z" fill="#111111"/>
<path d="M258.733 325.487L272.736 334.625H259.094L246.564 325.487H258.733Z" fill="white"/>
<path d="M259.095 335.063H272.737C272.831 335.063 272.923 335.033 272.999 334.976C273.074 334.92 273.13 334.84 273.157 334.75C273.184 334.659 273.181 334.562 273.148 334.474C273.115 334.385 273.055 334.309 272.976 334.258L258.973 325.12C258.902 325.073 258.818 325.049 258.733 325.049H246.565C246.472 325.049 246.382 325.078 246.307 325.132C246.232 325.187 246.177 325.263 246.148 325.351C246.119 325.439 246.119 325.534 246.148 325.622C246.176 325.71 246.232 325.787 246.306 325.841L258.836 334.979C258.911 335.034 259.002 335.063 259.095 335.063ZM271.262 334.186H259.238L247.91 325.925H258.603L271.262 334.186Z" fill="#111111"/>
<path d="M308.827 185.071H309.622C310.064 185.071 310.489 185.246 310.801 185.559C311.114 185.872 311.29 186.296 311.29 186.739V187.533C311.29 187.976 311.114 188.4 310.801 188.713C310.489 189.025 310.064 189.201 309.622 189.201H308.827C308.385 189.201 307.961 189.025 307.648 188.713C307.335 188.4 307.159 187.976 307.159 187.533V186.739C307.159 186.296 307.335 185.872 307.648 185.559C307.961 185.246 308.385 185.071 308.827 185.071Z" fill="#CAD5F3"/>
<path d="M308.827 189.64H309.622C310.18 189.639 310.716 189.417 311.111 189.022C311.506 188.627 311.728 188.092 311.729 187.533V186.739C311.728 186.18 311.506 185.645 311.111 185.25C310.716 184.855 310.18 184.633 309.622 184.632H308.827C308.269 184.633 307.734 184.855 307.339 185.25C306.944 185.645 306.722 186.18 306.721 186.739V187.533C306.722 188.092 306.944 188.627 307.339 189.022C307.734 189.417 308.269 189.639 308.827 189.64ZM309.622 185.509C309.948 185.509 310.26 185.639 310.491 185.87C310.722 186.1 310.851 186.413 310.852 186.739V187.533C310.851 187.859 310.722 188.172 310.491 188.402C310.26 188.633 309.948 188.762 309.622 188.763H308.827C308.501 188.762 308.189 188.633 307.958 188.402C307.728 188.172 307.598 187.859 307.598 187.533V186.739C307.598 186.413 307.728 186.1 307.958 185.87C308.189 185.639 308.501 185.509 308.827 185.509H309.622Z" fill="#111111"/>
<path d="M220.159 325.487L229.897 334.625H216.557L207.703 325.487H220.159Z" fill="white"/>
<path d="M216.556 335.063H229.897C229.985 335.063 230.07 335.037 230.143 334.987C230.216 334.938 230.272 334.868 230.304 334.786C230.337 334.704 230.344 334.615 230.324 334.529C230.305 334.443 230.261 334.365 230.197 334.305L220.459 325.167C220.377 325.091 220.27 325.048 220.158 325.048H207.702C207.616 325.048 207.532 325.074 207.46 325.121C207.388 325.169 207.332 325.237 207.298 325.316C207.265 325.395 207.255 325.483 207.271 325.567C207.287 325.652 207.327 325.73 207.387 325.792L216.242 334.93C216.282 334.972 216.331 335.006 216.385 335.028C216.44 335.051 216.498 335.063 216.556 335.063ZM228.789 334.186H216.742L208.737 325.925H219.985L228.789 334.186Z" fill="#111111"/>
<path d="M239.352 325.487L251.219 334.625H237.878L227.488 325.487H239.352Z" fill="white"/>
<path d="M237.878 335.063H251.218C251.31 335.063 251.399 335.035 251.473 334.981C251.548 334.928 251.603 334.853 251.633 334.766C251.662 334.679 251.664 334.586 251.638 334.498C251.611 334.41 251.558 334.333 251.485 334.277L239.618 325.14C239.542 325.081 239.448 325.049 239.351 325.049H227.487C227.398 325.049 227.311 325.076 227.238 325.126C227.165 325.177 227.108 325.249 227.077 325.332C227.046 325.416 227.04 325.507 227.062 325.593C227.083 325.68 227.131 325.757 227.198 325.816L237.588 334.954C237.668 335.024 237.771 335.063 237.878 335.063ZM249.93 334.186H238.043L228.65 325.925H239.202L249.93 334.186Z" fill="#111111"/>
</g>
<g clip-path="url(#clip5_741_7171)">
<path d="M283.614 123.781L288.431 136.761L300.69 132.211L228.448 233.081L148.884 244.456L112.978 312.334L125.222 318.803L157.827 257.164L236.263 245.949L311.476 140.931L312.784 152.968L326.553 151.468L321.996 109.536L283.614 123.781Z" fill="#EF4810"/>
<path d="M125.331 319.07C125.292 319.086 125.249 319.094 125.207 319.092C125.165 319.09 125.124 319.078 125.086 319.058L112.843 312.589C112.81 312.571 112.78 312.547 112.756 312.518C112.731 312.489 112.713 312.455 112.702 312.419C112.691 312.383 112.687 312.345 112.691 312.307C112.694 312.269 112.705 312.232 112.723 312.199L148.628 244.321C148.65 244.281 148.68 244.247 148.718 244.22C148.755 244.194 148.798 244.177 148.843 244.171L228.285 232.813L299.906 132.809L288.531 137.031C288.459 137.058 288.38 137.055 288.31 137.023C288.241 136.991 288.187 136.933 288.16 136.861L283.343 123.881C283.288 123.732 283.366 123.568 283.513 123.511L321.895 109.265C321.936 109.25 321.98 109.244 322.024 109.249C322.067 109.253 322.11 109.267 322.147 109.29C322.184 109.313 322.216 109.345 322.239 109.382C322.263 109.419 322.277 109.461 322.282 109.504L326.839 151.437C326.843 151.475 326.84 151.513 326.829 151.549C326.819 151.586 326.801 151.619 326.777 151.649C326.754 151.679 326.724 151.703 326.691 151.721C326.658 151.739 326.621 151.751 326.584 151.755L312.815 153.255C312.739 153.263 312.662 153.241 312.603 153.193C312.543 153.145 312.505 153.075 312.497 152.999L311.27 141.713L236.497 246.117C236.474 246.149 236.445 246.176 236.412 246.196C236.379 246.216 236.342 246.229 236.303 246.235L158.013 257.428L125.476 318.938C125.445 318.998 125.393 319.045 125.331 319.07ZM113.368 312.214L125.101 318.414L157.572 257.029C157.593 256.989 157.624 256.954 157.661 256.928C157.698 256.901 157.741 256.884 157.786 256.878L236.1 245.681L311.241 140.763C311.275 140.716 311.322 140.68 311.377 140.66C311.432 140.64 311.492 140.637 311.549 140.652C311.605 140.667 311.656 140.699 311.694 140.743C311.732 140.787 311.756 140.842 311.762 140.9L313.039 152.65L326.235 151.213L321.749 109.935L283.985 123.951L288.601 136.39L300.589 131.941C300.647 131.919 300.71 131.917 300.77 131.934C300.829 131.951 300.881 131.987 300.919 132.036C300.956 132.085 300.977 132.145 300.978 132.206C300.979 132.268 300.96 132.329 300.924 132.379L228.682 233.249C228.66 233.28 228.631 233.307 228.597 233.327C228.564 233.348 228.527 233.361 228.489 233.366L149.07 244.721L113.368 312.214Z" fill="#161616"/>
</g>
<g clip-path="url(#clip6_741_7171)">
<path d="M59.8919 241.034C32.8144 263.871 -3.19729 326.61 38.23 344.884C42.0205 346.556 48.5957 347.221 54.7237 347.444L106.669 347.404C115.11 347.071 122.381 346.373 125.063 345.022C164.699 325.055 127.443 263.586 101.791 241.034H59.8919V241.034Z" fill="#FF6996"/>
<path d="M54.7243 347.793C46.9354 347.51 41.3429 346.639 38.0896 345.204C27.3132 340.45 21.0449 332.434 19.4585 321.377C18.5539 315.071 19.2008 307.844 21.3813 299.899C23.3494 292.726 26.5105 285.133 30.7766 277.331C38.5261 263.157 49.3263 249.489 59.6673 240.767L59.7647 240.685H101.922L102.021 240.772C112.164 249.689 122.829 263.329 130.551 277.259C134.896 285.099 138.142 292.704 140.196 299.864C142.49 307.858 143.241 315.138 142.427 321.501C141.052 332.256 135.263 340.274 125.22 345.333C122.808 346.549 116.571 347.363 106.683 347.753L54.7243 347.793ZM60.0197 241.383C49.771 250.055 39.0746 263.609 31.3888 277.666C27.1487 285.421 24.0079 292.963 22.0542 300.083C19.8992 307.936 19.2583 315.067 20.1493 321.278C21.6991 332.08 27.8298 339.915 38.371 344.565C41.5433 345.964 47.0495 346.816 54.7368 347.095L106.669 347.055C116.443 346.669 122.584 345.88 124.907 344.71C134.73 339.762 140.392 331.923 141.736 321.412C145.089 295.181 120.647 258.129 101.659 241.383H60.0197Z" fill="#111111"/>
<path d="M79.8028 347.764H79.7989C72.6699 347.685 67.0008 345.736 63.5005 344.116C59.7002 342.357 57.6158 340.638 57.529 340.566C57.4587 340.506 57.4147 340.422 57.4066 340.33C57.3985 340.238 57.427 340.147 57.4859 340.076C57.5447 340.005 57.6291 339.961 57.7207 339.952C57.8124 339.943 57.9038 339.971 57.975 340.029C58.0579 340.098 66.4188 346.917 79.8067 347.066C79.8981 347.068 79.9849 347.106 80.0485 347.172C80.1121 347.238 80.1474 347.326 80.1469 347.417C80.1464 347.508 80.1101 347.596 80.0457 347.661C79.9814 347.726 79.8942 347.763 79.8028 347.764Z" fill="black"/>
<path d="M64.9712 239.847C64.9712 239.847 49.2974 227.655 46.1246 221.381C44.3491 217.87 45.2205 212.021 57.293 216.675C70.2382 221.666 71.149 209.283 80.6451 208.547C91.6864 207.692 91.6464 219.553 98.8036 221.506C103.246 222.718 109.994 217.506 111.993 220.098C115.726 224.939 96.763 239.74 96.763 239.74L64.9712 239.847Z" fill="#FF6996"/>
<path d="M64.8521 240.196L64.7571 240.123C64.1146 239.623 48.985 227.811 45.8133 221.539C45.0136 219.957 44.5831 217.553 46.0019 215.983C47.2354 214.618 50.2176 213.573 57.4185 216.35C64.8903 219.23 68.1918 216.215 71.6869 213.024C74.1177 210.804 76.6313 208.508 80.618 208.199C87.2858 207.683 90.1117 211.778 92.6038 215.391C94.3783 217.964 96.0545 220.394 98.8953 221.169C100.909 221.719 103.532 220.844 105.846 220.072C108.533 219.176 111.07 218.33 112.269 219.884C113.941 222.053 111.84 226.122 106.025 231.98C101.785 236.252 97.025 239.978 96.9774 240.015L96.8833 240.089L64.8521 240.196ZM49.8986 215.304C48.3588 215.304 47.2116 215.685 46.5194 216.451C45.781 217.269 45.316 219.009 46.436 221.223C47.7134 223.749 51.3549 227.719 56.9665 232.703C60.8567 236.158 64.4672 239.008 65.0909 239.497L96.6416 239.391C97.3269 238.85 101.651 235.396 105.534 231.484C110.983 225.995 113.12 222.131 111.716 220.311C110.821 219.149 108.618 219.884 106.067 220.735C103.659 221.538 100.929 222.448 98.7119 221.843C95.6251 221.001 93.8787 218.468 92.0297 215.788C89.5279 212.16 86.9421 208.411 80.6719 208.895C76.9243 209.186 74.5008 211.399 72.1572 213.539C69.6355 215.842 67.051 218.201 62.8552 218.202C61.2307 218.202 59.3654 217.848 57.1674 217.001C54.2387 215.872 51.7767 215.304 49.8986 215.304Z" fill="#111111"/>
<path d="M100.984 241.034H60.4145C58.8668 241.034 57.6123 239.779 57.6123 238.23C57.6123 236.682 58.8669 235.427 60.4145 235.427H100.984C102.532 235.427 103.786 236.682 103.786 238.23C103.786 239.779 102.532 241.034 100.984 241.034Z" fill="#FFAAC3"/>
<path d="M100.983 241.383H60.4139C58.6763 241.383 57.2627 239.969 57.2627 238.23C57.2627 236.492 58.6763 235.078 60.4139 235.078H100.983C102.721 235.078 104.135 236.492 104.135 238.23C104.135 239.969 102.721 241.383 100.983 241.383ZM60.4139 235.775C59.0611 235.775 57.9604 236.877 57.9604 238.23C57.9604 239.584 59.061 240.685 60.4139 240.685H100.983C102.336 240.685 103.437 239.584 103.437 238.23C103.437 236.877 102.336 235.775 100.983 235.775H60.4139Z" fill="#111111"/>
<path d="M90.7655 279.948L95.7674 272.779C95.7674 272.779 90.5788 268.335 83.1181 268.536L83.129 260.188L77.5208 260.162L77.386 268.59C77.386 268.59 64.4007 268.92 64.3694 281.822C64.3347 294.544 77.845 296.057 77.845 296.057C77.845 296.057 88.7714 297.054 88.9691 303.521C89.1715 310.025 79.8054 308.987 78.686 308.981C77.5645 308.978 71.8347 307.881 69.2356 304.648L62.1221 310.708C62.1221 310.708 66.4285 317.279 77.2455 317.562L77.1667 325.447L82.9946 325.521L82.9876 317.655C82.9876 317.655 99.2182 316.416 99.276 303.426C99.3307 291.02 89.2228 287.812 83.9495 286.794C78.6709 285.778 73.9449 285.635 74.1344 280.699C74.309 276.203 81.9149 273.348 90.7655 279.948Z" fill="#FFAAC3"/>
<path d="M82.9948 325.87H82.9904L77.1623 325.796C77.07 325.795 76.9819 325.757 76.9173 325.691C76.8527 325.625 76.817 325.536 76.8179 325.444L76.8934 317.9C71.4062 317.686 67.6386 315.843 65.4294 314.316C62.9728 312.619 61.876 310.969 61.8305 310.899C61.7839 310.828 61.7649 310.743 61.777 310.658C61.7891 310.574 61.8314 310.497 61.8961 310.442L69.0096 304.382C69.0451 304.351 69.0863 304.329 69.1308 304.315C69.1752 304.301 69.2221 304.296 69.2685 304.3C69.3149 304.304 69.3599 304.318 69.401 304.34C69.4421 304.362 69.4783 304.392 69.5075 304.429C71.9954 307.523 77.5039 308.629 78.6871 308.632C78.7861 308.633 78.9288 308.64 79.1264 308.649C80.6382 308.725 85.2388 308.955 87.4281 306.805C88.2615 305.987 88.6627 304.885 88.6205 303.532C88.4345 297.449 77.9195 296.414 77.8133 296.404C77.6654 296.387 74.3163 295.994 70.9185 294.011C67.7616 292.169 64.0023 288.558 64.0205 281.82C64.0371 274.981 67.6774 271.649 70.7281 270.058C73.442 268.642 76.1181 268.327 77.0425 268.259L77.1721 260.156C77.1752 259.965 77.3333 259.814 77.5225 259.813L83.1305 259.838C83.2228 259.839 83.3112 259.876 83.3763 259.941C83.4414 260.007 83.4779 260.096 83.4778 260.188L83.4675 268.18C90.7784 268.121 95.7819 272.331 95.9944 272.513C96.0602 272.569 96.1027 272.648 96.1136 272.734C96.1246 272.82 96.1032 272.907 96.0536 272.978L91.0516 280.148C91.0249 280.186 90.9908 280.219 90.9512 280.243C90.9117 280.268 90.8675 280.285 90.8214 280.293C90.7752 280.3 90.728 280.298 90.6826 280.287C90.6372 280.276 90.5946 280.256 90.5571 280.228C84.8262 275.954 79.8575 275.83 77.1191 277.139C75.5022 277.912 74.5413 279.214 74.4831 280.712C74.3282 284.746 77.5995 285.318 82.1271 286.11C82.7404 286.217 83.3744 286.328 84.0156 286.451C94.2677 288.429 99.6652 294.3 99.6249 303.427C99.6006 308.882 96.7082 313.135 91.26 315.727C87.7958 317.374 84.3864 317.856 83.3368 317.971L83.3435 325.52C83.3436 325.566 83.3344 325.612 83.3166 325.655C83.2988 325.698 83.2727 325.736 83.2399 325.769C83.1748 325.834 83.0867 325.87 82.9948 325.87ZM77.5191 325.103L82.6455 325.167L82.6388 317.655C82.6388 317.567 82.672 317.482 82.7317 317.417C82.7914 317.353 82.8734 317.313 82.9611 317.306C83.0012 317.303 87.017 316.976 90.9776 315.088C96.2293 312.584 98.9039 308.66 98.9272 303.425C98.976 292.371 90.7733 288.466 83.8834 287.137C83.2484 287.014 82.6172 286.904 82.007 286.797C77.5 286.009 73.6076 285.329 73.7859 280.685C73.8546 278.92 74.9598 277.398 76.8182 276.509C79.6934 275.135 84.8244 275.205 90.6842 279.455L95.2938 272.848C94.1866 272.001 89.4603 268.714 83.1275 268.885C83.0809 268.886 83.0345 268.878 82.9911 268.861C82.9477 268.844 82.9081 268.818 82.8747 268.786C82.8413 268.753 82.8148 268.714 82.7967 268.671C82.7786 268.628 82.7693 268.582 82.7693 268.535L82.7796 260.535L77.8641 260.512L77.7349 268.595C77.7334 268.685 77.6973 268.771 77.6339 268.835C77.5706 268.899 77.485 268.936 77.3951 268.938C77.3631 268.939 74.1716 269.042 71.0294 270.688C66.8542 272.875 64.7308 276.621 64.7181 281.822C64.704 286.957 66.9017 290.851 71.25 293.396C74.5216 295.312 77.8507 295.705 77.8839 295.709C77.9901 295.719 80.6882 295.975 83.4577 297.037C87.2058 298.476 89.2321 300.714 89.3177 303.51C89.3661 305.066 88.8947 306.343 87.9167 307.303C85.5093 309.667 80.6785 309.426 79.0915 309.347C78.9101 309.337 78.7667 309.33 78.6842 309.33C77.4695 309.327 71.932 308.218 69.1955 305.14L62.5947 310.763C62.9903 311.277 64.0445 312.516 65.8559 313.762C68.0295 315.257 71.7713 317.07 77.2547 317.213C77.3462 317.215 77.4331 317.254 77.4967 317.32C77.5602 317.385 77.5954 317.474 77.5945 317.565L77.5191 325.103Z" fill="#111111"/>
</g>
<g clip-path="url(#clip7_741_7171)">
<path d="M162.55 347.22H117.81C114.908 347.22 112.556 344.868 112.556 341.967V335.254C112.556 332.353 114.908 330.001 117.81 330.001H162.55C165.452 330.001 167.805 332.353 167.805 335.254V341.967C167.805 344.868 165.452 347.22 162.55 347.22Z" fill="#FBB348"/>
<path d="M162.55 347.584H117.81C114.711 347.584 112.19 345.064 112.19 341.967V335.254C112.19 332.157 114.711 329.637 117.81 329.637H162.55C165.648 329.637 168.169 332.157 168.169 335.254V341.967C168.169 345.064 165.648 347.584 162.55 347.584ZM117.81 330.366C115.114 330.366 112.92 332.559 112.92 335.254V341.967C112.92 344.662 115.114 346.855 117.81 346.855H162.55C165.246 346.855 167.439 344.662 167.439 341.967V335.254C167.439 332.559 165.246 330.366 162.55 330.366H117.81Z" fill="black"/>
<path d="M162.55 330.001H117.81C114.908 330.001 112.556 327.65 112.556 324.749V318.036C112.556 315.135 114.908 312.783 117.81 312.783H162.55C165.452 312.783 167.805 315.135 167.805 318.036V324.749C167.805 327.65 165.452 330.001 162.55 330.001Z" fill="#FBB348"/>
<path d="M162.55 330.366H117.81C114.711 330.366 112.19 327.846 112.19 324.749V318.036C112.19 314.938 114.711 312.418 117.81 312.418H162.55C165.648 312.418 168.169 314.938 168.169 318.036V324.749C168.169 327.846 165.648 330.366 162.55 330.366ZM117.81 313.148C115.114 313.148 112.92 315.341 112.92 318.036V324.749C112.92 327.444 115.114 329.636 117.81 329.636H162.55C165.246 329.636 167.439 327.444 167.439 324.749V318.036C167.439 315.341 165.246 313.148 162.55 313.148H117.81Z" fill="black"/>
<path d="M162.55 312.942H117.81C114.908 312.942 112.556 310.59 112.556 307.689V300.976C112.556 298.076 114.908 295.724 117.81 295.724H162.55C165.452 295.724 167.805 298.076 167.805 300.976V307.689C167.805 310.59 165.452 312.942 162.55 312.942Z" fill="#FBB348"/>
<path d="M162.55 313.307H117.81C114.711 313.307 112.19 310.787 112.19 307.69V300.977C112.19 297.879 114.711 295.359 117.81 295.359H162.55C165.648 295.359 168.169 297.879 168.169 300.977V307.69C168.169 310.787 165.648 313.307 162.55 313.307ZM117.81 296.089C115.114 296.089 112.92 298.281 112.92 300.976V307.689C112.92 310.385 115.114 312.577 117.81 312.577H162.55C165.246 312.577 167.439 310.385 167.439 307.689V300.976C167.439 298.281 165.246 296.089 162.55 296.089H117.81Z" fill="black"/>
<path d="M162.55 295.724H117.81C114.908 295.724 112.556 293.372 112.556 290.471V283.758C112.556 280.857 114.908 278.506 117.81 278.506H162.55C165.452 278.506 167.805 280.857 167.805 283.758V290.471C167.805 293.372 165.452 295.724 162.55 295.724Z" fill="#FBB348"/>
<path d="M162.55 296.089H117.81C114.711 296.089 112.19 293.569 112.19 290.471V283.758C112.19 280.661 114.711 278.141 117.81 278.141H162.55C165.648 278.141 168.169 280.661 168.169 283.758V290.471C168.169 293.569 165.648 296.089 162.55 296.089ZM117.81 278.871C115.114 278.871 112.92 281.063 112.92 283.758V290.471C112.92 293.167 115.114 295.359 117.81 295.359H162.55C165.246 295.359 167.439 293.167 167.439 290.471V283.758C167.439 281.063 165.246 278.871 162.55 278.871H117.81Z" fill="black"/>
<path d="M162.438 278.506H117.922C114.958 278.506 112.556 276.104 112.556 273.141V266.652C112.556 263.689 114.958 261.288 117.922 261.288H162.55C165.452 261.288 167.805 263.639 167.805 266.54V273.141C167.805 276.104 165.402 278.506 162.438 278.506Z" fill="#FBB348"/>
<path d="M162.438 278.871H117.922C114.761 278.871 112.19 276.301 112.19 273.141V266.652C112.19 263.493 114.761 260.923 117.922 260.923H162.55C165.648 260.923 168.169 263.443 168.169 266.54V273.141C168.169 276.301 165.598 278.871 162.438 278.871ZM117.922 261.652C115.164 261.652 112.92 263.895 112.92 266.652V273.141C112.92 275.898 115.164 278.141 117.922 278.141H162.438C165.196 278.141 167.439 275.898 167.439 273.141V266.54C167.439 263.845 165.246 261.652 162.55 261.652H117.922Z" fill="black"/>
<path d="M198.303 345.213L169.118 311.611C167.175 309.374 167.414 305.986 169.652 304.043L174.554 299.789C176.792 297.847 180.181 298.086 182.124 300.323L211.383 334.009C213.285 336.2 213.051 339.517 210.86 341.419L205.873 345.747C203.635 347.689 200.246 347.45 198.303 345.213Z" fill="#FBB348"/>
<path d="M202.364 347.425C202.227 347.425 202.09 347.421 201.952 347.411C200.425 347.303 199.032 346.607 198.028 345.452L168.843 311.85C166.772 309.464 167.027 305.839 169.414 303.768L174.316 299.513C176.702 297.442 180.329 297.698 182.401 300.083L211.659 333.77C212.643 334.903 213.127 336.351 213.021 337.848C212.915 339.345 212.233 340.711 211.1 341.694L206.113 346.022C205.062 346.935 203.743 347.425 202.364 347.425ZM178.07 298.842C176.907 298.842 175.739 299.244 174.794 300.064L169.892 304.319C167.81 306.126 167.586 309.29 169.394 311.372L198.579 344.974C199.455 345.982 200.671 346.589 202.004 346.683C203.337 346.777 204.626 346.347 205.635 345.471L210.621 341.143C211.608 340.287 212.201 339.099 212.293 337.796C212.385 336.494 211.964 335.234 211.108 334.248L181.85 300.562C180.862 299.425 179.47 298.842 178.07 298.842Z" fill="black"/>
</g>
</g>
<defs>
<clipPath id="clip0_741_7171">
<rect width="365" height="365" fill="white" transform="translate(0.5)"/>
</clipPath>
<clipPath id="clip1_741_7171">
<rect width="72.4786" height="72.4786" fill="white" transform="translate(152.444 71.2272)"/>
</clipPath>
<clipPath id="clip2_741_7171">
<rect width="155.177" height="332.463" fill="white" transform="translate(46.3857 14.8086)"/>
</clipPath>
<clipPath id="clip3_741_7171">
<rect width="49.8486" height="49.8486" fill="white" transform="translate(127.52 51.3086)"/>
</clipPath>
<clipPath id="clip4_741_7171">
<rect width="183.751" height="165.397" fill="white" transform="matrix(-1 0 0 1 338.177 181.979)"/>
</clipPath>
<clipPath id="clip5_741_7171">
<rect width="271.039" height="120.659" fill="white" transform="translate(70.958 210.969) rotate(-22.3655)"/>
</clipPath>
<clipPath id="clip6_741_7171">
<rect width="123.683" height="139.639" fill="white" transform="translate(19.0625 208.154)"/>
</clipPath>
<clipPath id="clip7_741_7171">
<rect width="100.844" height="86.6614" fill="white" transform="translate(112.19 260.923)"/>
</clipPath>
</defs>
</svg>
