<svg width="440" height="237" viewBox="0 0 440 237" fill="none" xmlns="http://www.w3.org/2000/svg">
<path d="M439.5 54.4445C433.649 54.6246 428.963 59.431 428.963 65.3322C428.963 71.2334 433.649 76.0399 439.5 76.2199L439.5 89.2999C423.76 89.5672 411.082 102.43 411.082 118.256C411.082 134.083 423.76 146.946 439.5 147.213L439.5 160.613C433.649 160.793 428.963 165.599 428.963 171.5C428.963 177.401 433.649 182.208 439.5 182.388L439.5 198.347C433.649 198.527 428.963 203.333 428.963 209.235C428.963 215.136 433.649 219.942 439.5 220.122L439.5 235.756L0.5 235.756L0.5 220.122C6.35059 219.942 11.037 215.136 11.037 209.235C11.037 203.333 6.35059 198.527 0.5 198.347L0.500001 182.388C6.35059 182.208 11.037 177.401 11.037 171.5C11.037 165.599 6.35059 160.793 0.500001 160.613L0.500001 147.213C16.241 146.946 28.918 134.083 28.918 118.256C28.918 102.43 16.241 89.5671 0.500002 89.2999L0.500002 76.2199C6.35059 76.0399 11.037 71.2334 11.037 65.3322C11.037 59.431 6.35059 54.6246 0.500002 54.4445L0.500002 38.4855C6.35059 38.3055 11.037 33.499 11.037 27.5978C11.037 21.6966 6.35059 16.8902 0.500003 16.7101L0.500003 0.756332L439.5 0.756338L439.5 16.7101C433.649 16.8901 428.963 21.6966 428.963 27.5978C428.963 33.499 433.649 38.3055 439.5 38.4855L439.5 54.4445Z" fill="#FCFCFD" stroke="#5D5FEF"/>
<path d="M69.552 61.748C69.552 59.22 68.144 57.396 65.584 56.5C67.632 55.444 68.816 53.748 68.816 51.636C68.816 47.7 65.84 45.524 61.008 45.524H52.368V68.5H61.36C66.416 68.5 69.552 66.004 69.552 61.748ZM60.624 49.364C62.992 49.364 64.208 50.388 64.208 52.02C64.208 53.684 62.992 54.708 60.624 54.708H56.784V49.364H60.624ZM60.976 58.58C63.6 58.58 64.976 59.732 64.976 61.556C64.976 63.508 63.6 64.66 60.976 64.66H56.784V58.58H60.976ZM83.1028 61.3C83.1028 63.604 81.5668 64.884 79.9668 64.884C78.1748 64.884 76.9908 63.828 76.9908 61.428V51.412H72.5428V62.292C72.5428 66.74 75.0388 68.82 78.4628 68.82C80.6388 68.82 82.5268 67.764 83.4548 66.26V68.5H87.5188V51.412H83.1028V61.3ZM106.907 51.412H102.459L98.5553 63.124L94.2673 51.412H89.4672L96.1873 68.308L93.7552 74.676H98.5873L106.907 51.412ZM120.795 68.5V59.732H129.211V55.54H120.795V49.748H130.779V45.524H115.931V68.5H120.795ZM143.884 61.3C143.884 63.604 142.348 64.884 140.748 64.884C138.956 64.884 137.772 63.828 137.772 61.428V51.412H133.324V62.292C133.324 66.74 135.82 68.82 139.244 68.82C141.42 68.82 143.308 67.764 144.236 66.26V68.5H148.3V51.412H143.884V61.3ZM156.745 59.188C156.745 56.436 158.249 55.028 160.009 55.028C162.025 55.028 163.017 56.436 163.017 58.964V68.5H167.433V57.46C167.433 53.332 165.065 51.092 161.641 51.092C159.401 51.092 157.641 52.148 156.393 53.844V51.412H152.297V68.5H156.745V59.188ZM170.145 59.956C170.145 64.948 173.121 68.82 177.729 68.82C179.937 68.82 181.793 67.828 183.137 66.036V68.5H187.201V45.524H182.785V53.62C181.505 51.988 179.777 51.092 177.729 51.092C173.121 51.092 170.145 54.9 170.145 59.956ZM174.721 59.956C174.721 56.692 176.545 55.028 178.721 55.028C180.897 55.028 182.753 56.66 182.753 59.892C182.753 63.124 180.929 64.852 178.721 64.852C176.545 64.852 174.721 63.156 174.721 59.956ZM208.515 68.5V49.908H215.779V45.524H196.419V49.908H203.651V68.5H208.515ZM223.755 68.82C228.715 68.82 232.427 64.916 232.427 59.956C232.427 54.964 228.715 51.092 223.755 51.092C218.795 51.092 215.083 54.964 215.083 59.956C215.083 64.916 218.795 68.82 223.755 68.82ZM223.755 64.884C221.547 64.884 219.659 63.124 219.659 59.956C219.659 56.788 221.547 55.06 223.755 55.06C225.963 55.06 227.851 56.788 227.851 59.956C227.851 63.124 225.963 64.884 223.755 64.884ZM239.713 68.5V60.564L246.241 68.5H251.905L244.001 59.604L251.073 51.412H245.953L239.713 58.644V45.524H235.265V68.5H239.713ZM260.314 68.788C264.474 68.788 267.45 66.58 268.41 62.708H263.994C263.482 64.404 262.17 65.364 260.218 65.364C257.946 65.364 256.602 63.828 256.314 61.044H268.442C269.242 55.476 265.658 51.092 260.25 51.092C255.322 51.092 251.77 54.804 251.77 59.892C251.77 65.236 255.194 68.788 260.314 68.788ZM260.154 54.356C262.266 54.356 263.61 55.86 263.738 58.228H256.378C256.762 55.7 258.074 54.356 260.154 54.356ZM275.87 59.188C275.87 56.436 277.374 55.028 279.134 55.028C281.15 55.028 282.142 56.436 282.142 58.964V68.5H286.558V57.46C286.558 53.332 284.19 51.092 280.766 51.092C278.526 51.092 276.766 52.148 275.518 53.844V51.412H271.422V68.5H275.87V59.188Z" fill="#5D5FEF"/>
<path d="M62.792 117.196H54.512V111.772H61.904V109.468H54.512V104.572H62.624V102.268H51.872V119.5H62.792V117.196ZM73.3996 119.5H75.4156V111.34C75.4156 108.316 73.5916 106.54 70.4476 106.54C67.4716 106.54 65.4316 108.436 65.3116 111.292H67.5196C67.5916 109.516 68.6716 108.46 70.4476 108.46C72.1276 108.46 73.1116 109.492 73.1116 111.316V112.252C72.0796 112.132 71.4796 112.108 70.7356 112.108C66.9436 112.108 64.9516 113.404 64.9516 115.9C64.9516 118.228 66.6796 119.74 69.3196 119.74C71.1916 119.74 72.6076 118.948 73.3996 117.532V119.5ZM67.2556 115.828C67.2556 114.34 68.4556 113.62 70.8796 113.62C71.5036 113.62 72.1756 113.644 73.1116 113.764V114.796C73.1116 116.74 71.8396 118.012 69.7996 118.012C68.2396 118.012 67.2556 117.148 67.2556 115.828ZM83.6726 119.764C86.8646 119.764 89.1206 117.7 89.5526 114.34H87.0326C86.7446 116.404 85.4966 117.604 83.6966 117.604C81.6086 117.604 80.2406 115.852 80.2406 113.14C80.2406 110.452 81.6086 108.676 83.6966 108.676C85.4726 108.676 86.7446 109.9 87.0086 111.94H89.5526C89.0966 108.628 86.8166 106.54 83.6726 106.54C80.2406 106.54 77.7446 109.3 77.7446 113.14C77.7446 117.028 80.1926 119.764 83.6726 119.764ZM94.4165 112.324C94.4165 110.068 95.8085 108.676 97.4645 108.676C99.2645 108.676 100.225 109.9 100.225 112.084V119.5H102.648V111.268C102.648 108.22 100.921 106.54 98.3045 106.54C96.5525 106.54 95.2565 107.452 94.4165 108.82V102.268H91.9925V119.5H94.4165V112.324ZM114.459 119.5V108.844H118.011V106.78H114.459V105.868C114.459 104.644 115.131 104.116 116.283 104.116C116.715 104.116 117.147 104.164 117.531 104.332V102.364C117.051 102.172 116.475 102.052 115.755 102.052C113.355 102.052 112.035 103.396 112.035 105.844V106.78H109.227V108.844H112.035V119.5H114.459ZM127.804 114.268C127.804 116.26 126.484 117.604 124.852 117.604C123.268 117.604 122.164 116.692 122.164 114.484V106.78H119.74V114.964C119.74 118.228 121.516 119.74 124.084 119.74C125.812 119.74 127.3 118.804 127.972 117.484V119.5H130.228V106.78H127.804V114.268ZM136.018 112.324C136.018 110.068 137.41 108.676 139.066 108.676C140.866 108.676 141.826 109.9 141.826 112.084V119.5H144.25V111.268C144.25 108.22 142.522 106.54 139.906 106.54C138.154 106.54 136.714 107.476 135.85 108.892V106.78H133.594V119.5H136.018V112.324ZM146.557 113.14C146.557 116.956 148.765 119.74 152.197 119.74C153.997 119.74 155.533 118.828 156.445 117.22V119.5H158.701V102.268H156.277V108.964C155.389 107.404 153.901 106.54 152.197 106.54C148.765 106.54 146.557 109.276 146.557 113.14ZM149.077 113.14C149.077 110.26 150.565 108.676 152.677 108.676C154.693 108.676 156.277 110.236 156.277 113.092C156.277 115.9 154.741 117.58 152.677 117.58C150.565 117.58 149.077 115.972 149.077 113.14ZM177.598 119.5H180.022L183.718 106.78H181.318L178.75 116.068L175.918 106.78H173.518L170.638 116.044L168.07 106.78H165.694L169.366 119.5H171.814L174.718 110.044L177.598 119.5ZM188.648 103.828C188.648 102.892 187.928 102.22 186.896 102.22C185.864 102.22 185.12 102.892 185.12 103.828C185.12 104.74 185.864 105.436 186.896 105.436C187.928 105.436 188.648 104.74 188.648 103.828ZM188.12 119.5V106.78H185.696V119.5H188.12ZM193.933 119.5V102.268H191.485V119.5H193.933ZM199.745 119.5V102.268H197.297V119.5H199.745ZM210.549 112.324C210.549 110.068 211.941 108.676 213.597 108.676C215.397 108.676 216.357 109.9 216.357 112.084V119.5H218.781V111.268C218.781 108.22 217.053 106.54 214.437 106.54C212.685 106.54 211.389 107.452 210.549 108.82V102.268H208.125V119.5H210.549V112.324ZM229.704 119.5H231.72V111.34C231.72 108.316 229.896 106.54 226.752 106.54C223.776 106.54 221.736 108.436 221.616 111.292H223.824C223.896 109.516 224.976 108.46 226.752 108.46C228.432 108.46 229.416 109.492 229.416 111.316V112.252C228.384 112.132 227.784 112.108 227.04 112.108C223.248 112.108 221.256 113.404 221.256 115.9C221.256 118.228 222.984 119.74 225.624 119.74C227.496 119.74 228.912 118.948 229.704 117.532V119.5ZM223.56 115.828C223.56 114.34 224.76 113.62 227.184 113.62C227.808 113.62 228.48 113.644 229.416 113.764V114.796C229.416 116.74 228.144 118.012 226.104 118.012C224.544 118.012 223.56 117.148 223.56 115.828ZM245.123 106.78H242.651L239.075 116.716L235.547 106.78H232.931L237.707 119.5H240.347L245.123 106.78ZM251.678 119.74C254.678 119.74 256.862 118.036 257.486 115.204H255.086C254.678 116.86 253.43 117.844 251.63 117.844C249.494 117.844 248.198 116.332 248.006 113.74H257.486C257.918 109.612 255.398 106.54 251.606 106.54C248.102 106.54 245.534 109.3 245.534 113.068C245.534 117.076 248.006 119.74 251.678 119.74ZM251.558 108.364C253.526 108.364 254.798 109.78 254.918 112.132H248.03C248.294 109.756 249.614 108.364 251.558 108.364ZM272.254 117.148C271.75 117.388 271.246 117.484 270.67 117.484C269.374 117.484 268.534 116.86 268.534 115.108V108.844H272.374V106.78H268.534V103.012H266.11V106.78H263.302V108.844H266.11V115.66C266.11 118.468 267.742 119.74 270.094 119.74C270.862 119.74 271.51 119.62 272.254 119.284V117.148ZM277.112 112.324C277.112 110.068 278.504 108.676 280.16 108.676C281.96 108.676 282.92 109.9 282.92 112.084V119.5H285.344V111.268C285.344 108.22 283.616 106.54 281 106.54C279.248 106.54 277.952 107.452 277.112 108.82V102.268H274.688V119.5H277.112V112.324ZM293.795 119.74C296.795 119.74 298.979 118.036 299.603 115.204H297.203C296.795 116.86 295.547 117.844 293.747 117.844C291.611 117.844 290.315 116.332 290.123 113.74H299.603C300.035 109.612 297.515 106.54 293.723 106.54C290.219 106.54 287.651 109.3 287.651 113.068C287.651 117.076 290.123 119.74 293.795 119.74ZM293.675 108.364C295.643 108.364 296.915 109.78 297.035 112.132H290.147C290.411 109.756 291.731 108.364 293.675 108.364ZM305.132 103.828C305.132 102.892 304.412 102.22 303.38 102.22C302.348 102.22 301.604 102.892 301.604 103.828C301.604 104.74 302.348 105.436 303.38 105.436C304.412 105.436 305.132 104.74 305.132 103.828ZM304.604 119.5V106.78H302.18V119.5H304.604ZM310.393 112.996C310.393 110.188 312.385 108.988 315.121 109.132V106.612C313.033 106.612 311.113 107.716 310.225 109.468V106.78H307.969V119.5H310.393V112.996ZM327.383 119.74C330.983 119.74 333.623 116.908 333.623 113.14C333.623 109.372 330.983 106.54 327.383 106.54C323.783 106.54 321.143 109.372 321.143 113.14C321.143 116.908 323.783 119.74 327.383 119.74ZM327.383 117.604C325.295 117.604 323.663 115.924 323.663 113.14C323.663 110.356 325.295 108.7 327.383 108.7C329.471 108.7 331.127 110.356 331.127 113.14C331.127 115.924 329.471 117.604 327.383 117.604ZM346.325 119.5H348.749L352.445 106.78H350.045L347.477 116.068L344.645 106.78H342.245L339.365 116.044L336.797 106.78H334.421L338.093 119.5H340.541L343.445 110.044L346.325 119.5ZM356.846 112.324C356.846 110.068 358.238 108.676 359.894 108.676C361.694 108.676 362.654 109.9 362.654 112.084V119.5H365.078V111.268C365.078 108.22 363.35 106.54 360.734 106.54C358.982 106.54 357.542 107.476 356.678 108.892V106.78H354.422V119.5H356.846V112.324ZM58.856 153.148C58.352 153.388 57.848 153.484 57.272 153.484C55.976 153.484 55.136 152.86 55.136 151.108V144.844H58.976V142.78H55.136V139.012H52.712V142.78H49.904V144.844H52.712V151.66C52.712 154.468 54.344 155.74 56.696 155.74C57.464 155.74 58.112 155.62 58.856 155.284V153.148ZM66.2658 155.74C69.8658 155.74 72.5058 152.908 72.5058 149.14C72.5058 145.372 69.8658 142.54 66.2658 142.54C62.6658 142.54 60.0258 145.372 60.0258 149.14C60.0258 152.908 62.6658 155.74 66.2658 155.74ZM66.2658 153.604C64.1778 153.604 62.5458 151.924 62.5458 149.14C62.5458 146.356 64.1778 144.7 66.2658 144.7C68.3538 144.7 70.0098 146.356 70.0098 149.14C70.0098 151.924 68.3538 153.604 66.2658 153.604ZM77.4009 155.5V149.476L83.1369 155.5H86.2569L79.8249 148.948L85.7049 142.78H82.8489L77.4009 148.468V138.268H74.9769V155.5H77.4009ZM92.5839 155.74C95.5839 155.74 97.7679 154.036 98.3919 151.204H95.9919C95.5839 152.86 94.3359 153.844 92.5359 153.844C90.3999 153.844 89.1039 152.332 88.9119 149.74H98.3919C98.8239 145.612 96.3039 142.54 92.5119 142.54C89.0079 142.54 86.4399 145.3 86.4399 149.068C86.4399 153.076 88.9119 155.74 92.5839 155.74ZM92.4639 144.364C94.4319 144.364 95.7039 145.78 95.8239 148.132H88.9359C89.1999 145.756 90.5199 144.364 92.4639 144.364ZM103.393 148.324C103.393 146.068 104.785 144.676 106.441 144.676C108.241 144.676 109.201 145.9 109.201 148.084V155.5H111.625V147.268C111.625 144.22 109.897 142.54 107.281 142.54C105.529 142.54 104.089 143.476 103.225 144.892V142.78H100.969V155.5H103.393V148.324ZM127.036 153.148C126.532 153.388 126.028 153.484 125.452 153.484C124.156 153.484 123.316 152.86 123.316 151.108V144.844H127.156V142.78H123.316V139.012H120.892V142.78H118.084V144.844H120.892V151.66C120.892 154.468 122.524 155.74 124.876 155.74C125.644 155.74 126.292 155.62 127.036 155.284V153.148ZM131.893 148.324C131.893 146.068 133.285 144.676 134.941 144.676C136.741 144.676 137.701 145.9 137.701 148.084V155.5H140.125V147.268C140.125 144.22 138.397 142.54 135.781 142.54C134.029 142.54 132.733 143.452 131.893 144.82V138.268H129.469V155.5H131.893V148.324ZM151.048 155.5H153.064V147.34C153.064 144.316 151.24 142.54 148.096 142.54C145.12 142.54 143.08 144.436 142.96 147.292H145.168C145.24 145.516 146.32 144.46 148.096 144.46C149.776 144.46 150.76 145.492 150.76 147.316V148.252C149.728 148.132 149.128 148.108 148.384 148.108C144.592 148.108 142.6 149.404 142.6 151.9C142.6 154.228 144.328 155.74 146.968 155.74C148.84 155.74 150.256 154.948 151.048 153.532V155.5ZM144.904 151.828C144.904 150.34 146.104 149.62 148.528 149.62C149.152 149.62 149.824 149.644 150.76 149.764V150.796C150.76 152.74 149.488 154.012 147.448 154.012C145.888 154.012 144.904 153.148 144.904 151.828ZM163.364 153.148C162.86 153.388 162.356 153.484 161.78 153.484C160.484 153.484 159.644 152.86 159.644 151.108V144.844H163.484V142.78H159.644V139.012H157.22V142.78H154.412V144.844H157.22V151.66C157.22 154.468 158.852 155.74 161.204 155.74C161.972 155.74 162.62 155.62 163.364 155.284V153.148ZM176.045 155.74C179.045 155.74 181.229 154.036 181.853 151.204H179.453C179.045 152.86 177.797 153.844 175.997 153.844C173.861 153.844 172.565 152.332 172.373 149.74H181.853C182.285 145.612 179.765 142.54 175.973 142.54C172.469 142.54 169.901 145.3 169.901 149.068C169.901 153.076 172.373 155.74 176.045 155.74ZM175.925 144.364C177.893 144.364 179.165 145.78 179.285 148.132H172.397C172.661 145.756 173.981 144.364 175.925 144.364ZM186.854 148.324C186.854 146.068 188.246 144.676 189.902 144.676C191.702 144.676 192.662 145.9 192.662 148.084V155.5H195.086V147.268C195.086 144.22 193.358 142.54 190.742 142.54C188.99 142.54 187.55 143.476 186.686 144.892V142.78H184.43V155.5H186.854V148.324ZM206.009 155.5H208.025V147.34C208.025 144.316 206.201 142.54 203.057 142.54C200.081 142.54 198.041 144.436 197.921 147.292H200.129C200.201 145.516 201.281 144.46 203.057 144.46C204.737 144.46 205.721 145.492 205.721 147.316V148.252C204.689 148.132 204.089 148.108 203.345 148.108C199.553 148.108 197.561 149.404 197.561 151.9C197.561 154.228 199.289 155.74 201.929 155.74C203.801 155.74 205.217 154.948 206.009 153.532V155.5ZM199.865 151.828C199.865 150.34 201.065 149.62 203.489 149.62C204.113 149.62 204.785 149.644 205.721 149.764V150.796C205.721 152.74 204.449 154.012 202.409 154.012C200.849 154.012 199.865 153.148 199.865 151.828ZM223.41 149.14C223.41 145.276 221.178 142.54 217.77 142.54C216.042 142.54 214.578 143.404 213.69 144.964V138.268H211.266V155.5H213.522V153.22C214.434 154.828 215.97 155.74 217.77 155.74C221.202 155.74 223.41 152.956 223.41 149.14ZM220.89 149.14C220.89 151.972 219.378 153.58 217.29 153.58C215.226 153.58 213.69 151.9 213.69 149.092C213.69 146.236 215.274 144.676 217.29 144.676C219.378 144.676 220.89 146.26 220.89 149.14ZM228.316 155.5V138.268H225.868V155.5H228.316ZM236.912 155.74C239.912 155.74 242.096 154.036 242.72 151.204H240.32C239.912 152.86 238.664 153.844 236.864 153.844C234.728 153.844 233.432 152.332 233.24 149.74H242.72C243.152 145.612 240.632 142.54 236.84 142.54C233.336 142.54 230.768 145.3 230.768 149.068C230.768 153.076 233.24 155.74 236.912 155.74ZM236.792 144.364C238.76 144.364 240.032 145.78 240.152 148.132H233.264C233.528 145.756 234.848 144.364 236.792 144.364ZM255.377 151.708C255.377 149.884 254.177 148.78 251.657 148.324L249.497 147.916C247.961 147.628 247.313 147.148 247.313 146.116C247.313 145.012 248.345 144.364 249.881 144.364C251.585 144.364 252.713 145.252 252.857 146.788H255.185C254.969 144.172 252.905 142.54 249.857 142.54C246.905 142.54 244.961 144.1 244.961 146.332C244.961 148.252 246.281 149.452 248.633 149.908L250.697 150.292C252.281 150.604 252.929 151.06 252.929 152.116C252.929 153.316 251.801 153.916 250.097 153.916C248.153 153.916 246.881 152.932 246.785 151.348H244.457C244.697 154.084 246.689 155.74 250.049 155.74C253.433 155.74 255.377 154.204 255.377 151.708ZM265.463 148.324C265.463 146.068 266.855 144.676 268.511 144.676C270.311 144.676 271.271 145.9 271.271 148.084V155.5H273.695V147.268C273.695 144.22 271.967 142.54 269.351 142.54C267.599 142.54 266.303 143.452 265.463 144.82V138.268H263.039V155.5H265.463V148.324ZM282.242 155.74C285.842 155.74 288.482 152.908 288.482 149.14C288.482 145.372 285.842 142.54 282.242 142.54C278.642 142.54 276.002 145.372 276.002 149.14C276.002 152.908 278.642 155.74 282.242 155.74ZM282.242 153.604C280.154 153.604 278.522 151.924 278.522 149.14C278.522 146.356 280.154 144.7 282.242 144.7C284.33 144.7 285.986 146.356 285.986 149.14C285.986 151.924 284.33 153.604 282.242 153.604ZM293.401 155.5V138.268H290.953V155.5H293.401ZM295.854 149.14C295.854 152.956 298.062 155.74 301.494 155.74C303.294 155.74 304.83 154.828 305.742 153.22V155.5H307.998V138.268H305.574V144.964C304.686 143.404 303.198 142.54 301.494 142.54C298.062 142.54 295.854 145.276 295.854 149.14ZM298.374 149.14C298.374 146.26 299.862 144.676 301.974 144.676C303.99 144.676 305.574 146.236 305.574 149.092C305.574 151.9 304.038 153.58 301.974 153.58C299.862 153.58 298.374 151.972 298.374 149.14ZM316.6 155.74C319.6 155.74 321.784 154.036 322.408 151.204H320.008C319.6 152.86 318.352 153.844 316.552 153.844C314.416 153.844 313.12 152.332 312.928 149.74H322.408C322.84 145.612 320.32 142.54 316.528 142.54C313.024 142.54 310.456 145.3 310.456 149.068C310.456 153.076 312.928 155.74 316.6 155.74ZM316.48 144.364C318.448 144.364 319.72 145.78 319.84 148.132H312.952C313.215 145.756 314.536 144.364 316.48 144.364ZM327.409 148.996C327.409 146.188 329.401 144.988 332.137 145.132V142.612C330.049 142.612 328.129 143.716 327.241 145.468V142.78H324.985V155.5H327.409V148.996ZM344.135 151.708C344.135 149.884 342.935 148.78 340.415 148.324L338.255 147.916C336.719 147.628 336.071 147.148 336.071 146.116C336.071 145.012 337.103 144.364 338.639 144.364C340.343 144.364 341.471 145.252 341.615 146.788H343.943C343.727 144.172 341.663 142.54 338.615 142.54C335.663 142.54 333.719 144.1 333.719 146.332C333.719 148.252 335.039 149.452 337.391 149.908L339.455 150.292C341.039 150.604 341.687 151.06 341.687 152.116C341.687 153.316 340.559 153.916 338.855 153.916C336.911 153.916 335.639 152.932 335.543 151.348H333.215C333.455 154.084 335.447 155.74 338.807 155.74C342.191 155.74 344.135 154.204 344.135 151.708ZM358.973 153.148C358.469 153.388 357.965 153.484 357.389 153.484C356.093 153.484 355.253 152.86 355.253 151.108V144.844H359.093V142.78H355.253V139.012H352.829V142.78H350.021V144.844H352.829V151.66C352.829 154.468 354.461 155.74 356.813 155.74C357.581 155.74 358.229 155.62 358.973 155.284V153.148ZM366.383 155.74C369.983 155.74 372.623 152.908 372.623 149.14C372.623 145.372 369.983 142.54 366.383 142.54C362.783 142.54 360.143 145.372 360.143 149.14C360.143 152.908 362.783 155.74 366.383 155.74ZM366.383 153.604C364.295 153.604 362.663 151.924 362.663 149.14C362.663 146.356 364.295 144.7 366.383 144.7C368.471 144.7 370.127 146.356 370.127 149.14C370.127 151.924 368.471 153.604 366.383 153.604ZM63.824 185.14C63.824 181.3 61.592 178.54 58.208 178.54C56.408 178.54 54.848 179.476 53.936 181.108V178.78H51.68V196.132H54.104V189.34C55.016 190.876 56.48 191.74 58.208 191.74C61.616 191.74 63.824 188.98 63.824 185.14ZM61.304 185.14C61.304 187.996 59.792 189.58 57.704 189.58C55.664 189.58 54.104 187.948 54.104 185.14C54.104 182.284 55.688 180.676 57.704 180.676C59.792 180.676 61.304 182.284 61.304 185.14ZM73.9856 191.5H76.0016V183.34C76.0016 180.316 74.1776 178.54 71.0336 178.54C68.0576 178.54 66.0176 180.436 65.8976 183.292H68.1056C68.1776 181.516 69.2576 180.46 71.0336 180.46C72.7136 180.46 73.6976 181.492 73.6976 183.316V184.252C72.6656 184.132 72.0656 184.108 71.3216 184.108C67.5296 184.108 65.5376 185.404 65.5376 187.9C65.5376 190.228 67.2656 191.74 69.9056 191.74C71.7776 191.74 73.1936 190.948 73.9856 189.532V191.5ZM67.8416 187.828C67.8416 186.34 69.0416 185.62 71.4656 185.62C72.0896 185.62 72.7616 185.644 73.6976 185.764V186.796C73.6976 188.74 72.4256 190.012 70.3856 190.012C68.8256 190.012 67.8416 189.148 67.8416 187.828ZM81.6665 184.996C81.6665 182.188 83.6585 180.988 86.3945 181.132V178.612C84.3065 178.612 82.3865 179.716 81.4985 181.468V178.78H79.2425V191.5H81.6665V184.996ZM96.2623 189.148C95.7583 189.388 95.2543 189.484 94.6783 189.484C93.3823 189.484 92.5423 188.86 92.5423 187.108V180.844H96.3823V178.78H92.5423V175.012H90.1183V178.78H87.3102V180.844H90.1183V187.66C90.1183 190.468 91.7503 191.74 94.1023 191.74C94.8703 191.74 95.5183 191.62 96.2623 191.284V189.148ZM101.648 175.828C101.648 174.892 100.928 174.22 99.8956 174.22C98.8636 174.22 98.1196 174.892 98.1196 175.828C98.1196 176.74 98.8636 177.436 99.8956 177.436C100.928 177.436 101.648 176.74 101.648 175.828ZM101.12 191.5V178.78H98.6956V191.5H101.12ZM109.501 191.764C112.693 191.764 114.949 189.7 115.381 186.34H112.861C112.573 188.404 111.325 189.604 109.525 189.604C107.437 189.604 106.069 187.852 106.069 185.14C106.069 182.452 107.437 180.676 109.525 180.676C111.301 180.676 112.573 181.9 112.837 183.94H115.381C114.925 180.628 112.645 178.54 109.501 178.54C106.069 178.54 103.573 181.3 103.573 185.14C103.573 189.028 106.021 191.764 109.501 191.764ZM120.773 175.828C120.773 174.892 120.053 174.22 119.021 174.22C117.989 174.22 117.245 174.892 117.245 175.828C117.245 176.74 117.989 177.436 119.021 177.436C120.053 177.436 120.773 176.74 120.773 175.828ZM120.245 191.5V178.78H117.821V191.5H120.245ZM135.754 185.14C135.754 181.3 133.522 178.54 130.138 178.54C128.338 178.54 126.778 179.476 125.866 181.108V178.78H123.61V196.132H126.034V189.34C126.946 190.876 128.41 191.74 130.138 191.74C133.546 191.74 135.754 188.98 135.754 185.14ZM133.234 185.14C133.234 187.996 131.722 189.58 129.634 189.58C127.594 189.58 126.034 187.948 126.034 185.14C126.034 182.284 127.618 180.676 129.634 180.676C131.722 180.676 133.234 182.284 133.234 185.14ZM145.915 191.5H147.931V183.34C147.931 180.316 146.107 178.54 142.963 178.54C139.987 178.54 137.947 180.436 137.827 183.292H140.035C140.107 181.516 141.187 180.46 142.963 180.46C144.643 180.46 145.627 181.492 145.627 183.316V184.252C144.595 184.132 143.995 184.108 143.251 184.108C139.459 184.108 137.467 185.404 137.467 187.9C137.467 190.228 139.195 191.74 141.835 191.74C143.707 191.74 145.123 190.948 145.915 189.532V191.5ZM139.771 187.828C139.771 186.34 140.971 185.62 143.395 185.62C144.019 185.62 144.691 185.644 145.627 185.764V186.796C145.627 188.74 144.355 190.012 142.315 190.012C140.755 190.012 139.771 189.148 139.771 187.828ZM158.231 189.148C157.727 189.388 157.223 189.484 156.647 189.484C155.351 189.484 154.511 188.86 154.511 187.108V180.844H158.351V178.78H154.511V175.012H152.087V178.78H149.279V180.844H152.087V187.66C152.087 190.468 153.719 191.74 156.071 191.74C156.839 191.74 157.487 191.62 158.231 191.284V189.148ZM165.545 191.74C168.545 191.74 170.729 190.036 171.353 187.204H168.953C168.545 188.86 167.297 189.844 165.497 189.844C163.361 189.844 162.065 188.332 161.873 185.74H171.353C171.785 181.612 169.265 178.54 165.473 178.54C161.969 178.54 159.401 181.3 159.401 185.068C159.401 189.076 161.873 191.74 165.545 191.74ZM165.425 180.364C167.393 180.364 168.665 181.78 168.785 184.132H161.897C162.161 181.756 163.481 180.364 165.425 180.364ZM181.898 175.828C181.898 174.892 181.178 174.22 180.146 174.22C179.114 174.22 178.37 174.892 178.37 175.828C178.37 176.74 179.114 177.436 180.146 177.436C181.178 177.436 181.898 176.74 181.898 175.828ZM181.37 191.5V178.78H178.946V191.5H181.37ZM187.159 184.324C187.159 182.068 188.551 180.676 190.207 180.676C192.007 180.676 192.967 181.9 192.967 184.084V191.5H195.391V183.268C195.391 180.22 193.663 178.54 191.047 178.54C189.295 178.54 187.855 179.476 186.991 180.892V178.78H184.735V191.5H187.159V184.324ZM210.801 189.148C210.297 189.388 209.793 189.484 209.217 189.484C207.921 189.484 207.081 188.86 207.081 187.108V180.844H210.921V178.78H207.081V175.012H204.657V178.78H201.849V180.844H204.657V187.66C204.657 190.468 206.289 191.74 208.641 191.74C209.409 191.74 210.057 191.62 210.801 191.284V189.148ZM215.659 184.324C215.659 182.068 217.051 180.676 218.707 180.676C220.507 180.676 221.467 181.9 221.467 184.084V191.5H223.891V183.268C223.891 180.22 222.163 178.54 219.547 178.54C217.795 178.54 216.499 179.452 215.659 180.82V174.268H213.235V191.5H215.659V184.324ZM232.342 191.74C235.342 191.74 237.526 190.036 238.15 187.204H235.75C235.342 188.86 234.094 189.844 232.294 189.844C230.158 189.844 228.862 188.332 228.67 185.74H238.15C238.582 181.612 236.062 178.54 232.27 178.54C228.766 178.54 226.198 181.3 226.198 185.068C226.198 189.076 228.67 191.74 232.342 191.74ZM232.222 180.364C234.19 180.364 235.462 181.78 235.582 184.132H228.694C228.958 181.756 230.278 180.364 232.222 180.364ZM257.887 185.14C257.887 181.3 255.655 178.54 252.271 178.54C250.471 178.54 248.911 179.476 247.999 181.108V178.78H245.743V196.132H248.167V189.34C249.079 190.876 250.543 191.74 252.271 191.74C255.679 191.74 257.887 188.98 257.887 185.14ZM255.367 185.14C255.367 187.996 253.855 189.58 251.767 189.58C249.727 189.58 248.167 187.948 248.167 185.14C248.167 182.284 249.751 180.676 251.767 180.676C253.855 180.676 255.367 182.284 255.367 185.14ZM262.768 184.996C262.768 182.188 264.76 180.988 267.496 181.132V178.612C265.408 178.612 263.488 179.716 262.6 181.468V178.78H260.344V191.5H262.768V184.996ZM274.696 191.74C278.296 191.74 280.936 188.908 280.936 185.14C280.936 181.372 278.296 178.54 274.696 178.54C271.096 178.54 268.456 181.372 268.456 185.14C268.456 188.908 271.096 191.74 274.696 191.74ZM274.696 189.604C272.608 189.604 270.976 187.924 270.976 185.14C270.976 182.356 272.608 180.7 274.696 180.7C276.784 180.7 278.44 182.356 278.44 185.14C278.44 187.924 276.784 189.604 274.696 189.604ZM290.348 189.148C289.844 189.388 289.34 189.484 288.764 189.484C287.468 189.484 286.628 188.86 286.628 187.108V180.844H290.468V178.78H286.628V175.012H284.204V178.78H281.396V180.844H284.204V187.66C284.204 190.468 285.836 191.74 288.188 191.74C288.956 191.74 289.604 191.62 290.348 191.284V189.148ZM297.758 191.74C301.358 191.74 303.998 188.908 303.998 185.14C303.998 181.372 301.358 178.54 297.758 178.54C294.158 178.54 291.518 181.372 291.518 185.14C291.518 188.908 294.158 191.74 297.758 191.74ZM297.758 189.604C295.67 189.604 294.038 187.924 294.038 185.14C294.038 182.356 295.67 180.7 297.758 180.7C299.846 180.7 301.502 182.356 301.502 185.14C301.502 187.924 299.846 189.604 297.758 189.604ZM311.485 191.764C314.677 191.764 316.933 189.7 317.365 186.34H314.845C314.557 188.404 313.309 189.604 311.509 189.604C309.421 189.604 308.053 187.852 308.053 185.14C308.053 182.452 309.421 180.676 311.509 180.676C313.285 180.676 314.557 181.9 314.821 183.94H317.365C316.909 180.628 314.629 178.54 311.485 178.54C308.053 178.54 305.557 181.3 305.557 185.14C305.557 189.028 308.005 191.764 311.485 191.764ZM325.016 191.74C328.616 191.74 331.256 188.908 331.256 185.14C331.256 181.372 328.616 178.54 325.016 178.54C321.416 178.54 318.776 181.372 318.776 185.14C318.776 188.908 321.416 191.74 325.016 191.74ZM325.016 189.604C322.928 189.604 321.296 187.924 321.296 185.14C321.296 182.356 322.928 180.7 325.016 180.7C327.104 180.7 328.76 182.356 328.76 185.14C328.76 187.924 327.104 189.604 325.016 189.604ZM336.175 191.5V174.268H333.727V191.5H336.175ZM342.827 189.772C342.827 188.644 342.083 187.876 340.979 187.876C339.899 187.876 339.131 188.644 339.131 189.772C339.131 190.852 339.899 191.62 340.979 191.62C342.083 191.62 342.827 190.852 342.827 189.772Z" fill="#5D5FEF"/>
</svg>
