<svg width="24" height="24" viewBox="0 0 24 24" fill="none" xmlns="http://www.w3.org/2000/svg">
<path opacity="0.05" d="M14.9547 15.4469C16.0844 15.4469 17.0002 14.4294 17.0002 13.1741C17.0002 11.9189 16.0844 10.9014 14.9547 10.9014C13.825 10.9014 12.9092 11.9189 12.9092 13.1741C12.9092 14.4294 13.825 15.4469 14.9547 15.4469Z" fill="#71729C"/>
<path opacity="0.05" d="M14.9549 15.2199C15.9591 15.2199 16.7732 14.3041 16.7732 13.1744C16.7732 12.0447 15.9591 11.1289 14.9549 11.1289C13.9508 11.1289 13.1367 12.0447 13.1367 13.1744C13.1367 14.3041 13.9508 15.2199 14.9549 15.2199Z" fill="#71729C"/>
<path opacity="0.05" d="M9.0455 15.4469C10.1752 15.4469 11.091 14.4294 11.091 13.1741C11.091 11.9189 10.1752 10.9014 9.0455 10.9014C7.9158 10.9014 7 11.9189 7 13.1741C7 14.4294 7.9158 15.4469 9.0455 15.4469Z" fill="#71729C"/>
<path opacity="0.05" d="M9.04576 15.2199C10.0499 15.2199 10.864 14.3041 10.864 13.1744C10.864 12.0447 10.0499 11.1289 9.04576 11.1289C8.04158 11.1289 7.22754 12.0447 7.22754 13.1744C7.22754 14.3041 8.04158 15.2199 9.04576 15.2199Z" fill="#71729C"/>
<path fill-rule="evenodd" clip-rule="evenodd" d="M19.3217 6.87867C19.2922 6.83231 19.2586 6.79595 19.2145 6.76276C18.8649 6.50003 17.0912 5.24501 14.8212 5.00136C14.8166 5.00091 14.7994 5 14.7953 5C14.7507 5 14.7121 5.02591 14.6935 5.06364L14.5712 5.30819H14.5707C14.563 5.32319 14.5589 5.34046 14.5589 5.35864C14.5589 5.40819 14.5907 5.45046 14.6353 5.46592C14.638 5.46683 14.6571 5.47092 14.6639 5.47228C16.6035 5.93956 17.7835 6.78595 18.8226 7.72006C16.9831 6.78095 15.1662 5.90138 12.0002 5.90138C8.83425 5.90138 7.01785 6.7814 5.17782 7.72006C6.21693 6.78595 7.39695 5.93956 9.33654 5.47228C9.34007 5.47134 9.34689 5.46991 9.35302 5.46863L9.35303 5.46863C9.35874 5.46743 9.36386 5.46636 9.36517 5.46592C9.40972 5.45046 9.44154 5.40819 9.44154 5.35864C9.44154 5.34046 9.43745 5.32319 9.42972 5.30819H9.42927L9.30699 5.06364C9.28835 5.02591 9.25017 5 9.20517 5C9.20108 5 9.18335 5.00091 9.17926 5.00136C6.90921 5.24501 5.13554 6.50003 4.78599 6.76276C4.7419 6.79595 4.70872 6.83231 4.67871 6.87867C4.35689 7.38187 2.38367 10.6915 2.00048 16.7116C1.99639 16.7761 2.01866 16.843 2.06184 16.8911C4.14916 19.2294 7.14467 19.5057 7.78378 19.538C7.85969 19.5417 7.93242 19.5085 7.97787 19.4476L8.56061 18.6707C8.60607 18.6098 8.58152 18.5244 8.51016 18.4985C7.28059 18.0503 5.91147 17.2712 4.72281 15.9048C6.19602 17.0184 8.41834 18.1744 12.0002 18.1744C15.5821 18.1744 17.8044 17.0184 19.2772 15.9048C18.0881 17.2712 16.7194 18.0498 15.4898 18.4985C15.4185 18.5244 15.3939 18.6098 15.4394 18.6707L16.0221 19.4476C16.068 19.5085 16.1403 19.5421 16.2162 19.538C16.8558 19.5053 19.8508 19.2294 21.9382 16.8911C21.9813 16.843 22.0036 16.7761 21.9995 16.7116C21.6168 10.6915 19.6436 7.38187 19.3217 6.87867ZM14.955 14.9924C15.8336 14.9924 16.5459 14.1784 16.5459 13.1742C16.5459 12.17 15.8336 11.356 14.955 11.356C14.0763 11.356 13.364 12.17 13.364 13.1742C13.364 14.1784 14.0763 14.9924 14.955 14.9924ZM10.6365 13.1742C10.6365 14.1784 9.92418 14.9924 9.04553 14.9924C8.16688 14.9924 7.45459 14.1784 7.45459 13.1742C7.45459 12.17 8.16688 11.356 9.04553 11.356C9.92418 11.356 10.6365 12.17 10.6365 13.1742Z" fill="#71729C"/>
</svg>
