<svg width="24" height="24" viewBox="0 0 24 24" fill="none" xmlns="http://www.w3.org/2000/svg">
<path fill-rule="evenodd" clip-rule="evenodd" d="M4.37167 7.43166C4.39667 7.18719 4.3025 6.94603 4.11917 6.78195L2.2525 4.54442V4.21045H8.05083L12.5325 13.9851L16.4725 4.21045H22V4.54442L20.4033 6.06677C20.2658 6.17118 20.1975 6.34273 20.2258 6.51261V17.6986C20.1975 17.8676 20.2658 18.0392 20.4033 18.1436L21.9625 19.666V19.9999H14.1192V19.666L15.735 18.1063C15.8933 17.9489 15.8933 17.9025 15.8933 17.6613V8.62003L11.4025 19.9635H10.7958L5.56667 8.62003V16.2226C5.52333 16.5417 5.63 16.8641 5.85583 17.0945L7.95667 19.6287V19.9635H2V19.6287L4.10083 17.0945C4.32583 16.8632 4.42583 16.5392 4.37167 16.2226V7.43166Z" fill="#71729C"/>
</svg>
