<svg width="24" height="24" viewBox="0 0 24 24" fill="none" xmlns="http://www.w3.org/2000/svg">
<g clip-path="url(#clip0_625_6072)">
<path fill-rule="evenodd" clip-rule="evenodd" d="M22 12C22 17.5228 17.5228 22 12 22C6.47715 22 2 17.5228 2 12C2 6.47715 6.47715 2 12 2C17.5228 2 22 6.47715 22 12ZM8.79043 12.8482L6.34993 12.0531C6.34993 12.0531 6.05826 11.9347 6.15218 11.6664C6.17151 11.6111 6.21051 11.564 6.32718 11.4831C6.86793 11.1062 16.336 7.70307 16.336 7.70307C16.336 7.70307 16.6033 7.61299 16.761 7.67291C16.8 7.68498 16.8351 7.7072 16.8627 7.73729C16.8903 7.76738 16.9094 7.80426 16.9181 7.84416C16.9351 7.91463 16.9423 7.98713 16.9393 8.05957C16.9388 8.09797 16.9358 8.13465 16.9322 8.17826V8.17827C16.9299 8.20582 16.9274 8.23614 16.9252 8.27141C16.8675 9.20182 15.1418 16.1458 15.1418 16.1458C15.1418 16.1458 15.0386 16.5522 14.6687 16.5661C14.5778 16.569 14.4872 16.5536 14.4024 16.5208C14.3175 16.488 14.2402 16.4384 14.1749 16.3751C13.7853 16.04 12.8822 15.399 12.0432 14.8197C11.7893 15.0332 11.2828 15.4713 10.7605 15.9937C10.019 16.7354 10.1143 15.9937 10.1143 15.9937L10.3421 13.5732L10.3467 13.576C10.3572 13.5512 10.3748 13.5312 10.3748 13.5312C10.3748 13.5312 14.7437 9.64782 14.8599 9.24016C14.8689 9.20857 14.8349 9.19299 14.7893 9.20682C14.4994 9.31347 9.47867 12.484 8.91539 12.8397L8.91376 12.8407C8.8738 12.8528 8.83156 12.8554 8.79043 12.8482Z" fill="#71729C"/>
</g>
<defs>
<clipPath id="clip0_625_6072">
<rect width="20" height="20" fill="white" transform="translate(2 2)"/>
</clipPath>
</defs>
</svg>
