<svg width="24" height="24" viewBox="0 0 24 24" fill="none" xmlns="http://www.w3.org/2000/svg">
<path fill-rule="evenodd" clip-rule="evenodd" d="M19.996 8.00087C19.996 8.00029 19.996 7.9997 19.996 7.99912C19.996 7.99906 19.996 7.999 19.996 7.99894L21.8706 5.97629C22.1761 5.64658 21.9013 5.11538 21.4557 5.17432L19.107 5.48496C18.3738 4.57913 17.253 4 15.9969 4C13.7882 4 11.9977 5.79047 11.9977 7.99912C11.9977 8.52644 12.0998 9.02993 12.2853 9.49091C9.28952 9.42085 6.08195 8.82807 4.46026 5.61504C4.25959 5.21746 3.68432 5.19443 3.55658 5.62107C2.3831 9.54022 4.44826 14.6323 8.99819 15.9973C7.86315 17.1071 4.94542 17.4085 2.55773 17.1898C2.0931 17.1473 1.80141 17.6766 2.16072 17.9742C4.1628 19.6327 6.93957 19.9964 9.49815 19.9964C15.996 19.9964 20.4948 14.4987 19.996 8.00087Z" fill="#71729C"/>
</svg>
