<svg width="206" height="31" viewBox="0 0 206 31" fill="none" xmlns="http://www.w3.org/2000/svg">
<path d="M11.6059 24.4801C17.6539 24.4801 22.3899 20.4801 23.1899 14.5281H18.0379C17.4619 17.8241 14.9339 20.1281 11.6699 20.1281C7.73394 20.1281 5.07794 16.9921 5.07794 12.4801C5.07794 8.0001 7.73394 4.8961 11.6699 4.8961C14.9339 4.8961 17.4939 7.1681 18.0379 10.4641H23.1899C22.3899 4.5761 17.6539 0.544104 11.6059 0.544104C5.14194 0.544104 0.0859375 5.7601 0.0859375 12.4801C0.0859375 19.2321 5.14194 24.4801 11.6059 24.4801Z" fill="#C0C0C0"/>
<path d="M33.998 24.3201C38.958 24.3201 42.67 20.4161 42.67 15.4561C42.67 10.4641 38.958 6.5921 33.998 6.5921C29.038 6.5921 25.326 10.4641 25.326 15.4561C25.326 20.4161 29.038 24.3201 33.998 24.3201ZM33.998 20.3841C31.79 20.3841 29.902 18.6241 29.902 15.4561C29.902 12.2881 31.79 10.5601 33.998 10.5601C36.206 10.5601 38.094 12.2881 38.094 15.4561C38.094 18.6241 36.206 20.3841 33.998 20.3841Z" fill="#C0C0C0"/>
<path d="M50.2002 24.0001V14.4641C50.2002 11.9041 51.6082 10.5281 53.4002 10.5281C55.3522 10.5281 56.3762 11.9681 56.3762 14.3681V24.0001H60.7922V14.4641C60.7922 11.9041 62.2322 10.5281 63.9922 10.5281C65.9442 10.5281 66.9682 11.9681 66.9682 14.3681V24.0001H71.3842V12.9601C71.3842 8.8641 69.0482 6.5921 65.5922 6.5921C63.0322 6.5921 61.3042 7.7441 59.9602 9.6321C59.0962 7.6801 57.3042 6.5921 54.9682 6.5921C52.6962 6.5921 51.0962 7.6161 49.8482 9.3441V6.9121H45.7522V24.0001H50.2002Z" fill="#C0C0C0"/>
<path d="M80.5855 2.9441C80.5855 1.3761 79.3695 0.256104 77.6095 0.256104C75.8815 0.256104 74.6655 1.3761 74.6655 2.9441C74.6655 4.4481 75.8815 5.5681 77.6095 5.5681C79.3695 5.5681 80.5855 4.4481 80.5855 2.9441ZM79.8815 24.0001V6.9121H75.4335V24.0001H79.8815Z" fill="#C0C0C0"/>
<path d="M88.5315 14.6881C88.5315 11.9361 90.0355 10.5281 91.7955 10.5281C93.8115 10.5281 94.8035 11.9361 94.8035 14.4641V24.0001H99.2195V12.9601C99.2195 8.8321 96.8515 6.5921 93.4275 6.5921C91.1875 6.5921 89.4275 7.6481 88.1795 9.3441V6.9121H84.0835V24.0001H88.5315V14.6881Z" fill="#C0C0C0"/>
<path d="M110.56 30.4961C115.616 30.4961 118.688 27.7441 118.688 23.2001V6.9121H114.624V9.2481C113.376 7.4881 111.648 6.5921 109.344 6.5921C105.12 6.5921 102.176 10.0161 102.176 14.9761C102.176 19.8081 105.312 23.3601 109.504 23.3601C111.584 23.3601 113.344 22.4001 114.272 20.7681V23.2641C114.272 25.7281 112.992 27.0401 110.528 27.0401C108.416 27.0401 107.168 26.0161 106.976 24.0641H102.688C102.88 28.0001 105.952 30.4961 110.56 30.4961ZM106.624 14.9761C106.624 12.1921 108.096 10.4321 110.368 10.4321C112.704 10.4321 114.24 12.2241 114.24 15.0081C114.24 17.6961 112.704 19.5201 110.368 19.5201C108.064 19.5201 106.624 17.7601 106.624 14.9761Z" fill="#C0C0C0"/>
<path d="M147.893 16.8641C147.893 13.4721 145.717 11.6161 141.685 10.8161L137.749 10.0161C136.085 9.6961 134.645 9.0241 134.645 7.4561C134.645 5.8561 135.989 4.5121 138.357 4.5121C140.789 4.5121 142.453 6.1441 142.613 8.5441H147.541C147.221 3.7441 143.445 0.736103 138.293 0.736103C133.333 0.736103 129.717 3.6801 129.717 7.7761C129.717 11.5841 132.405 13.4721 135.893 14.1441L139.669 14.8801C141.621 15.2641 142.741 16.1281 142.741 17.5681C142.741 19.4241 140.981 20.5121 138.517 20.5121C135.541 20.5121 133.909 18.8801 133.781 16.3521H128.853C129.205 21.2161 132.821 24.3201 138.613 24.3201C144.373 24.3201 147.893 21.2481 147.893 16.8641Z" fill="#C0C0C0"/>
<path d="M158.892 24.3201C163.852 24.3201 167.564 20.4161 167.564 15.4561C167.564 10.4641 163.852 6.5921 158.892 6.5921C153.932 6.5921 150.22 10.4641 150.22 15.4561C150.22 20.4161 153.932 24.3201 158.892 24.3201ZM158.892 20.3841C156.684 20.3841 154.796 18.6241 154.796 15.4561C154.796 12.2881 156.684 10.5601 158.892 10.5601C161.1 10.5601 162.988 12.2881 162.988 15.4561C162.988 18.6241 161.1 20.3841 158.892 20.3841Z" fill="#C0C0C0"/>
<path d="M178.198 24.3201C183.158 24.3201 186.87 20.4161 186.87 15.4561C186.87 10.4641 183.158 6.5921 178.198 6.5921C173.238 6.5921 169.526 10.4641 169.526 15.4561C169.526 20.4161 173.238 24.3201 178.198 24.3201ZM178.198 20.3841C175.99 20.3841 174.102 18.6241 174.102 15.4561C174.102 12.2881 175.99 10.5601 178.198 10.5601C180.406 10.5601 182.294 12.2881 182.294 15.4561C182.294 18.6241 180.406 20.3841 178.198 20.3841Z" fill="#C0C0C0"/>
<path d="M194.4 14.6881C194.4 11.9361 195.904 10.5281 197.664 10.5281C199.68 10.5281 200.672 11.9361 200.672 14.4641V24.0001H205.088V12.9601C205.088 8.8321 202.72 6.5921 199.296 6.5921C197.056 6.5921 195.296 7.6481 194.048 9.3441V6.9121H189.952V24.0001H194.4V14.6881Z" fill="#C0C0C0"/>
</svg>
