<svg width="324" height="319" viewBox="0 0 324 319" fill="none" xmlns="http://www.w3.org/2000/svg">
<g clip-path="url(#clip0_741_7542)">
<path d="M78.6227 121.858C78.5378 121.858 78.453 121.824 78.3882 121.755L72.393 115.422C72.3622 115.39 72.3378 115.351 72.3211 115.308C72.3045 115.266 72.2959 115.22 72.2959 115.174C72.2959 115.128 72.3045 115.083 72.3211 115.04C72.3378 114.998 72.3622 114.959 72.393 114.927C72.4238 114.894 72.4604 114.868 72.5006 114.851C72.5408 114.833 72.584 114.824 72.6275 114.824C72.6711 114.824 72.7142 114.833 72.7544 114.851C72.7946 114.868 72.8312 114.894 72.862 114.927L78.8571 121.26C78.9036 121.309 78.9354 121.371 78.9482 121.439C78.9611 121.507 78.9546 121.578 78.9295 121.642C78.9044 121.706 78.8618 121.761 78.8072 121.799C78.7526 121.838 78.6884 121.858 78.6227 121.858ZM95.2333 121.858C95.1676 121.858 95.1034 121.838 95.0488 121.799C94.9942 121.761 94.9517 121.706 94.9265 121.642C94.9014 121.578 94.8949 121.507 94.9077 121.439C94.9206 121.371 94.9522 121.309 94.9987 121.26L100.994 114.927C101.025 114.894 101.061 114.868 101.101 114.851C101.142 114.833 101.185 114.824 101.228 114.824C101.272 114.824 101.315 114.833 101.355 114.851C101.395 114.868 101.432 114.894 101.463 114.927C101.494 114.959 101.518 114.998 101.535 115.04C101.551 115.083 101.56 115.129 101.56 115.175C101.56 115.221 101.551 115.266 101.535 115.309C101.518 115.351 101.494 115.39 101.463 115.422L95.4677 121.755C95.4369 121.788 95.4004 121.814 95.3602 121.831C95.3199 121.849 95.2768 121.858 95.2333 121.858ZM86.8118 119.195C86.7239 119.195 86.6395 119.158 86.5773 119.092C86.5151 119.026 86.4802 118.937 86.4802 118.844V110.086C86.4802 109.994 86.5151 109.904 86.5773 109.839C86.6395 109.773 86.7239 109.736 86.8118 109.736C86.8998 109.736 86.9842 109.773 87.0464 109.839C87.1086 109.904 87.1435 109.994 87.1435 110.086V118.844C87.1435 118.937 87.1086 119.026 87.0464 119.092C86.9842 119.158 86.8998 119.195 86.8118 119.195Z" fill="black"/>
</g>
<g clip-path="url(#clip1_741_7542)">
<path d="M215.859 72.8391C201.583 49.69 146.789 56.2504 185.378 116.064C185.378 116.064 158.644 147.7 178.752 164.281C178.752 164.281 174.708 186.28 210.991 188.879C247.273 191.479 294.224 188.879 278.643 142.577C275.332 134.129 267.81 127.223 268.845 122.345C270.575 114.188 285.05 44.5108 215.859 72.8391Z" fill="#6F5490"/>
<path d="M243.52 189.228C236.939 189.228 230.109 188.187 223.594 186.149C215.304 185.552 207.776 184.047 201.222 181.675C195.961 179.771 191.311 177.308 187.4 174.353C181.096 169.591 178.798 165.164 178.482 164.511C174.009 160.798 171.495 156.037 171.009 150.359C170.293 141.981 174.174 133.033 177.556 127.002C180.772 121.267 184.16 117.007 184.952 116.037C178.452 105.922 174.257 96.7526 172.483 88.7808C170.902 81.6718 171.249 75.6197 173.516 70.7923C176.463 64.5148 182.691 60.636 190.603 60.1504C195.384 59.8573 200.49 60.8584 204.984 62.97C209.671 65.1731 213.471 68.4315 215.991 72.4041C237.283 63.7351 252.736 63.5403 261.922 71.826C265.38 74.9445 267.949 79.2884 269.558 84.7367C270.869 89.1806 271.556 94.3956 271.597 100.237C271.631 104.987 271.238 112.691 269.175 122.422C268.614 125.066 270.208 127.486 272.416 130.834C274.094 133.381 276.183 136.55 277.977 140.809C285.683 159.109 281.059 170.398 275.822 176.647C270.774 182.672 262.977 186.742 253.275 188.417C250.137 188.959 246.861 189.228 243.52 189.228ZM192.254 60.81C191.714 60.81 191.176 60.8262 190.643 60.859C182.98 61.3292 176.958 65.0643 174.121 71.1064C171.926 75.7825 171.596 81.6747 173.141 88.6192C174.909 96.5655 179.12 105.732 185.657 115.864C185.744 115.999 185.733 116.178 185.63 116.299C185.592 116.345 181.752 120.915 178.132 127.374C174.803 133.313 170.982 142.111 171.682 150.297C172.153 155.797 174.601 160.408 178.96 164.002C179 164.036 179.033 164.079 179.056 164.128C179.077 164.175 181.274 168.865 187.839 173.81C191.697 176.717 196.287 179.142 201.482 181.018C207.981 183.365 215.448 184.854 223.678 185.444C223.703 185.446 223.728 185.45 223.752 185.458C244.17 191.857 265.374 188.041 275.315 176.178C280.421 170.085 284.92 159.052 277.359 141.097C275.591 136.899 273.523 133.76 271.86 131.239C269.555 127.742 267.89 125.215 268.515 122.268C270.565 112.602 270.955 104.955 270.922 100.243C270.881 94.4705 270.204 89.3244 268.912 84.947C267.342 79.6282 264.842 75.395 261.482 72.3646C252.463 64.2303 237.154 64.5011 215.981 73.1696C215.909 73.1995 215.829 73.2021 215.755 73.1769C215.681 73.1518 215.617 73.1006 215.575 73.0319C213.129 69.0649 209.371 65.8094 204.708 63.618C200.813 61.788 196.449 60.81 192.254 60.81Z" fill="black"/>
<path d="M189.952 174.78C189.706 183.384 174.084 198.523 192.764 211.952C208.288 223.115 229.699 213.47 236.176 207.849C248.596 197.074 235.399 154.218 234.444 149.896C234.467 146.391 232.803 137.289 215.413 137.289C198.024 137.289 195.643 146.543 195.76 149.895L189.952 174.78Z" fill="#92ACEF"/>
<path d="M209.592 217.45C204.148 217.45 198.083 216.206 192.573 212.245C186.44 207.836 183.396 202.858 183.267 197.027C183.156 192.007 185.209 187.202 187.021 182.962C188.378 179.787 189.55 177.045 189.615 174.769C189.615 174.744 189.619 174.72 189.624 174.695L195.421 149.858C195.394 148.85 195.554 145.584 198.383 142.5C201.77 138.807 207.5 136.934 215.413 136.934C223.025 136.934 228.515 138.66 231.731 142.063C234.389 144.875 234.786 148.135 234.782 149.855C234.883 150.302 235.105 151.133 235.409 152.271C236.738 157.248 239.852 168.903 241.177 180.304C242.835 194.569 241.225 203.929 236.391 208.123C232.972 211.09 225.937 214.844 217.929 216.542C215.482 217.061 212.634 217.45 209.592 217.45ZM190.289 174.829C190.208 177.236 189.016 180.026 187.637 183.253C184.057 191.632 179.601 202.059 192.955 211.659C201.348 217.694 211.096 217.267 217.796 215.846C225.689 214.172 232.607 210.486 235.96 207.576C240.605 203.546 242.135 194.399 240.506 180.39C239.187 169.043 236.084 157.424 234.758 152.463C234.443 151.281 234.215 150.427 234.115 149.976C234.109 149.949 234.106 149.921 234.106 149.893C234.116 148.295 233.759 145.217 231.252 142.563C228.167 139.299 222.838 137.644 215.413 137.644C207.691 137.644 202.125 139.444 198.869 142.992C196.176 145.928 196.067 149.008 196.097 149.882C196.098 149.915 196.095 149.948 196.088 149.98L190.289 174.829Z" fill="black"/>
<path d="M195.76 149.896L215.223 213.096C204.222 201.307 194.007 192.338 188.715 183.274L195.445 176.309L185.622 175.845C185.679 169.305 186.728 158.427 187.718 152.901C190.112 151.518 192.815 150.546 195.76 149.896Z" fill="white"/>
<path d="M177.883 112.715C177.883 104.77 184.281 98.3289 192.175 98.3289C200.069 98.3289 206.467 104.77 206.467 112.715C206.467 120.66 200.069 127.101 192.175 127.101C184.281 127.101 177.883 120.66 177.883 112.715Z" fill="#FFAAC3"/>
<path d="M182.028 194.446L170.049 256.434L263.717 256.33L246.715 187.421L236.324 169.358L217.009 208.195L192.139 164.494L182.028 194.446Z" fill="white"/>
<path d="M170.048 256.789C169.998 256.789 169.948 256.777 169.903 256.755C169.858 256.732 169.818 256.699 169.786 256.658C169.755 256.618 169.732 256.57 169.72 256.519C169.708 256.468 169.707 256.415 169.717 256.363L181.696 194.376C181.705 194.33 181.722 194.287 181.747 194.248C181.771 194.209 181.803 194.176 181.84 194.15C181.877 194.125 181.919 194.107 181.962 194.098C182.006 194.089 182.051 194.089 182.094 194.099C182.182 194.117 182.259 194.172 182.308 194.25C182.358 194.329 182.376 194.425 182.358 194.517L170.461 256.078L263.279 255.976L246.387 187.51C246.376 187.465 246.373 187.418 246.38 187.372C246.386 187.326 246.4 187.282 246.423 187.241C246.445 187.201 246.475 187.166 246.511 187.138C246.546 187.11 246.586 187.089 246.629 187.078C246.672 187.066 246.717 187.063 246.761 187.07C246.805 187.076 246.847 187.092 246.885 187.115C246.924 187.139 246.957 187.17 246.984 187.208C247.01 187.245 247.03 187.287 247.041 187.332L264.043 256.241C264.056 256.293 264.057 256.348 264.047 256.401C264.036 256.454 264.014 256.504 263.983 256.547C263.951 256.59 263.911 256.625 263.865 256.648C263.819 256.672 263.768 256.685 263.716 256.685L170.048 256.789L170.048 256.789Z" fill="black"/>
<path d="M195.76 149.896C187.015 151.178 163.544 162.82 154.808 212.397C149.349 243.373 153.449 256.434 170.048 256.434C186.648 256.434 199.92 233.91 201.607 187.346L195.76 149.896Z" fill="white"/>
<path d="M192.175 127.456C184.108 127.456 177.545 120.843 177.545 112.715C177.545 104.587 184.108 97.9741 192.175 97.9741C200.242 97.9741 206.805 104.587 206.805 112.715C206.805 120.843 200.242 127.456 192.175 127.456ZM192.175 98.6839C184.48 98.6839 178.22 104.978 178.22 112.715C178.22 120.452 184.48 126.746 192.175 126.746C199.869 126.746 206.129 120.452 206.129 112.715C206.129 104.978 199.869 98.6839 192.175 98.6839Z" fill="black"/>
<path d="M225.062 129.838L224.914 150.607C214.4 160.668 204.638 151.482 204.638 151.482L204.582 131.332L225.062 129.838Z" fill="#FFAAC3"/>
<path d="M215.224 213.451C215.179 213.451 215.134 213.442 215.093 213.424C215.051 213.405 215.014 213.378 214.982 213.345C211.872 210.011 208.851 206.931 205.93 203.952C198.586 196.463 192.243 189.996 188.427 183.46C188.387 183.391 188.37 183.311 188.379 183.231C188.389 183.151 188.423 183.077 188.478 183.021L194.656 176.628L185.607 176.2C185.519 176.196 185.437 176.156 185.377 176.089C185.317 176.023 185.283 175.934 185.284 175.842C185.343 169.054 186.443 158.097 187.386 152.835C187.404 152.745 187.456 152.665 187.529 152.614C187.603 152.563 187.692 152.544 187.779 152.561C187.866 152.578 187.942 152.63 187.993 152.706C188.044 152.782 188.064 152.875 188.05 152.967C187.128 158.112 186.055 168.734 185.964 175.506L195.46 175.955C195.526 175.958 195.589 175.981 195.643 176.022C195.696 176.062 195.737 176.118 195.76 176.183C195.784 176.247 195.789 176.317 195.775 176.385C195.761 176.452 195.729 176.514 195.682 176.563L189.144 183.328C192.931 189.708 199.179 196.08 206.4 203.443C209.01 206.104 211.699 208.846 214.463 211.78L195.439 150.005C195.412 149.916 195.42 149.819 195.461 149.736C195.502 149.653 195.573 149.59 195.657 149.561C195.742 149.533 195.834 149.54 195.914 149.582C195.993 149.624 196.053 149.698 196.082 149.786L215.545 212.987C215.561 213.04 215.565 213.097 215.557 213.152C215.549 213.207 215.528 213.26 215.497 213.305C215.465 213.35 215.424 213.387 215.377 213.413C215.329 213.438 215.277 213.451 215.224 213.451ZM214.403 155.664C213.046 155.664 211.812 155.455 210.747 155.16C206.958 154.112 204.515 151.842 204.413 151.746C204.378 151.713 204.35 151.672 204.33 151.627C204.311 151.582 204.301 151.533 204.301 151.483L204.244 131.333C204.244 131.286 204.253 131.24 204.27 131.197C204.286 131.154 204.311 131.115 204.343 131.081C204.374 131.048 204.411 131.022 204.452 131.004C204.493 130.986 204.537 130.977 204.581 130.977H204.582C204.672 130.977 204.757 131.014 204.821 131.08C204.884 131.147 204.92 131.237 204.92 131.331L204.976 151.317C205.492 151.765 207.746 153.602 210.945 154.481C215.76 155.803 220.346 154.446 224.578 150.448L224.725 129.835C224.725 129.741 224.761 129.652 224.825 129.586C224.888 129.52 224.973 129.483 225.063 129.483H225.065C225.109 129.483 225.153 129.493 225.194 129.511C225.235 129.529 225.272 129.555 225.303 129.589C225.334 129.622 225.359 129.661 225.376 129.704C225.392 129.747 225.401 129.794 225.4 129.84L225.252 150.61C225.252 150.659 225.242 150.707 225.223 150.752C225.204 150.796 225.176 150.837 225.142 150.87C221.281 154.563 217.517 155.664 214.403 155.664Z" fill="black"/>
<path d="M203.837 83.6553C203.837 83.6553 190.474 89.9883 190.407 110.02C190.343 130.052 202.425 136.958 213.119 137.005C227.837 137.071 233.249 123.443 233.249 123.443C233.249 123.443 244.161 132.269 254.547 124.837C263.788 118.222 262.829 108.25 259.272 103.724C254.9 98.1612 242.099 93.1475 235.025 102.647C235.025 102.647 219.541 107.192 203.837 83.6553Z" fill="#FFAAC3"/>
<path d="M234.444 149.896C257.351 153.122 275.642 182.135 282.956 200.649C294.058 234.616 286.316 255.357 263.716 256.33C252.671 256.806 213.807 256.238 214.345 233.424C214.93 208.665 239.423 211.64 252.715 215.52L242.447 197.976L234.444 149.896Z" fill="white"/>
<path d="M270.151 138.446C270.083 138.446 270.015 138.424 269.959 138.383C269.902 138.342 269.859 138.284 269.835 138.216C267.84 132.624 267.455 128.217 268.462 122.496C268.48 122.405 268.53 122.324 268.604 122.272C268.677 122.219 268.768 122.2 268.855 122.217C268.942 122.234 269.02 122.286 269.07 122.363C269.121 122.439 269.141 122.533 269.126 122.625C268.132 128.279 268.495 132.437 270.468 137.967C270.487 138.02 270.493 138.078 270.486 138.135C270.48 138.192 270.46 138.246 270.429 138.293C270.398 138.341 270.356 138.379 270.308 138.406C270.26 138.432 270.206 138.446 270.151 138.446ZM170.048 256.789C163.882 256.789 159.471 255.004 156.564 251.331C153.979 248.065 152.572 243.306 152.262 236.782C151.963 230.482 152.687 222.485 154.476 212.333C156.511 200.782 159.499 190.491 163.356 181.747C166.634 174.316 170.562 167.94 175.032 162.797C184.474 151.929 193.249 149.905 195.714 149.544C195.801 149.533 195.89 149.559 195.96 149.615C196.03 149.672 196.076 149.755 196.088 149.847C196.1 149.939 196.078 150.033 196.025 150.108C195.972 150.182 195.894 150.232 195.807 150.247C193.399 150.6 184.821 152.583 175.53 163.275C171.108 168.365 167.218 174.681 163.969 182.046C160.136 190.736 157.165 200.97 155.14 212.462C153.361 222.559 152.64 230.503 152.936 236.746C153.239 243.112 154.595 247.734 157.083 250.877C159.854 254.377 164.095 256.079 170.048 256.079C170.138 256.079 170.224 256.116 170.287 256.183C170.351 256.249 170.386 256.34 170.386 256.434C170.386 256.528 170.351 256.618 170.287 256.685C170.224 256.751 170.138 256.789 170.048 256.789Z" fill="black"/>
<path d="M234.444 149.896L214.981 213.096C225.983 201.307 236.198 192.338 241.49 183.274L234.76 176.309L244.583 175.845C243.988 168.754 243.277 158.239 242.562 152.163C240.095 151.072 237.089 150.336 234.444 149.896Z" fill="white"/>
<path d="M214.981 213.451C214.928 213.451 214.875 213.438 214.828 213.412C214.781 213.387 214.74 213.35 214.708 213.305C214.677 213.26 214.656 213.207 214.648 213.152C214.639 213.097 214.644 213.04 214.66 212.987L234.123 149.786C234.151 149.698 234.212 149.624 234.291 149.582C234.371 149.54 234.463 149.532 234.547 149.561C234.632 149.59 234.702 149.653 234.743 149.736C234.784 149.819 234.792 149.916 234.766 150.005L215.742 211.779C218.505 208.846 221.195 206.104 223.805 203.442C231.025 196.08 237.273 189.708 241.061 183.328L234.523 176.562C234.476 176.514 234.443 176.452 234.429 176.385C234.415 176.317 234.42 176.247 234.444 176.182C234.467 176.118 234.508 176.062 234.562 176.021C234.615 175.981 234.679 175.958 234.744 175.955L244.215 175.507C244.046 173.464 243.868 171.174 243.681 168.757C243.233 162.987 242.726 156.447 242.227 152.206C242.219 152.115 242.246 152.024 242.301 151.952C242.356 151.881 242.436 151.834 242.522 151.823C242.609 151.812 242.697 151.836 242.767 151.892C242.837 151.947 242.884 152.029 242.898 152.119C243.398 156.375 243.906 162.923 244.354 168.699C244.553 171.261 244.74 173.681 244.919 175.814C244.923 175.862 244.918 175.91 244.904 175.955C244.89 176.001 244.867 176.043 244.837 176.079C244.807 176.115 244.77 176.144 244.729 176.165C244.688 176.186 244.643 176.198 244.598 176.2L235.549 176.628L241.727 183.021C241.839 183.137 241.86 183.319 241.778 183.459C237.961 189.996 231.619 196.463 224.275 203.952C221.354 206.931 218.333 210.011 215.222 213.345C215.191 213.378 215.153 213.405 215.112 213.423C215.071 213.442 215.026 213.451 214.981 213.451Z" fill="black"/>
<path d="M258.837 256.796C254.208 256.796 247.575 256.514 240.628 255.284C230.365 253.468 222.937 250.213 218.552 245.608C215.333 242.228 213.804 238.123 214.008 233.408C214.346 225.58 216.675 220.142 221.128 216.783C224.962 213.891 230.293 212.586 237.424 212.796C244.51 213.004 253.227 214.701 264.073 217.985C264.157 218.012 264.228 218.074 264.27 218.155C264.312 218.237 264.321 218.333 264.297 218.422C264.272 218.511 264.216 218.586 264.139 218.632C264.062 218.678 263.971 218.69 263.886 218.667C253.095 215.4 244.433 213.712 237.405 213.506C230.426 213.301 225.231 214.562 221.521 217.36C217.248 220.583 215.011 225.843 214.683 233.44C214.488 237.948 215.951 241.873 219.03 245.106C223.314 249.604 230.618 252.793 240.74 254.585C250.765 256.359 260.137 256.148 263.7 255.976C272.817 255.533 279.418 252.003 283.321 245.483C287.837 237.936 287.901 227.69 287.16 220.424C286.247 211.481 283.892 203.873 282.645 200.788C277.626 188.38 270.608 176.743 262.883 168.021C258.576 163.158 254.066 159.195 249.479 156.243C244.509 153.044 239.434 151.027 234.395 150.247C234.21 150.219 234.082 150.038 234.11 149.844C234.137 149.65 234.31 149.518 234.493 149.545C239.623 150.339 244.784 152.389 249.832 155.638C254.471 158.624 259.029 162.627 263.378 167.537C271.155 176.318 278.218 188.028 283.266 200.511C284.529 203.632 286.91 211.322 287.832 220.348C288.584 227.726 288.512 238.141 283.892 245.861C279.865 252.59 273.082 256.231 263.731 256.685C262.615 256.739 260.931 256.796 258.837 256.796ZM213.223 137.36L213.117 137.36C207.052 137.333 201.505 135.169 197.499 131.267C195.168 128.996 193.355 126.151 192.11 122.81C190.741 119.133 190.054 114.829 190.07 110.019C190.104 99.5625 193.798 92.8684 196.891 89.094C200.25 84.9944 203.559 83.3975 203.698 83.3315C203.769 83.2975 203.85 83.2908 203.926 83.3127C204.002 83.3346 204.068 83.3836 204.113 83.4513C207.664 88.7737 211.496 93.0767 215.502 96.2406C218.701 98.7668 222.017 100.577 225.359 101.62C229.798 103.005 233.426 102.706 234.829 102.334C237.441 98.8803 241.074 97.0245 245.342 96.9654C251.22 96.8833 256.933 100.19 259.532 103.498C261.57 106.09 262.522 110.019 262.017 113.751C261.595 116.866 259.99 121.37 254.737 125.13C249.262 129.048 243.65 128.455 239.906 127.267C236.64 126.231 234.244 124.615 233.385 123.985C232.924 124.997 231.54 127.734 228.943 130.498C225.998 133.633 220.884 137.36 213.223 137.36ZM203.727 84.1084C202.898 84.5606 200.126 86.2245 197.38 89.5849C194.372 93.2665 190.779 99.8003 190.745 110.021C190.716 119.083 193.143 126.056 197.958 130.746C201.84 134.527 207.225 136.624 213.12 136.65L213.222 136.651C220.64 136.651 225.592 133.049 228.444 130.019C231.562 126.708 232.924 123.34 232.937 123.306C232.957 123.256 232.988 123.211 233.027 123.176C233.066 123.14 233.112 123.114 233.162 123.1C233.212 123.086 233.265 123.085 233.315 123.095C233.366 123.106 233.414 123.129 233.455 123.162C233.482 123.184 236.196 125.353 240.122 126.594C245.355 128.248 250.144 127.558 254.357 124.543C259.406 120.929 260.946 116.625 261.348 113.651C261.827 110.11 260.932 106.393 259.011 103.95C256.544 100.811 251.152 97.6742 245.557 97.6742C245.488 97.6742 245.419 97.6746 245.351 97.6756C241.256 97.7321 237.777 99.527 235.291 102.866C235.256 102.913 235.21 102.95 235.158 102.973C235.127 102.988 231.164 104.157 225.224 102.318C221.798 101.258 218.402 99.4134 215.132 96.8366C211.119 93.674 207.283 89.3929 203.727 84.1084Z" fill="black"/>
<path d="M218.706 188.776L184.233 221.135L175.45 224.059L179.202 215.217L213.675 182.858L218.706 188.776Z" fill="#EF4910"/>
<path d="M175.45 224.414C175.394 224.414 175.338 224.399 175.289 224.371C175.239 224.342 175.197 224.302 175.167 224.252C175.136 224.202 175.118 224.145 175.113 224.086C175.109 224.027 175.119 223.968 175.142 223.914L178.893 215.073C178.912 215.027 178.941 214.986 178.977 214.953L213.45 182.593C213.517 182.531 213.605 182.499 213.694 182.504C213.783 182.509 213.867 182.552 213.927 182.622L218.958 188.539C218.988 188.574 219.01 188.615 219.025 188.659C219.04 188.703 219.046 188.749 219.043 188.796C219.041 188.843 219.03 188.888 219.01 188.93C218.991 188.972 218.964 189.01 218.931 189.041L184.458 221.4C184.422 221.433 184.38 221.458 184.335 221.474L175.552 224.397C175.519 224.408 175.485 224.414 175.45 224.414ZM179.481 215.431L176.065 223.482L184.062 220.82L218.229 188.748L213.648 183.359L179.481 215.431Z" fill="black"/>
<path d="M175.45 224.059L178.898 223.043L176.888 220.682L175.45 224.059ZM184.086 221.309C184.011 221.309 183.939 221.283 183.88 221.235C183.821 221.187 183.779 221.121 183.759 221.045C183.75 221.008 182.773 217.315 179.106 215.618C179.065 215.599 179.029 215.572 178.998 215.539C178.967 215.505 178.943 215.465 178.927 215.422C178.911 215.378 178.903 215.332 178.904 215.286C178.905 215.239 178.915 215.193 178.933 215.15C178.951 215.108 178.976 215.069 179.008 215.037C179.04 215.005 179.078 214.979 179.119 214.962C179.161 214.945 179.205 214.937 179.249 214.938C179.294 214.939 179.337 214.95 179.378 214.968C183.353 216.807 184.371 220.698 184.413 220.863C184.426 220.916 184.427 220.971 184.417 221.024C184.407 221.077 184.385 221.128 184.354 221.171C184.322 221.214 184.281 221.249 184.235 221.273C184.188 221.297 184.137 221.309 184.086 221.309Z" fill="black"/>
<path d="M186.292 222.938C187.038 225.656 190.104 228.93 193.202 231.082C198.637 234.857 203.738 231.458 201.124 226.537C198.461 221.519 198.101 220.052 195.665 215.668C192.33 209.667 183.826 213.962 186.292 222.938Z" fill="#FFAAC3"/>
<path d="M197.777 233.05C197.717 233.05 197.657 233.049 197.596 233.047C196.109 233.003 194.525 232.426 193.016 231.378C190.09 229.346 186.776 225.978 185.967 223.036C185.319 220.677 185.365 218.443 186.099 216.574C186.753 214.911 187.912 213.636 189.363 212.982C190.517 212.463 191.78 212.391 192.919 212.78C194.156 213.203 195.207 214.139 195.957 215.489C197.246 217.808 197.966 219.336 198.729 220.954C199.434 222.449 200.162 223.996 201.42 226.364C202.539 228.473 202.399 230.52 201.044 231.841C200.241 232.624 199.086 233.05 197.777 233.05ZM186.616 222.84C187.164 224.835 189.471 228.065 193.389 230.786C195.566 232.299 198.747 233.112 200.584 231.321C201.696 230.238 201.787 228.514 200.829 226.71C199.564 224.327 198.832 222.772 198.123 221.269C197.366 219.663 196.651 218.145 195.374 215.847C194.078 213.516 191.823 212.647 189.629 213.635C186.241 215.161 185.692 219.476 186.616 222.84Z" fill="black"/>
<path d="M186.292 222.938C185.098 217.559 186.832 213.716 191.581 212.3C189.464 208.44 192.488 202.815 197.005 203.358C198.208 190.906 213.237 196.784 222.226 204.25C226.683 207.952 232.26 215.685 232.483 224.194C232.718 233.183 224.747 240.978 215.778 238.761C209.765 237.275 204.028 233.166 198.727 228.301C196.226 226.005 193.89 223.499 190.927 222.296L186.292 222.938Z" fill="#FFAAC3"/>
<path d="M218.353 239.35C217.481 239.35 216.6 239.272 215.72 239.111C209.875 238.048 204.439 233.682 198.921 228.916C196.13 226.505 193.694 224.707 190.773 222.904C190.735 222.88 190.701 222.849 190.674 222.812C190.648 222.775 190.628 222.732 190.617 222.687C190.595 222.596 190.607 222.499 190.653 222.418C190.698 222.337 190.772 222.278 190.859 222.254C190.946 222.231 191.038 222.244 191.115 222.292C194.068 224.115 196.53 225.932 199.35 228.367C204.795 233.07 210.153 237.378 215.835 238.412C220.089 239.185 224.352 237.973 227.529 235.084C230.569 232.319 232.252 228.354 232.145 224.204C231.884 214.089 224.59 206.862 223.131 205.516C216.72 199.603 206.793 194.85 201.28 197.129C198.976 198.081 197.651 200.189 197.341 203.394C197.337 203.441 197.323 203.486 197.302 203.527C197.281 203.569 197.252 203.605 197.217 203.634C197.146 203.694 197.056 203.722 196.967 203.711C195.092 203.486 193.309 204.41 192.2 206.186C191.041 208.041 190.913 210.372 191.874 212.123C191.926 212.218 191.933 212.332 191.894 212.434C191.855 212.535 191.773 212.612 191.673 212.642C187.182 213.981 185.434 217.513 186.621 222.857C186.638 222.948 186.622 223.042 186.574 223.12C186.527 223.197 186.452 223.253 186.366 223.274C186.281 223.295 186.191 223.28 186.115 223.232C186.04 223.185 185.985 223.108 185.963 223.019C184.734 217.484 186.555 213.618 191.093 212.085C190.224 210.158 190.422 207.739 191.636 205.796C192.821 203.898 194.697 202.86 196.707 202.976C197.106 199.678 198.56 197.49 201.032 196.468C202.926 195.685 206.37 195.237 212.024 197.549C216.013 199.181 220.223 201.89 223.577 204.983C225.073 206.363 232.552 213.774 232.82 224.185C232.933 228.548 231.165 232.716 227.971 235.621C225.298 238.051 221.895 239.35 218.353 239.35Z" fill="black"/>
<path d="M207.897 208.35L199.617 205.568C199.617 205.568 199.294 204.774 192.981 207.499C185.786 210.605 183.886 203.416 186.993 200.157C190.302 196.688 194.02 195.318 197.928 194.843C202.843 194.247 212.123 197.907 212.123 197.907L207.897 208.35Z" fill="#FFAAC3"/>
<path d="M207.898 208.705C207.864 208.705 207.829 208.7 207.795 208.688L199.515 205.906C199.469 205.891 199.427 205.866 199.391 205.832C199.236 205.791 198.138 205.657 193.11 207.827C188.586 209.78 186.62 207.656 185.984 206.652C184.717 204.651 185.056 201.688 186.755 199.906C189.724 196.792 193.448 195.002 198.14 194.433C203.083 193.832 211.854 197.484 212.225 197.639C212.266 197.656 212.304 197.682 212.336 197.714C212.368 197.747 212.394 197.786 212.412 197.829C212.43 197.872 212.439 197.918 212.44 197.965C212.44 198.012 212.432 198.058 212.416 198.102C212.399 198.145 212.375 198.185 212.343 198.218C212.312 198.252 212.275 198.278 212.234 198.297C212.193 198.315 212.149 198.325 212.104 198.325C212.06 198.325 212.016 198.316 211.974 198.299C211.885 198.261 202.99 194.56 198.218 195.138C193.683 195.688 190.09 197.412 187.232 200.408C185.753 201.96 185.452 204.53 186.547 206.259C187.09 207.117 188.792 208.924 192.853 207.171C196.821 205.458 199.147 204.815 199.782 205.251L208.001 208.012C208.078 208.038 208.143 208.092 208.185 208.164C208.228 208.236 208.244 208.321 208.232 208.405C208.219 208.489 208.179 208.565 208.118 208.62C208.056 208.675 207.978 208.705 207.898 208.705ZM199.309 205.713L199.309 205.713L199.309 205.713ZM199.308 205.711L199.309 205.712L199.308 205.711ZM199.308 205.71C199.308 205.71 199.308 205.711 199.308 205.711L199.308 205.71ZM199.307 205.709C199.308 205.709 199.308 205.71 199.308 205.71L199.307 205.709ZM199.307 205.708L199.307 205.709L199.307 205.708Z" fill="black"/>
<path d="M204.613 219.68C204.613 219.68 192.325 212.968 191.581 212.301C190.838 211.633 189.405 203.664 197.005 203.358C204.606 203.053 214.118 209.401 214.118 209.401L204.613 219.68Z" fill="#FFAAC3"/>
<path d="M204.612 220.035C204.56 220.035 204.507 220.022 204.457 219.995C203.195 219.306 192.113 213.245 191.361 212.57C190.782 212.05 190.232 209.348 191.002 207.021C191.579 205.275 193.087 203.161 196.992 203.004C199.196 202.914 202.988 203.352 208.548 205.94C211.861 207.482 214.274 209.085 214.298 209.101C214.336 209.126 214.369 209.158 214.396 209.196C214.422 209.234 214.441 209.278 214.451 209.324C214.461 209.369 214.462 209.417 214.455 209.463C214.447 209.51 214.431 209.554 214.407 209.594C214.383 209.634 214.351 209.668 214.315 209.695C214.278 209.722 214.236 209.741 214.193 209.751C214.149 209.761 214.104 209.761 214.06 209.753C214.016 209.744 213.974 209.726 213.936 209.7C213.842 209.637 204.428 203.412 197.018 203.713C194.235 203.825 192.438 204.982 191.675 207.151C190.896 209.365 191.517 211.755 191.801 212.031C192.324 212.502 199.843 216.675 204.768 219.365C204.836 219.401 204.889 219.461 204.921 219.533C204.952 219.605 204.959 219.687 204.941 219.764C204.923 219.841 204.881 219.91 204.821 219.959C204.761 220.008 204.688 220.035 204.612 220.035Z" fill="black"/>
<path d="M206.707 218.58C206.707 218.58 199.603 213.355 191.305 212.43L191.029 220.299L204.13 227.334L206.707 218.58Z" fill="#FFAAC3"/>
<path d="M207.137 218.006C207.076 218.006 207.015 217.989 206.959 217.953C206.865 217.892 197.514 211.834 191.354 212.781C191.266 212.794 191.176 212.77 191.105 212.714C191.033 212.658 190.986 212.574 190.973 212.481C190.96 212.389 190.983 212.294 191.036 212.219C191.089 212.144 191.168 212.093 191.256 212.079C193.955 211.664 197.482 212.426 201.738 214.348C204.889 215.77 207.292 217.335 207.316 217.35C207.378 217.391 207.426 217.452 207.453 217.524C207.479 217.596 207.482 217.675 207.462 217.749C207.442 217.823 207.399 217.889 207.341 217.935C207.282 217.981 207.211 218.007 207.137 218.006ZM237.312 118.448C237.254 118.448 237.197 118.432 237.146 118.402C237.095 118.372 237.053 118.328 237.023 118.276C236.993 118.224 236.976 118.164 236.975 118.103C236.973 118.042 236.987 117.981 237.014 117.927C237.073 117.81 238.488 115.03 241.363 112.013C244.021 109.223 248.47 105.723 254.576 104.886C254.76 104.863 254.93 104.998 254.954 105.193C254.966 105.286 254.942 105.38 254.887 105.455C254.832 105.529 254.752 105.578 254.663 105.591C248.755 106.4 244.437 109.794 241.857 112.499C239.048 115.442 237.625 118.231 237.611 118.259C237.582 118.316 237.539 118.364 237.486 118.397C237.434 118.43 237.374 118.448 237.312 118.448Z" fill="black"/>
<path d="M171.891 232.119C175.663 247.242 164.905 256.786 147.3 251.353L137.371 233.071C137.371 233.071 146.1 237.297 150.049 229.804C155.141 220.142 141.033 208.755 147.664 204.513C152.456 201.758 155.349 207.55 161.167 217.197C164.188 222.207 170.309 225.778 171.891 232.119Z" fill="#FFAAC3"/>
<path d="M156.676 253.242C153.754 253.242 150.564 252.73 147.205 251.694C147.121 251.668 147.05 251.609 147.006 251.529L137.078 233.247C137.042 233.182 137.027 233.107 137.035 233.032C137.043 232.957 137.074 232.887 137.122 232.831C137.17 232.776 137.234 232.738 137.304 232.723C137.374 232.708 137.447 232.717 137.512 232.749C137.534 232.759 139.681 233.783 142.263 233.894C145.666 234.039 148.186 232.606 149.754 229.632C152.279 224.839 149.91 219.577 147.819 214.934C146.82 212.716 145.877 210.62 145.6 208.816C145.28 206.734 145.898 205.227 147.488 204.21C147.493 204.207 147.497 204.204 147.502 204.202C152.183 201.51 155.16 206.488 160.091 214.737C160.527 215.467 160.98 216.224 161.452 217.007C162.592 218.898 164.162 220.559 165.824 222.319C168.477 225.126 171.22 228.03 172.217 232.029C173.926 238.879 172.759 244.804 168.93 248.711C165.994 251.708 161.737 253.242 156.676 253.242ZM147.525 251.053C156.405 253.76 164.029 252.724 168.46 248.202C172.106 244.481 173.208 238.801 171.564 232.209C170.613 228.395 167.935 225.56 165.345 222.819C163.73 221.11 162.06 219.343 160.881 217.387C160.425 216.631 159.971 215.874 159.519 215.115C154.641 206.956 151.954 202.458 147.833 204.821C144.869 206.723 146.441 210.213 148.43 214.631C150.59 219.428 153.038 224.865 150.345 229.976C148.664 233.165 145.852 234.762 142.215 234.602C140.523 234.527 139.037 234.092 138.137 233.765L147.525 251.053Z" fill="black"/>
<path d="M181.657 219.26H159.994C159.502 219.26 159.023 219.087 158.635 218.768C158.248 218.449 157.973 218.003 157.855 217.5L150.981 188.315C150.817 187.619 150.964 186.896 151.384 186.331C151.805 185.767 152.437 185.443 153.119 185.443H174.783C175.275 185.442 175.754 185.615 176.141 185.934C176.529 186.253 176.804 186.7 176.922 187.202L183.796 216.388C183.96 217.084 183.813 217.806 183.393 218.371C182.972 218.936 182.34 219.26 181.657 219.26ZM153.119 186.153C152.887 186.152 152.658 186.208 152.45 186.314C152.241 186.421 152.059 186.577 151.916 186.769C151.773 186.961 151.673 187.184 151.624 187.423C151.576 187.661 151.58 187.908 151.636 188.145L158.511 217.33C158.593 217.678 158.783 217.988 159.052 218.209C159.321 218.431 159.653 218.551 159.994 218.55H181.657C182.131 218.55 182.569 218.325 182.861 217.934C183.004 217.742 183.104 217.519 183.153 217.28C183.201 217.042 183.197 216.795 183.141 216.558L176.266 187.373C176.184 187.025 175.994 186.715 175.725 186.494C175.456 186.273 175.124 186.153 174.783 186.153H153.119V186.153Z" fill="black"/>
<path d="M214.601 266.074H151.839L134.162 189.61H196.924L214.601 266.074Z" fill="#FBB348"/>
<path d="M214.601 266.429H151.839C151.764 266.429 151.69 266.402 151.631 266.353C151.571 266.304 151.529 266.235 151.511 266.158L133.834 189.694C133.822 189.641 133.821 189.587 133.832 189.534C133.843 189.482 133.865 189.433 133.896 189.39C133.928 189.348 133.968 189.314 134.014 189.291C134.06 189.267 134.111 189.255 134.162 189.255H196.924C197.079 189.255 197.215 189.367 197.252 189.526L214.929 265.99C214.941 266.042 214.942 266.097 214.931 266.149C214.92 266.202 214.898 266.251 214.866 266.293C214.835 266.336 214.794 266.37 214.748 266.393C214.702 266.417 214.652 266.429 214.601 266.429ZM152.105 265.719H214.171L196.658 189.965H134.592L152.105 265.719Z" fill="black"/>
<path d="M154.092 200.417C152.829 200.417 151.576 199.382 151.239 198.06C151.068 197.389 151.171 196.727 151.522 196.247C151.864 195.778 152.397 195.52 153.024 195.52C154.287 195.52 155.539 196.555 155.876 197.877V197.877C156.048 198.549 155.945 199.21 155.594 199.691C155.252 200.159 154.718 200.417 154.092 200.417ZM153.024 196.23C152.612 196.23 152.269 196.389 152.058 196.679C151.832 196.987 151.773 197.413 151.892 197.877C152.145 198.869 153.152 199.708 154.091 199.708C154.503 199.708 154.846 199.548 155.058 199.259C155.283 198.95 155.342 198.525 155.224 198.061V198.061C154.971 197.068 153.963 196.23 153.024 196.23ZM179.687 200.417C178.425 200.417 177.172 199.382 176.835 198.06C176.663 197.389 176.767 196.727 177.117 196.247C177.46 195.778 177.993 195.52 178.62 195.52C179.882 195.52 181.135 196.555 181.472 197.877V197.877C181.643 198.549 181.54 199.21 181.189 199.691C180.847 200.159 180.314 200.417 179.687 200.417ZM178.62 196.23C178.208 196.23 177.865 196.389 177.653 196.679C177.428 196.987 177.369 197.413 177.488 197.877C177.74 198.869 178.748 199.708 179.687 199.708C180.099 199.708 180.442 199.548 180.653 199.259C180.879 198.95 180.938 198.525 180.819 198.061V198.061C180.566 197.068 179.559 196.23 178.62 196.23ZM246.14 115.967C246.084 115.967 246.029 115.952 245.98 115.925C245.93 115.897 245.889 115.856 245.858 115.807C244.591 113.785 241.286 113.151 241.253 113.144C241.165 113.128 241.086 113.075 241.035 112.998C240.984 112.921 240.963 112.826 240.979 112.733C240.987 112.687 241.003 112.643 241.026 112.604C241.05 112.565 241.081 112.531 241.118 112.504C241.154 112.477 241.195 112.458 241.238 112.448C241.282 112.438 241.326 112.437 241.37 112.445C241.517 112.472 244.994 113.138 246.422 115.417C246.456 115.47 246.475 115.532 246.477 115.596C246.48 115.66 246.466 115.724 246.437 115.78C246.408 115.837 246.366 115.884 246.313 115.917C246.261 115.95 246.201 115.967 246.14 115.967ZM209.291 117.003C209.246 117.003 209.202 116.994 209.161 116.976C209.12 116.958 209.083 116.931 209.051 116.898C207.479 115.233 205.779 116.813 205.708 116.881C205.641 116.944 205.554 116.977 205.465 116.972C205.375 116.968 205.291 116.926 205.231 116.857C205.171 116.787 205.139 116.695 205.143 116.602C205.147 116.508 205.187 116.42 205.253 116.356C205.275 116.335 207.499 114.247 209.531 116.398C209.578 116.448 209.61 116.511 209.622 116.58C209.635 116.649 209.628 116.72 209.603 116.785C209.577 116.849 209.534 116.905 209.478 116.943C209.423 116.982 209.358 117.003 209.291 117.003ZM208.57 125.408H208.532C205.208 125.386 202.79 122.526 202.689 122.404C202.66 122.369 202.638 122.328 202.623 122.284C202.609 122.24 202.603 122.193 202.606 122.147C202.609 122.1 202.621 122.055 202.641 122.013C202.66 121.971 202.688 121.934 202.721 121.903C202.754 121.873 202.793 121.849 202.835 121.834C202.877 121.819 202.922 121.813 202.966 121.816C203.01 121.82 203.053 121.832 203.093 121.852C203.133 121.873 203.168 121.902 203.198 121.937C203.231 121.977 205.531 124.681 208.541 124.698H208.57C210.332 124.698 212.008 123.781 213.554 121.97C213.614 121.902 213.697 121.861 213.786 121.856C213.875 121.852 213.961 121.884 214.028 121.946C214.094 122.009 214.134 122.096 214.139 122.189C214.145 122.282 214.115 122.374 214.056 122.444C212.377 124.411 210.532 125.408 208.57 125.408Z" fill="black"/>
<path d="M214.925 118.956C214.925 116.171 217.073 113.914 219.723 113.914C222.373 113.914 224.521 116.171 224.521 118.956C224.521 121.74 222.373 123.997 219.723 123.997C217.073 123.997 214.925 121.74 214.925 118.956ZM191.729 118.956C191.729 116.171 193.876 113.914 196.526 113.914C199.176 113.914 201.324 116.171 201.324 118.956C201.324 121.74 199.176 123.997 196.526 123.997C193.876 123.997 191.729 121.74 191.729 118.956Z" fill="#FF6996"/>
<path d="M225.976 118.3H212.214L209.524 114.569C208.482 113.123 206.414 113.123 205.372 114.569L202.682 118.3H188.92C186.643 118.3 184.797 116.552 184.797 114.395V98.4951H230.099V114.395C230.099 116.552 228.253 118.3 225.976 118.3Z" fill="#CAD5F3"/>
<path d="M197.353 108.105C197.353 107.842 197.452 107.59 197.629 107.404C197.806 107.218 198.046 107.113 198.297 107.113C198.547 107.113 198.787 107.218 198.964 107.404C199.141 107.59 199.241 107.842 199.241 108.105C199.241 108.368 199.141 108.621 198.964 108.807C198.787 108.993 198.547 109.097 198.297 109.097C198.046 109.097 197.806 108.993 197.629 108.807C197.452 108.621 197.353 108.368 197.353 108.105Z" fill="black"/>
<path d="M198.297 109.453C197.59 109.453 197.015 108.848 197.015 108.105C197.015 107.362 197.59 106.758 198.297 106.758C199.003 106.758 199.578 107.362 199.578 108.105C199.578 108.848 199.003 109.453 198.297 109.453ZM198.297 107.468C198.136 107.468 197.982 107.535 197.868 107.655C197.754 107.774 197.69 107.936 197.69 108.105C197.69 108.274 197.754 108.436 197.868 108.556C197.982 108.676 198.136 108.743 198.297 108.743C198.456 108.74 198.608 108.672 198.72 108.553C198.832 108.434 198.895 108.273 198.895 108.105C198.895 107.938 198.832 107.777 198.72 107.658C198.608 107.539 198.456 107.47 198.297 107.468ZM214.041 108.053C214.038 107.921 214.061 107.79 214.108 107.668C214.154 107.546 214.224 107.434 214.311 107.34C214.399 107.246 214.504 107.172 214.62 107.121C214.735 107.07 214.859 107.044 214.985 107.044C215.11 107.044 215.234 107.07 215.35 107.121C215.465 107.172 215.57 107.246 215.658 107.34C215.746 107.434 215.815 107.546 215.861 107.668C215.908 107.79 215.931 107.921 215.929 108.053C215.929 108.316 215.829 108.568 215.652 108.754C215.475 108.94 215.235 109.045 214.985 109.045C214.734 109.045 214.494 108.94 214.317 108.754C214.14 108.568 214.041 108.316 214.041 108.053Z" fill="black"/>
<path d="M214.985 109.4C214.278 109.4 213.703 108.796 213.703 108.053C213.703 107.31 214.278 106.705 214.985 106.705C215.692 106.705 216.267 107.31 216.267 108.053C216.267 108.796 215.692 109.4 214.985 109.4ZM214.985 107.415C214.825 107.415 214.67 107.482 214.557 107.602C214.443 107.722 214.379 107.884 214.379 108.053C214.379 108.222 214.443 108.384 214.557 108.503C214.67 108.623 214.825 108.69 214.985 108.69C215.145 108.688 215.297 108.619 215.409 108.5C215.52 108.381 215.583 108.22 215.583 108.053C215.583 107.885 215.52 107.724 215.409 107.605C215.297 107.486 215.145 107.418 214.985 107.415Z" fill="black"/>
<path d="M225.977 118.3H226.96C231.414 118.3 235.025 114.506 235.025 109.825V102.647L230.1 100.717L222.567 111.151L225.977 118.3Z" fill="#CAD5F3"/>
<path d="M225.976 118.655H212.214C212.162 118.655 212.11 118.642 212.064 118.618C212.017 118.594 211.976 118.558 211.945 118.514L209.254 114.783C208.822 114.183 208.164 113.839 207.448 113.839C206.732 113.839 206.073 114.183 205.641 114.783L202.951 118.514C202.919 118.558 202.879 118.593 202.832 118.618C202.785 118.642 202.734 118.655 202.682 118.655H188.92C186.46 118.655 184.459 116.744 184.459 114.395V98.4951C184.459 98.4009 184.495 98.3107 184.558 98.2441C184.621 98.1775 184.707 98.1401 184.797 98.1401H230.099C230.189 98.1401 230.274 98.1775 230.338 98.2441C230.401 98.3107 230.437 98.4009 230.437 98.4951V114.395C230.437 116.744 228.436 118.655 225.976 118.655ZM212.382 117.945H225.976C228.063 117.945 229.761 116.353 229.761 114.395V98.85H185.135V114.395C185.135 116.353 186.832 117.945 188.92 117.945H202.514L205.102 114.354C205.664 113.576 206.518 113.129 207.448 113.129H207.448C208.377 113.129 209.232 113.576 209.793 114.354L212.382 117.945Z" fill="black"/>
<path d="M230.099 101.072C230.009 101.072 229.923 101.034 229.86 100.968C229.797 100.901 229.761 100.811 229.761 100.717V98.8816H185.135V100.717C185.135 100.811 185.099 100.901 185.036 100.968C184.972 101.034 184.886 101.072 184.797 101.072C184.707 101.072 184.621 101.034 184.558 100.968C184.495 100.901 184.459 100.811 184.459 100.717V98.5266C184.459 98.4325 184.495 98.3422 184.558 98.2756C184.621 98.209 184.707 98.1717 184.797 98.1717H230.099C230.189 98.1717 230.274 98.209 230.338 98.2756C230.401 98.3422 230.437 98.4325 230.437 98.5266V100.717C230.437 100.811 230.401 100.901 230.338 100.968C230.274 101.034 230.189 101.072 230.099 101.072ZM231.451 86.7834C231.426 86.7834 231.401 86.7805 231.375 86.7742C231.286 86.7528 229.157 86.2222 226.131 84.2572C223.352 82.4526 219.265 79.0403 215.575 73.0316C215.55 72.9924 215.534 72.9485 215.525 72.9025C215.517 72.8564 215.517 72.8091 215.527 72.7632C215.536 72.7173 215.554 72.6738 215.579 72.6352C215.604 72.5966 215.636 72.5636 215.674 72.5382C215.711 72.5127 215.753 72.4954 215.797 72.4871C215.841 72.4788 215.886 72.4797 215.93 72.4898C215.973 72.4998 216.015 72.5189 216.051 72.5458C216.088 72.5728 216.119 72.607 216.143 72.6467C223.053 83.9005 231.443 86.0621 231.527 86.0826C231.608 86.1022 231.679 86.1524 231.727 86.2236C231.775 86.2948 231.796 86.3821 231.787 86.4687C231.778 86.5554 231.738 86.6353 231.676 86.6934C231.614 86.7514 231.534 86.7835 231.451 86.7834Z" fill="black"/>
<path d="M230.1 100.717L235.025 102.647L236.378 101.079L230.1 98.5266V100.717Z" fill="#CAD5F3"/>
<path d="M235.025 103.002C234.959 103.002 234.896 102.982 234.841 102.945C234.786 102.907 234.743 102.854 234.716 102.791C234.69 102.728 234.681 102.659 234.692 102.591C234.702 102.523 234.731 102.46 234.775 102.409L235.799 101.222L230.437 99.0155V100.717C230.437 100.811 230.402 100.901 230.338 100.968C230.275 101.034 230.189 101.072 230.099 101.072C230.01 101.072 229.924 101.034 229.861 100.968C229.797 100.901 229.762 100.811 229.762 100.717V98.4953C229.762 98.4374 229.775 98.3805 229.801 98.3293C229.826 98.2782 229.864 98.2344 229.909 98.2018C229.954 98.1692 230.007 98.1488 230.061 98.1424C230.116 98.1359 230.172 98.1436 230.223 98.1647L236.501 100.748C236.552 100.769 236.597 100.803 236.633 100.847C236.669 100.89 236.694 100.942 236.707 100.998C236.719 101.054 236.719 101.112 236.705 101.168C236.691 101.223 236.665 101.275 236.628 101.317L235.275 102.886C235.243 102.922 235.205 102.952 235.162 102.972C235.119 102.992 235.072 103.002 235.025 103.002Z" fill="black"/>
<path d="M164.268 246.997C163.749 243.682 158.555 242.318 151.168 243.609C143.78 244.899 141.501 248.393 141.975 250.597C142.874 254.791 145.8 256.727 153.187 255.437C160.575 254.147 164.787 250.314 164.268 246.997Z" fill="#FFAAC3"/>
<path d="M149.191 256.184C144.822 256.184 142.447 254.41 141.646 250.675C141.451 249.77 141.68 248.746 142.29 247.792C143.095 246.534 145.312 244.272 151.113 243.258C156.454 242.325 160.796 242.751 163.024 244.428C163.915 245.098 164.446 245.943 164.602 246.939C165.198 250.749 160.315 254.552 153.243 255.787C151.737 256.05 150.389 256.184 149.191 256.184ZM156.314 243.478C154.777 243.478 153.065 243.637 151.223 243.959C145.672 244.929 143.595 247.025 142.85 248.188C142.345 248.978 142.151 249.806 142.305 250.519C143.482 256.005 148.439 255.907 153.132 255.087C156.535 254.493 159.503 253.288 161.488 251.695C163.306 250.236 164.175 248.588 163.935 247.055C163.809 246.251 163.37 245.562 162.631 245.005C161.29 243.996 159.089 243.478 156.314 243.478Z" fill="black"/>
<path d="M161.423 238.275C160.978 234.947 154.606 233.149 147.192 234.258C139.778 235.368 135.863 237.161 136.429 241.491C137.151 247.011 141.393 247.42 148.807 246.311C156.221 245.201 161.87 241.603 161.423 238.275Z" fill="#FFAAC3"/>
<path d="M143.407 247.165C141.208 247.165 139.447 246.787 138.184 245.786C137.032 244.872 136.349 243.483 136.094 241.539C135.801 239.292 136.636 237.598 138.648 236.36C140.381 235.295 143.081 234.515 147.144 233.907C152.616 233.088 157.755 233.826 160.236 235.787C161.123 236.488 161.634 237.308 161.757 238.226C162.237 241.802 156.57 245.507 148.854 246.662C146.824 246.966 145.001 247.165 143.407 247.165ZM151.507 234.284C150.143 234.284 148.706 234.39 147.24 234.61C139.215 235.811 136.278 237.727 136.763 241.443C136.992 243.19 137.59 244.426 138.591 245.219C140.296 246.571 143.242 246.785 148.759 245.96C152.301 245.43 155.543 244.315 157.887 242.822C160.115 241.403 161.281 239.764 161.088 238.325V238.325C160.991 237.601 160.568 236.938 159.83 236.355C158.133 235.013 155.076 234.284 151.507 234.284Z" fill="black"/>
<path d="M157.692 228.566C157.245 225.239 150.874 223.44 143.46 224.55C142.078 224.757 140.868 224.998 139.818 225.281C135.236 226.512 133.697 228.517 134.153 231.784C134.879 236.975 137.662 237.711 145.076 236.602C152.49 235.492 158.138 231.895 157.692 228.566Z" fill="#FFAAC3"/>
<path d="M140.235 237.41C136.372 237.41 134.407 236.041 133.818 231.835C133.318 228.249 135.087 226.186 139.734 224.937C140.794 224.652 141.997 224.41 143.412 224.198C148.883 223.379 154.022 224.118 156.504 226.078C157.391 226.779 157.903 227.599 158.026 228.517V228.517C158.505 232.093 152.837 235.798 145.124 236.953C143.236 237.236 141.615 237.41 140.235 237.41ZM147.774 224.576C146.411 224.576 144.973 224.682 143.507 224.901C142.117 225.109 140.937 225.346 139.902 225.624C135.611 226.778 134.042 228.547 134.487 231.732C135.143 236.42 137.408 237.391 145.028 236.25C148.57 235.72 151.811 234.606 154.156 233.113C156.383 231.694 157.55 230.055 157.357 228.616C157.26 227.892 156.837 227.229 156.098 226.646C154.4 225.305 151.343 224.576 147.774 224.576ZM226.96 118.655H225.976C225.887 118.655 225.801 118.618 225.738 118.551C225.674 118.485 225.639 118.394 225.639 118.3C225.639 118.206 225.674 118.116 225.738 118.049C225.801 117.983 225.887 117.945 225.976 117.945H226.96C231.221 117.945 234.687 114.303 234.687 109.825V102.647C234.687 102.553 234.722 102.463 234.786 102.396C234.849 102.329 234.935 102.292 235.025 102.292C235.114 102.292 235.2 102.329 235.263 102.396C235.327 102.463 235.362 102.553 235.362 102.647V109.825C235.362 114.694 231.593 118.655 226.96 118.655Z" fill="black"/>
</g>
<g clip-path="url(#clip2_741_7542)">
<path d="M60.7305 88.572L58.4618 78.5708L64.7113 87.0708L71.1133 82.6388L67.502 90.9375L74.0352 95.7712L65.0487 93.9904L62.4943 101.805L61.5029 93.0417L52.1387 94.0063L60.7305 88.572Z" fill="#FBB348"/>
<path d="M93.9754 99.4626L96.2525 93.7368L96.5052 100.314L101.264 100.708L96.5937 103.285L98.2461 108.205L94.3069 103.789L90.3374 106.55L92.8358 101.927L87.7656 98.6862L93.9754 99.4626Z" fill="#CAD5F3"/>
<path d="M141.779 75.0931L119.225 77.0664V98.7736L113.586 79.0399L102.309 90.8801L111.706 73.1198L96.6699 59.3062L115.465 69.173L119.225 59.3062V71.1463L141.779 75.0931Z" fill="#FF6996"/>
<path d="M119.225 99.1286C119.152 99.1286 119.081 99.1039 119.023 99.0584C118.965 99.0129 118.922 98.9488 118.901 98.8758L113.425 79.711L102.548 91.1312C102.49 91.1913 102.414 91.2276 102.332 91.2334C102.251 91.2392 102.171 91.2141 102.106 91.1627C102.041 91.1112 101.996 91.037 101.979 90.9535C101.962 90.87 101.974 90.7828 102.013 90.708L111.279 73.1981L96.4476 59.5733C96.3857 59.5164 96.3456 59.4379 96.3349 59.3523C96.3242 59.2667 96.3436 59.18 96.3894 59.1083C96.4352 59.0366 96.5043 58.9849 96.5838 58.9629C96.6633 58.9409 96.7478 58.9501 96.8213 58.9887L115.288 68.6831L118.911 59.1744C118.94 59.0978 118.994 59.0343 119.063 58.9948C119.132 58.9552 119.212 58.9421 119.289 58.9578C119.366 58.9734 119.435 59.0167 119.485 59.0803C119.535 59.1439 119.563 59.2238 119.563 59.3062V70.8458L141.835 74.7431C141.916 74.7574 141.99 74.8023 142.042 74.8694C142.093 74.9366 142.12 75.0213 142.117 75.1077C142.114 75.1941 142.08 75.2762 142.023 75.3387C141.966 75.4011 141.89 75.4396 141.807 75.4468L119.563 77.3932V98.7737C119.563 98.8204 119.554 98.8665 119.537 98.9096C119.52 98.9527 119.495 98.9918 119.464 99.0247C119.432 99.0577 119.395 99.0838 119.354 99.1017C119.313 99.1195 119.269 99.1286 119.225 99.1286ZM113.586 78.685C113.659 78.6849 113.73 78.7095 113.788 78.755C113.846 78.8006 113.889 78.8647 113.91 78.9378L118.887 96.3557V77.0665C118.887 76.9775 118.919 76.8918 118.976 76.8263C119.034 76.7608 119.112 76.7203 119.197 76.7129L139.052 74.9758L119.169 71.4965C119.09 71.4827 119.019 71.4399 118.967 71.3758C118.915 71.3117 118.887 71.2304 118.887 71.1464V61.149L115.78 69.3048C115.762 69.3504 115.736 69.3916 115.703 69.426C115.669 69.4603 115.63 69.4871 115.586 69.5045C115.542 69.5219 115.495 69.5297 115.449 69.5273C115.402 69.5248 115.356 69.5123 115.315 69.4904L98.8757 60.8606L111.929 72.8526C111.988 72.906 112.026 72.9788 112.04 73.0588C112.053 73.1388 112.04 73.2211 112.002 73.2921L103.776 88.8376L113.347 78.789C113.379 78.756 113.416 78.7299 113.457 78.712C113.498 78.6942 113.542 78.685 113.586 78.685Z" fill="black"/>
</g>
<g clip-path="url(#clip3_741_7542)">
<path d="M94.2811 153.967V129.367H79.806V153.882C71.183 156.986 64.9834 165.567 64.9834 175.67C64.9834 188.39 74.8079 198.701 86.9271 198.701C99.0464 198.701 108.871 188.39 108.871 175.67C108.871 165.658 102.783 157.141 94.2811 153.967Z" fill="#CAD5F3"/>
<path d="M108.87 175.728C89.5461 183.916 83.7262 162.323 67.3603 165.235C65.8407 168.368 64.9834 171.914 64.9834 175.67C64.9834 188.39 74.8079 198.701 86.9271 198.701C99.0277 198.701 108.84 188.421 108.87 175.728Z" fill="#92ACEF"/>
<path d="M94.7355 133.788H79.1191C77.4536 133.788 76.1035 132.371 76.1035 130.623V129.844C76.1035 128.096 77.4537 126.679 79.1191 126.679H94.7355C96.401 126.679 97.7511 128.096 97.7511 129.844V130.623C97.7512 132.371 96.401 133.788 94.7355 133.788Z" fill="#CAD5F3"/>
<path d="M86.93 199.056C86.823 199.056 86.7169 199.055 86.6097 199.054C80.687 198.967 75.1331 196.443 70.9712 191.947C66.805 187.446 64.5592 181.538 64.648 175.313C64.7872 165.568 70.732 156.887 79.4682 153.63V134.258C77.4193 134.215 75.7653 132.452 75.7653 130.292C75.7654 128.104 77.4611 126.324 79.5455 126.324H94.3089C96.3934 126.324 98.0891 128.104 98.0891 130.292C98.0891 132.37 96.5591 134.08 94.6192 134.246V153.718C103.356 157.091 109.209 165.88 109.209 175.67C109.209 181.978 106.852 187.892 102.572 192.322C98.3694 196.672 92.8248 199.056 86.93 199.056ZM79.5455 127.033C77.8338 127.033 76.4414 128.495 76.4414 130.292C76.4414 132.088 77.8339 133.55 79.5457 133.55H79.8063C79.896 133.55 79.9819 133.587 80.0453 133.653C80.1087 133.72 80.1443 133.81 80.1443 133.904V153.882C80.1443 153.956 80.1223 154.028 80.0814 154.088C80.0404 154.149 79.9826 154.194 79.916 154.218C71.3241 157.31 65.46 165.792 65.324 175.323C65.2378 181.359 67.4157 187.087 71.4559 191.452C75.4921 195.813 80.8771 198.26 86.619 198.344C92.4521 198.431 97.9483 196.111 102.097 191.817C106.247 187.521 108.533 181.787 108.533 175.67C108.533 166.096 102.76 157.509 94.1679 154.301C94.1022 154.277 94.0453 154.231 94.005 154.171C93.9648 154.112 93.9432 154.04 93.9432 153.967V133.904C93.9432 133.81 93.9788 133.72 94.0422 133.653C94.1056 133.587 94.1915 133.55 94.2812 133.55H94.3089C96.0206 133.55 97.4132 132.088 97.4132 130.292C97.4133 128.495 96.0208 127.033 94.309 127.033H79.5455Z" fill="black"/>
<path d="M100.485 177.951C94.2849 177.951 89.5848 174.687 84.9954 171.5C79.6617 167.796 74.6244 164.298 67.416 165.581C67.3723 165.589 67.3275 165.588 67.2842 165.577C67.2409 165.567 67.2 165.548 67.1638 165.521C67.1276 165.494 67.0968 165.459 67.0732 165.42C67.0496 165.381 67.0337 165.337 67.0262 165.291C67.0188 165.245 67.0201 165.198 67.03 165.152C67.0399 165.107 67.0582 165.064 67.0839 165.026C67.1096 164.988 67.1422 164.956 67.1798 164.931C67.2174 164.906 67.2592 164.889 67.303 164.882C74.7734 163.551 80.1599 167.291 85.3684 170.909C88.5407 173.111 91.8208 175.389 95.5505 176.509C99.7206 177.761 104.037 177.399 108.745 175.403C108.828 175.368 108.921 175.369 109.004 175.406C109.086 175.442 109.151 175.512 109.185 175.599C109.219 175.686 109.218 175.784 109.183 175.871C109.148 175.957 109.081 176.026 108.998 176.061C105.842 177.399 103.037 177.951 100.485 177.951ZM74.2883 180.638C71.953 180.638 70.0529 178.644 70.0529 176.192C70.0529 173.741 71.953 171.747 74.2883 171.747C76.6237 171.747 78.5238 173.741 78.5238 176.192C78.5238 178.644 76.6237 180.638 74.2883 180.638ZM74.2883 172.457C72.3256 172.457 70.7289 174.133 70.7289 176.192C70.7289 178.252 72.3257 179.928 74.2883 179.928C76.251 179.928 77.8478 178.252 77.8478 176.192C77.8478 174.133 76.251 172.457 74.2883 172.457ZM80.0199 187.616C78.8222 187.616 77.8478 186.593 77.8478 185.336C77.8478 184.079 78.8222 183.057 80.0199 183.057C81.2175 183.057 82.1918 184.079 82.1918 185.336C82.192 186.593 81.2176 187.616 80.0199 187.616ZM80.0199 183.766C79.1949 183.766 78.5238 184.47 78.5238 185.336C78.5238 186.202 79.195 186.906 80.0199 186.906C80.8447 186.906 81.5158 186.202 81.5158 185.336C81.5158 184.47 80.8449 183.766 80.0199 183.766ZM96.6629 191.415C95.7783 191.415 95.0587 190.659 95.0587 189.731C95.0587 188.803 95.7783 188.047 96.6629 188.047C97.5475 188.047 98.2671 188.803 98.2671 189.731C98.2671 190.659 97.5475 191.415 96.6629 191.415ZM96.6629 188.757C96.151 188.757 95.7346 189.194 95.7346 189.731C95.7346 190.268 96.151 190.705 96.6629 190.705C97.1748 190.705 97.5912 190.268 97.5912 189.731C97.5912 189.194 97.1748 188.757 96.6629 188.757Z" fill="black"/>
</g>
<g clip-path="url(#clip4_741_7542)">
<path d="M90.6567 232.58H83.077C83.077 232.58 81.0078 228.672 81.0078 224.801C81.0078 220.929 84.2898 213.239 86.9132 209.88C89.4503 213.115 92.7259 221.478 92.7259 224.801C92.7259 228.123 90.6567 232.58 90.6567 232.58Z" fill="#EF4910"/>
<path d="M102.795 250.501H70.9395V239.572C70.9395 238.015 72.1404 236.754 73.6216 236.754H100.113C101.594 236.754 102.795 238.015 102.795 239.572V250.501H102.795Z" fill="#CAD5F3"/>
<path d="M102.795 250.862H70.9393C70.8481 250.862 70.7608 250.824 70.6963 250.756C70.6319 250.688 70.5957 250.596 70.5957 250.501V239.559C70.5957 237.813 71.9474 236.393 73.6088 236.393H100.125C101.787 236.393 103.139 237.813 103.139 239.559V250.501C103.139 250.596 103.102 250.688 103.038 250.756C102.974 250.824 102.886 250.862 102.795 250.862ZM71.2828 250.14H102.451V239.559C102.451 238.211 101.408 237.114 100.125 237.114H73.6088C72.3262 237.114 71.2828 238.211 71.2828 239.559V250.14ZM90.657 232.941H83.0774C83.0162 232.941 82.956 232.924 82.9033 232.891C82.8505 232.858 82.8069 232.812 82.7771 232.755C82.6908 232.592 80.6646 228.721 80.6646 224.801C80.6646 220.838 84.0105 213.028 86.6479 209.651C86.6801 209.61 86.7206 209.577 86.7664 209.554C86.8123 209.531 86.8624 209.519 86.9131 209.519H86.9135C87.0162 209.519 87.1133 209.568 87.1787 209.651C89.7664 212.95 93.0697 221.445 93.0697 224.801C93.0697 228.168 91.0517 232.553 90.9658 232.738C90.9376 232.799 90.8937 232.85 90.8391 232.886C90.7845 232.922 90.7214 232.941 90.657 232.941ZM83.2842 232.219H90.4386C90.8336 231.318 92.3825 227.606 92.3825 224.801C92.3825 221.671 89.3857 213.885 86.9121 210.461C83.9388 214.491 81.3517 221.705 81.3517 224.801C81.3517 228.063 82.8862 231.406 83.2842 232.219Z" fill="black"/>
<path d="M92.8776 236.709H80.8564V233.645C80.8564 233.353 80.967 233.073 81.1637 232.866C81.3604 232.659 81.6272 232.543 81.9054 232.543H91.8287C92.1069 232.543 92.3737 232.659 92.5704 232.866C92.7671 233.073 92.8776 233.353 92.8776 233.645V236.709Z" fill="#CAD5F3"/>
<path d="M92.8774 237.07H80.8562C80.7651 237.07 80.6777 237.032 80.6133 236.964C80.5489 236.896 80.5127 236.804 80.5127 236.709V233.685C80.5127 232.856 81.154 232.182 81.9424 232.182H91.791C92.5794 232.182 93.2209 232.856 93.2209 233.685V236.709C93.2209 236.756 93.212 236.803 93.1948 236.847C93.1775 236.891 93.1522 236.93 93.1203 236.964C93.0884 236.997 93.0506 237.024 93.0089 237.042C92.9672 237.06 92.9226 237.07 92.8774 237.07ZM81.1998 236.348H92.5339V233.685C92.5336 233.478 92.4553 233.279 92.3161 233.133C92.1768 232.987 91.988 232.905 91.7911 232.904H81.9426C81.7457 232.905 81.5569 232.987 81.4177 233.133C81.2785 233.28 81.2002 233.478 81.1999 233.685V236.348H81.1998Z" fill="black"/>
</g>
<g clip-path="url(#clip5_741_7542)">
<path d="M49.3328 250.665C49.2432 250.665 49.1574 250.628 49.094 250.561C49.0307 250.495 48.9951 250.405 48.9951 250.311V115.195C48.9951 115.101 49.0307 115.01 49.094 114.944C49.1574 114.877 49.2432 114.84 49.3328 114.84C49.4224 114.84 49.5083 114.877 49.5716 114.944C49.6349 115.01 49.6705 115.101 49.6705 115.195V250.311C49.6705 250.405 49.6349 250.495 49.5716 250.561C49.5083 250.628 49.4224 250.665 49.3328 250.665Z" fill="black"/>
<path d="M109.408 141.337H33.4119C33.3223 141.337 33.2365 141.3 33.1731 141.233C33.1098 141.167 33.0742 141.077 33.0742 140.983C33.0742 140.889 33.1098 140.799 33.1731 140.732C33.2365 140.666 33.3223 140.628 33.4119 140.628H109.408C109.498 140.628 109.584 140.666 109.647 140.732C109.71 140.799 109.746 140.889 109.746 140.983C109.746 141.077 109.71 141.167 109.647 141.233C109.584 141.3 109.498 141.337 109.408 141.337Z" fill="black"/>
<path d="M49.3891 144.209C51.0861 144.209 52.4618 142.765 52.4618 140.983C52.4618 139.201 51.0861 137.757 49.3891 137.757C47.6921 137.757 46.3164 139.201 46.3164 140.983C46.3164 142.765 47.6921 144.209 49.3891 144.209Z" fill="white"/>
<path d="M49.3899 144.563C47.5093 144.563 45.9795 142.957 45.9795 140.983C45.9795 139.008 47.5093 137.402 49.3899 137.402C51.2702 137.402 52.8001 139.008 52.8001 140.983C52.8001 142.957 51.2702 144.563 49.3899 144.563ZM49.3899 138.111C47.8817 138.111 46.6549 139.399 46.6549 140.983C46.6549 142.566 47.8817 143.854 49.3899 143.854C50.8978 143.854 52.1247 142.566 52.1247 140.983C52.1247 139.399 50.8978 138.111 49.3899 138.111Z" fill="black"/>
<path d="M35.4111 250.311H125.872V255.866H35.4111V250.311Z" fill="white"/>
<path d="M125.872 256.221H35.4109C35.3214 256.221 35.2355 256.184 35.1721 256.117C35.1088 256.051 35.0732 255.961 35.0732 255.866V250.311C35.0732 250.217 35.1088 250.126 35.1721 250.06C35.2355 249.993 35.3214 249.956 35.4109 249.956H125.872C125.962 249.956 126.047 249.993 126.111 250.06C126.174 250.126 126.21 250.217 126.21 250.311V255.866C126.21 255.961 126.174 256.051 126.111 256.117C126.047 256.184 125.962 256.221 125.872 256.221ZM35.7486 255.512H125.534V250.665H35.7486V255.512Z" fill="black"/>
</g>
<g clip-path="url(#clip6_741_7542)">
<path d="M5.60449 266.709V255.686H316.271V266.709H5.60449Z" fill="white"/>
<path d="M316.271 267.067H5.60486C5.51515 267.067 5.42911 267.029 5.36567 266.962C5.30224 266.895 5.2666 266.804 5.2666 266.709V255.686C5.2666 255.591 5.30224 255.5 5.36567 255.432C5.42911 255.365 5.51515 255.328 5.60486 255.328H316.271C316.361 255.328 316.447 255.365 316.51 255.432C316.574 255.5 316.609 255.591 316.609 255.686V266.709C316.609 266.804 316.574 266.895 316.51 266.962C316.447 267.029 316.361 267.067 316.271 267.067ZM5.94312 266.351H315.933V256.043H5.94312V266.351Z" fill="#111111"/>
</g>
<defs>
<clipPath id="clip0_741_7542">
<rect width="29.2643" height="12.122" fill="white" transform="translate(72.2959 109.736)"/>
</clipPath>
<clipPath id="clip1_741_7542">
<rect width="154.457" height="206.329" fill="white" transform="translate(133.738 60.0996)"/>
</clipPath>
<clipPath id="clip2_741_7542">
<rect width="89.9786" height="49.2536" fill="white" transform="translate(52.1387 58.9512)"/>
</clipPath>
<clipPath id="clip3_741_7542">
<rect width="44.5643" height="72.732" fill="white" transform="translate(64.6455 126.324)"/>
</clipPath>
<clipPath id="clip4_741_7542">
<rect width="32.5429" height="41.3424" fill="white" transform="translate(70.5957 209.519)"/>
</clipPath>
<clipPath id="clip5_741_7542">
<rect width="93.1357" height="141.381" fill="white" transform="translate(33.0742 114.84)"/>
</clipPath>
<clipPath id="clip6_741_7542">
<rect width="311.343" height="11.7392" fill="white" transform="translate(5.2666 255.328)"/>
</clipPath>
</defs>
</svg>
