<svg width="297" height="338" viewBox="0 0 297 338" fill="none" xmlns="http://www.w3.org/2000/svg">
<g clip-path="url(#clip0_741_7433)">
<path d="M162.545 22.623H36.4521C33.3148 22.623 30.7715 25.1625 30.7715 28.295V182.619C30.7715 185.751 33.3148 188.291 36.4521 188.291H162.545C165.683 188.291 168.226 185.751 168.226 182.619V28.295C168.226 25.1625 165.683 22.623 162.545 22.623Z" fill="white"/>
<path d="M162.545 188.521H36.4523C33.1928 188.521 30.541 185.873 30.541 182.619V28.2949C30.541 25.0404 33.1928 22.3926 36.4523 22.3926H162.545C165.805 22.3926 168.457 25.0403 168.457 28.2949V182.619C168.457 185.873 165.805 188.521 162.545 188.521V188.521ZM36.4523 22.8533C33.4472 22.8533 31.0024 25.2944 31.0024 28.2949V182.619C31.0024 185.619 33.4472 188.06 36.4524 188.06H162.545C165.55 188.06 167.995 185.619 167.995 182.619V28.2949C167.995 25.2944 165.551 22.8533 162.545 22.8533H36.4523Z" fill="black"/>
<path d="M175.791 39.1421H49.6982C46.5609 39.1421 44.0176 41.6815 44.0176 44.814V199.138C44.0176 202.27 46.5609 204.81 49.6982 204.81H175.791C178.929 204.81 181.472 202.27 181.472 199.138V44.814C181.472 41.6815 178.929 39.1421 175.791 39.1421Z" fill="white"/>
<path d="M175.792 205.04H49.6984C46.439 205.04 43.7871 202.392 43.7871 199.138V44.8139C43.7871 41.5594 46.4389 38.9116 49.6984 38.9116H175.792C179.051 38.9116 181.703 41.5594 181.703 44.8139V199.138C181.703 202.392 179.051 205.04 175.792 205.04ZM49.6984 39.3724C46.6934 39.3724 44.2485 41.8135 44.2485 44.814V199.138C44.2485 202.138 46.6933 204.579 49.6984 204.579H175.792C178.797 204.579 181.241 202.138 181.241 199.138V44.8139C181.241 41.8135 178.797 39.3723 175.792 39.3723H49.6984V39.3724Z" fill="black"/>
<path d="M190.588 57.2666H64.4951C61.3577 57.2666 58.8145 59.806 58.8145 62.9386V217.262C58.8145 220.395 61.3577 222.934 64.4951 222.934H190.588C193.726 222.934 196.269 220.395 196.269 217.262V62.9386C196.269 59.806 193.726 57.2666 190.588 57.2666Z" fill="white"/>
<path d="M190.587 223.165H64.4944C61.2349 223.165 58.583 220.517 58.583 217.262V62.9385C58.583 59.684 61.2348 57.0361 64.4944 57.0361H190.587C193.847 57.0361 196.499 59.6839 196.499 62.9385V217.262C196.499 220.517 193.847 223.165 190.587 223.165ZM64.4944 57.4969C61.4893 57.4969 59.0444 59.938 59.0444 62.9386V217.262C59.0444 220.263 61.4892 222.704 64.4944 222.704H190.587C193.593 222.704 196.037 220.263 196.037 217.262V62.9385C196.037 59.938 193.593 57.4968 190.587 57.4968H64.4944V57.4969Z" fill="black"/>
<path d="M158.072 138.931C167.923 138.931 175.909 130.957 175.909 121.121C175.909 111.284 167.923 103.311 158.072 103.311C148.22 103.311 140.234 111.284 140.234 121.121C140.234 130.957 148.22 138.931 158.072 138.931Z" fill="white"/>
<path d="M158.072 139.161C148.109 139.161 140.004 131.068 140.004 121.12C140.004 111.173 148.109 103.08 158.072 103.08C168.035 103.08 176.14 111.173 176.14 121.12C176.14 131.068 168.035 139.161 158.072 139.161ZM158.072 103.541C148.364 103.541 140.465 111.427 140.465 121.12C140.465 130.814 148.364 138.7 158.072 138.7C167.78 138.7 175.678 130.814 175.678 121.12C175.678 111.427 167.78 103.541 158.072 103.541Z" fill="black"/>
<path d="M164.161 126.692C164.161 130.05 161.434 130.669 158.071 130.669C154.708 130.669 151.981 130.05 151.981 126.692C151.981 123.334 154.708 118.508 158.071 118.508C161.434 118.508 164.161 123.334 164.161 126.692Z" fill="#92ACEF"/>
<path d="M158.071 130.899C154.946 130.899 151.751 130.399 151.751 126.692C151.751 123.382 154.465 118.278 158.071 118.278C161.678 118.278 164.392 123.382 164.392 126.692C164.392 130.399 161.197 130.899 158.071 130.899ZM158.071 118.738C156.101 118.738 154.648 120.45 153.956 121.47C152.881 123.057 152.212 125.058 152.212 126.692C152.212 129.353 153.91 130.438 158.071 130.438C162.233 130.438 163.93 129.353 163.93 126.692C163.93 125.059 163.262 123.057 162.186 121.47C161.495 120.45 160.041 118.738 158.071 118.738Z" fill="black"/>
<path d="M158.072 120.265C160.476 120.265 162.425 118.319 162.425 115.919C162.425 113.518 160.476 111.572 158.072 111.572C155.668 111.572 153.719 113.518 153.719 115.919C153.719 118.319 155.668 120.265 158.072 120.265Z" fill="#92ACEF"/>
<path d="M158.072 120.495C155.544 120.495 153.488 118.442 153.488 115.919C153.488 113.395 155.544 111.342 158.072 111.342C160.6 111.342 162.656 113.395 162.656 115.919C162.656 118.442 160.6 120.495 158.072 120.495ZM158.072 111.802C155.799 111.802 153.95 113.649 153.95 115.919C153.95 118.188 155.799 120.035 158.072 120.035C160.345 120.035 162.194 118.188 162.194 115.919C162.194 113.649 160.345 111.802 158.072 111.802Z" fill="black"/>
<path d="M84.7834 170.785H76.6784C75.3771 170.785 74.3223 171.838 74.3223 173.137V181.23C74.3223 182.529 75.3771 183.583 76.6784 183.583H84.7834C86.0846 183.583 87.1395 182.529 87.1395 181.23V173.137C87.1395 171.838 86.0846 170.785 84.7834 170.785Z" fill="#FFAAC3"/>
<path d="M84.7835 183.813H76.6785C75.2522 183.813 74.0918 182.654 74.0918 181.23V173.138C74.0918 171.713 75.2522 170.555 76.6785 170.555H84.7835C86.2099 170.555 87.3703 171.713 87.3703 173.138V181.23C87.3703 182.654 86.2099 183.813 84.7835 183.813ZM76.6785 171.015C75.5066 171.015 74.5532 171.967 74.5532 173.137V181.23C74.5532 182.4 75.5066 183.352 76.6785 183.352H84.7835C85.9555 183.352 86.9089 182.4 86.9089 181.23V173.137C86.9089 171.967 85.9555 171.015 84.7835 171.015H76.6785Z" fill="#111111"/>
<path d="M180.225 177.414H101.978C101.917 177.414 101.858 177.39 101.815 177.346C101.771 177.303 101.747 177.245 101.747 177.183C101.747 177.122 101.771 177.064 101.815 177.021C101.858 176.977 101.917 176.953 101.978 176.953H180.225C180.286 176.953 180.345 176.977 180.388 177.021C180.432 177.064 180.456 177.122 180.456 177.183C180.456 177.245 180.432 177.303 180.388 177.346C180.345 177.39 180.286 177.414 180.225 177.414H180.225Z" fill="black"/>
<path d="M84.7834 146.033H76.6784C75.3771 146.033 74.3223 147.086 74.3223 148.385V156.478C74.3223 157.777 75.3771 158.83 76.6784 158.83H84.7834C86.0846 158.83 87.1395 157.777 87.1395 156.478V148.385C87.1395 147.086 86.0846 146.033 84.7834 146.033Z" fill="#FFAAC3"/>
<path d="M84.7835 159.061H76.6785C75.2522 159.061 74.0918 157.902 74.0918 156.478V148.385C74.0918 146.961 75.2522 145.802 76.6785 145.802H84.7835C86.2099 145.802 87.3703 146.961 87.3703 148.385V156.478C87.3703 157.902 86.2099 159.061 84.7835 159.061ZM76.6785 146.263C75.5066 146.263 74.5532 147.215 74.5532 148.385V156.478C74.5532 157.648 75.5066 158.6 76.6785 158.6H84.7835C85.9555 158.6 86.9089 157.648 86.9089 156.478V148.385C86.9089 147.215 85.9555 146.263 84.7835 146.263H76.6785Z" fill="#111111"/>
<path d="M180.699 152.662H101.978C101.917 152.662 101.858 152.638 101.815 152.594C101.771 152.551 101.747 152.493 101.747 152.432C101.747 152.37 101.771 152.312 101.815 152.269C101.858 152.225 101.917 152.201 101.978 152.201H180.699C180.761 152.201 180.819 152.225 180.862 152.269C180.906 152.312 180.93 152.37 180.93 152.432C180.93 152.493 180.906 152.551 180.862 152.594C180.819 152.638 180.761 152.662 180.699 152.662Z" fill="black"/>
<path d="M84.7834 195.537H76.6784C75.3771 195.537 74.3223 196.59 74.3223 197.889V205.982C74.3223 207.281 75.3771 208.335 76.6784 208.335H84.7834C86.0846 208.335 87.1395 207.281 87.1395 205.982V197.889C87.1395 196.59 86.0846 195.537 84.7834 195.537Z" fill="#FFAAC3"/>
<path d="M84.7835 208.565H76.6785C75.2522 208.565 74.0918 207.406 74.0918 205.982V197.889C74.0918 196.465 75.2522 195.307 76.6785 195.307H84.7835C86.2099 195.307 87.3703 196.465 87.3703 197.889V205.982C87.3703 207.406 86.2099 208.565 84.7835 208.565ZM76.6785 195.767C75.5066 195.767 74.5532 196.719 74.5532 197.889V205.982C74.5532 207.152 75.5066 208.104 76.6785 208.104H84.7835C85.9555 208.104 86.9089 207.152 86.9089 205.982V197.889C86.9089 196.719 85.9555 195.767 84.7835 195.767H76.6785Z" fill="#111111"/>
<path d="M180.699 202.166H101.977C101.916 202.166 101.858 202.142 101.814 202.099C101.771 202.055 101.747 201.997 101.747 201.936C101.747 201.875 101.771 201.816 101.814 201.773C101.858 201.73 101.916 201.705 101.977 201.705H180.699C180.76 201.705 180.819 201.73 180.862 201.773C180.905 201.816 180.93 201.875 180.93 201.936C180.93 201.997 180.905 202.055 180.862 202.099C180.819 202.142 180.76 202.166 180.699 202.166ZM121.246 105.908H74.3215C74.2603 105.908 74.2017 105.884 74.1584 105.841C74.1151 105.798 74.0908 105.739 74.0908 105.678C74.0908 105.617 74.1151 105.558 74.1584 105.515C74.2017 105.472 74.2603 105.448 74.3215 105.448H121.246C121.308 105.448 121.366 105.472 121.41 105.515C121.453 105.558 121.477 105.617 121.477 105.678C121.477 105.739 121.453 105.798 121.41 105.841C121.366 105.884 121.308 105.908 121.246 105.908Z" fill="black"/>
<path d="M140.178 78.6768L141.65 81.6534C141.67 81.6945 141.7 81.7301 141.737 81.757C141.774 81.7839 141.817 81.8014 141.863 81.808L145.153 82.2853C145.385 82.3191 145.478 82.6039 145.31 82.7674L142.929 85.0844C142.896 85.1163 142.872 85.1558 142.857 85.1994C142.843 85.243 142.84 85.2893 142.848 85.3345L143.41 88.6061C143.449 88.837 143.207 89.013 142.999 88.904L140.056 87.3594C140.016 87.3381 139.971 87.3269 139.925 87.3269C139.879 87.3269 139.834 87.3381 139.793 87.3594L136.85 88.904C136.643 89.013 136.4 88.8369 136.44 88.6061L137.002 85.3345C137.01 85.2893 137.006 85.243 136.992 85.1994C136.978 85.1558 136.953 85.1163 136.92 85.0844L134.54 82.7674C134.372 82.6039 134.465 82.3191 134.697 82.2853L137.987 81.808C138.032 81.8015 138.075 81.7839 138.112 81.757C138.149 81.7301 138.179 81.6945 138.2 81.6534L139.671 78.6768C139.775 78.4668 140.075 78.4668 140.179 78.6768H140.178Z" fill="#FBB348"/>
<path d="M143.132 89.1675C143.048 89.1674 142.966 89.147 142.892 89.108L139.95 87.5633C139.942 87.5593 139.934 87.5572 139.925 87.5572C139.917 87.5572 139.908 87.5593 139.901 87.5633L136.958 89.108C136.873 89.1528 136.778 89.173 136.682 89.1661C136.586 89.1592 136.495 89.1255 136.417 89.0689C136.339 89.0129 136.279 88.9362 136.243 88.8474C136.207 88.7587 136.196 88.6616 136.213 88.5672L136.775 85.2956C136.776 85.2873 136.776 85.2787 136.773 85.2707C136.77 85.2626 136.766 85.2553 136.76 85.2494L134.379 82.9324C134.31 82.8658 134.261 82.7811 134.238 82.6881C134.216 82.5951 134.219 82.4975 134.249 82.4066C134.279 82.3153 134.333 82.2342 134.406 82.1725C134.48 82.1108 134.569 82.0709 134.664 82.0575L137.954 81.5802C137.962 81.5789 137.97 81.5757 137.977 81.5707C137.984 81.5657 137.989 81.5592 137.993 81.5516L139.464 78.5748C139.552 78.3985 139.728 78.2888 139.925 78.2888C140.122 78.2888 140.299 78.3984 140.386 78.5748L141.857 81.5515C141.861 81.5591 141.866 81.5657 141.873 81.5707C141.88 81.5757 141.888 81.5789 141.897 81.5802L145.186 82.0575C145.281 82.0709 145.371 82.1108 145.444 82.1725C145.517 82.2342 145.572 82.3153 145.601 82.4066C145.662 82.5936 145.612 82.7951 145.471 82.9324L143.09 85.2493C143.084 85.2553 143.08 85.2626 143.077 85.2706C143.075 85.2787 143.074 85.2873 143.075 85.2956L143.637 88.5672C143.654 88.6616 143.644 88.7587 143.608 88.8474C143.571 88.9362 143.511 89.0129 143.433 89.0689C143.346 89.1328 143.24 89.1673 143.132 89.1674L143.132 89.1675ZM139.925 87.0966C140.007 87.0966 140.089 87.1162 140.164 87.1555L143.107 88.7003C143.115 88.7051 143.125 88.7074 143.135 88.7067C143.145 88.706 143.154 88.7024 143.162 88.6963C143.17 88.6909 143.177 88.6831 143.18 88.6739C143.184 88.6648 143.185 88.6548 143.183 88.6452L142.621 85.3736C142.607 85.2916 142.613 85.2074 142.639 85.1282C142.664 85.0491 142.709 84.9774 142.769 84.9194L145.149 82.6024C145.157 82.5959 145.162 82.5873 145.164 82.5777C145.167 82.5682 145.166 82.5581 145.163 82.5489C145.16 82.5394 145.155 82.5309 145.147 82.5246C145.139 82.5182 145.13 82.5143 145.12 82.5132L141.83 82.0359C141.748 82.0239 141.67 81.9922 141.602 81.9433C141.535 81.8944 141.481 81.8298 141.444 81.7552L139.972 78.7786C139.968 78.7699 139.961 78.7626 139.953 78.7574C139.945 78.7523 139.935 78.7496 139.926 78.7496C139.916 78.7496 139.906 78.7523 139.898 78.7574C139.89 78.7626 139.883 78.7699 139.879 78.7786L138.407 81.7553C138.37 81.8299 138.316 81.8944 138.249 81.9433C138.181 81.9922 138.103 82.0239 138.021 82.0359L134.731 82.5132C134.721 82.5143 134.712 82.5182 134.704 82.5246C134.696 82.5309 134.691 82.5394 134.688 82.5489C134.685 82.5581 134.684 82.5682 134.687 82.5777C134.689 82.5873 134.694 82.5959 134.702 82.6024L137.082 84.9194C137.142 84.9774 137.187 85.0491 137.212 85.1282C137.238 85.2073 137.244 85.2915 137.23 85.3735L136.668 88.6451C136.666 88.6547 136.667 88.6647 136.671 88.6739C136.674 88.683 136.681 88.6908 136.689 88.6962C136.706 88.7087 136.725 88.71 136.744 88.7002L139.687 87.1554C139.762 87.1161 139.844 87.0965 139.926 87.0965L139.925 87.0966Z" fill="black"/>
<path d="M158.325 78.6768L159.796 81.6534C159.817 81.6945 159.847 81.7301 159.884 81.757C159.921 81.7839 159.964 81.8014 160.009 81.808L163.299 82.2853C163.531 82.3191 163.624 82.6039 163.456 82.7674L161.076 85.0844C161.043 85.1163 161.018 85.1558 161.004 85.1994C160.99 85.243 160.986 85.2893 160.994 85.3345L161.556 88.6061C161.596 88.837 161.353 89.013 161.146 88.904L158.203 87.3594C158.162 87.3381 158.117 87.3269 158.071 87.3269C158.025 87.3269 157.98 87.3381 157.94 87.3594L154.997 88.904C154.789 89.013 154.547 88.8369 154.586 88.6061L155.148 85.3345C155.156 85.2893 155.153 85.243 155.139 85.1994C155.124 85.1558 155.1 85.1163 155.067 85.0844L152.686 82.7674C152.518 82.6039 152.611 82.3191 152.843 82.2853L156.133 81.808C156.179 81.8015 156.222 81.7839 156.259 81.757C156.296 81.7301 156.326 81.6945 156.346 81.6534L157.818 78.6768C157.921 78.4668 158.221 78.4668 158.325 78.6768H158.325Z" fill="#FBB348"/>
<path d="M161.278 89.1675C161.195 89.1674 161.112 89.147 161.039 89.108L158.096 87.5633C158.089 87.5593 158.08 87.5572 158.072 87.5572C158.063 87.5572 158.055 87.5593 158.047 87.5633L155.105 89.108C155.02 89.1528 154.924 89.173 154.829 89.1661C154.733 89.1592 154.641 89.1255 154.564 89.0689C154.486 89.0129 154.425 88.9362 154.389 88.8474C154.353 88.7587 154.343 88.6616 154.359 88.5672L154.921 85.2956C154.923 85.2873 154.922 85.2787 154.92 85.2707C154.917 85.2626 154.912 85.2553 154.906 85.2494L152.526 82.9324C152.457 82.8658 152.408 82.7811 152.385 82.6881C152.362 82.5951 152.366 82.4975 152.396 82.4066C152.425 82.3153 152.479 82.2342 152.553 82.1725C152.626 82.1108 152.715 82.0709 152.81 82.0575L156.1 81.5802C156.109 81.5789 156.117 81.5757 156.124 81.5707C156.13 81.5657 156.136 81.5592 156.14 81.5516L157.611 78.5748C157.698 78.3985 157.875 78.2888 158.072 78.2888C158.269 78.2888 158.445 78.3984 158.532 78.5748L160.004 81.5515C160.007 81.5591 160.013 81.5657 160.02 81.5707C160.027 81.5757 160.035 81.5789 160.043 81.5802L163.333 82.0575C163.428 82.0709 163.517 82.1108 163.59 82.1725C163.664 82.2342 163.718 82.3153 163.748 82.4066C163.808 82.5936 163.759 82.7951 163.618 82.9324L161.237 85.2493C161.231 85.2553 161.226 85.2626 161.224 85.2706C161.221 85.2787 161.22 85.2873 161.222 85.2956L161.784 88.5672C161.801 88.6616 161.79 88.7587 161.754 88.8474C161.718 88.9362 161.657 89.0129 161.58 89.0689C161.492 89.1328 161.386 89.1673 161.278 89.1674L161.278 89.1675ZM158.072 87.0966C158.154 87.0966 158.236 87.1162 158.311 87.1555L161.253 88.7003C161.262 88.7051 161.272 88.7074 161.282 88.7067C161.291 88.706 161.301 88.7024 161.309 88.6963C161.317 88.6909 161.323 88.6831 161.327 88.6739C161.331 88.6648 161.331 88.6548 161.329 88.6452L160.767 85.3736C160.753 85.2916 160.759 85.2074 160.785 85.1282C160.811 85.0491 160.856 84.9774 160.915 84.9194L163.296 82.6024C163.303 82.5959 163.308 82.5873 163.311 82.5777C163.313 82.5682 163.313 82.5581 163.309 82.5489C163.306 82.5394 163.301 82.5309 163.293 82.5246C163.286 82.5182 163.277 82.5143 163.267 82.5132L159.977 82.0359C159.895 82.024 159.816 81.9922 159.749 81.9433C159.681 81.8944 159.627 81.8298 159.59 81.7552L158.119 78.7786C158.115 78.7699 158.108 78.7626 158.1 78.7574C158.091 78.7523 158.082 78.7496 158.072 78.7496C158.062 78.7496 158.053 78.7523 158.044 78.7574C158.036 78.7626 158.029 78.7699 158.025 78.7786L156.554 81.7553C156.517 81.8299 156.463 81.8944 156.395 81.9433C156.328 81.9921 156.25 82.0239 156.167 82.0359L152.877 82.5132C152.867 82.5143 152.858 82.5182 152.851 82.5246C152.843 82.5309 152.838 82.5394 152.835 82.5489C152.831 82.5581 152.831 82.5682 152.833 82.5777C152.836 82.5873 152.841 82.5959 152.848 82.6024L155.229 84.9194C155.289 84.9774 155.333 85.0491 155.359 85.1282C155.385 85.2073 155.391 85.2915 155.377 85.3735L154.815 88.6451C154.813 88.6547 154.813 88.6647 154.817 88.6739C154.821 88.683 154.827 88.6908 154.835 88.6962C154.853 88.7087 154.871 88.71 154.891 88.7002L157.833 87.1554C157.908 87.1161 157.99 87.0965 158.072 87.0965L158.072 87.0966Z" fill="black"/>
<path d="M176.328 78.6768L177.799 81.6534C177.82 81.6945 177.85 81.7301 177.887 81.757C177.924 81.7839 177.967 81.8014 178.012 81.808L181.302 82.2853C181.534 82.3191 181.627 82.6039 181.459 82.7674L179.079 85.0844C179.046 85.1163 179.021 85.1558 179.007 85.1994C178.993 85.243 178.989 85.2893 178.997 85.3345L179.559 88.6061C179.599 88.837 179.356 89.013 179.148 88.904L176.206 87.3594C176.165 87.3381 176.12 87.3269 176.074 87.3269C176.028 87.3269 175.983 87.3381 175.942 87.3594L173 88.904C172.792 89.013 172.55 88.8369 172.589 88.6061L173.151 85.3345C173.159 85.2893 173.156 85.243 173.141 85.1994C173.127 85.1558 173.103 85.1163 173.07 85.0844L170.689 82.7674C170.521 82.6039 170.614 82.3191 170.846 82.2853L174.136 81.808C174.181 81.8015 174.225 81.7839 174.262 81.757C174.299 81.7301 174.329 81.6945 174.349 81.6534L175.82 78.6768C175.924 78.4668 176.224 78.4668 176.328 78.6768H176.328Z" fill="#FBB348"/>
<path d="M172.867 89.1674C172.758 89.1673 172.653 89.1328 172.565 89.0689C172.487 89.0129 172.427 88.9362 172.391 88.8474C172.355 88.7587 172.344 88.6616 172.361 88.5672L172.923 85.2956C172.924 85.2873 172.924 85.2787 172.921 85.2707C172.918 85.2626 172.914 85.2553 172.908 85.2494L170.527 82.9324C170.458 82.8658 170.409 82.7811 170.386 82.6881C170.363 82.5951 170.367 82.4975 170.397 82.4066C170.426 82.3153 170.481 82.2342 170.554 82.1725C170.628 82.1108 170.717 82.0709 170.812 82.0575L174.102 81.5802C174.11 81.5789 174.118 81.5756 174.125 81.5706C174.132 81.5656 174.137 81.559 174.141 81.5514L175.612 78.5748C175.7 78.3985 175.876 78.2888 176.073 78.2888C176.27 78.2888 176.447 78.3984 176.534 78.5748L178.005 81.5515C178.009 81.5591 178.014 81.5657 178.021 81.5707C178.028 81.5757 178.036 81.5789 178.045 81.5802L181.334 82.0575C181.429 82.0709 181.519 82.1108 181.592 82.1725C181.665 82.2342 181.72 82.3153 181.749 82.4066C181.81 82.5936 181.76 82.7951 181.619 82.9324L179.238 85.2494C179.232 85.2553 179.228 85.2626 179.225 85.2707C179.223 85.2788 179.222 85.2874 179.223 85.2958L179.785 88.5672C179.802 88.6616 179.792 88.7587 179.755 88.8474C179.719 88.9361 179.659 89.0129 179.581 89.0689C179.504 89.1255 179.412 89.1592 179.316 89.1661C179.22 89.173 179.125 89.1529 179.04 89.108L176.097 87.5633C176.09 87.5593 176.082 87.5572 176.073 87.5572C176.065 87.5572 176.056 87.5593 176.049 87.5633L173.106 89.108C173.032 89.147 172.95 89.1674 172.866 89.1675L172.867 89.1674ZM176.073 87.0965C176.155 87.0965 176.237 87.1161 176.312 87.1554L179.255 88.7002C179.263 88.7051 179.273 88.7073 179.283 88.7066C179.293 88.7059 179.302 88.7023 179.31 88.6962C179.318 88.6908 179.325 88.683 179.328 88.6739C179.332 88.6647 179.333 88.6547 179.331 88.6451L178.769 85.3735C178.755 85.2914 178.761 85.2072 178.787 85.1281C178.812 85.0489 178.857 84.9772 178.917 84.9192L181.297 82.6024C181.305 82.5958 181.31 82.5872 181.312 82.5776C181.315 82.568 181.314 82.558 181.311 82.5487C181.308 82.5392 181.302 82.5308 181.295 82.5244C181.287 82.5181 181.278 82.5142 181.268 82.5132L177.978 82.0358C177.896 82.0239 177.818 81.9921 177.75 81.9432C177.683 81.8943 177.628 81.8297 177.592 81.7551L176.12 78.7785C176.116 78.7698 176.109 78.7625 176.101 78.7574C176.093 78.7522 176.083 78.7495 176.073 78.7495C176.064 78.7495 176.054 78.7522 176.046 78.7574C176.038 78.7625 176.031 78.7698 176.027 78.7785L174.555 81.7552C174.518 81.8298 174.464 81.8943 174.397 81.9431C174.329 81.992 174.251 82.0238 174.169 82.0358L170.879 82.5132C170.869 82.5142 170.859 82.5181 170.852 82.5245C170.844 82.5308 170.839 82.5393 170.836 82.5488C170.833 82.558 170.832 82.5681 170.835 82.5776C170.837 82.5872 170.842 82.5958 170.85 82.6024L173.23 84.9193C173.29 84.9773 173.335 85.049 173.36 85.1281C173.386 85.2072 173.392 85.2914 173.378 85.3734L172.816 88.645C172.814 88.6546 172.815 88.6646 172.819 88.6738C172.822 88.6829 172.829 88.6907 172.837 88.6961C172.854 88.7087 172.873 88.7099 172.892 88.7001L175.835 87.1554C175.91 87.116 175.992 87.0964 176.074 87.0964L176.073 87.0965ZM121.246 82.929H74.3215C74.2603 82.929 74.2017 82.9047 74.1584 82.8615C74.1151 82.8183 74.0908 82.7597 74.0908 82.6986C74.0908 82.6375 74.1151 82.579 74.1584 82.5358C74.2017 82.4926 74.2603 82.4683 74.3215 82.4683H121.246C121.308 82.4683 121.366 82.4926 121.41 82.5358C121.453 82.579 121.477 82.6375 121.477 82.6986C121.477 82.7597 121.453 82.8183 121.41 82.8615C121.366 82.9047 121.308 82.929 121.246 82.929ZM121.246 128.888H74.3215C74.2603 128.888 74.2017 128.863 74.1584 128.82C74.1151 128.777 74.0908 128.719 74.0908 128.657C74.0908 128.596 74.1151 128.538 74.1584 128.495C74.2017 128.451 74.2603 128.427 74.3215 128.427H121.246C121.308 128.427 121.366 128.451 121.41 128.495C121.453 128.538 121.477 128.596 121.477 128.657C121.477 128.719 121.453 128.777 121.41 128.82C121.366 128.863 121.308 128.888 121.246 128.888Z" fill="black"/>
</g>
<g clip-path="url(#clip1_741_7433)">
<path d="M227.9 143.216C227.9 143.216 212.677 150.5 201.184 147.213C189.674 177.428 187.997 234.437 193.887 298.113C193.887 298.113 225.27 309.914 234.292 295.62C234.292 295.62 229.164 255.446 218.438 232.305L223.204 183.639" fill="#FBB348"/>
<path d="M217.42 302.973C219.915 302.973 222.192 302.754 224.232 302.316C228.966 301.3 232.431 299.098 234.531 295.771C234.566 295.715 234.58 295.65 234.572 295.585C234.559 295.484 233.259 285.383 230.664 272.585C228.272 260.79 224.262 244.23 218.726 232.257L223.485 183.667C223.489 183.63 223.485 183.593 223.474 183.557C223.464 183.522 223.446 183.489 223.422 183.46C223.399 183.432 223.37 183.408 223.337 183.39C223.304 183.373 223.269 183.362 223.232 183.359C223.195 183.355 223.158 183.359 223.122 183.369C223.087 183.38 223.054 183.398 223.025 183.421C222.996 183.445 222.973 183.474 222.955 183.506C222.938 183.539 222.927 183.575 222.923 183.612L218.157 232.278C218.152 232.328 218.161 232.378 218.182 232.424C223.71 244.352 227.72 260.906 230.11 272.693C232.562 284.787 233.857 294.468 233.999 295.555C229.39 302.727 218.822 302.994 210.752 301.948C202.622 300.896 195.332 298.338 194.152 297.91C187.981 228.832 190.538 175.462 201.355 147.553C207.298 149.167 214.174 147.997 218.925 146.72C222.041 145.887 225.084 144.8 228.022 143.471C228.089 143.438 228.14 143.38 228.164 143.31C228.189 143.24 228.184 143.163 228.152 143.096C228.12 143.029 228.063 142.977 227.993 142.952C227.923 142.927 227.846 142.931 227.779 142.962C224.868 144.278 221.855 145.353 218.768 146.178C214.023 147.453 207.134 148.621 201.262 146.941C201.195 146.922 201.122 146.929 201.059 146.96C200.996 146.991 200.947 147.044 200.922 147.11C195.32 161.427 191.891 182.253 190.729 209.01C189.622 234.468 190.591 264.455 193.606 298.139C193.611 298.192 193.631 298.242 193.663 298.284C193.695 298.327 193.738 298.359 193.788 298.378C193.867 298.407 201.767 301.353 210.67 302.507C212.908 302.807 215.162 302.962 217.42 302.973Z" fill="black"/>
<path d="M198.941 146.165C258.944 148.368 244.623 197.88 233.443 232.24C233.443 232.24 254.706 254.391 263.779 268.061C263.779 268.061 252.909 308.956 235.343 295.306C235.343 295.306 206.322 252.967 204.656 236.557C201.945 209.848 207.908 184.266 207.908 184.266" fill="#FBB348"/>
<path d="M242.464 298.375C243.494 298.373 244.517 298.202 245.492 297.869C248.183 296.962 250.835 294.824 253.375 291.514C255.391 288.885 257.345 285.512 259.183 281.487C261.135 277.162 262.762 272.699 264.052 268.133C264.062 268.094 264.064 268.054 264.058 268.015C264.051 267.975 264.037 267.938 264.014 267.904C255.378 254.894 235.479 233.964 233.763 232.166C237.454 220.818 241.506 207.696 243.064 195.314C244.883 180.849 243.033 169.906 237.408 161.859C234.079 157.097 229.352 153.35 223.357 150.721C216.848 147.866 208.637 146.239 198.951 145.883C198.914 145.882 198.877 145.888 198.842 145.901C198.808 145.914 198.776 145.933 198.749 145.959C198.721 145.984 198.7 146.014 198.684 146.048C198.669 146.081 198.66 146.118 198.659 146.155C198.657 146.192 198.663 146.229 198.676 146.264C198.689 146.298 198.709 146.33 198.734 146.357C198.759 146.385 198.79 146.407 198.823 146.422C198.857 146.437 198.893 146.446 198.93 146.447C217.329 147.123 230.119 152.416 236.945 162.182C242.487 170.11 244.305 180.925 242.503 195.245C240.944 207.636 236.87 220.793 233.174 232.153C233.158 232.201 233.156 232.253 233.167 232.303C233.179 232.353 233.203 232.398 233.239 232.435C233.451 232.656 254.478 254.609 263.473 268.11C262.194 272.605 260.587 277 258.666 281.261C255.816 287.501 251.186 295.355 245.312 297.335C242.129 298.407 238.846 297.659 235.551 295.111C235.077 294.416 228.022 284.057 220.865 271.94C211.122 255.443 205.614 243.198 204.936 236.529C203.539 222.76 204.496 209.302 205.544 200.437C206.681 190.828 208.167 184.394 208.182 184.33C208.191 184.294 208.193 184.256 208.187 184.22C208.181 184.183 208.168 184.147 208.149 184.115C208.129 184.083 208.104 184.056 208.073 184.034C208.043 184.012 208.009 183.996 207.972 183.988C207.936 183.979 207.898 183.978 207.861 183.985C207.824 183.991 207.789 184.004 207.758 184.024C207.726 184.044 207.699 184.07 207.677 184.101C207.656 184.131 207.641 184.166 207.633 184.202C207.618 184.266 206.125 190.724 204.985 200.363C203.932 209.258 202.972 222.763 204.375 236.586C205.07 243.432 210.455 255.424 220.381 272.229C227.764 284.729 235.037 295.36 235.11 295.466C235.126 295.49 235.147 295.511 235.17 295.529C237.608 297.424 240.051 298.375 242.464 298.375Z" fill="black"/>
<path d="M217.92 74.2857C202.353 58.1428 189.465 74.6864 206.578 88.7043C203.611 102.853 225.976 102.101 236.4 101.765C243.469 98.1922 252.261 71.5292 217.92 74.2857Z" fill="#FF6996"/>
<path d="M204.188 116.314C195.151 115.572 190.691 121.655 185.746 127.093C180.397 132.975 173.798 135.772 173.798 135.772C168.931 136.046 132.48 121.034 134.734 141.706C134.734 141.706 132.355 151.39 141.594 154.572C151.56 158.005 176.861 163.025 197.52 143.216" fill="#92ACEF"/>
<path d="M136.04 145.203C136.093 145.203 136.145 145.188 136.19 145.16C136.235 145.132 136.271 145.091 136.294 145.043C136.317 144.996 136.326 144.942 136.32 144.889C136.314 144.837 136.294 144.787 136.261 144.745C135.427 143.702 135.012 141.592 135.007 141.571C135 141.535 134.986 141.5 134.966 141.469C134.946 141.438 134.919 141.412 134.889 141.391C134.858 141.37 134.823 141.355 134.787 141.348C134.751 141.341 134.713 141.34 134.677 141.347C134.64 141.354 134.606 141.369 134.575 141.389C134.544 141.409 134.517 141.436 134.497 141.466C134.476 141.497 134.461 141.531 134.454 141.568C134.446 141.604 134.446 141.641 134.453 141.678C134.471 141.77 134.898 143.945 135.819 145.097C135.846 145.13 135.879 145.157 135.918 145.176C135.956 145.194 135.998 145.203 136.04 145.203Z" fill="black"/>
<path d="M161.058 158.065C162.518 158.065 164.025 158.011 165.569 157.891C177.887 156.93 188.703 152.061 197.715 143.419C197.769 143.368 197.8 143.297 197.802 143.222C197.803 143.147 197.775 143.075 197.723 143.021C197.672 142.967 197.6 142.935 197.526 142.934C197.451 142.932 197.378 142.961 197.324 143.012C175.641 163.804 149.256 156.913 141.686 154.306C137.963 153.023 135.707 150.535 134.98 146.91C134.654 145.212 134.664 143.467 135.009 141.773C135.016 141.741 135.019 141.708 135.015 141.676C134.617 138.028 135.442 135.292 137.466 133.544C143.318 128.489 158.038 132.308 166.832 134.589C170.248 135.475 172.716 136.116 173.814 136.054C173.843 136.052 173.872 136.046 173.899 136.036C173.961 136.013 180.181 133.616 185.154 128.169C185.614 127.664 186.087 127.135 186.545 126.624C191.026 121.613 196.105 115.934 204.164 116.596C204.238 116.601 204.312 116.577 204.368 116.528C204.425 116.48 204.46 116.411 204.466 116.337C204.472 116.263 204.449 116.19 204.401 116.133C204.353 116.076 204.285 116.04 204.21 116.033C195.871 115.348 190.693 121.139 186.124 126.248C185.646 126.782 185.195 127.286 184.737 127.788C180.067 132.903 174.28 135.278 173.739 135.493C172.699 135.529 170.167 134.872 166.973 134.043C162.572 132.901 156.545 131.338 150.988 130.736C144.329 130.016 139.785 130.795 137.096 133.117C134.933 134.986 134.042 137.87 134.448 141.689C134.092 143.441 134.083 145.246 134.422 147.001C134.948 149.646 136.602 153.152 141.502 154.839C145.236 156.125 152.32 158.065 161.058 158.065ZM229.923 102.18C232.292 102.18 234.496 102.109 236.34 102.049L236.409 102.047C236.451 102.046 236.491 102.036 236.528 102.017C238.495 101.022 240.522 98.3825 241.816 95.1272C243.288 91.4262 243.593 87.594 242.676 84.3356C241.676 80.7807 239.319 78.0677 235.671 76.272C231.415 74.1768 225.48 73.4102 218.03 73.9935C215.369 71.2536 212.665 69.3251 209.993 68.2604C207.577 67.2975 205.255 67.0913 203.28 67.6644C200.711 68.4097 198.916 70.4085 198.355 73.1482C197.893 75.4027 198.296 77.9706 199.52 80.5744C200.879 83.4629 203.149 86.2346 206.268 88.814C205.66 91.8955 206.214 94.4846 207.916 96.5119C211.99 101.364 221.896 102.18 229.923 102.18ZM236.328 101.485H236.322C228.328 101.743 213.449 102.223 208.349 96.1493C206.733 94.2247 206.23 91.7392 206.855 88.7621C206.865 88.7116 206.862 88.6591 206.845 88.6104C206.827 88.5617 206.797 88.5187 206.757 88.486C203.636 85.9296 201.374 83.187 200.032 80.3345C198.859 77.8416 198.471 75.3959 198.908 73.2614C199.426 70.7339 201.077 68.8909 203.438 68.2065C205.291 67.6687 207.486 67.8686 209.785 68.7846C212.413 69.8318 215.081 71.7484 217.716 74.4812C217.745 74.5112 217.781 74.5345 217.82 74.5492C217.859 74.564 217.901 74.5699 217.942 74.5666C225.352 73.972 231.233 74.7161 235.422 76.7782C238.92 78.5001 241.178 81.0942 242.133 84.4884C243.017 87.6283 242.718 91.3326 241.292 94.9188C240.058 98.0206 238.161 100.529 236.328 101.485Z" fill="black"/>
<path d="M219.52 76.6665C219.571 76.6664 219.621 76.6525 219.665 76.6262C219.709 76.5999 219.744 76.5623 219.769 76.5172C219.793 76.4722 219.804 76.4215 219.801 76.3705C219.799 76.3195 219.783 76.2701 219.754 76.2277C217.113 72.2748 213.87 70.2706 213.733 70.1871C213.669 70.1481 213.592 70.1361 213.519 70.1537C213.447 70.1713 213.384 70.217 213.345 70.2809C213.306 70.3447 213.294 70.4215 213.311 70.4942C213.329 70.5669 213.375 70.6297 213.439 70.6686C213.471 70.6885 216.715 72.6968 219.285 76.5411C219.311 76.5797 219.346 76.6114 219.387 76.6332C219.428 76.6551 219.473 76.6665 219.52 76.6665Z" fill="black"/>
<path d="M234.292 295.62C234.292 295.62 241.754 308.085 234.269 322.846L178.217 322.816C178.217 322.816 166.921 310.54 186.052 299.635C198.104 292.766 210.134 301.992 215.806 302.586C218.834 302.902 231.43 298.458 234.292 295.62Z" fill="white"/>
<path d="M236.445 317.345C236.445 317.345 235.986 320.249 234.268 322.846L178.216 322.817C178.216 322.817 176.215 320.61 175.272 317.107L236.445 317.345Z" fill="#FF6996"/>
<path d="M196.536 322.906C196.611 322.906 196.683 322.877 196.736 322.824C196.788 322.771 196.818 322.7 196.819 322.625L196.84 317.191C196.84 317.154 196.833 317.117 196.819 317.083C196.805 317.048 196.784 317.017 196.758 316.991C196.732 316.965 196.701 316.944 196.667 316.929C196.632 316.915 196.596 316.908 196.559 316.907H196.558C196.483 316.907 196.411 316.937 196.358 316.99C196.306 317.042 196.276 317.114 196.275 317.189L196.254 322.623C196.254 322.66 196.261 322.697 196.275 322.731C196.289 322.765 196.31 322.796 196.336 322.823C196.362 322.849 196.393 322.87 196.427 322.884C196.462 322.899 196.498 322.906 196.535 322.906H196.536ZM189.101 322.884C189.176 322.884 189.247 322.854 189.3 322.801C189.353 322.749 189.383 322.677 189.383 322.603L189.404 317.168C189.404 317.131 189.397 317.094 189.383 317.06C189.369 317.026 189.349 316.995 189.322 316.968C189.296 316.942 189.265 316.921 189.231 316.907C189.197 316.893 189.16 316.885 189.123 316.885H189.122C189.047 316.885 188.976 316.915 188.923 316.967C188.87 317.02 188.84 317.091 188.84 317.166L188.819 322.601C188.818 322.638 188.826 322.674 188.84 322.709C188.854 322.743 188.874 322.774 188.9 322.8C188.927 322.827 188.958 322.848 188.992 322.862C189.026 322.876 189.063 322.884 189.1 322.884H189.101Z" fill="black"/>
<path d="M234.269 323.128C234.321 323.128 234.372 323.114 234.416 323.086C234.461 323.059 234.497 323.02 234.52 322.973C238.423 315.278 238.221 308.215 237.365 303.646C236.437 298.692 234.612 295.604 234.535 295.475C234.513 295.439 234.483 295.407 234.447 295.384C234.411 295.361 234.37 295.346 234.328 295.34C234.285 295.335 234.242 295.339 234.202 295.353C234.161 295.367 234.124 295.39 234.094 295.42C231.336 298.156 218.81 302.616 215.836 302.305C214.318 302.146 212.287 301.335 209.934 300.395C203.537 297.839 194.774 294.339 185.913 299.39C179.267 303.178 175.515 307.552 174.762 312.39C173.828 318.383 177.838 322.821 178.009 323.008C178.036 323.037 178.068 323.059 178.104 323.075C178.139 323.091 178.178 323.099 178.217 323.099L234.269 323.128L234.269 323.128ZM234.219 296.07C234.697 296.967 236.07 299.782 236.814 303.772C237.644 308.22 237.84 315.078 234.095 322.563L178.345 322.534C177.786 321.876 174.496 317.737 175.32 312.47C176.048 307.812 179.706 303.576 186.191 299.88C194.817 294.963 203.433 298.405 209.724 300.919C212.115 301.874 214.18 302.699 215.776 302.866C215.896 302.878 216.017 302.884 216.138 302.883C219.679 302.884 230.988 298.854 234.219 296.071V296.07Z" fill="black"/>
<path d="M236.446 317.627C236.521 317.627 236.592 317.597 236.645 317.545C236.698 317.492 236.728 317.42 236.729 317.345C236.729 317.271 236.699 317.199 236.646 317.146C236.593 317.093 236.522 317.063 236.447 317.063L175.39 316.825H175.389C175.314 316.825 175.242 316.855 175.189 316.907C175.136 316.96 175.106 317.032 175.106 317.107C175.106 317.182 175.135 317.253 175.188 317.306C175.241 317.359 175.313 317.389 175.387 317.389L236.445 317.627H236.446Z" fill="black"/>
<path d="M186.77 322.868C186.844 322.868 186.916 322.838 186.969 322.786C187.022 322.733 187.052 322.662 187.052 322.587L187.073 317.153C187.073 317.116 187.066 317.079 187.052 317.045C187.038 317.01 187.017 316.979 186.991 316.953C186.965 316.926 186.934 316.906 186.9 316.891C186.866 316.877 186.829 316.87 186.792 316.869H186.791C186.716 316.869 186.645 316.899 186.592 316.952C186.539 317.004 186.509 317.076 186.509 317.15L186.488 322.585C186.487 322.622 186.495 322.659 186.509 322.693C186.523 322.727 186.543 322.758 186.569 322.785C186.596 322.811 186.627 322.832 186.661 322.846C186.695 322.86 186.732 322.868 186.769 322.868H186.77ZM196.63 304.383C196.669 304.383 196.709 304.375 196.745 304.359C196.781 304.342 196.813 304.319 196.84 304.289C196.866 304.26 196.886 304.225 196.899 304.187C196.911 304.15 196.915 304.11 196.911 304.07C196.492 300.203 190.04 297.937 189.766 297.842C189.695 297.818 189.617 297.822 189.55 297.855C189.483 297.888 189.431 297.946 189.407 298.017C189.382 298.087 189.387 298.165 189.42 298.232C189.453 298.299 189.511 298.351 189.582 298.375C189.645 298.397 195.969 300.619 196.349 304.131C196.357 304.2 196.39 304.264 196.441 304.311C196.493 304.357 196.56 304.383 196.63 304.383ZM192.161 306.582C192.201 306.582 192.24 306.574 192.276 306.558C192.313 306.542 192.345 306.518 192.372 306.489C192.398 306.459 192.418 306.424 192.43 306.387C192.442 306.349 192.447 306.309 192.442 306.27C192.023 302.402 185.572 300.136 185.297 300.041C185.227 300.017 185.149 300.022 185.082 300.054C185.015 300.087 184.963 300.145 184.939 300.216C184.914 300.287 184.919 300.364 184.952 300.431C184.984 300.499 185.043 300.55 185.113 300.575C185.177 300.597 191.501 302.818 191.881 306.33C191.889 306.399 191.921 306.463 191.973 306.51C192.025 306.556 192.092 306.582 192.161 306.582ZM187.997 309.489C188.036 309.489 188.076 309.481 188.112 309.465C188.148 309.449 188.181 309.425 188.207 309.396C188.234 309.366 188.254 309.331 188.266 309.294C188.278 309.256 188.282 309.216 188.278 309.177C187.859 305.309 181.407 303.043 181.133 302.948C181.062 302.924 180.984 302.928 180.917 302.961C180.85 302.994 180.798 303.052 180.774 303.123C180.749 303.194 180.754 303.271 180.787 303.338C180.82 303.406 180.878 303.457 180.949 303.482C181.012 303.504 187.336 305.725 187.716 309.237C187.724 309.306 187.757 309.37 187.808 309.417C187.86 309.463 187.927 309.489 187.997 309.489ZM220.976 323.001C221.051 323.001 221.122 322.972 221.175 322.919C221.228 322.866 221.258 322.795 221.258 322.72L221.279 317.286C221.28 317.249 221.272 317.212 221.258 317.178C221.244 317.143 221.224 317.112 221.198 317.086C221.171 317.06 221.14 317.039 221.106 317.024C221.072 317.01 221.035 317.003 220.998 317.002H220.997C220.923 317.002 220.851 317.032 220.798 317.085C220.745 317.137 220.715 317.209 220.715 317.283L220.694 322.718C220.694 322.755 220.701 322.792 220.715 322.826C220.729 322.86 220.75 322.891 220.776 322.918C220.802 322.944 220.833 322.965 220.867 322.979C220.901 322.994 220.938 323.001 220.975 323.001H220.976ZM216.917 323C216.991 323 217.063 322.971 217.116 322.918C217.169 322.866 217.198 322.794 217.199 322.719L217.22 317.285C217.22 317.21 217.191 317.138 217.138 317.085C217.085 317.032 217.014 317.002 216.939 317.002H216.938C216.863 317.002 216.791 317.031 216.739 317.084C216.686 317.137 216.656 317.208 216.655 317.283L216.634 322.717C216.634 322.754 216.641 322.791 216.655 322.825C216.669 322.859 216.69 322.891 216.716 322.917C216.742 322.943 216.773 322.964 216.808 322.978C216.842 322.993 216.878 323 216.915 323H216.917ZM211.892 322.999C211.967 322.999 212.038 322.97 212.091 322.917C212.144 322.865 212.174 322.793 212.174 322.719L212.196 317.284C212.196 317.247 212.189 317.21 212.175 317.176C212.16 317.142 212.14 317.111 212.114 317.084C212.088 317.058 212.057 317.037 212.022 317.023C211.988 317.008 211.952 317.001 211.914 317.001H211.913C211.839 317.001 211.767 317.03 211.714 317.083C211.661 317.136 211.631 317.207 211.631 317.282L211.61 322.716C211.61 322.753 211.617 322.79 211.631 322.824C211.645 322.859 211.666 322.89 211.692 322.916C211.718 322.942 211.749 322.963 211.783 322.978C211.817 322.992 211.854 322.999 211.891 322.999H211.892ZM209.574 322.957C209.649 322.957 209.72 322.927 209.773 322.875C209.826 322.822 209.856 322.75 209.856 322.676L209.877 317.241C209.877 317.204 209.87 317.168 209.856 317.133C209.842 317.099 209.822 317.068 209.795 317.042C209.769 317.015 209.738 316.994 209.704 316.98C209.67 316.966 209.633 316.958 209.596 316.958H209.595C209.52 316.958 209.449 316.988 209.396 317.04C209.343 317.093 209.313 317.164 209.313 317.239L209.292 322.674C209.292 322.711 209.299 322.747 209.313 322.782C209.327 322.816 209.347 322.847 209.374 322.873C209.4 322.9 209.431 322.921 209.465 322.935C209.499 322.949 209.536 322.957 209.573 322.957H209.574ZM229.543 323.06C229.617 323.06 229.689 323.031 229.742 322.978C229.795 322.925 229.825 322.854 229.825 322.779L229.846 317.345C229.846 317.308 229.839 317.271 229.825 317.237C229.811 317.202 229.79 317.171 229.764 317.145C229.738 317.118 229.707 317.098 229.673 317.083C229.639 317.069 229.602 317.061 229.565 317.061H229.564C229.489 317.061 229.418 317.091 229.365 317.144C229.312 317.196 229.282 317.268 229.282 317.342L229.26 322.777C229.26 322.814 229.267 322.851 229.282 322.885C229.296 322.919 229.316 322.95 229.342 322.977C229.368 323.003 229.399 323.024 229.434 323.038C229.468 323.052 229.505 323.06 229.542 323.06H229.543ZM201.022 322.924C201.097 322.924 201.169 322.894 201.222 322.841C201.274 322.789 201.304 322.717 201.305 322.642L201.326 317.208C201.326 317.171 201.319 317.134 201.305 317.1C201.291 317.066 201.27 317.035 201.244 317.008C201.218 316.982 201.187 316.961 201.153 316.947C201.118 316.932 201.082 316.925 201.045 316.925H201.044C200.969 316.925 200.897 316.954 200.844 317.007C200.791 317.06 200.762 317.131 200.761 317.206L200.74 322.64C200.74 322.677 200.747 322.714 200.761 322.748C200.775 322.783 200.796 322.814 200.822 322.84C200.848 322.866 200.879 322.887 200.913 322.902C200.947 322.916 200.984 322.923 201.021 322.924H201.022ZM181.069 322.846C181.143 322.846 181.215 322.816 181.268 322.764C181.321 322.711 181.351 322.639 181.351 322.565L181.372 317.13C181.372 317.093 181.365 317.057 181.351 317.022C181.337 316.988 181.316 316.957 181.29 316.931C181.264 316.904 181.233 316.883 181.199 316.869C181.165 316.855 181.128 316.847 181.091 316.847H181.09C181.015 316.847 180.944 316.877 180.891 316.929C180.838 316.982 180.808 317.054 180.808 317.128L180.787 322.563C180.786 322.6 180.794 322.636 180.808 322.671C180.822 322.705 180.842 322.736 180.868 322.763C180.895 322.789 180.926 322.81 180.96 322.824C180.994 322.838 181.031 322.846 181.068 322.846H181.069ZM242.464 298.375C243.494 298.373 244.517 298.202 245.492 297.869C248.183 296.962 250.835 294.824 253.375 291.514C255.391 288.885 257.345 285.512 259.183 281.487C261.135 277.162 262.762 272.699 264.052 268.133C264.062 268.094 264.064 268.054 264.058 268.015C264.051 267.975 264.037 267.938 264.014 267.904C255.378 254.894 235.479 233.964 233.763 232.166C237.454 220.818 241.506 207.696 243.064 195.314C244.883 180.849 243.033 169.906 237.408 161.859C234.079 157.097 229.352 153.35 223.357 150.721C216.848 147.866 208.637 146.239 198.951 145.883C198.914 145.882 198.877 145.888 198.842 145.901C198.808 145.914 198.776 145.933 198.749 145.959C198.721 145.984 198.7 146.014 198.684 146.048C198.669 146.081 198.66 146.118 198.659 146.155C198.657 146.192 198.663 146.229 198.676 146.264C198.689 146.298 198.709 146.33 198.734 146.357C198.759 146.385 198.79 146.407 198.823 146.422C198.857 146.437 198.893 146.446 198.93 146.447C217.329 147.123 230.119 152.416 236.945 162.182C242.487 170.11 244.305 180.925 242.503 195.245C240.944 207.636 236.87 220.793 233.174 232.153C233.158 232.201 233.156 232.253 233.167 232.303C233.179 232.353 233.203 232.398 233.239 232.435C233.451 232.656 254.478 254.609 263.473 268.11C262.194 272.605 260.587 277 258.666 281.261C255.816 287.501 251.186 295.355 245.312 297.335C242.129 298.407 238.846 297.659 235.551 295.111C235.077 294.416 228.022 284.057 220.865 271.94C211.122 255.443 205.614 243.198 204.936 236.529C203.539 222.76 204.496 209.302 205.544 200.437C206.681 190.828 208.167 184.394 208.182 184.33C208.191 184.294 208.193 184.256 208.187 184.22C208.181 184.183 208.168 184.147 208.149 184.115C208.129 184.083 208.104 184.056 208.073 184.034C208.043 184.012 208.009 183.996 207.972 183.988C207.936 183.979 207.898 183.978 207.861 183.985C207.824 183.991 207.789 184.004 207.758 184.024C207.726 184.044 207.699 184.07 207.677 184.101C207.656 184.131 207.641 184.166 207.633 184.202C207.618 184.266 206.125 190.724 204.985 200.363C203.932 209.258 202.972 222.763 204.375 236.586C205.07 243.432 210.455 255.424 220.381 272.229C227.764 284.729 235.037 295.36 235.11 295.466C235.126 295.49 235.147 295.511 235.17 295.529C237.608 297.424 240.051 298.375 242.464 298.375Z" fill="black"/>
<path d="M231.33 236.84C231.383 236.84 231.435 236.825 231.48 236.797C231.525 236.769 231.561 236.728 231.584 236.681L233.65 232.439C233.666 232.406 233.676 232.37 233.678 232.333C233.68 232.296 233.675 232.259 233.663 232.224C233.651 232.189 233.632 232.156 233.608 232.129C233.583 232.101 233.553 232.078 233.52 232.062C233.486 232.046 233.45 232.036 233.413 232.034C233.376 232.032 233.339 232.037 233.304 232.049C233.269 232.061 233.237 232.08 233.209 232.105C233.181 232.129 233.158 232.159 233.142 232.193L231.076 236.434C231.055 236.477 231.046 236.524 231.048 236.572C231.051 236.62 231.065 236.666 231.091 236.707C231.116 236.747 231.151 236.781 231.193 236.804C231.235 236.827 231.282 236.839 231.33 236.84H231.33Z" fill="black"/>
<path d="M216.689 108.574C216.689 108.574 207.419 105.178 204.187 116.315C201.847 124.191 199.319 125.287 196.919 131.737C192.837 142.708 198.768 149.117 202.605 151.469C216.744 160.133 243.922 150.206 227.289 118.668C227.289 118.668 229.669 109.39 216.689 108.574Z" fill="#92ACEF"/>
<path d="M213.63 154.747C218.788 154.747 223.89 153.01 227.47 149.656C230.685 146.645 232.516 142.5 232.764 137.671C233.049 132.115 231.308 125.71 227.588 118.63C227.72 118.017 228.23 115.027 226.301 112.375C224.547 109.963 221.333 108.59 216.747 108.295C216.312 108.144 212.796 107.02 209.354 108.761C206.812 110.047 204.983 112.562 203.917 116.236C203.905 116.272 203.901 116.31 203.904 116.347C203.908 116.385 203.918 116.421 203.936 116.455C203.954 116.488 203.978 116.518 204.007 116.541C204.037 116.565 204.071 116.583 204.107 116.593C204.143 116.604 204.181 116.607 204.219 116.603C204.256 116.598 204.292 116.586 204.325 116.568C204.358 116.549 204.387 116.524 204.41 116.494C204.433 116.464 204.449 116.429 204.459 116.393C205.479 112.878 207.209 110.48 209.602 109.267C212.979 107.556 216.557 108.826 216.593 108.839C216.618 108.848 216.645 108.853 216.672 108.855C221.099 109.134 224.183 110.427 225.84 112.7C227.8 115.39 227.024 118.566 227.016 118.598C226.998 118.666 227.007 118.738 227.039 118.799C236.403 136.554 231.086 145.495 227.084 149.244C223.607 152.501 218.65 154.187 213.636 154.188C209.834 154.188 206 153.218 202.753 151.228C201.014 150.163 192.576 144.221 197.184 131.835C197.62 130.655 198.127 129.503 198.703 128.385C198.737 128.318 198.744 128.241 198.721 128.17C198.698 128.098 198.648 128.039 198.582 128.005C198.515 127.97 198.438 127.964 198.366 127.987C198.295 128.01 198.236 128.06 198.201 128.126C197.615 129.265 197.099 130.437 196.655 131.638C194.83 136.544 194.789 141.022 196.535 144.95C198.26 148.832 201.251 150.97 202.457 151.709C205.791 153.752 209.727 154.747 213.63 154.747Z" fill="black"/>
<path d="M220.482 140.397C220.482 140.397 222.042 140.972 222.797 142.387C223.553 143.802 225.332 146.698 226.605 147.509C226.605 147.509 230.781 166.726 249.138 167.852C249.138 167.852 254.167 166.548 254.811 163.322C255.455 160.095 254.373 158.994 254.386 157.22C254.4 155.446 254.59 149.088 250.402 144.674C246.215 140.261 244.895 138.951 243.253 136.76C237.804 129.491 237.235 121.586 227.289 118.668" fill="#92ACEF"/>
<path d="M249.138 168.135C249.162 168.135 249.186 168.132 249.209 168.126C249.421 168.07 254.417 166.738 255.088 163.377C255.513 161.248 255.208 160.018 254.939 158.933C254.792 158.338 254.664 157.824 254.669 157.222L254.67 157.056C254.69 155.026 254.751 148.848 250.607 144.481C250.011 143.852 249.473 143.287 248.984 142.773C246.079 139.72 244.877 138.457 243.479 136.591C241.99 134.605 240.783 132.378 239.617 130.225C236.455 124.389 233.468 118.878 225.398 118.204C225.361 118.2 225.324 118.204 225.288 118.215C225.252 118.226 225.219 118.244 225.19 118.267C225.161 118.291 225.138 118.321 225.12 118.354C225.103 118.387 225.092 118.423 225.089 118.461C225.086 118.498 225.091 118.536 225.102 118.571C225.114 118.607 225.132 118.64 225.156 118.668C225.181 118.696 225.211 118.72 225.244 118.736C225.278 118.753 225.314 118.763 225.351 118.766C233.117 119.415 236.033 124.796 239.12 130.493C240.297 132.665 241.513 134.91 243.027 136.929C244.445 138.822 245.654 140.092 248.575 143.161C249.064 143.675 249.602 144.241 250.198 144.869C254.184 149.07 254.125 155.076 254.106 157.05L254.104 157.218C254.099 157.891 254.241 158.463 254.391 159.069C254.646 160.096 254.935 161.261 254.534 163.267C253.932 166.281 249.115 167.567 249.067 167.58C249 167.597 248.943 167.638 248.904 167.694C248.866 167.751 248.849 167.82 248.858 167.888C248.866 167.956 248.9 168.019 248.951 168.064C249.003 168.11 249.069 168.135 249.138 168.135ZM226.605 147.792C226.666 147.792 226.726 147.772 226.775 147.736C226.824 147.699 226.86 147.648 226.877 147.589C226.894 147.53 226.892 147.468 226.87 147.411C226.849 147.353 226.809 147.305 226.758 147.272C225.61 146.54 223.91 143.87 223.047 142.254C222.25 140.762 220.648 140.158 220.58 140.133C220.51 140.107 220.433 140.11 220.365 140.142C220.297 140.173 220.245 140.23 220.219 140.3C220.193 140.37 220.196 140.447 220.227 140.515C220.258 140.583 220.315 140.636 220.384 140.662C220.399 140.667 221.855 141.221 222.549 142.52C223.315 143.955 225.118 146.896 226.455 147.748C226.5 147.776 226.552 147.792 226.605 147.792Z" fill="black"/>
<path d="M134.634 136.331L139.755 137.467C139.755 137.467 143.44 143.954 137.568 147.726L132.994 146.533C132.994 146.533 128.608 151.783 118.418 148.356L113.747 132.975L134.634 136.331Z" fill="#FFAAC3"/>
<path d="M124.904 149.793C126.903 149.793 128.475 149.423 129.626 148.994C131.619 148.25 132.734 147.217 133.087 146.849L137.496 147.999C137.568 148.018 137.644 148.008 137.709 147.971C140.871 146.148 141.322 143.339 141.144 141.303C141.011 139.921 140.624 138.576 140.004 137.334C139.985 137.298 139.958 137.267 139.926 137.242C139.894 137.218 139.856 137.201 139.817 137.192L134.695 136.056C134.659 136.047 134.621 136.046 134.584 136.052C134.547 136.059 134.512 136.072 134.481 136.092C134.449 136.112 134.422 136.138 134.4 136.168C134.379 136.199 134.363 136.233 134.355 136.27C134.347 136.306 134.347 136.344 134.353 136.38C134.36 136.417 134.373 136.452 134.394 136.483C134.414 136.515 134.44 136.542 134.471 136.563C134.502 136.584 134.536 136.599 134.573 136.607L139.564 137.714C140.112 138.864 140.457 140.1 140.584 141.368C140.813 144.045 139.784 146.081 137.526 147.424L133.066 146.26C133.014 146.247 132.959 146.248 132.908 146.264C132.857 146.281 132.812 146.311 132.778 146.352C132.767 146.365 131.68 147.634 129.393 148.478C127.278 149.259 123.672 149.825 118.509 148.089C118.473 148.077 118.436 148.072 118.399 148.074C118.362 148.077 118.326 148.087 118.293 148.103C118.26 148.12 118.23 148.142 118.206 148.17C118.181 148.198 118.163 148.231 118.151 148.266C118.139 148.301 118.134 148.338 118.137 148.375C118.139 148.412 118.149 148.448 118.165 148.481C118.182 148.514 118.204 148.544 118.232 148.568C118.26 148.593 118.293 148.611 118.328 148.623C120.882 149.482 123.073 149.793 124.904 149.793Z" fill="black"/>
<path d="M119.61 142.711C119.61 142.711 112.751 142.469 113.385 146.469C114.018 150.468 127.164 149.817 126.307 145.41C125.684 142.215 119.303 142.935 118.192 143.833" fill="#FFAAC3"/>
<path d="M119.391 149.411C121.86 149.411 124.376 148.8 125.657 147.713C126.435 147.053 126.755 146.238 126.584 145.356C126.391 144.367 125.674 143.621 124.509 143.197C122.313 142.398 118.908 142.892 118.015 143.614C117.986 143.638 117.962 143.666 117.944 143.699C117.926 143.732 117.914 143.767 117.91 143.805C117.906 143.842 117.91 143.879 117.92 143.915C117.931 143.95 117.948 143.984 117.971 144.013C117.995 144.042 118.024 144.066 118.057 144.083C118.089 144.101 118.125 144.112 118.162 144.116C118.199 144.12 118.237 144.116 118.273 144.105C118.308 144.094 118.341 144.077 118.37 144.053C119.069 143.488 122.263 142.98 124.316 143.727C125.299 144.084 125.875 144.669 126.03 145.464C126.162 146.143 125.914 146.755 125.292 147.283C123.443 148.851 118.578 149.346 115.651 148.262C114.829 147.957 113.817 147.392 113.664 146.425C113.543 145.664 113.706 145.044 114.16 144.529C115.625 142.875 119.561 142.992 119.6 142.993C119.675 142.996 119.748 142.968 119.803 142.917C119.858 142.866 119.89 142.795 119.892 142.721C119.895 142.646 119.868 142.573 119.817 142.518C119.766 142.464 119.695 142.431 119.62 142.429C119.448 142.423 115.38 142.301 113.739 144.155C113.173 144.794 112.96 145.587 113.106 146.513C113.261 147.491 114.073 148.279 115.454 148.79C116.593 149.213 117.985 149.411 119.391 149.411Z" fill="black"/>
<path d="M117.246 137.47C117.246 137.47 110.388 137.228 111.022 141.227C111.656 145.226 124.802 144.576 123.943 140.169C123.322 136.973 116.94 137.694 115.829 138.592" fill="#FFAAC3"/>
<path d="M117.029 144.17C119.498 144.17 122.013 143.559 123.293 142.472C124.071 141.811 124.391 140.996 124.219 140.115C124.028 139.126 123.311 138.38 122.147 137.956C119.951 137.156 116.545 137.65 115.65 138.373C115.592 138.42 115.555 138.488 115.547 138.562C115.539 138.637 115.561 138.711 115.609 138.77C115.656 138.828 115.724 138.865 115.798 138.873C115.873 138.881 115.947 138.859 116.006 138.811C116.705 138.246 119.9 137.738 121.954 138.486C122.935 138.843 123.511 139.428 123.665 140.223C123.798 140.902 123.55 141.514 122.928 142.042C121.08 143.61 116.215 144.105 113.287 143.021C112.465 142.716 111.453 142.15 111.3 141.183C111.179 140.421 111.342 139.801 111.797 139.287C113.263 137.631 117.196 137.75 117.236 137.751C117.273 137.753 117.31 137.747 117.344 137.734C117.379 137.721 117.411 137.701 117.438 137.676C117.465 137.651 117.487 137.62 117.503 137.586C117.518 137.553 117.527 137.516 117.528 137.479C117.529 137.442 117.523 137.405 117.51 137.371C117.497 137.336 117.478 137.304 117.452 137.277C117.427 137.25 117.397 137.228 117.363 137.213C117.329 137.197 117.293 137.189 117.256 137.187C117.083 137.181 113.015 137.06 111.374 138.913C110.808 139.552 110.596 140.345 110.743 141.27C110.898 142.249 111.71 143.037 113.091 143.549C114.231 143.972 115.622 144.17 117.029 144.17Z" fill="black"/>
<path d="M115.877 131.653C115.877 131.653 109.315 132.647 109.948 136.646C110.581 140.646 123.728 139.995 122.87 135.588C122.211 132.697 118.182 133.398 117.898 133.288L115.877 131.653Z" fill="#FFAAC3"/>
<path d="M115.955 139.589C118.424 139.589 120.939 138.978 122.22 137.891C122.998 137.231 123.319 136.416 123.147 135.534C122.955 134.545 122.238 133.798 121.073 133.375C118.877 132.576 115.472 133.069 114.578 133.792C114.52 133.839 114.484 133.908 114.476 133.982C114.468 134.056 114.49 134.13 114.537 134.188C114.584 134.247 114.652 134.284 114.726 134.292C114.801 134.299 114.875 134.278 114.933 134.231C115.632 133.666 118.826 133.158 120.88 133.905C121.862 134.263 122.438 134.847 122.593 135.642C122.725 136.321 122.477 136.934 121.855 137.462C120.006 139.031 115.14 139.525 112.214 138.44C111.392 138.136 110.381 137.57 110.227 136.603C110.094 135.586 110.401 134.663 111.141 133.869C112.352 132.57 114.431 131.963 115.469 132.024C115.506 132.026 115.543 132.021 115.578 132.009C115.613 131.997 115.645 131.978 115.673 131.954C115.701 131.929 115.723 131.899 115.74 131.866C115.756 131.833 115.765 131.796 115.768 131.759C115.77 131.722 115.765 131.685 115.753 131.65C115.741 131.615 115.722 131.583 115.697 131.555C115.672 131.528 115.643 131.505 115.609 131.489C115.576 131.473 115.54 131.463 115.503 131.461C114.4 131.396 112.118 131.993 110.729 133.484C109.88 134.395 109.514 135.501 109.668 136.684C109.824 137.67 110.636 138.458 112.017 138.969C113.157 139.391 114.549 139.589 115.955 139.589Z" fill="black"/>
<path d="M222.191 105.124L221.222 113.632C221.222 113.632 214.347 117.122 211.175 111.562L211.908 103.67" fill="#FFAAC3"/>
<path d="M230.183 128.13L221.924 164.684C221.901 164.805 221.832 164.911 221.731 164.98C221.63 165.049 221.506 165.076 221.386 165.054L196.043 159.32C195.924 159.288 195.824 159.211 195.763 159.105C195.702 158.999 195.685 158.874 195.716 158.756L203.975 122.202C203.998 122.082 204.067 121.975 204.167 121.906C204.268 121.837 204.392 121.81 204.512 121.833L229.857 127.566C229.975 127.598 230.075 127.675 230.136 127.781C230.197 127.887 230.214 128.012 230.183 128.13Z" fill="#6F5490"/>
<path d="M221.469 165.344C221.643 165.344 221.811 165.283 221.944 165.172C222.078 165.061 222.169 164.907 222.201 164.737L230.457 128.197C230.506 128.008 230.478 127.807 230.379 127.638C230.28 127.469 230.119 127.345 229.93 127.294L229.919 127.291L204.575 121.557C204.571 121.557 204.568 121.556 204.564 121.555C204.37 121.52 204.17 121.563 204.008 121.674C203.846 121.786 203.734 121.957 203.698 122.15L195.441 158.694C195.393 158.883 195.422 159.083 195.521 159.252C195.62 159.42 195.781 159.543 195.969 159.593L195.981 159.596L221.324 165.329C221.327 165.33 221.331 165.331 221.335 165.332C221.379 165.34 221.424 165.344 221.469 165.344ZM229.788 127.84C229.832 127.853 229.87 127.883 229.893 127.924C229.916 127.965 229.922 128.013 229.91 128.058L229.908 128.069L221.648 164.623C221.641 164.67 221.615 164.714 221.577 164.743C221.538 164.772 221.489 164.784 221.441 164.778L196.112 159.047C196.067 159.033 196.029 159.003 196.006 158.962C195.983 158.921 195.977 158.873 195.989 158.828L204.251 122.264C204.258 122.216 204.283 122.173 204.322 122.144C204.361 122.115 204.409 122.102 204.457 122.109L229.788 127.84Z" fill="black"/>
<path d="M233.765 129.385L225.822 165.008C225.783 165.184 225.71 165.351 225.606 165.498C225.503 165.645 225.371 165.771 225.219 165.868C225.067 165.964 224.898 166.03 224.72 166.061C224.543 166.092 224.361 166.088 224.185 166.049L221.392 165.427C221.037 165.348 220.729 165.131 220.534 164.824C220.339 164.517 220.274 164.145 220.354 163.791L228.296 128.166C228.375 127.811 228.592 127.502 228.899 127.307C229.206 127.112 229.578 127.047 229.933 127.126L232.725 127.748C233.08 127.828 233.389 128.045 233.584 128.351C233.779 128.658 233.844 129.03 233.765 129.385Z" fill="#6F5490"/>
<path d="M224.486 166.364C224.862 166.363 225.226 166.235 225.519 165.999C225.812 165.764 226.016 165.436 226.097 165.07L234.04 129.446C234.135 129.018 234.056 128.57 233.821 128.2C233.586 127.83 233.213 127.569 232.786 127.473L229.993 126.85C229.565 126.756 229.116 126.835 228.747 127.07C228.377 127.305 228.115 127.677 228.019 128.105L220.077 163.73C219.982 164.157 220.061 164.605 220.296 164.975C220.531 165.345 220.903 165.607 221.33 165.703L224.124 166.325C224.243 166.351 224.364 166.364 224.486 166.364ZM229.635 127.375C229.714 127.375 229.793 127.384 229.871 127.401L232.663 128.024C232.945 128.087 233.19 128.259 233.345 128.503C233.5 128.746 233.551 129.041 233.489 129.323L225.546 164.947C225.483 165.229 225.311 165.474 225.067 165.629C224.824 165.784 224.528 165.836 224.246 165.774L221.453 165.152C221.172 165.089 220.927 164.916 220.772 164.673C220.617 164.429 220.566 164.134 220.628 163.852L228.571 128.228C228.625 127.986 228.76 127.77 228.953 127.615C229.146 127.46 229.387 127.375 229.635 127.375Z" fill="black"/>
<path d="M193.831 143.639C193.831 143.639 191.671 143.687 190.755 145.804C189.855 147.882 192.008 149.044 192.349 149.364C192.349 149.364 188.934 151.755 192.294 154.671C192.294 154.671 191.405 159.63 200.637 161.348C209.87 163.067 214.103 164.237 218.346 160.671C222.59 157.105 215.871 146.883 205.242 143.173C197.405 140.437 194.817 141.797 193.831 143.639Z" fill="#FFAAC3"/>
<path d="M200.983 147.497C201.053 147.497 201.121 147.496 201.19 147.494C201.227 147.494 201.263 147.485 201.297 147.471C201.331 147.456 201.362 147.434 201.388 147.407C201.413 147.381 201.433 147.349 201.447 147.314C201.46 147.28 201.467 147.243 201.466 147.206C201.465 147.169 201.457 147.132 201.442 147.099C201.427 147.065 201.405 147.034 201.379 147.008C201.352 146.983 201.32 146.963 201.286 146.949C201.251 146.936 201.214 146.929 201.177 146.93C201.109 146.932 201.041 146.933 200.973 146.933C198.184 146.933 195.186 145.681 194.313 144.519C194.099 144.233 194.027 143.972 194.099 143.741C194.111 143.706 194.116 143.668 194.113 143.63C194.111 143.593 194.101 143.556 194.084 143.523C194.067 143.489 194.043 143.459 194.014 143.435C193.986 143.41 193.952 143.392 193.916 143.381C193.881 143.369 193.843 143.365 193.805 143.369C193.768 143.372 193.731 143.383 193.698 143.401C193.665 143.419 193.636 143.443 193.612 143.473C193.588 143.502 193.571 143.536 193.56 143.572C193.47 143.856 193.45 144.31 193.861 144.858C194.936 146.289 198.222 147.497 200.983 147.497ZM198.294 151.488C198.365 151.488 198.434 151.461 198.487 151.412C198.539 151.363 198.571 151.296 198.575 151.225C198.58 151.153 198.557 151.083 198.512 151.027C198.466 150.972 198.401 150.936 198.33 150.927C194.073 150.368 192.618 149.194 192.603 149.182C192.575 149.158 192.542 149.14 192.507 149.129C192.472 149.118 192.435 149.114 192.398 149.117C192.361 149.12 192.325 149.13 192.292 149.147C192.259 149.164 192.23 149.188 192.206 149.216C192.182 149.244 192.164 149.277 192.153 149.312C192.141 149.348 192.137 149.385 192.14 149.422C192.143 149.459 192.154 149.495 192.171 149.528C192.188 149.56 192.211 149.59 192.24 149.614C192.301 149.666 193.803 150.901 198.257 151.487C198.269 151.488 198.281 151.489 198.294 151.488ZM197.979 156.96C198.051 156.959 198.119 156.932 198.171 156.883C198.224 156.834 198.255 156.768 198.26 156.696C198.265 156.625 198.242 156.555 198.197 156.499C198.152 156.444 198.087 156.408 198.017 156.398C195.526 156.061 192.492 154.476 192.462 154.46C192.43 154.442 192.393 154.43 192.356 154.426C192.319 154.423 192.281 154.426 192.245 154.437C192.209 154.448 192.176 154.465 192.147 154.489C192.118 154.513 192.094 154.542 192.077 154.576C192.059 154.609 192.048 154.645 192.045 154.682C192.042 154.72 192.046 154.757 192.058 154.793C192.069 154.829 192.087 154.862 192.112 154.89C192.136 154.919 192.166 154.942 192.199 154.959C192.327 155.027 195.35 156.607 197.941 156.957C197.954 156.959 197.966 156.96 197.979 156.96Z" fill="black"/>
<path d="M211.751 163.28C214.369 163.28 216.441 162.64 218.528 160.887C219.703 159.899 220.146 158.402 219.807 156.559C218.978 152.042 213.338 145.7 205.335 142.907C198.966 140.684 195.143 140.834 193.659 143.369C193.105 143.427 191.331 143.761 190.495 145.692C189.655 147.633 191.219 148.868 191.893 149.369C191.435 149.775 190.598 150.674 190.535 151.882C190.483 152.885 190.975 153.861 191.997 154.785C191.965 155.188 191.974 156.281 192.765 157.517C194.046 159.516 196.677 160.898 200.585 161.626C201.303 161.759 201.992 161.889 202.651 162.014C206.445 162.733 209.331 163.28 211.751 163.28ZM198.05 141.901C199.853 141.901 202.213 142.414 205.15 143.439C212.958 146.165 218.452 152.302 219.253 156.661C219.552 158.293 219.176 159.605 218.165 160.455C216.204 162.103 214.225 162.709 211.714 162.709C209.346 162.709 206.505 162.17 202.756 161.46C202.096 161.335 201.407 161.205 200.69 161.071C196.052 160.207 194.093 158.517 193.265 157.25C192.383 155.9 192.57 154.731 192.572 154.719C192.58 154.671 192.576 154.622 192.56 154.576C192.543 154.53 192.516 154.489 192.479 154.457C191.521 153.626 191.057 152.77 191.1 151.914C191.168 150.556 192.498 149.604 192.511 149.595C192.545 149.571 192.573 149.539 192.594 149.503C192.615 149.466 192.627 149.426 192.63 149.384C192.633 149.342 192.627 149.3 192.611 149.261C192.596 149.222 192.572 149.187 192.542 149.159C192.461 149.088 192.377 149.022 192.289 148.96C191.652 148.488 190.325 147.506 191.014 145.916C191.848 143.987 193.817 143.922 193.837 143.921C193.887 143.92 193.936 143.906 193.979 143.879C194.021 143.853 194.056 143.816 194.08 143.772C194.748 142.525 196.061 141.901 198.05 141.901ZM216.66 114.995C216.906 114.995 217.157 114.984 217.413 114.963C218.778 114.835 220.111 114.47 221.351 113.883C221.393 113.862 221.428 113.831 221.455 113.792C221.482 113.754 221.498 113.71 221.504 113.663L222.473 105.156C222.481 105.081 222.46 105.007 222.413 104.948C222.367 104.89 222.299 104.852 222.224 104.844C222.15 104.835 222.075 104.856 222.017 104.903C221.958 104.95 221.92 105.018 221.912 105.092L220.961 113.443C219.817 113.958 218.598 114.281 217.35 114.401C214.702 114.619 212.721 113.642 211.466 111.498L212.19 103.696C212.194 103.659 212.191 103.621 212.18 103.585C212.169 103.549 212.152 103.516 212.128 103.487C212.104 103.458 212.075 103.434 212.042 103.416C212.009 103.399 211.973 103.388 211.936 103.385C211.898 103.381 211.861 103.385 211.825 103.396C211.789 103.407 211.756 103.426 211.728 103.45C211.699 103.474 211.675 103.503 211.658 103.537C211.641 103.57 211.631 103.606 211.628 103.644L210.895 111.536C210.89 111.593 210.902 111.651 210.931 111.701C212.166 113.866 214.137 114.995 216.66 114.995ZM213.729 82.9105C213.775 82.9105 213.82 82.8995 213.86 82.8784C213.9 82.8574 213.935 82.8269 213.961 82.7895C213.987 82.7522 214.004 82.7091 214.009 82.664C214.015 82.6189 214.01 82.573 213.994 82.5304C213.589 81.455 213.362 80.321 213.321 79.1726C213.321 79.0978 213.292 79.0258 213.24 78.9725C213.187 78.9191 213.116 78.8888 213.041 78.8882C212.966 78.8876 212.894 78.9167 212.841 78.9691C212.787 79.0216 212.757 79.0931 212.756 79.1679C212.793 80.3851 213.032 81.5877 213.465 82.7263C213.485 82.7803 213.521 82.827 213.568 82.8599C213.615 82.8929 213.672 82.9105 213.729 82.9105Z" fill="black"/>
<path d="M223.6 104.105C223.6 104.105 219.628 108.817 212.326 107.514C205.525 106.3 202.493 100.884 203.511 94.9729C203.511 94.9729 200.05 91.8086 201.081 89.9871C202.112 88.1656 204.72 91.5288 204.72 91.5288C204.72 91.5288 206.677 83.4013 213.579 82.2061C213.579 82.2061 218.952 96.0083 226.144 95.642C226.144 95.642 228.73 93.1336 233.244 94.9149C237.758 96.6963 237.533 103.711 233.475 105.694C227.428 108.648 223.6 104.105 223.6 104.105Z" fill="#FFAAC3"/>
<path d="M225 102.048C225.045 102.048 225.09 102.037 225.131 102.015C225.171 101.994 225.206 101.963 225.232 101.926C225.26 101.887 227.467 98.8025 233.066 97.7717C233.139 97.7578 233.204 97.7155 233.246 97.654C233.289 97.5924 233.305 97.5167 233.291 97.4433C233.278 97.37 233.236 97.3049 233.174 97.2625C233.113 97.2201 233.037 97.2036 232.964 97.2169C227.112 98.2943 224.861 101.471 224.768 101.605C224.739 101.648 224.721 101.697 224.718 101.748C224.715 101.8 224.726 101.851 224.75 101.896C224.774 101.942 224.81 101.98 224.854 102.007C224.898 102.033 224.948 102.048 225 102.048H225Z" fill="black"/>
<path d="M229.035 102.383C229.109 102.383 229.181 102.354 229.234 102.302C229.286 102.249 229.316 102.178 229.317 102.104C229.335 100.497 227.316 99.6258 227.23 99.5896C227.162 99.5639 227.086 99.5656 227.019 99.5943C226.952 99.623 226.899 99.6765 226.871 99.7435C226.842 99.8106 226.841 99.886 226.867 99.9541C226.893 100.022 226.944 100.077 227.01 100.109C227.032 100.118 228.766 100.871 228.753 102.098C228.752 102.172 228.781 102.245 228.833 102.298C228.886 102.351 228.957 102.382 229.032 102.383L229.035 102.383ZM204.607 100.613C205.606 100.613 207.242 100.277 208.316 98.3283C208.334 98.2958 208.346 98.2601 208.35 98.2231C208.354 98.1861 208.351 98.1486 208.341 98.1128C208.331 98.077 208.314 98.0435 208.29 98.0144C208.267 97.9852 208.238 97.961 208.206 97.943C208.173 97.925 208.137 97.9137 208.1 97.9097C208.063 97.9056 208.026 97.9089 207.99 97.9194C207.954 97.93 207.921 97.9474 207.892 97.9709C207.863 97.9943 207.839 98.0233 207.821 98.056C206.409 100.617 203.982 100.003 203.879 99.9751C203.807 99.9555 203.73 99.9654 203.665 100.003C203.6 100.04 203.552 100.101 203.533 100.173C203.513 100.246 203.523 100.323 203.56 100.388C203.597 100.453 203.659 100.5 203.731 100.52C204.018 100.585 204.312 100.616 204.607 100.613ZM209.369 91.1475C209.397 91.0174 209.386 90.882 209.337 90.7583C209.288 90.6346 209.203 90.5282 209.094 90.4525C208.984 90.3768 208.855 90.3353 208.722 90.3331C208.588 90.3309 208.458 90.3682 208.346 90.4403C208.234 90.5124 208.146 90.616 208.093 90.738C208.04 90.86 208.024 90.995 208.048 91.126C208.072 91.2569 208.134 91.3778 208.226 91.4735C208.319 91.5693 208.437 91.6354 208.567 91.6637C208.654 91.6824 208.743 91.6839 208.83 91.6681C208.918 91.6523 209.001 91.6195 209.075 91.5716C209.15 91.5236 209.214 91.4615 209.264 91.3887C209.315 91.316 209.35 91.234 209.369 91.1475Z" fill="black"/>
<path d="M218.744 101.259C218.914 100.469 218.847 99.647 218.549 98.8959C218.252 98.1448 217.738 97.4987 217.073 97.0393C216.409 96.5799 215.622 96.3278 214.814 96.315C214.006 96.3021 213.212 96.5291 212.533 96.9671C211.854 97.4052 211.32 98.0347 210.999 98.776C210.678 99.5173 210.584 100.337 210.729 101.132C210.874 101.927 211.251 102.66 211.814 103.241C212.376 103.821 213.098 104.222 213.888 104.392C214.947 104.62 216.054 104.418 216.965 103.831C217.876 103.243 218.516 102.318 218.744 101.259Z" fill="#FF6996"/>
<path d="M214.82 108.021C216.915 108.032 218.981 107.526 220.834 106.547C221.853 106.014 222.785 105.33 223.601 104.519C224.34 105.25 225.205 105.841 226.154 106.265C227.772 106.989 230.376 107.521 233.599 105.947C235.677 104.932 236.954 102.577 236.851 99.9488C236.753 97.4594 235.443 95.4796 233.348 94.6527C229.11 92.9806 226.524 94.9377 226.03 95.3644C219.168 95.5847 213.894 82.2393 213.842 82.1039C213.818 82.0432 213.774 81.9926 213.718 81.9605C213.661 81.9285 213.595 81.9171 213.531 81.9282C210.626 82.4311 208.133 84.2427 206.321 87.1671C205.593 88.3483 205.013 89.6146 204.595 90.9376C204.009 90.2726 202.822 89.0955 201.824 89.1676C201.537 89.1882 201.133 89.3231 200.835 89.8482C199.807 91.6648 202.592 94.4857 203.207 95.0752C202.727 98.0562 203.273 100.922 204.75 103.16C206.359 105.598 208.961 107.2 212.276 107.791C213.116 107.943 213.967 108.02 214.82 108.021ZM223.384 103.923C223.366 103.945 222.381 105.089 220.546 106.061C218.85 106.96 216.056 107.893 212.375 107.236C206.171 106.129 202.721 101.22 203.789 95.0209C203.797 94.9743 203.793 94.9264 203.778 94.8817C203.762 94.837 203.736 94.7969 203.701 94.7649C202.785 93.9265 200.572 91.4589 201.326 90.1261C201.515 89.7924 201.724 89.7404 201.864 89.7303C202.72 89.6684 204.055 91.1324 204.497 91.7016C204.529 91.7436 204.573 91.7755 204.623 91.7937C204.673 91.812 204.727 91.8157 204.779 91.8045C204.831 91.7934 204.879 91.7678 204.917 91.7307C204.955 91.6936 204.982 91.6465 204.994 91.5949C205.399 90.1342 206.011 88.7387 206.809 87.4503C208.511 84.7114 210.729 83.0555 213.404 82.5256C214.377 84.8565 215.556 87.0958 216.929 89.2166C219.864 93.6736 222.866 95.9314 225.856 95.9317C225.957 95.9317 226.058 95.9291 226.158 95.9239C226.227 95.9205 226.291 95.8924 226.34 95.8449C226.441 95.7484 228.863 93.4897 233.14 95.1778C235.022 95.9201 236.198 97.7121 236.287 99.9712C236.381 102.376 235.229 104.523 233.351 105.441C227.569 108.266 223.853 103.968 223.816 103.924C223.788 103.894 223.755 103.87 223.718 103.853C223.681 103.837 223.641 103.829 223.6 103.829C223.559 103.829 223.519 103.837 223.482 103.853C223.445 103.87 223.411 103.894 223.384 103.924L223.384 103.923Z" fill="black"/>
<path d="M261.904 265.503C261.904 265.503 275.668 270.166 279.534 286.257L236.818 322.532C236.818 322.532 220.256 320.495 227.76 299.8C232.488 286.763 247.633 286 252.338 282.78C254.849 281.061 261.564 269.518 261.904 265.503Z" fill="white"/>
<path d="M277.626 280.657C277.626 280.657 279.159 283.166 279.534 286.257L236.818 322.532C236.818 322.532 233.951 322.072 230.963 320.014L277.626 280.657Z" fill="#FF6996"/>
<path d="M247.993 313.006C248.047 313.006 248.1 312.991 248.145 312.962C248.19 312.933 248.227 312.892 248.249 312.843C248.272 312.794 248.28 312.74 248.273 312.687C248.266 312.633 248.243 312.583 248.209 312.542L244.736 308.429C244.712 308.4 244.683 308.376 244.65 308.358C244.617 308.341 244.581 308.33 244.544 308.326C244.506 308.323 244.469 308.327 244.433 308.338C244.397 308.349 244.364 308.368 244.336 308.392C244.307 308.416 244.284 308.445 244.267 308.479C244.249 308.512 244.239 308.548 244.236 308.586C244.233 308.623 244.238 308.66 244.25 308.696C244.262 308.731 244.28 308.764 244.305 308.792L247.777 312.906C247.804 312.937 247.837 312.963 247.874 312.98C247.912 312.997 247.952 313.006 247.993 313.006ZM241.9 318.114C241.954 318.114 242.006 318.099 242.052 318.07C242.097 318.041 242.133 317.999 242.156 317.951C242.178 317.902 242.187 317.848 242.179 317.794C242.172 317.741 242.15 317.691 242.115 317.65L238.643 313.537C238.595 313.48 238.525 313.444 238.451 313.437C238.376 313.431 238.302 313.455 238.245 313.503C238.188 313.551 238.152 313.62 238.146 313.695C238.139 313.769 238.163 313.843 238.211 313.9L241.684 318.014C241.711 318.045 241.744 318.07 241.781 318.088C241.818 318.105 241.859 318.114 241.9 318.114Z" fill="black"/>
<path d="M236.818 322.814C236.885 322.814 236.95 322.79 237.001 322.747L279.717 286.472C279.757 286.438 279.786 286.394 279.802 286.345C279.819 286.295 279.821 286.242 279.809 286.191C277.793 277.802 273.061 272.553 269.447 269.627C265.528 266.455 262.137 265.285 261.995 265.237C261.954 265.223 261.911 265.219 261.868 265.224C261.826 265.229 261.785 265.244 261.749 265.268C261.714 265.291 261.684 265.323 261.662 265.359C261.64 265.396 261.626 265.437 261.623 265.48C261.295 269.35 254.646 280.859 252.178 282.548C250.919 283.41 248.845 284.107 246.445 284.914C239.914 287.11 230.971 290.118 227.495 299.704C224.888 306.893 224.865 312.654 227.428 316.828C230.601 321.997 236.533 322.782 236.784 322.813C236.795 322.814 236.807 322.814 236.818 322.814ZM279.219 286.155L236.733 322.234C235.88 322.095 230.692 321.072 227.905 316.527C225.441 312.507 225.481 306.912 228.025 299.896C231.409 290.566 240.203 287.609 246.624 285.449C249.065 284.628 251.173 283.919 252.497 283.013C255.026 281.282 261.459 270.263 262.14 265.894C263.086 266.268 265.956 267.523 269.11 270.08C272.625 272.931 277.22 278.028 279.219 286.155Z" fill="black"/>
<path d="M230.962 320.297C231.029 320.297 231.094 320.273 231.144 320.23L277.808 280.873C277.865 280.825 277.901 280.756 277.907 280.681C277.914 280.606 277.89 280.532 277.842 280.475C277.793 280.418 277.724 280.382 277.65 280.376C277.575 280.37 277.501 280.393 277.444 280.442L230.78 319.799C230.736 319.836 230.704 319.886 230.69 319.942C230.675 319.998 230.677 320.057 230.697 320.111C230.717 320.166 230.753 320.213 230.801 320.246C230.848 320.279 230.905 320.297 230.962 320.297Z" fill="black"/>
<path d="M249.685 311.548C249.739 311.548 249.792 311.532 249.837 311.503C249.882 311.474 249.919 311.433 249.941 311.384C249.964 311.335 249.972 311.281 249.965 311.228C249.958 311.175 249.936 311.125 249.901 311.083L246.428 306.97C246.405 306.941 246.375 306.917 246.342 306.9C246.309 306.882 246.273 306.872 246.236 306.868C246.198 306.865 246.161 306.869 246.125 306.88C246.089 306.891 246.056 306.909 246.028 306.933C245.999 306.957 245.976 306.987 245.959 307.02C245.942 307.054 245.931 307.09 245.928 307.127C245.925 307.165 245.93 307.202 245.942 307.238C245.954 307.273 245.972 307.306 245.997 307.334L249.469 311.447C249.496 311.479 249.529 311.504 249.566 311.521C249.604 311.539 249.644 311.548 249.685 311.548ZM238.712 296.634C238.769 296.634 238.824 296.617 238.871 296.585C238.918 296.553 238.954 296.508 238.975 296.456C238.996 296.404 239 296.346 238.988 296.291C238.976 296.236 238.948 296.186 238.907 296.147C236.081 293.473 229.697 295.924 229.427 296.029C229.357 296.057 229.301 296.111 229.271 296.179C229.241 296.248 229.24 296.325 229.267 296.395C229.294 296.465 229.348 296.521 229.416 296.551C229.485 296.581 229.563 296.582 229.632 296.555C229.695 296.53 235.952 294.127 238.518 296.556C238.571 296.606 238.64 296.634 238.712 296.634ZM236.734 301.202C236.791 301.203 236.846 301.186 236.893 301.154C236.939 301.122 236.976 301.077 236.996 301.025C237.017 300.972 237.022 300.915 237.01 300.86C236.998 300.805 236.969 300.754 236.928 300.716C234.102 298.041 227.719 300.493 227.449 300.598C227.38 300.626 227.325 300.68 227.296 300.748C227.267 300.816 227.266 300.893 227.293 300.962C227.32 301.031 227.373 301.087 227.44 301.117C227.508 301.147 227.585 301.15 227.654 301.124C227.717 301.099 233.974 298.696 236.54 301.125C236.593 301.175 236.662 301.203 236.734 301.202ZM235.446 306.114C235.503 306.114 235.558 306.097 235.605 306.065C235.651 306.033 235.687 305.988 235.708 305.936C235.729 305.884 235.734 305.826 235.722 305.771C235.71 305.716 235.681 305.666 235.64 305.627C232.814 302.953 226.431 305.404 226.161 305.509C226.091 305.537 226.035 305.591 226.005 305.659C225.975 305.728 225.973 305.805 226.001 305.875C226.028 305.945 226.082 306.001 226.15 306.031C226.219 306.061 226.297 306.062 226.366 306.035C226.429 306.01 232.686 303.608 235.252 306.037C235.305 306.086 235.374 306.114 235.446 306.114ZM269.292 295.011C269.346 295.011 269.398 294.995 269.444 294.966C269.489 294.937 269.525 294.896 269.548 294.847C269.57 294.798 269.579 294.744 269.571 294.691C269.564 294.638 269.542 294.588 269.507 294.546L266.035 290.433C265.986 290.376 265.917 290.34 265.843 290.334C265.768 290.328 265.694 290.351 265.637 290.4C265.58 290.448 265.544 290.517 265.538 290.592C265.532 290.666 265.555 290.74 265.603 290.797L269.076 294.911C269.103 294.942 269.136 294.967 269.173 294.985C269.21 295.002 269.251 295.011 269.292 295.011ZM262.314 301.202C262.368 301.202 262.42 301.187 262.466 301.158C262.511 301.129 262.547 301.088 262.57 301.039C262.592 300.99 262.601 300.936 262.593 300.883C262.586 300.83 262.564 300.78 262.529 300.739L259.057 296.625C259.009 296.568 258.94 296.532 258.865 296.526C258.79 296.52 258.716 296.543 258.659 296.592C258.602 296.64 258.566 296.709 258.56 296.783C258.554 296.858 258.577 296.932 258.625 296.989L262.098 301.102C262.125 301.134 262.158 301.159 262.195 301.176C262.232 301.194 262.273 301.203 262.314 301.202ZM274.861 290.311C274.915 290.311 274.967 290.296 275.013 290.267C275.058 290.238 275.094 290.197 275.117 290.148C275.14 290.099 275.148 290.045 275.141 289.992C275.133 289.938 275.111 289.888 275.076 289.847L271.604 285.734C271.555 285.678 271.487 285.643 271.413 285.638C271.339 285.632 271.266 285.656 271.209 285.703C271.152 285.751 271.117 285.819 271.11 285.893C271.103 285.967 271.126 286.04 271.173 286.098L274.645 290.211C274.672 290.242 274.705 290.268 274.742 290.285C274.779 290.302 274.82 290.311 274.861 290.311ZM278.002 287.71C278.056 287.71 278.109 287.694 278.154 287.665C278.199 287.636 278.235 287.595 278.258 287.546C278.281 287.498 278.289 287.443 278.282 287.39C278.275 287.337 278.252 287.287 278.218 287.246L274.745 283.132C274.697 283.075 274.628 283.04 274.553 283.033C274.479 283.027 274.405 283.05 274.347 283.099C274.29 283.147 274.254 283.216 274.248 283.291C274.242 283.365 274.265 283.439 274.314 283.496L277.786 287.609C277.813 287.641 277.846 287.666 277.883 287.683C277.92 287.701 277.961 287.71 278.002 287.71ZM260.578 302.36C260.631 302.36 260.684 302.345 260.729 302.316C260.775 302.287 260.811 302.246 260.833 302.197C260.856 302.148 260.864 302.094 260.857 302.041C260.85 301.988 260.828 301.937 260.793 301.896L257.32 297.783C257.297 297.755 257.267 297.732 257.234 297.714C257.201 297.697 257.166 297.687 257.129 297.684C257.092 297.681 257.054 297.685 257.019 297.696C256.984 297.708 256.951 297.726 256.923 297.75C256.894 297.773 256.871 297.803 256.854 297.836C256.837 297.868 256.827 297.904 256.824 297.941C256.82 297.978 256.825 298.015 256.836 298.051C256.847 298.086 256.865 298.119 256.889 298.147L260.362 302.26C260.388 302.292 260.421 302.317 260.459 302.334C260.496 302.351 260.536 302.36 260.578 302.36ZM254.042 307.873C254.096 307.873 254.148 307.857 254.194 307.828C254.239 307.799 254.275 307.758 254.298 307.709C254.321 307.661 254.329 307.606 254.322 307.553C254.315 307.5 254.292 307.45 254.258 307.409L250.785 303.295C250.737 303.238 250.668 303.203 250.593 303.196C250.518 303.19 250.444 303.214 250.387 303.262C250.33 303.31 250.294 303.379 250.288 303.454C250.282 303.528 250.305 303.602 250.354 303.659L253.826 307.772C253.853 307.804 253.886 307.829 253.923 307.846C253.96 307.864 254.001 307.873 254.042 307.873ZM238.792 320.735C238.846 320.735 238.899 320.719 238.944 320.69C238.989 320.662 239.025 320.62 239.048 320.572C239.071 320.523 239.079 320.469 239.072 320.415C239.065 320.362 239.043 320.312 239.008 320.271L235.535 316.158C235.487 316.1 235.418 316.065 235.343 316.058C235.269 316.052 235.195 316.076 235.137 316.124C235.08 316.172 235.045 316.241 235.038 316.316C235.032 316.39 235.056 316.464 235.104 316.521L238.577 320.635C238.603 320.666 238.636 320.691 238.674 320.708C238.711 320.726 238.751 320.735 238.792 320.735Z" fill="black"/>
<path d="M249.138 167.853C247.574 169.435 238.898 172.882 231.36 170.067C227.446 168.244 218.998 169.552 214.75 169.473C208.037 169.347 204.593 165.413 204.188 161.164C203.83 157.413 207.243 154.461 207.243 154.461C207.692 153.635 207.441 149.585 208.948 148.087C214.028 143.261 221.68 147.006 225.375 148.245C229.07 149.484 233.35 147.252 240.643 150.303C249.363 153.951 253.346 164.537 249.138 167.853Z" fill="#92ACEF"/>
<path d="M238.198 171.348C242.096 171.348 245.684 170.274 249.284 168.094C249.317 168.075 249.345 168.05 249.367 168.02C249.389 167.99 249.405 167.956 249.414 167.92C249.423 167.884 249.425 167.846 249.42 167.809C249.414 167.772 249.401 167.737 249.382 167.705C249.363 167.673 249.337 167.645 249.307 167.623C249.277 167.601 249.243 167.585 249.206 167.577C249.17 167.568 249.133 167.567 249.096 167.573C249.059 167.579 249.024 167.592 248.992 167.611C243.202 171.118 237.432 171.687 230.283 169.456C227.538 168.599 223.546 168.851 220.025 169.074C217.993 169.202 216.074 169.323 214.778 169.192C206.771 168.379 204.752 164.364 204.469 161.139C204.144 157.438 207.39 154.705 207.423 154.678C207.451 154.655 207.474 154.627 207.491 154.595C207.663 154.277 207.663 153.79 207.662 153.115C207.661 151.727 207.659 149.825 209.15 148.282C212.723 144.731 219.073 145.855 223.424 147.898C225.427 148.838 228.08 148.917 230.889 149C235.144 149.127 239.966 149.27 243.508 152.518C243.563 152.568 243.636 152.595 243.711 152.592C243.786 152.589 243.856 152.556 243.907 152.501C243.957 152.446 243.984 152.373 243.981 152.298C243.977 152.223 243.945 152.153 243.89 152.102C240.193 148.712 235.259 148.566 230.906 148.436C228.157 148.355 225.561 148.278 223.664 147.387C219.148 145.267 212.531 144.125 208.748 147.886C207.095 149.597 207.097 151.715 207.098 153.116C207.098 153.606 207.099 154.07 207.014 154.284C206.572 154.665 203.574 157.401 203.907 161.188C204.208 164.625 206.33 168.901 214.721 169.752C216.063 169.889 218.004 169.766 220.06 169.636C223.533 169.417 227.469 169.168 230.115 169.993C232.998 170.894 235.663 171.348 238.198 171.348Z" fill="black"/>
<path d="M206.851 158.452C206.906 158.452 206.959 158.436 207.005 158.407C207.051 158.377 207.087 158.335 207.109 158.285C207.309 157.838 207.592 156.183 207.604 154.236C207.604 154.199 207.597 154.163 207.583 154.128C207.569 154.094 207.548 154.063 207.522 154.036C207.496 154.01 207.465 153.989 207.431 153.975C207.397 153.96 207.36 153.953 207.323 153.953H207.321C207.247 153.953 207.175 153.982 207.122 154.035C207.069 154.087 207.039 154.158 207.039 154.233C207.027 156.233 206.738 157.731 206.594 158.055C206.574 158.098 206.566 158.145 206.57 158.192C206.574 158.238 206.589 158.284 206.614 158.323C206.64 158.363 206.675 158.395 206.716 158.418C206.758 158.44 206.804 158.452 206.851 158.452H206.851Z" fill="black"/>
<path d="M249.155 167.842C249.155 167.842 250.53 166.547 250.822 165.611L249.155 167.842Z" fill="#92ACEF"/>
<path d="M249.156 168.124C249.228 168.124 249.297 168.097 249.349 168.047C249.408 167.992 250.782 166.69 251.093 165.695C251.104 165.66 251.108 165.623 251.104 165.586C251.101 165.549 251.09 165.513 251.073 165.48C251.056 165.447 251.033 165.418 251.004 165.395C250.976 165.371 250.943 165.353 250.907 165.342C250.872 165.331 250.835 165.327 250.798 165.33C250.761 165.334 250.725 165.344 250.692 165.361C250.659 165.379 250.63 165.402 250.607 165.43C250.583 165.459 250.565 165.492 250.554 165.527C250.287 166.381 248.975 167.624 248.962 167.637C248.921 167.676 248.892 167.726 248.88 167.781C248.868 167.836 248.873 167.894 248.893 167.946C248.914 167.999 248.951 168.044 248.997 168.076C249.044 168.107 249.099 168.124 249.156 168.124L249.156 168.124Z" fill="black"/>
<path d="M247.693 91.1692C249.36 91.9674 251.226 92.2538 253.055 91.9921C254.885 91.7304 256.595 90.9323 257.971 89.6988C259.347 88.4653 260.325 86.8518 260.784 85.0623C261.242 83.2727 261.159 81.3876 260.545 79.6453C259.931 77.903 258.814 76.3817 257.335 75.2739C255.856 74.166 254.082 73.5213 252.237 73.4214C250.391 73.3215 248.558 73.7707 246.968 74.7123C245.378 75.654 244.103 77.0457 243.305 78.7116C242.774 79.8175 242.467 81.0171 242.401 82.2417C242.334 83.4663 242.51 84.692 242.917 85.8488C243.325 87.0056 243.956 88.0709 244.776 88.9837C245.595 89.8966 246.587 90.6392 247.693 91.1692Z" fill="#FF6996"/>
<path d="M251.68 88.0946C254.592 88.0946 257.981 87.1324 260.879 83.7382C260.908 83.7045 260.928 83.6645 260.938 83.6214C260.949 83.5784 260.949 83.5334 260.939 83.4903C260.929 83.4472 260.908 83.407 260.88 83.3732C260.851 83.3393 260.815 83.3126 260.774 83.2953C260.681 83.256 258.461 82.328 255.101 82.0434C252 81.7809 247.319 82.0503 242.625 84.8258C242.584 84.8501 242.55 84.8843 242.526 84.9253C242.501 84.9663 242.488 85.0128 242.487 85.0604C242.485 85.108 242.496 85.1551 242.518 85.1975C242.539 85.2398 242.572 85.276 242.611 85.3026C244.54 86.5145 246.673 87.3666 248.906 87.8172C249.819 87.9989 250.748 88.0918 251.68 88.0946ZM260.184 83.6748C257.249 86.9301 253.499 88.1387 249.032 87.267C247.022 86.8526 245.092 86.1129 243.32 85.0771C247.74 82.6013 252.109 82.359 255.033 82.6039C256.788 82.7442 258.519 83.104 260.184 83.6748Z" fill="black"/>
<path d="M242.812 85.1603C242.868 85.1602 242.922 85.1439 242.968 85.1132C243.014 85.0826 243.051 85.039 243.072 84.988C243.095 84.9333 245.442 79.4974 250.184 77.7745C252.731 76.8492 255.524 77.1479 258.485 78.6633C258.518 78.6807 258.554 78.6914 258.591 78.6947C258.628 78.6981 258.666 78.694 258.701 78.6828C258.737 78.6715 258.77 78.6533 258.798 78.6292C258.827 78.6051 258.85 78.5756 258.867 78.5424C258.884 78.5091 258.895 78.4729 258.898 78.4357C258.9 78.3984 258.896 78.361 258.884 78.3255C258.873 78.2901 258.854 78.2573 258.83 78.2291C258.805 78.2009 258.775 78.1778 258.742 78.1612C255.635 76.5708 252.689 76.2626 249.987 77.2456C245.013 79.0552 242.65 84.5361 242.552 84.7685C242.534 84.8114 242.527 84.8581 242.531 84.9044C242.535 84.9507 242.551 84.9952 242.577 85.034C242.603 85.0728 242.637 85.1046 242.678 85.1266C242.719 85.1487 242.765 85.1602 242.812 85.1603H242.812Z" fill="black"/>
<path d="M251.716 92.3678C254.084 92.3711 256.369 91.5021 258.136 89.927C259.903 88.3519 261.027 86.1812 261.293 83.8299C261.56 81.4786 260.95 79.1117 259.58 77.1817C258.21 75.2516 256.177 73.894 253.868 73.3682C251.56 72.8424 249.139 73.1854 247.067 74.3316C244.996 75.4779 243.42 77.3469 242.641 79.5813C241.862 81.8158 241.934 84.2589 242.843 86.4437C243.753 88.6284 245.436 90.4014 247.571 91.4237C248.866 92.0428 250.282 92.3653 251.716 92.3678ZM251.739 73.6852C253.099 73.6865 254.442 73.9939 255.667 74.5846C256.893 75.1752 257.969 76.034 258.817 77.0972C259.665 78.1605 260.263 79.4009 260.566 80.7265C260.869 82.052 260.87 83.4288 260.568 84.7547C260.266 86.0805 259.669 87.3214 258.822 88.3854C257.975 89.4493 256.899 90.309 255.674 90.9008C254.449 91.4925 253.107 91.801 251.747 91.8035C250.386 91.8059 249.043 91.5023 247.816 90.915C245.965 90.0251 244.471 88.5336 243.579 86.6845C242.687 84.8355 242.449 82.7385 242.905 80.7369C243.361 78.7353 244.483 76.9477 246.088 75.6666C247.693 74.3855 249.685 73.6869 251.739 73.6852Z" fill="black"/>
<path d="M134.633 136.331C134.746 132.971 129.737 129.751 124.649 128.985C119.561 128.219 116.407 124.83 114.578 126.351C110.283 129.922 119.171 134.752 123.602 136.331C124.297 138.658 126.831 141.289 128.466 141.879" fill="#FFAAC3"/>
<path d="M128.467 142.161C128.533 142.161 128.597 142.137 128.648 142.095C128.699 142.052 128.733 141.993 128.745 141.927C128.756 141.862 128.744 141.794 128.711 141.737C128.677 141.68 128.625 141.636 128.562 141.613C126.997 141.049 124.801 138.531 123.864 136.225C123.849 136.19 123.828 136.158 123.801 136.131C123.775 136.105 123.743 136.084 123.707 136.07C119.248 134.278 114.224 131.202 113.728 128.679C113.596 128.01 113.799 127.427 114.347 126.895C115.529 125.748 116.955 126.393 119.113 127.369C120.574 128.029 122.393 128.852 124.598 129.261C127.376 129.778 133.883 130.987 134.352 136.355C134.355 136.392 134.365 136.428 134.382 136.461C134.399 136.494 134.423 136.524 134.451 136.548C134.479 136.572 134.512 136.59 134.548 136.601C134.583 136.612 134.62 136.616 134.657 136.613C134.694 136.61 134.73 136.599 134.763 136.582C134.796 136.565 134.826 136.541 134.849 136.513C134.873 136.484 134.891 136.452 134.902 136.416C134.913 136.381 134.917 136.343 134.914 136.306C134.408 130.51 127.605 129.246 124.7 128.707C122.563 128.31 120.854 127.537 119.345 126.855C117.147 125.861 115.411 125.076 113.953 126.49C113.267 127.155 113.005 127.928 113.174 128.788C113.785 131.89 119.827 135.102 123.387 136.548C124.415 138.988 126.675 141.532 128.371 142.143C128.402 142.155 128.434 142.16 128.467 142.161Z" fill="black"/>
</g>
<g clip-path="url(#clip2_741_7433)">
<path d="M113.717 118.378L105.793 123.032L123.09 152.441C124.376 154.627 127.195 155.359 129.381 154.074C131.568 152.79 132.299 149.973 131.014 147.787L113.717 118.378L113.717 118.378Z" fill="#92ACEF"/>
<path d="M125.83 154.819L125.83 154.819C127.088 155.146 128.397 154.963 129.517 154.305C130.637 153.648 131.433 152.593 131.76 151.337C132.086 150.08 131.903 148.771 131.245 147.652L113.948 118.243C113.93 118.212 113.906 118.186 113.878 118.165C113.85 118.143 113.818 118.128 113.784 118.119C113.75 118.11 113.715 118.108 113.68 118.113C113.645 118.118 113.612 118.13 113.581 118.147L105.658 122.802C105.627 122.819 105.601 122.843 105.58 122.871C105.558 122.899 105.543 122.931 105.534 122.965C105.525 122.999 105.523 123.034 105.528 123.069C105.533 123.104 105.545 123.137 105.563 123.168L122.859 152.577C123.517 153.696 124.573 154.492 125.83 154.819L125.83 154.819ZM113.622 118.744L130.783 147.923C131.369 148.919 131.532 150.083 131.241 151.202C130.951 152.32 130.242 153.259 129.246 153.844C128.249 154.429 127.084 154.592 125.965 154.301C124.846 154.01 123.907 153.302 123.321 152.306L106.16 123.127L113.622 118.744L113.622 118.744Z" fill="black"/>
<path d="M93.8999 126.106C81.292 122.832 73.724 109.963 76.9962 97.3626C80.2684 84.762 93.1417 77.2013 105.75 80.4753C118.357 83.7494 125.925 96.6184 122.653 109.219C119.381 121.82 106.508 129.38 93.8999 126.106Z" fill="#92ACEF"/>
<path d="M95.0595 121.64C84.9201 119.006 78.8337 108.657 81.4653 98.5234C84.0969 88.3898 94.4498 82.3093 104.589 84.9424C114.729 87.5754 120.815 97.9249 118.183 108.059C115.552 118.192 105.199 124.273 95.0595 121.64Z" fill="#CAD5F3"/>
<path d="M94.9928 121.898C105.259 124.564 115.779 118.386 118.443 108.126C121.108 97.8655 114.923 87.3491 104.657 84.6832C94.3909 82.0172 83.8712 88.1956 81.2067 98.4559C78.5423 108.716 84.7267 119.232 94.9928 121.898L94.9928 121.898ZM104.523 85.2013C114.503 87.7931 120.515 98.0165 117.925 107.991C115.335 117.966 105.108 123.972 95.1273 121.38C85.1469 118.789 79.1348 108.565 81.725 98.5906C84.3153 88.6159 94.5423 82.6095 104.523 85.2012L104.523 85.2013Z" fill="black"/>
<path d="M93.8323 126.366C99.9993 127.967 106.42 127.072 111.913 123.847C117.405 120.621 121.312 115.45 122.912 109.287C124.513 103.123 123.616 96.7049 120.387 91.2143C117.158 85.7237 111.984 81.8178 105.817 80.2164C99.6496 78.6149 93.2285 79.5095 87.7361 82.7353C82.2437 85.961 78.3374 91.132 76.7368 97.2954C75.1363 103.459 76.0331 109.877 79.262 115.368C82.4909 120.858 87.6654 124.764 93.8323 126.365L93.8323 126.366ZM105.682 80.7344C118.127 83.9662 125.624 96.7143 122.394 109.152C119.164 121.59 106.412 129.079 93.9669 125.847C81.522 122.616 74.0252 109.868 77.2551 97.43C80.4849 84.9924 93.2372 77.5027 105.682 80.7344Z" fill="black"/>
<path d="M85.7347 105.42C85.8429 105.448 85.9549 105.459 86.0665 105.453C86.657 105.418 87.1077 104.912 87.0732 104.322C86.8464 100.447 88.4064 96.4093 91.2461 93.5219C93.4934 91.2367 96.2074 89.985 98.6921 90.0875C99.2831 90.1119 99.7819 89.6528 99.8061 89.0622C99.8303 88.4715 99.3706 87.9728 98.7798 87.9484C95.6918 87.8209 92.389 89.3053 89.7183 92.0208C86.4129 95.3817 84.6694 99.9106 84.9347 104.446C84.9626 104.922 85.2969 105.307 85.7347 105.42Z" fill="white"/>
</g>
<g clip-path="url(#clip3_741_7433)">
<path d="M126.287 145.237C126.15 143.422 123.255 142.439 118.984 142.785C114.713 143.13 113.247 144.908 113.412 146.121C113.724 148.428 115.298 149.612 119.569 149.267C123.84 148.921 126.424 147.052 126.287 145.237Z" fill="#FFAAC3"/>
<path d="M126.332 144.668C126.403 144.844 126.445 145.03 126.46 145.223C126.617 147.296 123.66 149.109 119.583 149.438C115.549 149.765 113.593 148.749 113.241 146.145C113.174 145.652 113.352 145.115 113.741 144.634C114.258 143.995 115.625 142.884 118.971 142.613C122.055 142.363 124.503 142.798 125.688 143.806C125.991 144.063 126.206 144.351 126.332 144.668ZM113.834 147.09C114.498 148.755 116.28 149.36 119.556 149.095C121.527 148.936 123.279 148.425 124.489 147.658C125.601 146.952 126.179 146.097 126.115 145.25C126.081 144.805 125.862 144.407 125.463 144.068C124.347 143.119 121.99 142.714 118.998 142.956C115.781 143.216 114.492 144.254 114.01 144.849C113.681 145.256 113.529 145.699 113.583 146.097C113.633 146.462 113.716 146.793 113.834 147.09Z" fill="black"/>
<path d="M125.083 140.393C124.989 138.574 121.444 137.301 117.167 137.547C112.889 137.794 110.572 138.576 110.687 140.941C110.835 143.955 113.232 144.378 117.51 144.131C121.788 143.884 125.179 142.21 125.083 140.393Z" fill="#FFAAC3"/>
<path d="M125.139 139.858C125.207 140.025 125.246 140.203 125.255 140.383C125.305 141.335 124.509 142.267 123.012 143.005C121.561 143.722 119.61 144.182 117.519 144.303C114.737 144.464 112.648 144.359 111.495 143.328C110.887 142.784 110.566 142.006 110.514 140.95C110.455 139.731 111.008 138.863 112.205 138.295C113.241 137.803 114.815 137.511 117.157 137.376C120.309 137.194 123.196 137.834 124.512 139.008C124.81 139.274 125.02 139.558 125.139 139.858ZM111.104 142.167C111.248 142.529 111.455 142.828 111.727 143.071C112.854 144.079 115.168 144.094 117.5 143.959C119.546 143.841 121.45 143.393 122.86 142.697C124.204 142.033 124.952 141.197 124.91 140.402L124.91 140.402C124.889 140.001 124.677 139.618 124.281 139.265C123.029 138.149 120.24 137.542 117.175 137.719C112.531 137.987 110.76 138.888 110.86 140.932C110.883 141.405 110.963 141.815 111.104 142.167Z" fill="black"/>
<path d="M123.422 134.973C123.327 133.155 119.782 131.881 115.505 132.128C114.707 132.174 114.006 132.247 113.394 132.35C110.725 132.797 109.752 133.806 109.855 135.592C110.021 138.429 111.571 138.959 115.849 138.712C120.126 138.465 123.517 136.791 123.422 134.973Z" fill="#FFAAC3"/>
<path d="M123.479 134.439C123.547 134.609 123.585 134.784 123.595 134.963L123.595 134.963C123.644 135.916 122.847 136.847 121.351 137.586C119.9 138.302 117.949 138.763 115.858 138.884C111.734 139.122 109.863 138.704 109.682 135.602C109.569 133.655 110.671 132.631 113.366 132.18C113.983 132.077 114.68 132.003 115.495 131.956C118.647 131.775 121.534 132.415 122.851 133.588C123.149 133.854 123.359 134.139 123.479 134.439ZM123.249 134.983C123.228 134.582 123.016 134.199 122.619 133.846C121.367 132.73 118.578 132.123 115.514 132.3C114.711 132.347 114.027 132.418 113.422 132.52C110.909 132.94 109.926 133.827 110.028 135.581C110.178 138.158 111.427 138.795 115.839 138.54C117.885 138.422 119.789 137.974 121.198 137.278C122.543 136.614 123.29 135.777 123.249 134.983Z" fill="black"/>
</g>
<defs>
<clipPath id="clip0_741_7433">
<rect width="165.958" height="200.772" fill="white" transform="translate(30.541 22.3926)"/>
</clipPath>
<clipPath id="clip1_741_7433">
<rect width="169.929" height="255.528" fill="white" transform="matrix(-1 0 0 1 279.562 67.3464)"/>
</clipPath>
<clipPath id="clip2_741_7433">
<rect width="66.8395" height="67.1775" fill="white" transform="matrix(-0.967897 -0.251348 -0.251348 0.967897 147.423 91.0208)"/>
</clipPath>
<clipPath id="clip3_741_7433">
<rect width="19.1815" height="14.703" fill="white" transform="translate(114.681 152.071) rotate(-111.744)"/>
</clipPath>
</defs>
</svg>
